<svg id="Layer_1" data-name="Layer 1" xmlns="http://www.w3.org/2000/svg" viewBox="0 0 95 84.68"><defs><style>.cls-1{fill:#328bed;}.cls-2{fill:#5facf2;}.cls-3{fill:#f4c99a;}.cls-4{fill:#353434;}.cls-5{fill:#e63a48;}.cls-6{fill:#f4c999;}.cls-7{fill:#2a9d90;}.cls-8{fill:#6d2918;}.cls-9{fill:#fcd600;}.cls-10{fill:#7d3820;}.cls-11{fill:#b45b27;}.cls-12{fill:#fdbe10;}.cls-13{fill:#ffbf00;}.cls-14{fill:#323131;}.cls-15{fill:#ffd800;}.cls-16{fill:#ef9b0f;}</style></defs><rect class="cls-1" x="82.5" y="21.97" width="12.5" height="62.71"/><rect class="cls-1" x="65.45" y="32.1" width="12.55" height="52.57"/><rect class="cls-1" x="48.4" y="42.17" width="12.55" height="42.51"/><rect class="cls-1" x="31.35" y="52.23" width="12.55" height="32.44"/><rect class="cls-1" x="14.3" y="62.3" width="12.55" height="22.38"/><rect class="cls-2" x="80.32" y="21.97" width="12.5" height="62.71"/><rect class="cls-2" x="63.27" y="32.1" width="12.55" height="52.57"/><rect class="cls-2" x="46.22" y="42.17" width="12.55" height="42.51"/><rect class="cls-2" x="29.17" y="52.23" width="12.55" height="32.44"/><rect class="cls-2" x="12.12" y="62.3" width="12.55" height="22.38"/><polygon class="cls-2" points="15.32 45.58 11.48 41.07 44.48 13.06 56.17 24.18 80.61 4.17 84.35 8.75 55.87 32.06 44.25 21.02 15.32 45.58"/><polygon class="cls-1" points="85.36 13.25 90.37 0 76.39 2.29 85.36 13.25"/><rect class="cls-3" x="171.8" y="266.57" width="2.26" height="1.98" transform="translate(-211.95 253.66) rotate(-96.89)"/><path class="cls-4" d="M174.1,269.89h-5.23c-.08,0-.12-.06-.15-.15a.58.58,0,0,1,.5-.72,6.45,6.45,0,0,0,2.52-1.18l.07,0H174a.14.14,0,0,1,.14.12l.17,1.77A.17.17,0,0,1,174.1,269.89Z" transform="translate(-140 -217.66)"/><rect class="cls-3" x="179.19" y="266.57" width="2.26" height="1.98" transform="translate(-227.23 230.21) rotate(-90)"/><path class="cls-4" d="M181.5,269.89h-5.24c-.08,0-.12-.06-.15-.15a.59.59,0,0,1,.5-.72,6.45,6.45,0,0,0,2.52-1.18l.08,0h2.15a.14.14,0,0,1,.13.12l.17,1.77A.16.16,0,0,1,181.5,269.89Z" transform="translate(-140 -217.66)"/><path class="cls-4" d="M175.15,252c-.21.69-.08.57-.42,1-.74.93-3.23,3.82-3.6,4.42a3.87,3.87,0,0,0-.55,1.29c-.11.54,1,7.14,1.14,8.28a2.4,2.4,0,0,1,0,.24l2.24-.09c-.05-.58-.71-7.57-.53-7.9s4.4-3.93,4.39-4l0,5.17c.05.17,1.22,6.75,1.22,6.75h2.53s-.68-7.23-.69-7.52c0-1.41,1.65-7.91-.06-10.1Z" transform="translate(-140 -217.66)"/><path class="cls-3" d="M165,248.73l.49,1.14-.44.29s-1.2,1.46-2.07.11a.67.67,0,0,1,.76-1h0s0,0,0,0l-.41-.31a.17.17,0,0,1,0-.23h0a.17.17,0,0,1,.21,0l.49.25a.47.47,0,0,0,.35,0Z" transform="translate(-140 -217.66)"/><path class="cls-5" d="M164.56,248.87l.72,1.35,4.88-2.92a41,41,0,0,0,2.59-3.58l-1.83-1.88-2,3.86Z" transform="translate(-140 -217.66)"/><path class="cls-5" d="M175,252.2a44.18,44.18,0,0,0-3.19-7.28l-.88-1.46a1.58,1.58,0,0,1,.54-2.17l2.32-1.4a2.53,2.53,0,0,1,3.48.88c1.75,2.94,3.57,8,4,8.59C182.06,250.52,175,252.2,175,252.2Z" transform="translate(-140 -217.66)"/><path class="cls-3" d="M172.34,240.89a2.18,2.18,0,0,1-.13-.2s-.65.25-.73.26-.54-.27-.81-.72a12.51,12.51,0,0,1-.6-1.14,1.59,1.59,0,0,1,.11-1.7,1.72,1.72,0,0,1,2.36-.26,2.11,2.11,0,0,1,.82,1.49,3.06,3.06,0,0,0,.15.9l.26.45a.85.85,0,0,1-.23,1.13h0A.85.85,0,0,1,172.34,240.89Z" transform="translate(-140 -217.66)"/><path class="cls-4" d="M172.62,238.2a2.22,2.22,0,0,0,0,.34,2.61,2.61,0,0,1-.84-1.16c0,.18-1.37.63-1.75.72a.21.21,0,0,0-.16.19,5.09,5.09,0,0,0,.12.66c-.09-.14-.16-.28-.24-.42s-.78-.42-.73-.78c.06-.52,1.76-1.18,2-1.24s1-.17,1.24.1a.72.72,0,0,1,.76.53c.11.23.2.46.3.69a2.84,2.84,0,0,1,.16.7c0,.21,0,.42.07.63,0,0,0,.34,0,.35a2.37,2.37,0,0,1-.24-.23,1.06,1.06,0,0,1-.17-.26.31.31,0,0,1,0-.12c0-.06.06-.08.1-.12a.41.41,0,0,0,.07-.46c-.05-.16-.17-.36-.37-.34a.28.28,0,0,0-.23.2Z" transform="translate(-140 -217.66)"/><path class="cls-6" d="M161,261.18a3.73,3.73,0,0,1,.46-1.47,14.42,14.42,0,0,1,1.82-1.16c.19-.19.38-.27.29,0a3.16,3.16,0,0,1-.55.73,14.82,14.82,0,0,1,2.76.32c.13.19-.24.32-.58.29s-1-.05-1-.05a4.48,4.48,0,0,1-.92.53,5.77,5.77,0,0,1-1,.1l-.27,1Z" transform="translate(-140 -217.66)"/><rect class="cls-6" x="141.17" y="292.54" width="1.77" height="1.55" transform="translate(-238.12 -144.63) rotate(-21.63)"/><path class="cls-4" d="M140,293.14l1.51,3.82a.14.14,0,0,0,.16.07.46.46,0,0,0,.38-.58,7.12,7.12,0,0,1,.36-2.44c-.53-.53-1-.91-.63-1.47,0,0,0,0,0,0l-1.67.47A.13.13,0,0,0,140,293.14Z" transform="translate(-140 -217.66)"/><rect class="cls-6" x="153.21" y="299.65" width="1.77" height="1.55" transform="translate(-272.98 260.5) rotate(-94.61)"/><path class="cls-4" d="M153.32,302.34l4.11-.33c.06,0,.09-.06.1-.13a.46.46,0,0,0-.43-.54,7,7,0,0,1-2.23-1c-.67.35-1.16.64-1.6.17,0,0,0,0,0,0l0,1.73A.14.14,0,0,0,153.32,302.34Z" transform="translate(-140 -217.66)"/><path class="cls-4" d="M152.87,300l2.21-.13s.19-17.21.23-19.5c0-.51,0-.94,0-1.26v-.63h-3.65l-.06,5.17Z" transform="translate(-140 -217.66)"/><path class="cls-4" d="M149.6,291l-6.78,3-.6-1.67,5.81-3.53s.45-7.83.67-8.93c.1-.51.18-.93.25-1.24s.13-.61.13-.61l3.57.74-.11.66-1.48,9.72A2.47,2.47,0,0,1,149.6,291Z" transform="translate(-140 -217.66)"/><path class="cls-7" d="M162.47,260.63l-1.56-.22L159.1,265l-3.4,2.31-.61-.21a9.75,9.75,0,0,0-4.57-.14,3.84,3.84,0,0,0-2.77,2.36l1.81,1.74-1.24,8.83c0,.27,7.2.8,7.19.73,0-.83,1.12-10.73,1.12-10.73.05-.35,4.17-3.52,4.17-3.52Z" transform="translate(-140 -217.66)"/><path class="cls-8" d="M150.31,281.87a2.15,2.15,0,1,1,2.47-1.95A2.23,2.23,0,0,1,150.31,281.87Zm.31-3.84a1.73,1.73,0,1,0,1.76,1.86A1.82,1.82,0,0,0,150.62,278Z" transform="translate(-140 -217.66)"/><rect class="cls-9" x="148.2" y="278.89" width="0.71" height="0.76" transform="translate(-117.38 -228.56) rotate(4.55)"/><rect class="cls-9" x="152.09" y="279.19" width="0.71" height="0.76" transform="translate(-117.35 -228.87) rotate(4.55)"/><rect class="cls-10" x="146.89" y="279.7" width="6.82" height="4.51" rx="0.71" transform="translate(-117.15 -228.7) rotate(4.55)"/><path class="cls-8" d="M153.73,281.54A14.53,14.53,0,0,1,147,281a.24.24,0,0,1-.17-.24l.13-1.58,7.11.56-.13,1.58A.24.24,0,0,1,153.73,281.54Z" transform="translate(-140 -217.66)"/><path class="cls-11" d="M153.74,281.38a14.54,14.54,0,0,1-6.74-.54.24.24,0,0,1-.16-.25L147,279l7.11.57-.13,1.58A.23.23,0,0,1,153.74,281.38Z" transform="translate(-140 -217.66)"/><rect class="cls-12" x="149.81" y="280.88" width="1.05" height="1.35" rx="0.26" transform="translate(-117.18 -228.71) rotate(4.55)"/><rect class="cls-9" x="149.8" y="281.15" width="1.08" height="0.79" transform="translate(302.93 -63.64) rotate(94.55)"/><path class="cls-6" d="M150.32,276.52l-1.08.55.16.5s0,1.84,1.48,1.37a.66.66,0,0,0,.06-1.23h0a0,0,0,1,1,0,0l.51,0a.16.16,0,0,0,.17-.14h0a.17.17,0,0,0-.13-.17l-.52-.12a.51.51,0,0,1-.28-.2Z" transform="translate(-140 -217.66)"/><path class="cls-13" d="M149.12,272.31l1.53,4.25-1.57,1.09,0,0v0l-2.27-4.51s2.38,4.55,2.28,4.48,1.61-1.13,1.56-1.06l-1.5-4.25Z" transform="translate(-140 -217.66)"/><path class="cls-7" d="M147.75,269.29l-1,2.3a2,2,0,0,0,0,1.55l2.29,4.5,1.56-1.09-1.51-4.24.91-2.09Z" transform="translate(-140 -217.66)"/><path class="cls-6" d="M154.29,266.71c0-.15,0-.26,0-.26s.72-.26.79-.3a1.63,1.63,0,0,0,.17-1.19,11,11,0,0,0-.32-1.37,1.73,1.73,0,0,0-1.29-1.35,1.89,1.89,0,0,0-2.16,1.47,2.41,2.41,0,0,0,.37,1.83,2.78,2.78,0,0,1,.52.85c0,.07.06.31.1.56a.93.93,0,0,0,1,.79h0A.94.94,0,0,0,154.29,266.71Z" transform="translate(-140 -217.66)"/><path class="cls-14" d="M152.14,264.66a2,2,0,0,1,.23.3,2.86,2.86,0,0,0-.12-1.57c.1.18,1.59-.45,2-.64a.23.23,0,0,1,.27.05,3.83,3.83,0,0,1,.36.63,4.34,4.34,0,0,0-.09-.52c0-.17.35-.9.06-1.17s-2.31.26-2.53.36-1,.59-1,1a.79.79,0,0,0-.27,1c.08.27.17.53.25.79a3,3,0,0,0,.36.69c.13.2.27.39.39.58,0,0,.21.32.27.28a1.73,1.73,0,0,0,0-.37,1.27,1.27,0,0,0,0-.34s0-.1,0-.13-.12,0-.18,0a.46.46,0,0,1-.38-.33c-.07-.18-.11-.42.07-.55a.29.29,0,0,1,.33,0Z" transform="translate(-140 -217.66)"/><path class="cls-15" d="M163.56,246.15a6.88,6.88,0,1,0,7,6.74A6.87,6.87,0,0,0,163.56,246.15Zm.24,12.44a5.57,5.57,0,1,1,5.46-5.67A5.57,5.57,0,0,1,163.8,258.59Z" transform="translate(-140 -217.66)"/><path class="cls-16" d="M167.81,249.27a5.57,5.57,0,0,0-7.74,8,5.57,5.57,0,1,1,7.74-8Z" transform="translate(-140 -217.66)"/><path class="cls-13" d="M169.26,252.92a4.8,4.8,0,1,1-1.45-3.65A5.63,5.63,0,0,1,169.26,252.92Z" transform="translate(-140 -217.66)"/><path class="cls-16" d="M164.29,252.74l-.06,0a5.18,5.18,0,0,1-.64-.29.81.81,0,0,1-.49-.75.7.7,0,0,1,.47-.66,1.38,1.38,0,0,1,.52-.09h.12a2.12,2.12,0,0,1,1,.28l.2.1.35-1-.14-.08a2.79,2.79,0,0,0-1.19-.32v-.57a.22.22,0,0,0-.22-.22h-.66a.22.22,0,0,0-.22.22V250a1.87,1.87,0,0,0-1.41,1.79c0,.83.5,1.44,1.53,1.86l.25.09.45.2a.92.92,0,0,1,.61.88.8.8,0,0,1-.58.79,1.53,1.53,0,0,1-.54.09h-.11a2.61,2.61,0,0,1-1.25-.38l-.21-.12-.32,1.05.12.08a3.45,3.45,0,0,0,1.46.42v.47a.22.22,0,0,0,.22.22h.66a.22.22,0,0,0,.22-.22v-.56a1.94,1.94,0,0,0,1.54-1.9C166,253.8,165.45,253.2,164.29,252.74Z" transform="translate(-140 -217.66)"/><path class="cls-15" d="M164.12,252.54l-.06,0a5.18,5.18,0,0,1-.64-.29.81.81,0,0,1-.49-.75.71.71,0,0,1,.47-.66,1.38,1.38,0,0,1,.52-.09H164a2.26,2.26,0,0,1,1,.27l.2.11.35-1-.14-.08a2.84,2.84,0,0,0-1.19-.32v-.56a.22.22,0,0,0-.22-.22h-.66a.22.22,0,0,0-.22.22v.66a1.87,1.87,0,0,0-1.41,1.79c0,.83.5,1.44,1.53,1.86l.25.1a2.74,2.74,0,0,1,.45.2.91.91,0,0,1,.61.87.82.82,0,0,1-.58.8,1.8,1.8,0,0,1-.54.08h-.11a2.69,2.69,0,0,1-1.25-.38l-.21-.13-.32,1,.12.08a3.31,3.31,0,0,0,1.46.42V257a.22.22,0,0,0,.22.22H164a.22.22,0,0,0,.22-.22v-.56a1.93,1.93,0,0,0,1.54-1.9C165.78,253.6,165.28,253,164.12,252.54Z" transform="translate(-140 -217.66)"/><path class="cls-3" d="M169.28,251.28l.45,1.16-.46.27s-1.25,1.41-2.07,0a.67.67,0,0,1,.8-1h0s0,0,0,0l-.4-.33a.17.17,0,0,1,0-.23h0a.17.17,0,0,1,.21,0l.48.26a.48.48,0,0,0,.35.05Z" transform="translate(-140 -217.66)"/><path class="cls-5" d="M168.83,251.4l.67,1.38,5-2.73a17.47,17.47,0,0,0,2.36-3.93l-1.76-2-1.74,4.24Z" transform="translate(-140 -217.66)"/></svg>