<svg id="Layer_1" data-name="Layer 1" xmlns="http://www.w3.org/2000/svg" viewBox="0 0 347.44 352.24"><defs><style>.cls-1{fill:#328bed;}.cls-2{fill:#5facf2;}</style></defs><rect class="cls-1" x="295.42" y="91.38" width="52.01" height="260.85"/><rect class="cls-1" x="224.5" y="133.55" width="52.21" height="218.69"/><rect class="cls-1" x="153.57" y="175.41" width="52.2" height="176.83"/><rect class="cls-1" x="82.64" y="217.28" width="52.21" height="134.96"/><rect class="cls-1" x="11.71" y="259.15" width="52.21" height="93.09"/><rect class="cls-2" x="286.35" y="91.38" width="52.01" height="260.85"/><rect class="cls-2" x="215.42" y="133.55" width="52.21" height="218.69"/><rect class="cls-2" x="144.5" y="175.41" width="52.2" height="176.83"/><rect class="cls-2" x="73.56" y="217.28" width="52.21" height="134.96"/><rect class="cls-2" x="2.64" y="259.15" width="52.21" height="93.09"/><polygon class="cls-2" points="15.97 189.6 0 170.84 137.28 54.34 185.91 100.57 287.55 17.35 303.13 36.4 184.66 133.37 136.32 87.44 15.97 189.6"/><polygon class="cls-1" points="307.33 55.13 328.16 0 269.99 9.52 307.33 55.13"/></svg>