<svg id="Layer_1" data-name="Layer 1" xmlns="http://www.w3.org/2000/svg" viewBox="0 0 173.4 274.15"><defs><style>.cls-1{fill:#f4c99a;}.cls-2{fill:#353434;}.cls-3{fill:#e63a48;}.cls-4{fill:#f4c999;}.cls-5{fill:#2a9d90;}.cls-6{fill:#6d2918;}.cls-7{fill:#fcd600;}.cls-8{fill:#7d3820;}.cls-9{fill:#b45b27;}.cls-10{fill:#fdbe10;}.cls-11{fill:#ffbf00;}.cls-12{fill:#323131;}.cls-13{fill:#ffd800;}.cls-14{fill:#ef9b0f;}</style></defs><rect class="cls-1" x="191.48" y="322.75" width="9.39" height="8.22" transform="translate(-163.98 363.41) rotate(-96.89)"/><path class="cls-2" d="M201.07,336.59H179.29c-.32,0-.52-.25-.62-.62a2.45,2.45,0,0,1,2.08-3c2.67-.37,6.67-2.17,10.48-4.88a.5.5,0,0,1,.31-.1h9a.54.54,0,0,1,.54.49l.73,7.38A.69.69,0,0,1,201.07,336.59Z" transform="translate(-59.19 -197.41)"/><rect class="cls-1" x="222.23" y="322.75" width="9.39" height="8.22" transform="translate(-159.12 356.37) rotate(-90)"/><path class="cls-2" d="M231.82,336.59H210c-.33,0-.52-.25-.62-.62a2.45,2.45,0,0,1,2.08-3c2.66-.37,6.66-2.17,10.48-4.88a.5.5,0,0,1,.31-.1h9a.54.54,0,0,1,.54.49l.73,7.38A.69.69,0,0,1,231.82,336.59Z" transform="translate(-59.19 -197.41)"/><path class="cls-2" d="M205.41,262c-.86,2.9-.32,2.39-1.72,4.15-3.11,3.89-13.45,15.89-15,18.4a16.42,16.42,0,0,0-2.31,5.39c-.42,2.24,4,29.68,4.78,34.44,0,.05.14,1,.16,1l9.3-.37c-.22-2.42-2.95-31.49-2.18-32.87s18.28-16.33,18.25-16.46l.19,21.5c.21.7,5.1,28.08,5.1,28.08h10.52s-2.85-30.1-2.88-31.29c-.14-5.87,6.88-32.89-.24-42Z" transform="translate(-59.19 -197.41)"/><path class="cls-1" d="M163.22,248.54l2,4.74-1.86,1.21s-5,6.07-8.6.47a2.79,2.79,0,0,1,3.15-4.19l.11,0a.08.08,0,0,0,.07-.14l-1.72-1.3a.68.68,0,0,1-.15-.93h0a.68.68,0,0,1,.86-.22l2,1a2,2,0,0,0,1.46.11Z" transform="translate(-59.19 -197.41)"/><path class="cls-3" d="M161.37,249.12l3,5.64,20.31-12.14a167.4,167.4,0,0,0,10.78-14.91l-7.62-7.81-8.15,16Z" transform="translate(-59.19 -197.41)"/><path class="cls-3" d="M204.78,263s-6-18.21-13.27-30.27l-3.66-6.08a6.6,6.6,0,0,1,2.25-9l9.65-5.79a10.56,10.56,0,0,1,14.51,3.66c7.26,12.23,14.83,33.32,16.51,35.72C234.15,256,204.78,263,204.78,263Z" transform="translate(-59.19 -197.41)"/><path class="cls-1" d="M193.75,216l-.57-.83s-2.71,1-3,1.07c-.61.05-2.27-1.12-3.4-3a47.71,47.71,0,0,1-2.47-4.74c-.38-.84-1.92-4.22.43-7.07s7.14-3.5,9.83-1.08,3.5,5,3.43,6.2a10.92,10.92,0,0,0,.63,3.74c.1.25.56,1,1.07,1.87a3.55,3.55,0,0,1-1,4.72h0A3.54,3.54,0,0,1,193.75,216Z" transform="translate(-59.19 -197.41)"/><path class="cls-2" d="M194.9,204.74a8.46,8.46,0,0,0,.08,1.43c-.78-.3-3.42-3.62-3.49-4.84.15.77-5.71,2.65-7.29,3a.87.87,0,0,0-.66.79,22.66,22.66,0,0,0,.5,2.72c-.38-.56-.67-1.15-1-1.74s-3.24-1.73-3-3.22c.28-2.17,7.31-4.91,8.2-5.18s4.28-.7,5.15.44c1.27,0,2.29.22,3.19,2.18.43.95.83,1.92,1.23,2.88a12,12,0,0,1,.66,2.9c.13.87.18,1.75.29,2.62,0,.16.18,1.42-.11,1.47,0,0-.82-.77-1-1a4.67,4.67,0,0,1-.7-1.1,1,1,0,0,1-.2-.46c0-.27.26-.37.43-.52a1.8,1.8,0,0,0,.3-1.9c-.24-.68-.72-1.5-1.56-1.41a1.09,1.09,0,0,0-.94.82S194.9,204.72,194.9,204.74Z" transform="translate(-59.19 -197.41)"/><path class="cls-4" d="M146.33,300.36s.52-4.44,1.92-6.15,6.76-4,7.57-4.79,1.61-1.14,1.22,0a13.08,13.08,0,0,1-2.29,3.05s11,.54,11.49,1.33-1,1.34-2.44,1.22-4.21-.21-4.21-.21a19,19,0,0,1-3.85,2.22,25.05,25.05,0,0,1-4.32.41l-1.11,4.2Z" transform="translate(-59.19 -197.41)"/><rect class="cls-4" x="64.07" y="430.81" width="7.38" height="6.46" transform="translate(-214.43 -141.86) rotate(-21.63)"/><path class="cls-2" d="M59.23,433.29l6.31,15.91c.09.24.34.31.64.28a1.93,1.93,0,0,0,1.6-2.4c-.51-2.08.57-6.53,1.47-10.15-2.19-2.23-4-3.8-2.62-6.13a.11.11,0,0,0-.12-.16l-6.93,1.93A.54.54,0,0,0,59.23,433.29Z" transform="translate(-59.19 -197.41)"/><rect class="cls-4" x="114.15" y="460.38" width="7.38" height="6.46" transform="matrix(-0.08, -1, 1, -0.08, -393.99, 420.91)"/><path class="cls-2" d="M114.63,471.55l17.06-1.37c.25,0,.39-.24.45-.53a1.94,1.94,0,0,0-1.83-2.24c-2.13-.12-6.07-2.45-9.27-4.38-2.77,1.45-4.8,2.68-6.63.71a.11.11,0,0,0-.19.08L114,471A.54.54,0,0,0,114.63,471.55Z" transform="translate(-59.19 -197.41)"/><path class="cls-2" d="M112.73,461.81l9.18-.57s.83-71.57,1-81.1c0-2.15,0-3.94,0-5.26,0-1.67,0-2.6,0-2.6l-15.16-.06-.27,21.53Z" transform="translate(-59.19 -197.41)"/><path class="cls-2" d="M99.12,424.37l-28.2,12.29-2.49-6.93L92.6,415s1.87-32.6,2.77-37.17c.42-2.11.79-3.86,1.07-5.16.34-1.62.55-2.53.55-2.53l14.84,3.1-.45,2.74-6.17,40.43A10.34,10.34,0,0,1,99.12,424.37Z" transform="translate(-59.19 -197.41)"/><path class="cls-5" d="M152.69,298.07l-6.52-.94-7.53,19-14.13,9.61c-.09,0-2.54-.88-2.54-.88a40.91,40.91,0,0,0-19-.58,16,16,0,0,0-11.51,9.82L99,341.32,93.8,378.06c-.22,1.1,29.94,3.34,29.93,3-.18-3.46,4.66-44.64,4.66-44.64.21-1.45,17.35-14.64,17.35-14.64Z" transform="translate(-59.19 -197.41)"/><path class="cls-6" d="M102.1,386.39c-5.27-.42-9.23-4.72-8.85-9.59s5-8.58,10.26-8.16,9.23,4.81,8.84,9.68S107.36,386.81,102.1,386.39Zm1.27-15.94c-4.36-.35-8.16,2.51-8.48,6.48s3,7.48,7.34,7.83,8.16-2.6,8.48-6.57S107.73,370.8,103.37,370.45Z" transform="translate(-59.19 -197.41)"/><rect class="cls-7" x="93.32" y="374" width="2.94" height="3.16" transform="translate(-29.11 -203.74) rotate(4.55)"/><rect class="cls-7" x="109.47" y="375.26" width="2.94" height="3.16" transform="translate(-28.96 -205.02) rotate(4.55)"/><rect class="cls-8" x="87.88" y="377.4" width="28.38" height="18.76" rx="0.71" transform="translate(-28.18 -204.28) rotate(4.55)"/><path class="cls-6" d="M116.32,385a60.48,60.48,0,0,1-28-2.24,1,1,0,0,1-.68-1l.52-6.57,29.57,2.35-.53,6.58A1,1,0,0,1,116.32,385Z" transform="translate(-59.19 -197.41)"/><path class="cls-9" d="M116.38,384.35a60.4,60.4,0,0,1-28.06-2.23,1,1,0,0,1-.68-1l.53-6.58,29.56,2.36-.52,6.58A1,1,0,0,1,116.38,384.35Z" transform="translate(-59.19 -197.41)"/><rect class="cls-10" x="100.01" y="382.28" width="4.39" height="5.6" rx="0.26" transform="translate(-28.31 -204.3) rotate(4.55)"/><rect class="cls-7" x="99.95" y="383.43" width="4.5" height="3.29" transform="translate(434.98 116.34) rotate(94.55)"/><path class="cls-4" d="M102.14,364.15l-4.5,2.29.65,2.07s0,7.68,6.17,5.73a2.73,2.73,0,0,0,.25-5.12l-.1,0a.08.08,0,0,1,0-.15l2.11.1a.66.66,0,0,0,.69-.61h0a.66.66,0,0,0-.51-.7l-2.17-.5a1.89,1.89,0,0,1-1.17-.82Z" transform="translate(-59.19 -197.41)"/><path class="cls-11" d="M97.13,346.64c0,.05,6.37,17.63,6.39,17.67S97,368.83,97,368.87l-.07.06,0-.08-9.48-18.77c-.06,0,9.9,18.93,9.5,18.67,0,0,6.7-4.74,6.48-4.44l-6.24-17.67Z" transform="translate(-59.19 -197.41)"/><path class="cls-5" d="M91.45,334.07l-4,9.58a8.34,8.34,0,0,0,0,6.43l9.55,18.73,6.5-4.52-6.31-17.65,3.78-8.7Z" transform="translate(-59.19 -197.41)"/><path class="cls-4" d="M118.64,323.35c-.06-.65-.11-1.1-.11-1.1s3-1.05,3.28-1.25c.54-.39,1.09-2.55.7-4.92a50.88,50.88,0,0,0-1.31-5.71c-.28-1-1.39-4.89-5.38-5.6s-8.45,2.15-9,6.08.62,6.65,1.55,7.62a12.29,12.29,0,0,1,2.13,3.56c.09.3.26,1.26.43,2.33a3.89,3.89,0,0,0,4.16,3.26h0A3.87,3.87,0,0,0,118.64,323.35Z" transform="translate(-59.19 -197.41)"/><path class="cls-12" d="M109.71,314.81a8.63,8.63,0,0,1,1,1.24c.44-.8.28-5.45-.52-6.52.42.76,6.65-1.85,8.23-2.66a.94.94,0,0,1,1.11.2,23.6,23.6,0,0,1,1.51,2.62c-.08-.73-.25-1.43-.39-2.16s1.47-3.75.25-4.86c-1.77-1.61-9.59,1.1-10.52,1.51s-4.07,2.45-4,4c-1.07.89-1.75,1.82-1.11,4.09.31,1.1.67,2.19,1,3.28a13.3,13.3,0,0,0,1.52,2.89c.51.82,1.09,1.59,1.62,2.39.1.14.86,1.32,1.13,1.15a13.4,13.4,0,0,0,.16-1.53,5.23,5.23,0,0,0-.19-1.42,1.26,1.26,0,0,0-.16-.53c-.18-.22-.48-.12-.73-.13A1.93,1.93,0,0,1,108,317c-.29-.74-.47-1.76.3-2.28a1.17,1.17,0,0,1,1.36,0A.1.1,0,0,1,109.71,314.81Z" transform="translate(-59.19 -197.41)"/><path class="cls-13" d="M157.21,237.82a28.6,28.6,0,1,0,29.14,28A28.59,28.59,0,0,0,157.21,237.82Zm1,51.74a23.15,23.15,0,1,1,22.7-23.6A23.15,23.15,0,0,1,158.21,289.56Z" transform="translate(-59.19 -197.41)"/><path class="cls-14" d="M174.87,250.81A23.15,23.15,0,0,0,142.7,284a23.15,23.15,0,1,1,32.17-33.18Z" transform="translate(-59.19 -197.41)"/><path class="cls-11" d="M180.91,266a23.15,23.15,0,0,1-38.21,18,23.15,23.15,0,0,1,32.17-33.18A23.09,23.09,0,0,1,180.91,266Z" transform="translate(-59.19 -197.41)"/><path class="cls-14" d="M160.24,265.24l-.26-.1a18.88,18.88,0,0,1-2.63-1.21c-1.49-.86-2.06-1.73-2.06-3.1a3,3,0,0,1,2-2.75,5.73,5.73,0,0,1,2.17-.37h.49a9.53,9.53,0,0,1,4.1,1.13l.82.45,1.44-4.26-.57-.32a11.65,11.65,0,0,0-5-1.35V251a.92.92,0,0,0-.92-.92h-2.74a.92.92,0,0,0-.92.92v2.78a7.73,7.73,0,0,0-5.87,7.42c0,3.46,2.08,6,6.36,7.75l1.06.4a17.13,17.13,0,0,1,1.87.83c1.83,1,2.54,2,2.54,3.63a3.37,3.37,0,0,1-2.43,3.32,6.78,6.78,0,0,1-2.25.34H157a11,11,0,0,1-5.18-1.58l-.88-.53-1.32,4.37.49.33a13.91,13.91,0,0,0,6.06,1.76v1.95a.92.92,0,0,0,.92.92h2.74a.92.92,0,0,0,.92-.92v-2.34c4-1,6.41-4,6.41-7.89S165.09,267.17,160.24,265.24Z" transform="translate(-59.19 -197.41)"/><path class="cls-13" d="M159.53,264.42l-.26-.1a18.88,18.88,0,0,1-2.63-1.21c-1.49-.86-2.06-1.73-2.06-3.1a3,3,0,0,1,2-2.75,5.73,5.73,0,0,1,2.17-.37h.49a9.53,9.53,0,0,1,4.1,1.13l.82.45,1.44-4.26-.56-.32a11.61,11.61,0,0,0-5-1.35V250.2a.92.92,0,0,0-.92-.92h-2.74a.92.92,0,0,0-.92.92V253a7.73,7.73,0,0,0-5.87,7.42c0,3.46,2.08,6,6.36,7.75l1.06.4a17.13,17.13,0,0,1,1.87.83c1.83,1,2.54,2,2.54,3.63a3.37,3.37,0,0,1-2.43,3.32,6.78,6.78,0,0,1-2.25.34h-.45a11.1,11.1,0,0,1-5.18-1.58l-.88-.53-1.32,4.37.49.33a13.91,13.91,0,0,0,6.06,1.76V283a.92.92,0,0,0,.92.92h2.74A.92.92,0,0,0,160,283v-2.34c4-1,6.41-4,6.41-7.89S164.38,266.35,159.53,264.42Z" transform="translate(-59.19 -197.41)"/><path class="cls-1" d="M181,259.17l1.85,4.81L181,265.12s-5.21,5.87-8.61.15a2.79,2.79,0,0,1,3.31-4.07l.1,0a.08.08,0,0,0,.08-.14l-1.67-1.36a.69.69,0,0,1-.11-.94h0a.68.68,0,0,1,.87-.18l2,1.1a2,2,0,0,0,1.46.17Z" transform="translate(-59.19 -197.41)"/><path class="cls-3" d="M179.14,259.68l2.78,5.74,20.75-11.36c5.17-5.62,9.83-16.37,9.83-16.37l-7.32-8.1-7.24,17.62Z" transform="translate(-59.19 -197.41)"/></svg>