<svg id="Layer_1" data-name="Layer 1" xmlns="http://www.w3.org/2000/svg" viewBox="0 0 376.72 285.51"><defs><style>.cls-1{fill:#ecf2ff;}.cls-2{fill:#d6e5fd;}.cls-3{fill:#fd7b2e;}.cls-4{fill:#4b54bb;}.cls-5{fill:#20245a;}.cls-6{fill:#c82b2b;}.cls-7{fill:#2d3378;}.cls-8{fill:#c1d9fd;}.cls-10,.cls-14,.cls-9{fill:none;stroke-miterlimit:10;}.cls-14,.cls-9{stroke:#2d3378;}.cls-10{stroke:#fd7b2e;stroke-width:14px;}.cls-10,.cls-14{stroke-linecap:round;}.cls-11{fill:#b8d4ff;}.cls-12{fill:#fff;}.cls-13{fill:#79aaf4;}</style></defs><path class="cls-1" d="M436.91,240.9c-3.06,95.12-62.88,163-164,162.19C176.79,402.35,96.08,391,86.47,307.55,75.58,213,195.2,265.2,263.5,192.81,356.33,94.42,440.78,120.44,436.91,240.9Z" transform="translate(-85.77 -117.59)"/><polygon class="cls-2" points="39.43 162.7 65.83 184.2 79.8 182.64 79.8 154.67 44.09 141.52 38.53 161.25 39.43 162.7"/><path class="cls-2" d="M85.34,109.84h52.44a0,0,0,0,1,0,0v72.81a0,0,0,0,1,0,0H66.44a0,0,0,0,1,0,0V128.73A18.89,18.89,0,0,1,85.34,109.84Z"/><polygon class="cls-3" points="66.41 92.19 108.19 70.15 103.6 55.1 57.95 67.63 66.41 92.19"/><path class="cls-4" d="M184.16,163.5H202.4a0,0,0,0,1,0,0v39.26a0,0,0,0,1,0,0h-5.64a12.6,12.6,0,0,1-12.6-12.6V163.5A0,0,0,0,1,184.16,163.5Z" transform="translate(300.8 248.67) rotate(180)"/><ellipse class="cls-3" cx="176.21" cy="205.28" rx="24.29" ry="25.21" transform="translate(-172.69 24.84) rotate(-35.92)"/><path class="cls-3" d="M194.47,198a7.1,7.1,0,1,0,7-7.22A7.09,7.09,0,0,0,194.47,198Z" transform="translate(-85.77 -117.59)"/><path class="cls-5" d="M172.41,201.44c.5,1.63,1.71,2.71,2.7,2.4s1.38-1.86.89-3.49-1.7-2.71-2.69-2.41S171.92,199.81,172.41,201.44Z" transform="translate(-85.77 -117.59)"/><path class="cls-5" d="M155.88,205.82c.5,1.64,1.7,2.71,2.69,2.41s1.39-1.87.9-3.5-1.71-2.71-2.7-2.41S155.39,204.19,155.88,205.82Z" transform="translate(-85.77 -117.59)"/><path class="cls-5" d="M165.68,217.88a3.72,3.72,0,0,0,2.09,2.29,7,7,0,0,0,8.4-2.54,3.76,3.76,0,0,0,.49-3.09c-.7-2.3-2.76-.22-5.79.7S165,215.59,165.68,217.88Z" transform="translate(-85.77 -117.59)"/><path class="cls-6" d="M167.77,220.17a7,7,0,0,0,8.4-2.54,5.73,5.73,0,0,0-8.4,2.54Z" transform="translate(-85.77 -117.59)"/><path class="cls-4" d="M195.11,203.26l1.66-.5.62-25.06c-.3-4.88-6.62-8-11.5-7.72l-6.61.41,8.89,29.17A5.55,5.55,0,0,0,195.11,203.26Z" transform="translate(-85.77 -117.59)"/><path class="cls-4" d="M182.09,188.58c-5.71,3.27-14,7.07-22.81,8.24-16.9,2.23-30.11-14.36-24.35-30.41l1.85-5.14s4.57,6.24,16.24,2c14.35-5.21,32-6.9,36.57,6A16.21,16.21,0,0,1,182.09,188.58Z" transform="translate(-85.77 -117.59)"/><path class="cls-3" d="M199.44,229.94a51.37,51.37,0,0,1-7.59,7.39l-.27.2-1.12.73a13.94,13.94,0,0,1-6.92,1.76H183a11.84,11.84,0,0,1-5.25-6.09l-1.47-3.75-1.06-2.7,12-4.71,7.85-3.08.3-.12.53,1.35Z" transform="translate(-85.77 -117.59)"/><circle class="cls-7" cx="117.62" cy="80.97" r="11.82"/><path class="cls-7" d="M195.11,231.16a8,8,0,0,1-3.26,6.17l-.27.2-1.12.73a13.94,13.94,0,0,1-6.92,1.76H183c-6.14-.22-11-4.09-11-8.85a6.74,6.74,0,0,1,.17-1.49c.92-4.18,5.67-7.37,11.4-7.37a14.72,14.72,0,0,1,3.68.46,12.73,12.73,0,0,1,4,1.75,6,6,0,0,1,.7.52A7.88,7.88,0,0,1,195.11,231.16Z" transform="translate(-85.77 -117.59)"/><path class="cls-7" d="M214.89,201.28c-.18.57-.35,1.13-.54,1.69a79.39,79.39,0,0,1-14.91,27,51.37,51.37,0,0,1-7.59,7.39l-.27.2-1.12.73-4.58-8.9c.82-.63,1.6-1.27,2.34-1.94a37.11,37.11,0,0,0,3-2.91,43.79,43.79,0,0,0,3.89-4.83,48.28,48.28,0,0,0,5.19-9.73l.41-1.08c.56-1.54,1-2.88,1.23-3.9.37-1.39.5-2.21.5-2.21l4.8-.57Z" transform="translate(-85.77 -117.59)"/><rect class="cls-3" x="192.84" y="208.33" width="21.1" height="24.75" rx="4.58" transform="translate(38.18 -186.31) rotate(27.31)"/><polygon class="cls-4" points="18.46 168.38 45.97 122.44 58.16 130.23 31.69 174.34 19.69 182.46 18.46 168.38"/><path class="cls-3" d="M132.92,272.07h-8a5.42,5.42,0,0,1-5.4-5.4h0a5.42,5.42,0,0,1,5.4-5.4h8a5.42,5.42,0,0,1,5.41,5.4h0A5.42,5.42,0,0,1,132.92,272.07Z" transform="translate(-85.77 -117.59)"/><rect class="cls-3" x="107.86" y="253.94" width="13.52" height="23.42" rx="5.66" transform="translate(44.29 -140.85) rotate(26.4)"/><path class="cls-8" d="M129.48,243.81,142,251.09l2.68-4.22a7.3,7.3,0,0,0-2.21-10.08h0a7.32,7.32,0,0,0-10.26,2.42Z" transform="translate(-85.77 -117.59)"/><polygon class="cls-8" points="18.46 168.24 31.69 174.34 23.66 179.77 19.32 178.09 18.46 168.24"/><path class="cls-2" d="M169.74,306.78H94.45a3.26,3.26,0,0,1-3.27-3.27h0a3.27,3.27,0,0,1,3.27-3.28h75.29a3.27,3.27,0,0,1,3.27,3.28h0A3.26,3.26,0,0,1,169.74,306.78Z" transform="translate(-85.77 -117.59)"/><path class="cls-9" d="M185.54,240c0,4.77-4,4.77-4,9.55s4,4.77,4,9.55-4,4.77-4,9.54,4,4.78,4,9.56-4,4.77-4,9.55" transform="translate(-85.77 -117.59)"/><path class="cls-10" d="M356.43,148.74v85.38a21,21,0,0,1-26,20.37l-35.72-8.83" transform="translate(-85.77 -117.59)"/><path class="cls-11" d="M368.84,177.59v57a33.44,33.44,0,0,1-33.32,33.41,33.94,33.94,0,0,1-8.1-1l-35.71-8.84a12.4,12.4,0,0,1-9.07-15c1.65-6.65,8.37-15.71,15-14.06L333.38,238A8.58,8.58,0,0,0,344,229.65V177.59Z" transform="translate(-85.77 -117.59)"/><path class="cls-3" d="M352.35,117.59h0a4,4,0,0,0-4,4V155a4,4,0,0,0,4,4h0a4,4,0,0,0,4-4V121.57A4,4,0,0,0,352.35,117.59Z" transform="translate(-85.77 -117.59)"/><circle class="cls-3" cx="357.3" cy="149.72" r="13.88" transform="translate(-98.96 145.36) rotate(-39.73)"/><path class="cls-11" d="M247.16,223.09,266,278.94l-3.29,75.15H221.12V282.57l-7.43,10.87L209.93,299l-12.36,18.1-.1.14-5.24-3.37-8.54-5.5-2.21-1.42c-.25-.16-.48-.33-.71-.5l0,0a10.3,10.3,0,0,1-2.79-3.32s0,0,0,0a10.4,10.4,0,0,1-1.12-4.07,10.18,10.18,0,0,1,1.61-6.15l1.43-2.21,4.1-6.35L215,236.11c.13-.2.26-.4.4-.59a23.29,23.29,0,0,1,15.33-9.73l5.95-1Z" transform="translate(-85.77 -117.59)"/><path class="cls-3" d="M276.61,203v19.27c0,4.64-2.1,8.67-5.14,10.6l-5.5-5.95-5.4,6.21c-3.29-1.79-5.61-6-5.61-10.86V203Z" transform="translate(-85.77 -117.59)"/><polygon class="cls-12" points="180.19 109.36 174.79 115.57 171.59 119.26 161.17 106.37 169.09 100.36 169.19 100.43 180.19 109.36"/><polygon class="cls-12" points="199 106.37 188.95 118.9 185.7 115.36 180.19 109.36 190.84 100.56 191.07 100.36 199 106.37"/><polygon class="cls-11" points="227.57 115.48 227.55 121.92 227.53 127.28 227.51 132.67 227.51 132.68 227.46 145.96 227.43 154.11 227.43 237.79 176.91 237.79 180.19 161.36 199.36 106.49 205.79 108.54 212.92 110.81 216.74 112.03 218.84 112.7 224.03 114.35 224.31 114.44 225.31 114.76 226.8 115.23 226.86 115.25 227.57 115.48"/><rect class="cls-12" x="260.97" y="55.17" width="19.39" height="4.79"/><rect class="cls-3" x="158.07" y="39.44" width="45.64" height="15.74"/><path class="cls-3" d="M243,180c-4.53,13.17,2.08,27.38,14.77,31.74s26.64-2.78,31.16-15.95S286.82,168.4,274.13,164,247.5,166.81,243,180Z" transform="translate(-85.77 -117.59)"/><path class="cls-4" d="M292,166.37a78.11,78.11,0,0,1-16.25,6,57.85,57.85,0,0,1-16.36,1.88c-17-.72-27.18-19.34-18.74-34.15l2.71-4.76s3.43,6.94,15.65,4.78C278.19,136.79,301.65,140,292,166.37Z" transform="translate(-85.77 -117.59)"/><path class="cls-3" d="M298.58,185.71a7.09,7.09,0,0,1-7.09,7.1c-3.92,0-4.38-3.18-4.38-7.1s.46-7.09,4.38-7.09A7.08,7.08,0,0,1,298.58,185.71Z" transform="translate(-85.77 -117.59)"/><path class="cls-3" d="M246.36,182.74a7.1,7.1,0,1,1-8.78-4.88A7.1,7.1,0,0,1,246.36,182.74Z" transform="translate(-85.77 -117.59)"/><path class="cls-4" d="M291.79,187.88h1.73l5.7-23.86a8.86,8.86,0,0,0-6.56-10.67l-6.44-1.53v30.49A5.57,5.57,0,0,0,291.79,187.88Z" transform="translate(-85.77 -117.59)"/><path class="cls-4" d="M241.45,187.37h-1.74L234,163.52a8.86,8.86,0,0,1,6.55-10.68l6.45-1.53V181.8A5.57,5.57,0,0,1,241.45,187.37Z" transform="translate(-85.77 -117.59)"/><path class="cls-5" d="M257.1,184.28c0,1.71-.84,3.09-1.87,3.09s-1.87-1.38-1.87-3.09.84-3.09,1.87-3.09S257.1,182.58,257.1,184.28Z" transform="translate(-85.77 -117.59)"/><path class="cls-5" d="M276.61,184.28c0,1.71-.84,3.09-1.87,3.09s-1.88-1.38-1.88-3.09.84-3.09,1.88-3.09S276.61,182.58,276.61,184.28Z" transform="translate(-85.77 -117.59)"/><path class="cls-5" d="M270.54,196.14a3.77,3.77,0,0,1-1.34,2.8,7,7,0,0,1-8.77,0,3.76,3.76,0,0,1-1.37-2.82c0-2.4,2.57-1,5.74-1S270.54,193.74,270.54,196.14Z" transform="translate(-85.77 -117.59)"/><path class="cls-6" d="M269.2,198.94a7,7,0,0,1-8.77,0,5.71,5.71,0,0,1,8.77,0Z" transform="translate(-85.77 -117.59)"/><path class="cls-4" d="M152.37,285.64c6.55,10.27,30.07,45.83,35,53.33a3.1,3.1,0,0,0,2.6,1.4h48.41a3.13,3.13,0,0,0,2.68-4.73l-31-52a3.1,3.1,0,0,0-2.72-1.52l-53.51.72A1.83,1.83,0,0,0,152.37,285.64Z" transform="translate(-85.77 -117.59)"/><rect class="cls-3" x="162.08" y="300.87" width="13.52" height="23.42" rx="5.66" transform="translate(-206.02 -11.5) rotate(-26.09)"/><rect class="cls-13" x="158.38" y="214.46" width="74.82" height="23.33"/><polygon class="cls-4" points="174.79 115.57 179.03 120.68 173.97 142.88 180.19 161.36 186.06 144.57 182.18 120.04 185.7 115.36 180.19 109.36 174.79 115.57"/><line class="cls-14" x1="96.1" y1="181.88" x2="113.33" y2="181.88"/><line class="cls-14" x1="98.85" y1="187.44" x2="116.08" y2="187.44"/><path class="cls-14" d="M336,327.37a2.41,2.41,0,0,1-2.19-3.43l26.37-56.73A6.42,6.42,0,0,1,366,263.5" transform="translate(-85.77 -117.59)"/><path class="cls-11" d="M432.63,327.7h-93.3a2.42,2.42,0,0,1-2.19-3.43l26.37-56.73a6.45,6.45,0,0,1,5.83-3.72h90.73a2.41,2.41,0,0,1,2.19,3.43L434.81,326.3A2.41,2.41,0,0,1,432.63,327.7Z" transform="translate(-85.77 -117.59)"/><polygon class="cls-4" points="303.12 232.89 289.16 232.89 309.27 189.97 323.23 189.97 303.12 232.89"/><rect class="cls-4" x="252.93" y="232.89" width="73.74" height="3.97"/><line class="cls-14" x1="286.67" y1="232.89" x2="307.54" y2="188.79"/><circle class="cls-14" cx="307.64" cy="95.3" r="3.4"/><line class="cls-14" x1="236.22" y1="13.7" x2="236.22" y2="21.62"/><line class="cls-14" x1="240.18" y1="17.66" x2="232.26" y2="17.66"/><polygon class="cls-14" points="51.88 203.03 54.75 208.01 57.63 213 51.88 213 46.12 213 49 208.01 51.88 203.03"/><path class="cls-14" d="M126,215.59a2.7,2.7,0,1,1-2.7-2.7A2.7,2.7,0,0,1,126,215.59Z" transform="translate(-85.77 -117.59)"/><rect class="cls-14" x="201.85" y="138.27" width="6.81" height="6.81" transform="translate(74.53 -221.23) rotate(45)"/><polygon class="cls-13" points="252.94 179.92 251.61 238.85 210.61 240.52 217.73 195 252.94 179.92"/><path class="cls-13" d="M315.64,342.29H281.33V282.87H324.8A13.89,13.89,0,0,1,337,303.44Z" transform="translate(-85.77 -117.59)"/><path class="cls-13" d="M314.77,309.5c-.2,3.69,6.91,7.51,6,11.11a42.31,42.31,0,0,1-2,5.23c-.71,1.76-1.42,3.73-2.59,6.2-1.44,3-10.59,6.53-12.48,10.25-.9,1.77-1.84,3.6-2.81,5.45-1.3,2.51-2.65,5.07-4,7.63H243.78l.14-.79h-8.7a16.53,16.53,0,0,1-14.52-8.89,16.6,16.6,0,0,1,0-15.94,17.23,17.23,0,0,1,2.54-3.49l4.45-5.92,8-10.59L246.74,295l1.75-2.33a26.53,26.53,0,0,1,21.22-10.59h23.7a3.09,3.09,0,0,0,.15.4c.05.11.11.24.19.39,1.13,2.25,5.57,8.27,19.45,4.41l.14,0,.17.94A102.39,102.39,0,0,1,314.77,309.5Z" transform="translate(-85.77 -117.59)"/><path class="cls-3" d="M317.08,335.75l18.29,2a11.09,11.09,0,0,1,7.91,4.68l9.06,13-12.91,1.06-22.63-8.67Z" transform="translate(-85.77 -117.59)"/><polygon class="cls-3" points="256.01 142.3 214.23 120.26 218.81 105.2 264.47 117.73 256.01 142.3"/><path class="cls-4" d="M218.38,96H224a0,0,0,0,1,0,0v39.26a0,0,0,0,1,0,0H205.78a0,0,0,0,1,0,0V108.62A12.6,12.6,0,0,1,218.38,96Z"/><path class="cls-3" d="M298.08,241.14c-8.17,11.28-6,26.8,4.88,34.67s26.29,5.1,34.46-6.18,6-26.79-4.88-34.66S306.25,229.86,298.08,241.14Z" transform="translate(-85.77 -117.59)"/><path class="cls-3" d="M299.49,248.12a7.1,7.1,0,1,1-7-7.22A7.09,7.09,0,0,1,299.49,248.12Z" transform="translate(-85.77 -117.59)"/><path class="cls-5" d="M321.55,251.55c-.5,1.63-1.71,2.7-2.7,2.4s-1.38-1.87-.89-3.5,1.7-2.71,2.69-2.4S322,249.91,321.55,251.55Z" transform="translate(-85.77 -117.59)"/><path class="cls-5" d="M338.08,255.93c-.5,1.63-1.7,2.71-2.69,2.41s-1.39-1.87-.9-3.5,1.71-2.71,2.7-2.41S338.57,254.3,338.08,255.93Z" transform="translate(-85.77 -117.59)"/><path class="cls-5" d="M328.28,268a3.74,3.74,0,0,1-2.09,2.29,6.65,6.65,0,0,1-4.67.21,6.53,6.53,0,0,1-3.73-2.75,3.78,3.78,0,0,1-.49-3.1c.7-2.29,2.76-.21,5.79.71S329,265.7,328.28,268Z" transform="translate(-85.77 -117.59)"/><path class="cls-6" d="M326.19,270.28a6.65,6.65,0,0,1-4.67.21,6.53,6.53,0,0,1-3.73-2.75,5.72,5.72,0,0,1,8.4,2.54Z" transform="translate(-85.77 -117.59)"/><path class="cls-4" d="M298.85,253.37l-1.66-.5-2.5-24.56c.3-4.88,8.5-8.52,13.38-8.22l6.61.41-8.89,29.17A5.55,5.55,0,0,1,298.85,253.37Z" transform="translate(-85.77 -117.59)"/><path class="cls-4" d="M311.87,238.69c5.71,3.27,13.95,7.07,22.81,8.24,16.9,2.23,30.11-14.36,24.35-30.41l-1.85-5.14s-4.57,6.24-16.24,2c-14.35-5.21-32-6.91-36.57,6A16.22,16.22,0,0,0,311.87,238.69Z" transform="translate(-85.77 -117.59)"/><path class="cls-3" d="M318.74,277.58,316.21,284c-3.74,9.54-17.13,10.47-21.82,1.36a11.68,11.68,0,0,1-1-2.52l5.18-13.2Z" transform="translate(-85.77 -117.59)"/><polygon class="cls-11" points="207.79 174.14 207.64 215.2 226.22 217.65 232.7 174.14 207.79 174.14"/><polygon class="cls-12" points="201.12 164.5 210.28 158.55 222.69 172.71 232.02 162.7 237 165.66 227.57 184.27 222.97 176.88 214.8 184.27 201.12 164.5"/><polygon class="cls-4" points="216.77 182.49 218.91 187.26 207.64 215.2 226.22 217.65 222.38 188.49 226.59 182.7 222.97 176.88 216.77 182.49"/><polyline class="cls-14" points="231.3 218.16 170.93 212.07 178.23 195"/><path class="cls-7" d="M433.24,361.77H113.73a3.67,3.67,0,0,1-3.66-3.66h0a3.66,3.66,0,0,1,3.66-3.66H433.24a3.67,3.67,0,0,1,3.67,3.66h0A3.68,3.68,0,0,1,433.24,361.77Z" transform="translate(-85.77 -117.59)"/></svg>