<svg id="Layer_1" data-name="Layer 1" xmlns="http://www.w3.org/2000/svg" xmlns:xlink="http://www.w3.org/1999/xlink" viewBox="0 0 511.39 449.48"><defs><style>.cls-1{fill:url(#linear-gradient);}.cls-2{fill:#d9fbff;}.cls-3,.cls-6{fill:#020202;}.cls-3{opacity:0.25;}.cls-4{fill:#f9f4c5;}.cls-5{fill:#fca083;}.cls-6{opacity:0.15;}.cls-7{fill:#015f74;}.cls-8{fill:#099296;}.cls-9{fill:#22bfbf;}.cls-10{fill:#eaa16e;}.cls-11{fill:#d38a54;}.cls-12{fill:#a57c74;}.cls-13{fill:#d8aea0;}.cls-14{fill:#454c5b;}.cls-15{fill:#6d6d6d;}.cls-16{fill:#f7f7f7;}.cls-17{fill:#ff693b;}.cls-18{fill:#f4f4f4;}.cls-19{fill:#fda777;}.cls-20{fill:#e5946c;}.cls-21{fill:#2b2b2b;}.cls-22{fill:#054147;}.cls-23{fill:#09090f;}.cls-24{fill:#2d333f;}.cls-25{fill:#727272;}.cls-26{fill:#888889;}.cls-27{fill:#d6a592;}.cls-28{fill:#ffc48f;}.cls-29{fill:#e7b8a2;}.cls-30{fill:#bcd4e2;}.cls-31{fill:#35617c;}.cls-32{fill:#161616;}.cls-33{fill:#d3a492;}.cls-34{fill:#568745;}.cls-35{fill:#619b51;}.cls-36{fill:#cee4f4;}</style><linearGradient id="linear-gradient" x1="268.9" y1="-7.53" x2="268.9" y2="419.98" gradientUnits="userSpaceOnUse"><stop offset="0" stop-color="#4fd7f7"/><stop offset="0.28" stop-color="#86e4fa"/><stop offset="0.62" stop-color="#c1f2fd"/><stop offset="0.87" stop-color="#e5fbfe"/><stop offset="1" stop-color="#f3feff"/></linearGradient></defs><path class="cls-1" d="M494.07,470.07a1628.63,1628.63,0,0,0-437.4-2.68C34.46,432.16,15.17,390.26,22,355.18A68.65,68.65,0,0,1,23.82,348c.22-.71.45-1.41.7-2.11,18.19-52.22,93.68-55.58,94.08-90.14.21-18.16-20.53-25.72-37.11-45.24-1.32-1.56-2.62-3.2-3.88-4.92A79.85,79.85,0,0,1,64.7,178c-8.33-32.16,2.75-61.47,5.87-69.72a116.17,116.17,0,0,1,7.12-15.33q1.94-3.51,4.1-6.84c17.89-27.69,46.32-46.31,73.82-46.27,47,.06,59,54.77,99.21,49.33,30.89-4.19,30-37.37,73.94-57.63,7.44-3.44,54.72-24.4,100.58,2.93,6.83,4.06,27.35,16.29,41.33,41.23,1.18,2.1,2.31,4.29,3.37,6.57a104,104,0,0,1,5.6,14.67c8.79,29.47,3,56,0,69.32a138.6,138.6,0,0,1-12.06,33.44q-1.29,2.49-2.63,4.82C448.51,233,428,243.23,429.34,266.78c2.37,41.44,69.06,44.42,84.52,99.57a.83.83,0,0,0,0,.15A87.19,87.19,0,0,1,516,376C521.37,409.23,508,443.85,494.07,470.07Z" transform="translate(-5.8 -20.59)"/><path class="cls-2" d="M474,72.66a111.57,111.57,0,0,0-22.28-3.35c-37.8-1.76-63.28,16.4-90.25,35.63-26,18.51-52.78,37.62-91.43,37.62l-2.93,0c-34.85-.86-55.9-16.77-76.26-32.16C171.83,96,152.11,81.06,120.57,78.05a124.08,124.08,0,0,0-42.88,3.63c1.29-2,2.66-3.9,4.1-5.78A128.08,128.08,0,0,1,121,73.43c32.85,3.13,53.1,18.44,72.68,33.24,20.68,15.63,40.21,30.4,73.57,31.22,38.7,1,65.57-18.2,91.56-36.72C385.24,82.32,412.57,62.84,452,64.69a115.51,115.51,0,0,1,18.69,2.42C471.85,68.88,473,70.73,474,72.66Z" transform="translate(-5.8 -20.59)"/><path class="cls-2" d="M467.58,171.84q-1.29,2.1-2.63,4.07a112,112,0,0,0-25.44-4.2c-37.8-1.76-63.28,16.4-90.26,35.63C323.3,225.84,296.48,245,257.82,245c-1,0-1.94,0-2.93,0-34.84-.86-55.89-16.77-76.25-32.15-19.07-14.42-38.78-29.32-70.33-32.32a119.4,119.4,0,0,0-26.82.51c-1.32-1.32-2.62-2.7-3.88-4.15a126,126,0,0,1,31.14-1c32.86,3.13,53.11,18.44,72.69,33.24,20.68,15.63,40.21,30.39,73.57,31.22,38.69,1,65.56-18.2,91.55-36.73,26.43-18.84,53.77-38.32,93.16-36.48A116.92,116.92,0,0,1,467.58,171.84Z" transform="translate(-5.8 -20.59)"/><path class="cls-2" d="M516,320.74c-28.84-26.18-58.6-40.13-88.72-41.54-37.8-1.77-63.28,16.39-90.25,35.62-25.95,18.51-52.77,37.63-91.43,37.63-1,0-1.95,0-2.93,0-34.85-.86-55.9-16.77-76.25-32.16-19.07-14.41-38.79-29.31-70.33-32.32q-35.72-3.39-74,15.25a50.57,50.57,0,0,1,1.81-6.09c24.79-11.38,49.21-16,72.68-13.77,32.85,3.13,53.1,18.43,72.68,33.23,20.68,15.64,40.22,30.4,73.57,31.22,38.7,1,65.57-18.19,91.56-36.72,26.43-18.84,53.77-38.32,93.16-36.48,29.4,1.37,58.38,14.19,86.43,38.17A64,64,0,0,1,516,320.74Z" transform="translate(-5.8 -20.59)"/><path class="cls-3" d="M27.88,440c0,1.23-4.94,2.22-11,2.22s-11-1-11-2.22,5-2.22,11-2.22S27.88,438.79,27.88,440Z" transform="translate(-5.8 -20.59)"/><ellipse class="cls-3" cx="26.48" cy="414.26" rx="6.64" ry="1.34"/><ellipse class="cls-3" cx="33.74" cy="420.2" rx="4.69" ry="0.94"/><ellipse class="cls-3" cx="237.12" cy="390.37" rx="11.04" ry="2.22"/><ellipse class="cls-3" cx="252.56" cy="385.2" rx="6.64" ry="1.34"/><path class="cls-3" d="M270.31,411.73c0,.52-2.1.94-4.69.94s-4.68-.42-4.68-.94,2.1-1,4.68-1S270.31,411.2,270.31,411.73Z" transform="translate(-5.8 -20.59)"/><ellipse class="cls-3" cx="408.58" cy="432.75" rx="7.91" ry="1.59"/><path class="cls-3" d="M430.21,449.63c0,.53-2.13,1-4.76,1s-4.76-.43-4.76-1,2.13-1,4.76-1S430.21,449.1,430.21,449.63Z" transform="translate(-5.8 -20.59)"/><ellipse class="cls-3" cx="424.85" cy="433.3" rx="3.36" ry="0.68"/><path class="cls-3" d="M187.36,396.58c0,3.67-30,6.64-67,6.64s-67-3-67-6.64,30-6.63,67-6.63S187.36,392.92,187.36,396.58Z" transform="translate(-5.8 -20.59)"/><rect class="cls-4" x="59.46" y="152.86" width="108.77" height="223.53"/><path class="cls-5" d="M169.53,386.94H69.76V183.49h99.77Zm-98.27-1.5H168V185H71.26Z" transform="translate(-5.8 -20.59)"/><path class="cls-5" d="M169.53,386.94H69.76V343h99.77Zm-98.27-1.5H168V344.51H71.26Z" transform="translate(-5.8 -20.59)"/><path class="cls-5" d="M169.53,386.94H69.76V302.5h99.77Zm-98.27-1.5H168V304H71.26Z" transform="translate(-5.8 -20.59)"/><path class="cls-5" d="M169.53,386.94H69.76V261h99.77Zm-98.27-1.5H168V262.5H71.26Z" transform="translate(-5.8 -20.59)"/><path class="cls-5" d="M169.53,386.94H69.76V261h99.77Zm-98.27-1.5H168V262.5H71.26Z" transform="translate(-5.8 -20.59)"/><path class="cls-5" d="M169.53,386.94H69.76V220.49h99.77Zm-98.27-1.5H168V222H71.26Z" transform="translate(-5.8 -20.59)"/><path class="cls-5" d="M119.64,350.47a28.34,28.34,0,0,0,18.09-6.5H101.56A28.34,28.34,0,0,0,119.64,350.47Z" transform="translate(-5.8 -20.59)"/><path class="cls-5" d="M119.64,310a28.34,28.34,0,0,0,18.09-6.5H101.56A28.34,28.34,0,0,0,119.64,310Z" transform="translate(-5.8 -20.59)"/><path class="cls-5" d="M119.64,268a28.34,28.34,0,0,0,18.09-6.5H101.56A28.34,28.34,0,0,0,119.64,268Z" transform="translate(-5.8 -20.59)"/><path class="cls-5" d="M119.64,228.21a28.3,28.3,0,0,0,18.09-6.51H101.56A28.29,28.29,0,0,0,119.64,228.21Z" transform="translate(-5.8 -20.59)"/><path class="cls-5" d="M119.64,190.7a28.34,28.34,0,0,0,18.09-6.5H101.56A28.34,28.34,0,0,0,119.64,190.7Z" transform="translate(-5.8 -20.59)"/><path class="cls-6" d="M267,391.43c0,2.25,10.6,4.07,23.66,4.07s23.66-1.82,23.66-4.07-10.59-4.08-23.66-4.08S267,389.17,267,391.43Z" transform="translate(-5.8 -20.59)"/><path class="cls-7" d="M285.79,361s8.65-53.26-10.14-57.24,5.23,56.68,5.23,56.68Z" transform="translate(-5.8 -20.59)"/><path class="cls-7" d="M295.77,360.75s0-68,24.22-69.13S302,361,302,361Z" transform="translate(-5.8 -20.59)"/><path class="cls-8" d="M285.9,371.49s-19.77-97.87,14.71-106.56-5.67,105.17-5.67,105.17Z" transform="translate(-5.8 -20.59)"/><path class="cls-8" d="M285.44,366.43s-8.8-79.85-37.35-78.08,30.08,79.23,30.08,79.23Z" transform="translate(-5.8 -20.59)"/><path class="cls-8" d="M295.46,365.81s19.64-65.08,43.12-59.2-37.25,61.28-37.25,61.28Z" transform="translate(-5.8 -20.59)"/><path class="cls-9" d="M291.29,367.63h0a.58.58,0,0,0,.57-.6c-.46-14.67,8.74-90.78,8.83-91.55a.58.58,0,1,0-1.15-.14c-.09.77-9.31,77-8.84,91.73A.57.57,0,0,0,291.29,367.63Z" transform="translate(-5.8 -20.59)"/><path class="cls-9" d="M298.85,289.13a.6.6,0,0,0,.44-.2l9.07-10.7a.58.58,0,0,0-.89-.75l-9.07,10.69a.59.59,0,0,0,.07.82A.54.54,0,0,0,298.85,289.13Z" transform="translate(-5.8 -20.59)"/><path class="cls-9" d="M296.52,310.07a.55.55,0,0,0,.44-.21l9.08-10.7a.59.59,0,0,0-.07-.82.58.58,0,0,0-.82.07l-9.07,10.7a.58.58,0,0,0,.06.82A.62.62,0,0,0,296.52,310.07Z" transform="translate(-5.8 -20.59)"/><path class="cls-9" d="M294.19,331a.61.61,0,0,0,.45-.2l9.07-10.71a.56.56,0,0,0-.07-.81.58.58,0,0,0-.82.06L293.75,330a.58.58,0,0,0,.07.82A.59.59,0,0,0,294.19,331Z" transform="translate(-5.8 -20.59)"/><path class="cls-9" d="M292.57,351.93a.6.6,0,0,0,.44-.2l9.07-10.7a.58.58,0,0,0-.89-.75L292.12,351a.57.57,0,0,0,.45.95Z" transform="translate(-5.8 -20.59)"/><path class="cls-9" d="M298.26,289.66a.58.58,0,0,0,.52-.83l-6-12.67a.58.58,0,0,0-1.05.5l6,12.67A.58.58,0,0,0,298.26,289.66Z" transform="translate(-5.8 -20.59)"/><path class="cls-9" d="M295.85,310.49a.58.58,0,0,0,.52-.83l-6-12.67a.58.58,0,0,0-.77-.27.59.59,0,0,0-.28.78l6,12.66A.58.58,0,0,0,295.85,310.49Z" transform="translate(-5.8 -20.59)"/><path class="cls-9" d="M293.9,331.32a.74.74,0,0,0,.25-.05.58.58,0,0,0,.27-.78l-6-12.66a.57.57,0,0,0-.77-.28.6.6,0,0,0-.28.78l6,12.66A.58.58,0,0,0,293.9,331.32Z" transform="translate(-5.8 -20.59)"/><path class="cls-9" d="M292.21,352a.57.57,0,0,0,.25-.06.58.58,0,0,0,.27-.78l-6-12.66a.58.58,0,0,0-1.05.5l6,12.66A.59.59,0,0,0,292.21,352Z" transform="translate(-5.8 -20.59)"/><path class="cls-9" d="M282.27,367.24a.68.68,0,0,0,.31-.08.58.58,0,0,0,.19-.8c-5.86-9.64-28.53-64.07-28.76-64.62a.59.59,0,0,0-.76-.31.57.57,0,0,0-.31.76c.93,2.24,22.93,55.06,28.84,64.77A.58.58,0,0,0,282.27,367.24Z" transform="translate(-5.8 -20.59)"/><path class="cls-9" d="M257.6,311.83a.59.59,0,0,0,.57-.47l2-10.6a.58.58,0,0,0-.47-.68.59.59,0,0,0-.68.46l-2,10.6a.57.57,0,0,0,.46.68Z" transform="translate(-5.8 -20.59)"/><path class="cls-9" d="M264,326.73a.59.59,0,0,0,.57-.48l2-10.6a.59.59,0,0,0-.46-.68.58.58,0,0,0-.68.47l-2,10.59a.57.57,0,0,0,.46.68Z" transform="translate(-5.8 -20.59)"/><path class="cls-9" d="M270.34,341.62a.58.58,0,0,0,.57-.47l2-10.6a.58.58,0,0,0-1.14-.22l-2,10.6a.59.59,0,0,0,.46.68Z" transform="translate(-5.8 -20.59)"/><path class="cls-9" d="M277.18,356.25a.58.58,0,0,0,.57-.48l2-10.59a.58.58,0,0,0-.46-.68.57.57,0,0,0-.68.46l-2,10.6a.59.59,0,0,0,.46.68Z" transform="translate(-5.8 -20.59)"/><path class="cls-9" d="M257.4,312.41a.61.61,0,0,0,.48-.25.59.59,0,0,0-.14-.81l-8.84-6.19a.58.58,0,0,0-.81.14.59.59,0,0,0,.14.81l8.84,6.19A.59.59,0,0,0,257.4,312.41Z" transform="translate(-5.8 -20.59)"/><path class="cls-9" d="M263.68,327.27a.57.57,0,0,0,.47-.25.57.57,0,0,0-.14-.81l-8.83-6.2a.59.59,0,0,0-.67,1l8.83,6.19A.62.62,0,0,0,263.68,327.27Z" transform="translate(-5.8 -20.59)"/><path class="cls-9" d="M270.27,342a.58.58,0,0,0,.33-1.06l-8.83-6.2a.59.59,0,0,0-.81.15.58.58,0,0,0,.14.81l8.83,6.19A.6.6,0,0,0,270.27,342Z" transform="translate(-5.8 -20.59)"/><path class="cls-9" d="M277,356.41a.58.58,0,0,0,.33-1.06l-8.83-6.19a.59.59,0,0,0-.81.14.58.58,0,0,0,.14.81l8.83,6.2A.61.61,0,0,0,277,356.41Z" transform="translate(-5.8 -20.59)"/><path class="cls-9" d="M298.23,366.49a.6.6,0,0,0,.52-.31c4.28-8.16,32.84-46.93,33.13-47.32a.58.58,0,0,0-.12-.81.57.57,0,0,0-.81.12c-1.18,1.6-28.91,39.23-33.23,47.46a.58.58,0,0,0,.25.79A.48.48,0,0,0,298.23,366.49Z" transform="translate(-5.8 -20.59)"/><path class="cls-9" d="M326.65,325.89a.48.48,0,0,0,.2,0l8.27-3a.59.59,0,0,0-.4-1.1l-8.27,3.05a.58.58,0,0,0,.2,1.13Z" transform="translate(-5.8 -20.59)"/><path class="cls-9" d="M318.9,336.62a.45.45,0,0,0,.2,0l8.27-3a.59.59,0,0,0-.4-1.1l-8.27,3.05a.58.58,0,0,0,.2,1.13Z" transform="translate(-5.8 -20.59)"/><path class="cls-9" d="M311.16,347.35a.51.51,0,0,0,.2,0l8.27-3a.58.58,0,0,0,.34-.75.58.58,0,0,0-.74-.35L311,346.22a.58.58,0,0,0-.35.75A.59.59,0,0,0,311.16,347.35Z" transform="translate(-5.8 -20.59)"/><path class="cls-9" d="M303.79,358.3a.71.71,0,0,0,.2,0l8.27-3.05a.58.58,0,1,0-.4-1.09l-8.27,3.05a.59.59,0,0,0-.35.75A.59.59,0,0,0,303.79,358.3Z" transform="translate(-5.8 -20.59)"/><path class="cls-9" d="M326.16,326a.57.57,0,0,0,.58-.54l.62-8.79a.58.58,0,0,0-.54-.62.59.59,0,0,0-.62.54l-.62,8.79a.58.58,0,0,0,.54.62Z" transform="translate(-5.8 -20.59)"/><path class="cls-9" d="M318.4,336.64a.57.57,0,0,0,.58-.54l.62-8.79a.58.58,0,0,0-.54-.62.59.59,0,0,0-.62.54l-.62,8.79a.58.58,0,0,0,.54.62Z" transform="translate(-5.8 -20.59)"/><path class="cls-9" d="M310.89,347.43a.57.57,0,0,0,.58-.54l.62-8.79a.58.58,0,0,0-.54-.62.59.59,0,0,0-.62.54l-.62,8.79a.58.58,0,0,0,.54.62Z" transform="translate(-5.8 -20.59)"/><path class="cls-9" d="M303.58,358.21a.59.59,0,0,0,.58-.54l.62-8.8a.58.58,0,0,0-1.16-.08l-.62,8.79a.59.59,0,0,0,.54.63Z" transform="translate(-5.8 -20.59)"/><path class="cls-10" d="M280,391.79h21.16a2.73,2.73,0,0,0,2.69-2.25l4-22.15a2.74,2.74,0,0,0-2.69-3.22h-29.1a2.74,2.74,0,0,0-2.69,3.22l4,22.15A2.73,2.73,0,0,0,280,391.79Z" transform="translate(-5.8 -20.59)"/><polygon class="cls-11" points="268.56 352.43 267.81 348.25 301.78 348.25 301.03 352.43 268.56 352.43"/><polygon class="cls-11" points="269.54 357.86 269.06 355.22 300.53 355.22 300.06 357.86 269.54 357.86"/><path class="cls-3" d="M378.51,417.93c0,3.66,26.4,6.63,59,6.63s58.95-3,58.95-6.63S470,411.3,437.47,411.3,378.51,414.26,378.51,417.93Z" transform="translate(-5.8 -20.59)"/><path class="cls-12" d="M481.74,420.23a1.72,1.72,0,0,0,.39,0,1.93,1.93,0,0,0,1.51-2.27l-16-78.15a1.94,1.94,0,0,0-2.28-1.5,1.92,1.92,0,0,0-1.5,2.28l16,78.14A1.91,1.91,0,0,0,481.74,420.23Z" transform="translate(-5.8 -20.59)"/><path class="cls-12" d="M445.48,420.23a1.78,1.78,0,0,0,.39,0,1.93,1.93,0,0,0,1.5-2.27l-16-78.15a1.93,1.93,0,1,0-3.78.78l16,78.14A1.92,1.92,0,0,0,445.48,420.23Z" transform="translate(-5.8 -20.59)"/><path class="cls-13" d="M394,420.23a1.91,1.91,0,0,0,1.88-1.54l16-78.14a1.92,1.92,0,1,0-3.77-.78l-16,78.15a1.93,1.93,0,0,0,1.51,2.27A1.72,1.72,0,0,0,394,420.23Z" transform="translate(-5.8 -20.59)"/><path class="cls-13" d="M430.28,420.23a1.92,1.92,0,0,0,1.89-1.54l16-78.14a1.93,1.93,0,0,0-3.78-.78l-16,78.15a1.93,1.93,0,0,0,1.5,2.27A1.72,1.72,0,0,0,430.28,420.23Z" transform="translate(-5.8 -20.59)"/><path class="cls-12" d="M452.5,316.05s2.51,15.27-5,18.23c0,0,1.82,1.6,9.11,1.37s6.38-13.44,3.87-17.32S459.34,314.69,452.5,316.05Z" transform="translate(-5.8 -20.59)"/><path class="cls-14" d="M476,348.15s1.14-8.56-3.42-12.55-61-8.56-75.86,1.71a13.17,13.17,0,0,0-2.28,11.41C396.19,355.56,468.06,359,476,348.15Z" transform="translate(-5.8 -20.59)"/><path class="cls-14" d="M482.89,325.9s-47.35,0-50.2-8,8.56-70.73,38.79-65S491.44,317.92,482.89,325.9Z" transform="translate(-5.8 -20.59)"/><path class="cls-3" d="M159.86,417.93c0,3.66-26.4,6.63-59,6.63S42,421.59,42,417.93s26.4-6.63,59-6.63S159.86,414.26,159.86,417.93Z" transform="translate(-5.8 -20.59)"/><path class="cls-12" d="M56.63,420.23a1.72,1.72,0,0,1-.39,0,1.92,1.92,0,0,1-1.5-2.27l16-78.15a1.93,1.93,0,0,1,3.78.78l-16,78.14A1.92,1.92,0,0,1,56.63,420.23Z" transform="translate(-5.8 -20.59)"/><path class="cls-12" d="M92.9,420.23a1.72,1.72,0,0,1-.39,0A1.93,1.93,0,0,1,91,417.92l16-78.15a1.93,1.93,0,0,1,3.78.78l-16,78.14A1.91,1.91,0,0,1,92.9,420.23Z" transform="translate(-5.8 -20.59)"/><path class="cls-13" d="M144.36,420.23a1.92,1.92,0,0,1-1.89-1.54l-16-78.14a1.93,1.93,0,0,1,3.78-.78l16,78.15a1.93,1.93,0,0,1-1.5,2.27A1.78,1.78,0,0,1,144.36,420.23Z" transform="translate(-5.8 -20.59)"/><path class="cls-13" d="M108.09,420.23a1.92,1.92,0,0,1-1.89-1.54l-16-78.14a1.93,1.93,0,1,1,3.78-.78l16,78.15a1.92,1.92,0,0,1-1.5,2.27A1.72,1.72,0,0,1,108.09,420.23Z" transform="translate(-5.8 -20.59)"/><path class="cls-12" d="M85.87,316.05s-2.5,15.27,5,18.23c0,0-1.83,1.6-9.12,1.37s-6.38-13.44-3.87-17.32S79,314.69,85.87,316.05Z" transform="translate(-5.8 -20.59)"/><path class="cls-14" d="M62.33,348.15s-1.14-8.56,3.42-12.55,61-8.56,75.87,1.71a13.2,13.2,0,0,1,2.28,11.41C142.19,355.56,70.32,359,62.33,348.15Z" transform="translate(-5.8 -20.59)"/><path class="cls-14" d="M55.49,325.9s47.34,0,50.19-8-8.56-70.73-38.79-65S46.93,317.92,55.49,325.9Z" transform="translate(-5.8 -20.59)"/><circle class="cls-3" cx="430.29" cy="94.38" r="30.93" transform="translate(53.49 311.32) rotate(-45)"/><circle class="cls-15" cx="430.29" cy="90.28" r="30.93" transform="translate(56.39 310.11) rotate(-45)"/><circle class="cls-16" cx="430.29" cy="90.28" r="27.88" transform="translate(56.39 310.11) rotate(-45)"/><path class="cls-15" d="M432.93,90.28a2.64,2.64,0,1,1-2.64-2.64A2.64,2.64,0,0,1,432.93,90.28Z" transform="translate(-5.8 -20.59)"/><path class="cls-15" d="M430.39,91.28c-.38.24-.81.24-1,0L417.29,71.94c-.15-.25,0-.64.41-.88h0c.38-.23.81-.23,1,0L430.8,90.41c.15.24,0,.64-.41.87Z" transform="translate(-5.8 -20.59)"/><path class="cls-15" d="M431.05,90.19c0,.45-.14.81-.31.81H417.21c-.18,0-.32-.36-.32-.81h0c0-.45.14-.81.32-.81h13.53c.17,0,.31.36.31.81Z" transform="translate(-5.8 -20.59)"/><path class="cls-17" d="M447.83,98.05l-.16,0-17.24-7.39a.42.42,0,0,1-.21-.54.42.42,0,0,1,.54-.22L448,97.26a.42.42,0,0,1,.21.54A.4.4,0,0,1,447.83,98.05Z" transform="translate(-5.8 -20.59)"/><path class="cls-18" d="M187.48,152.19s-7.18-5.83-18.84,5.38-.45,104.08-.45,104.08l57.42-3.14S214,164.3,209,160.71,194.66,152.64,187.48,152.19Z" transform="translate(-5.8 -20.59)"/><polygon class="cls-19" points="173.54 133.15 186.76 142.49 190.31 136.91 187.38 131.07 173.54 133.15"/><polygon class="cls-19" points="190.31 136.91 173.33 133.81 168.78 112.22 184.42 108.92 190.31 136.91"/><polygon class="cls-20" points="173.06 132.55 187.89 125.38 186.27 117.69 185.36 114.78 169.42 115.25 173.06 132.55"/><path class="cls-19" d="M199.68,126.91a19.14,19.14,0,1,1-14.1-23.1A19.14,19.14,0,0,1,199.68,126.91Z" transform="translate(-5.8 -20.59)"/><path class="cls-19" d="M167.25,135.59s28.93,18.31,33.74,1.82-4.84-28.29-10.81-31.61C186.92,104,166.05,114.68,167.25,135.59Z" transform="translate(-5.8 -20.59)"/><path class="cls-21" d="M179.11,125.7s-7.09-7.31-8.4-1.11S176,130,176,130l-.79,11.5s-24.68-2.19-14.61-24.93c0,0-1.87-11.13,8.16-15.09s21.83,2.33,29.2-1.26c0,0,4.56-3.88,4.61,1.81,0,0,4.51-1.27,2.47,3.54s.59,8.8-6.25,9.38-20-.82-20-.82S185.15,118.26,179.11,125.7Z" transform="translate(-5.8 -20.59)"/><path class="cls-21" d="M178.92,126.09s3.7,17.44,6.48,18.1,18.94,4,17.49-10.57c0,0-3.37-4.16-7-2.19s-10.56,7.87-10.56,7.87-1.82-16.13-5-18.76S178.92,126.09,178.92,126.09Z" transform="translate(-5.8 -20.59)"/><path class="cls-19" d="M162.49,411.28l-10,28.5s-5.67,3.39-8.72,2.22c-6.92-2.68-3-11.63-3-11.63l6.94-25.23Z" transform="translate(-5.8 -20.59)"/><path class="cls-22" d="M138.87,436.3s9.47,8.4,14.83-.44c0,0,14.5,3.67,14.58,8.6l-29.8,1.26S136.36,438.34,138.87,436.3Z" transform="translate(-5.8 -20.59)"/><rect class="cls-23" x="131.66" y="423.39" width="30.82" height="3.16"/><path class="cls-19" d="M222.18,408.81l2.93,30.07a26,26,0,0,1-7.4,2.14c-7.41.5-7.12-8.3-7.12-8.3l-4.41-23.23Z" transform="translate(-5.8 -20.59)"/><path class="cls-22" d="M210.7,436.3s9.46,8.4,14.83-.44c0,0,14.49,3.67,14.57,8.6l-29.8,1.26S208.19,438.34,210.7,436.3Z" transform="translate(-5.8 -20.59)"/><rect class="cls-23" x="203.49" y="423.39" width="30.82" height="3.16"/><path class="cls-24" d="M213.33,160.33s26.75,11.28,19.19,82.95Z" transform="translate(-5.8 -20.59)"/><path class="cls-24" d="M224.82,283.29l11.11-.56S230,254.36,223,267,224.82,283.29,224.82,283.29Z" transform="translate(-5.8 -20.59)"/><polygon class="cls-25" points="220.7 407.04 220.7 236.12 182.35 236.79 195.13 410.4 220.7 407.04"/><polygon class="cls-26" points="207.92 236.79 158.12 411.07 131.21 408.38 162.83 236.79 207.92 236.79"/><path class="cls-14" d="M177,151.2s-27.16,13.1-28.51,23.42,14.15,66.18,9.42,117.53c0,0,35.89,4,39.48-4.49C197.35,287.66,213.75,201.44,177,151.2Z" transform="translate(-5.8 -20.59)"/><path class="cls-14" d="M235.93,282.73S228.4,181.45,219.87,167.1,195,152.29,195,152.29s29.69,101.28,29.69,109.36S231,282.28,235.93,282.73Z" transform="translate(-5.8 -20.59)"/><path class="cls-24" d="M199,237.66c-8.66-2.8-19.13-10.29-26.09-29.18-13.77-37.36-13.44-39.66-19.34-35.4,0,0,1,52.77,9.18,69.81,5.12,10.66,23.46,17.6,36.48,21.31C199.49,256.56,199.53,247.49,199,237.66Z" transform="translate(-5.8 -20.59)"/><path class="cls-27" d="M251.1,258s-2.47,3.07-5.48,3.07l-3-8.61Z" transform="translate(-5.8 -20.59)"/><path class="cls-19" d="M224.32,256.05s-1.4,0-4.77-3.2l-7.64-3.62,2.22-12.08s10.77,4.11,12.66,4.11,8.46-2.22,13.23,1.15Z" transform="translate(-5.8 -20.59)"/><path class="cls-28" d="M257.3,242.36l-6.36,1.69-8.87-4.4-8,.61-3.52,5s1.9,2,3.79.61,2.3-1.69,2.3-1.69l15.09,14.34,13.44-5.72S266.23,247.23,257.3,242.36Z" transform="translate(-5.8 -20.59)"/><path class="cls-27" d="M237.15,243.78s1.7-1.11,2.62-.6,13.5,4.16,13.09,14.93Z" transform="translate(-5.8 -20.59)"/><path class="cls-19" d="M233.21,244l-8.12,10.35s10.89,10.15,12.38,10.15a7.63,7.63,0,0,0,3.25-1.08s2.84,2,3.79-1.29a2.29,2.29,0,0,0,3.52.48c2.09-1.69-3.39-8-3.39-8s6.09,6.5,8.39,5.69-2.57-7.85-5.88-10.49-6.23-4.87-10.08-6.09a16,16,0,0,1-1.76,1.49C234.36,245.88,233.48,245.74,233.21,244Z" transform="translate(-5.8 -20.59)"/><path class="cls-20" d="M236.54,240.75l-1.81.31-1.41,1.34L231,246.47s2.07,1.86,3.83.27,1.88-2.13,1.88-2.13l.29-.24.16-.21Z" transform="translate(-5.8 -20.59)"/><path class="cls-29" d="M236.63,240.07l-1.83.14-1.52,1.21-2.71,3.85s1.9,2,3.79.61,2.3-1.69,2.3-1.69L237,244l.18-.19Z" transform="translate(-5.8 -20.59)"/><path class="cls-20" d="M235.13,263.06l.2-.16c1.59-1.48,1.15-4-1-2.69l-1,.61s2.36-2.14,2.8-3.95-1.43-1.64-2.25-.93a30.53,30.53,0,0,1-2.63,1.86s2.58-2.3,2.52-3.18-1.42-1.91-3.56-.49-3,2-3,2,2.47-2.74,2.19-3.56-.93-1-2-.5a13.41,13.41,0,0,0-1.21.78l-1.14,1.45S231.47,260.27,235.13,263.06Z" transform="translate(-5.8 -20.59)"/><path class="cls-28" d="M222.84,254.38a2.42,2.42,0,0,0,2.08,3.07s1,2.68,3,2.52c0,0,.71,2.41,2.79,1.75,0,0,2.19,2.25,3.78.77s1.15-4-1-2.69l-1,.61s2.36-2.14,2.8-4-1.43-1.64-2.25-.93a30.53,30.53,0,0,1-2.63,1.86s2.58-2.3,2.52-3.18-1.42-1.91-3.56-.49-3,2-3,2,2.47-2.74,2.19-3.56-.93-1-2-.5A44.71,44.71,0,0,0,222.84,254.38Z" transform="translate(-5.8 -20.59)"/><path class="cls-30" d="M333.51,174.85s13.48-6.57,19.37,8.64l-19.53,49.44-25.53-6.52S328.2,178.9,333.51,174.85Z" transform="translate(-5.8 -20.59)"/><path class="cls-30" d="M254.65,242l54.82-18.5L334.14,230s-.65,6.72-10.49,14.54c-4.82,3.83-64.34,16.11-64.34,16.11Z" transform="translate(-5.8 -20.59)"/><path class="cls-31" d="M259.31,260.61l6.23-1.31L260.79,240,254.65,242Z" transform="translate(-5.8 -20.59)"/><rect class="cls-28" x="340.1" y="148.51" width="26.87" height="15.01" transform="translate(176.55 481.88) rotate(-87.52)"/><polygon class="cls-10" points="354.97 141.84 340.13 137.47 340.45 130.09 340.85 127.25 355.69 125.24 354.97 141.84"/><path class="cls-10" d="M337.46,141.31A18,18,0,1,0,347,117.74,18,18,0,0,0,337.46,141.31Z" transform="translate(-5.8 -20.59)"/><path class="cls-28" d="M368.84,144.38s-24,21.41-31,6.86.14-26.95,5.17-30.95C345.76,118.12,366.74,124.82,368.84,144.38Z" transform="translate(-5.8 -20.59)"/><path class="cls-32" d="M368.64,143.9a12.47,12.47,0,0,0,6.45-10.76A11.41,11.41,0,0,0,369,122.73s1.78-3.73-3-7c-5.14-3.46-11.25-2.92-17.54-1.54s-17.46-7.43-20.44,3.26c-2.26,8.12,14.38,23.08,32.45,10,0,0-2.68,9.36,4,5.44s4.69,4.31,0,5.43C364.44,138.38,371.18,137.59,368.64,143.9Z" transform="translate(-5.8 -20.59)"/><path class="cls-22" d="M340.43,140.85a3.16,3.16,0,0,1-2.75-1.78,8.1,8.1,0,0,1-1.07-3.91c-.1-2.71.94-5.07,2.53-5.75a2.48,2.48,0,0,1,.88-.19,3.16,3.16,0,0,1,2.75,1.78,8.1,8.1,0,0,1,1.07,3.91c.1,2.71-.94,5.07-2.53,5.74A2.45,2.45,0,0,1,340.43,140.85Zm-2.24-5.74a6.69,6.69,0,0,0,.84,3.14c.4.67.9,1,1.35,1,.95,0,2-1.83,1.88-4.31a6.54,6.54,0,0,0-.84-3.14c-.4-.67-.89-1-1.35-1a.73.73,0,0,0-.31.07C338.93,131.22,338.11,132.91,338.19,135.11Z" transform="translate(-5.8 -20.59)"/><path class="cls-22" d="M330.19,140.38a3.16,3.16,0,0,1-2.75-1.78,8.21,8.21,0,0,1-1.08-3.9c-.09-2.71.95-5.08,2.54-5.75a2.45,2.45,0,0,1,.87-.2,3.16,3.16,0,0,1,2.76,1.78,8.1,8.1,0,0,1,1.07,3.91c.1,2.71-1,5.07-2.54,5.75A2.39,2.39,0,0,1,330.19,140.38Zm-2.25-5.74a6.77,6.77,0,0,0,.84,3.14c.41.67.9,1,1.35,1,.95,0,2-1.83,1.89-4.31a6.69,6.69,0,0,0-.84-3.14c-.41-.66-.9-1-1.35-1a.82.82,0,0,0-.31.07C328.68,130.76,327.86,132.44,327.94,134.64Z" transform="translate(-5.8 -20.59)"/><rect class="cls-22" x="342.96" y="132.77" width="20.86" height="1.58" transform="translate(-20.29 26.99) rotate(-7.55)"/><rect class="cls-22" x="334.17" y="132.6" width="1.58" height="5.1" transform="translate(141.42 423.13) rotate(-80.66)"/><path class="cls-3" d="M119.94,445.43c0,3.66,30,6.63,66.95,6.63s67-3,67-6.63-30-6.64-67-6.64S119.94,441.76,119.94,445.43Z" transform="translate(-5.8 -20.59)"/><path class="cls-3" d="M292.73,445.43c0,3.66,24.28,6.63,54.24,6.63s54.23-3,54.23-6.63-24.28-6.64-54.23-6.64S292.73,441.76,292.73,445.43Z" transform="translate(-5.8 -20.59)"/><path class="cls-33" d="M366.12,408.84l5,29.78s5,4.31,8.21,3.68c7.28-1.46,4.92-10.95,4.92-10.95l-2.53-26.05Z" transform="translate(-5.8 -20.59)"/><path class="cls-22" d="M385.05,436.3s-9.46,8.4-14.83-.44c0,0-14.49,3.67-14.57,8.6l29.8,1.26S387.56,438.34,385.05,436.3Z" transform="translate(-5.8 -20.59)"/><rect class="cls-23" x="349.84" y="423.39" width="30.82" height="3.16"/><path class="cls-29" d="M326.37,408.81l-2.93,30.07a26,26,0,0,0,7.41,2.14c7.4.5,7.11-8.3,7.11-8.3l4.41-23.23Z" transform="translate(-5.8 -20.59)"/><path class="cls-34" d="M362.14,252.92s10.35,2.5,10.22,21.22c-.18,24.58,14,154,13.82,154.61-.55,1.82-18.38,4.82-18.22,5.24.7,1.89-6.39-23.67-6.39-23.67L325.86,263.17A63.8,63.8,0,0,1,362.14,252.92Z" transform="translate(-5.8 -20.59)"/><path class="cls-35" d="M366.3,259.77s13.49,15.71,4.14,31.93C350,327.1,341,431.85,340.65,432.43c-1,1.6-18.32-.77-18.29-.32.16,2,.58-21,.58-21l3.4-144.59S346,253.39,366.3,259.77Z" transform="translate(-5.8 -20.59)"/><path class="cls-7" d="M338,436.3s-9.46,8.4-14.83-.44c0,0-14.49,3.67-14.57,8.6l29.8,1.26S340.53,438.34,338,436.3Z" transform="translate(-5.8 -20.59)"/><rect class="cls-23" x="302.8" y="423.39" width="30.82" height="3.16"/><path class="cls-36" d="M353.88,164.88s16.31,1.09,20.37,20.52-2.47,51.19-.15,62.79,3.32,18.6,2.45,27.88c-.9,9.61-52.2,2.32-52.2,2.32s.89-40.21.89-41.37,2.9-52.78,2.9-52.78S335.32,165.46,353.88,164.88Z" transform="translate(-5.8 -20.59)"/><path class="cls-31" d="M363.23,168.8s-7.4-3.27-12.18-1.31-12.4,4.79-12.4,4.79l.66-6.75s10.65-3,15.22-3,12,3,12,3S365.84,168.36,363.23,168.8Z" transform="translate(-5.8 -20.59)"/><path class="cls-30" d="M376,281.35a120.89,120.89,0,0,0-1.81-32.79l-20,37.72C365.44,286.53,375.59,285.57,376,281.35Z" transform="translate(-5.8 -20.59)"/><path class="cls-30" d="M373.61,254.31c-.41-12.34,3.19-45.57,1.59-62.45l-22.32-8.37s-2.17,9.85.81,16.41C356.15,205.31,367.59,248.57,373.61,254.31Z" transform="translate(-5.8 -20.59)"/><path class="cls-28" d="M356,275.82l-3.65,2.34s-5-1.9-8.49.29-9.22,1-9.66.44c0,0-1.76,1.76.15,3.08s5.26,3.8,9.22,1c0,0-2.35,6-2.49,8.05,0,0,8.34,9.51,18.73,7l1-12,3.52-5.12S360.55,272.75,356,275.82Z" transform="translate(-5.8 -20.59)"/><path class="cls-36" d="M352.11,187.26s-.94-15,15.36-14.62l42,39.92L390,230.65S353.83,193.71,352.11,187.26Z" transform="translate(-5.8 -20.59)"/><path class="cls-36" d="M348.63,275.48l37.54-52.23L408.55,211s4.13,5.35,2.31,17.78c-.89,6.09-46.26,57.77-46.26,57.77Z" transform="translate(-5.8 -20.59)"/><path class="cls-36" d="M348.63,275.48l37.54-52.23L408.55,211s4.13,5.35,2.31,17.78c-.89,6.09-46.26,57.77-46.26,57.77Z" transform="translate(-5.8 -20.59)"/><path class="cls-31" d="M364.6,286.59s1.22-1.38,3.24-3.71L352.1,270.65l-3.47,4.83Z" transform="translate(-5.8 -20.59)"/><path class="cls-34" d="M356,299.54c-10.08,0-17.2-9.9-17.28-10a1,1,0,1,1,1.68-1.18c.4.56,9.78,13.56,22,7.6a1,1,0,1,1,.91,1.84A16.33,16.33,0,0,1,356,299.54Z" transform="translate(-5.8 -20.59)"/><polygon class="cls-18" points="218.01 218.59 214.06 234.11 208.8 231.87 212.48 216.09 218.01 218.59"/><path class="cls-14" d="M174.92,169.23s-11.67-12.11-22.88,3.15c0,0,6.73,49.79,21.08,61.45s43.07,23.78,43.07,23.78l4-21.53-35-20.19S186.13,194.36,174.92,169.23Z" transform="translate(-5.8 -20.59)"/></svg>