<svg id="Layer_1" data-name="Layer 1" xmlns="http://www.w3.org/2000/svg" viewBox="0 0 254.96 179.34"><defs><style>.cls-1{fill:#1195f7;}.cls-2{fill:#fff;}</style></defs><path class="cls-1" d="M38.3,113.21l168.05-83A18.72,18.72,0,0,1,227.11,33l53.44,47.82a18.7,18.7,0,0,1-4.4,30.81L77.84,206.48a11,11,0,0,1-15-5.72L32.72,128.08A11.61,11.61,0,0,1,38.3,113.21Z" transform="translate(-31.83 -28.23)"/><path class="cls-2" d="M82.25,145.54,87.14,143l6.22,12a14.68,14.68,0,0,1-7.65,8.18c-7.47,3.43-16,.05-20.3-8.22s-2.14-17.26,5-21.51A11.81,11.81,0,0,1,82.52,133c-.51,2.39-.77,3.58-1.29,5.94a7.74,7.74,0,0,0-7.6,0c-4.42,2.5-5.55,7.85-2.8,13.16s7.75,7.44,12.25,5.26a7.81,7.81,0,0,0,3.59-3.3Z" transform="translate(-31.83 -28.23)"/><path class="cls-2" d="M108.71,134.73c2.87,5.56,4.31,8.33,7.19,13.89l-5,2.29-1.55-3c.16,2.65-1.15,4.67-3.83,5.9-4.27,2-8.37.14-10.43-3.84s-1.35-8,4.08-10.85l4.11-2.13c-1.54-3-3.76-4-6.52-2.53a8.44,8.44,0,0,0-4,4.9c-1.72-1.49-2.57-2.24-4.27-3.7a13.53,13.53,0,0,1,6.11-7C100,125.65,104.89,127.36,108.71,134.73Zm-2,8.77-1.26-2.45-3.57,1.79c-2.44,1.22-2.59,2.78-1.78,4.35a3.12,3.12,0,0,0,4.42,1.41C106.25,147.76,107.22,146,106.69,143.5Z" transform="translate(-31.83 -28.23)"/><path class="cls-2" d="M143.49,116.71l8,15.47-5.28,2.44-7.28-14.05c-2.23-4.3-4.53-5.6-6.61-4.49-2.3,1.24-2.78,4.28-.37,8.93l6.76,13.07-5.28,2.44-7-13.54c-2.14-4.15-4.35-5.4-6.49-4.26s-2.79,4.18-.47,8.65L126,144l-5.29,2.44c-5.11-9.88-7.67-14.82-12.79-24.7l4.86-2.71,1.49,2.89a7.57,7.57,0,0,1,3.82-6.35c2.44-1.36,5.24-1.15,8,1,0-3.42,1.48-6.31,4.12-7.78C134.31,106.44,139.22,108.48,143.49,116.71Z" transform="translate(-31.83 -28.23)"/><path class="cls-2" d="M178.26,98.76l8.8,17-5.29,2.44-8-15.46c-2.45-4.73-4.87-6.23-6.94-5.12-2.3,1.24-2.67,4.5,0,9.63l7.46,14.41L169,124.1c-3.09-6-4.64-9-7.74-15-2.37-4.58-4.68-6-6.82-4.89s-2.68,4.4-.11,9.36l7.22,13.93L156.25,130l-14.17-27.37,4.85-2.71c.66,1.28,1,1.92,1.66,3.2.08-3.09,1.38-5.44,3.63-6.7,2.44-1.36,5.32-1,8.19,1.46-.11-3.7,1.25-6.75,3.89-8.22C168.47,87.3,173.58,89.7,178.26,98.76Z" transform="translate(-31.83 -28.23)"/><path class="cls-2" d="M171,74.82c-1.41-2.73-1.26-5.6.59-6.73s4.16.16,5.57,2.88c1.52,3,1.37,5.83-.5,6.9S172.38,77.56,171,74.82Zm5.3,8.69,5.08-2.84,15.76,30.45-5.29,2.44Z" transform="translate(-31.83 -28.23)"/><path class="cls-2" d="M211.11,81.79l9.55,18.44-5.29,2.45-8.69-16.8c-2.67-5.15-5.21-6.81-7.47-5.59-2.47,1.32-2.87,4.94.11,10.68l8,15.43L202,108.84q-8-15.41-16-30.81l4.85-2.71L192.81,79c0-3.42,1.29-6,3.67-7.36C200.61,69.29,206,72,211.11,81.79Z" transform="translate(-31.83 -28.23)"/><path class="cls-2" d="M226.86,55.24l14.65,28.32c6.55,12.64,5.84,20-.83,22.89a13,13,0,0,1-11.39-.6c-.56-3.08-.84-4.63-1.41-7.74a9.78,9.78,0,0,0,8.4.8c3.75-1.68,3.76-5.54.63-11.6l-.75-1.43c.08,3.47-1.21,5.76-3.58,6.86-5,2.35-12.32-2-17.23-11.45s-4.22-17.89.63-20.61c2.44-1.37,5.26-1,8.29,1.56-.9-1.72-1.34-2.58-2.24-4.31ZM230,73.78c-2.56-4.93-6.21-7.2-8.9-5.76s-3,5.75-.49,10.58,6.18,7.09,8.93,5.74S232.54,78.72,230,73.78Z" transform="translate(-31.83 -28.23)"/></svg>