<svg id="Layer_1" data-name="Layer 1" xmlns="http://www.w3.org/2000/svg" viewBox="0 0 506.08 504.88"><defs><style>.cls-1{opacity:0.3;}.cls-2{fill:#a7a9ac;}.cls-3{fill:#fff;}.cls-4{fill:#939598;}.cls-5{fill:#174666;}.cls-6{fill:#ff8400;}.cls-7{fill:#d1d3d4;}.cls-8{fill:#16a89f;}.cls-9{fill:#ff4d75;}.cls-10{fill:#121214;}.cls-11{fill:#303033;}.cls-12{fill:#ab183a;}.cls-13{fill:#ff2456;}.cls-14{fill:#0f2034;}.cls-15{fill:#1d374e;}.cls-16{fill:#0a8074;}.cls-17{fill:#24d2c1;}.cls-18{fill:#535359;}.cls-19{fill:#e6dab0;}.cls-20{fill:#bcbec0;}.cls-21{fill:#ba6000;}.cls-22{fill:#ff9d26;}.cls-23{fill:#2b5e85;}.cls-24{fill:#f0c6b4;}.cls-25{fill:#c7a496;}.cls-26{fill:#e31b25;}.cls-27{fill:#e6e7e8;}.cls-28{fill:#f5f5f5;}.cls-29{fill:#603913;}.cls-30{fill:#3c2415;}.cls-31{fill:#3576ab;}</style></defs><path class="cls-1" d="M420.43,391.08a9.23,9.23,0,0,1-4.59-1.13L221.15,277.51a4.5,4.5,0,0,1-2.6-3.81,4.66,4.66,0,0,1,2.59-4L340.77,200.6a9.85,9.85,0,0,1,4.65-1.09,9.71,9.71,0,0,1,4.58,1.06L544.69,313a4.76,4.76,0,0,1,2.51,4,4.68,4.68,0,0,1-2.46,3.9L425,390A9.06,9.06,0,0,1,420.43,391.08Z" transform="translate(-47.96 -42.56)"/><path class="cls-2" d="M228.67,267.9l113.18-65.32a7.76,7.76,0,0,1,7.11,0L535.73,310.4l9.36-4.27V317a2.57,2.57,0,0,1-1.48,2l-119.7,69.06a7.88,7.88,0,0,1-7,0L222.23,275.71a2.55,2.55,0,0,1-1.48-2V263h7.92Z" transform="translate(-47.96 -42.56)"/><path class="cls-3" d="M341.85,191.86a8.35,8.35,0,0,1,7.11,0L543.61,304.24c1.9,1.18,1.9,3,0,4.17l-119.7,69.07a7.69,7.69,0,0,1-7,0L222.23,265c-2-1.09-2-2.9,0-4.08Z" transform="translate(-47.96 -42.56)"/><polygon class="cls-4" points="297.05 169.88 287.83 175.13 278.75 169.88 287.83 164.6 297.05 169.88"/><polygon class="cls-4" points="314.23 179.75 305.09 185.13 295.93 179.75 305.09 174.56 314.23 179.75"/><polygon class="cls-4" points="283.87 177.48 274.73 182.81 265.65 177.48 274.73 172.25 283.87 177.48"/><polygon class="cls-4" points="286.48 192 277.32 197.15 254.37 183.94 263.53 178.65 286.48 192"/><polygon class="cls-4" points="275.2 198.5 266.12 203.67 243.18 190.47 252.27 185.18 275.2 198.5"/><polygon class="cls-4" points="263.78 205.02 254.71 210.32 231.68 197.04 240.83 191.73 263.78 205.02"/><polygon class="cls-4" points="325.68 186.47 316.59 191.68 307.38 186.47 316.59 181.17 325.68 186.47"/><polygon class="cls-4" points="337.13 193.08 328.04 198.34 318.9 193.08 328.04 187.79 337.13 193.08"/><polygon class="cls-4" points="348.55 199.58 339.47 204.94 330.31 199.58 339.47 194.43 348.55 199.58"/><polygon class="cls-4" points="297.64 185.4 288.49 190.71 279.41 185.4 288.49 180.25 297.64 185.4"/><polygon class="cls-4" points="309.11 192.12 299.95 197.34 290.86 192.12 299.95 186.83 309.11 192.12"/><polygon class="cls-4" points="320.61 198.69 311.45 203.98 302.31 198.69 311.45 193.42 320.61 198.69"/><polygon class="cls-4" points="332.06 205.27 322.9 210.55 313.76 205.27 322.9 200.04 332.06 205.27"/><polygon class="cls-4" points="343.48 211.97 334.4 217.19 325.24 211.97 334.4 206.63 343.48 211.97"/><polygon class="cls-4" points="354.94 218.59 345.85 223.85 336.69 218.59 345.85 213.29 354.94 218.59"/><polygon class="cls-4" points="366.44 225.1 357.29 230.4 348.14 225.1 357.29 219.88 366.44 225.1"/><polygon class="cls-4" points="377.89 231.84 368.78 237.06 359.61 231.84 368.78 226.52 377.89 231.84"/><polygon class="cls-4" points="389.03 238.19 379.87 243.48 370.71 238.19 379.87 232.96 389.03 238.19"/><polygon class="cls-4" points="400.46 244.77 391.32 250.01 382.23 244.77 391.32 239.54 400.46 244.77"/><polygon class="cls-4" points="411.91 251.46 402.8 256.72 393.66 251.46 402.8 246.17 411.91 251.46"/><polygon class="cls-4" points="423.41 258.04 414.17 263.25 405.16 258.04 414.17 252.83 423.41 258.04"/><polygon class="cls-4" points="434.84 264.69 425.7 269.92 416.59 264.69 425.7 259.35 434.84 264.69"/><polygon class="cls-4" points="446.27 271.25 437.12 276.53 428.04 271.25 437.12 265.97 446.27 271.25"/><polygon class="cls-4" points="286.67 205.02 277.59 210.32 268.42 205.02 277.59 199.8 286.67 205.02"/><polygon class="cls-4" points="298.16 211.58 289.02 216.95 279.87 211.58 289.02 206.37 298.16 211.58"/><polygon class="cls-4" points="300.51 213 291.36 218.24 300.51 223.49 309.61 218.24 300.51 213"/><polygon class="cls-4" points="321.06 224.85 311.95 230.16 302.81 224.85 311.95 219.61 321.06 224.85"/><polygon class="cls-4" points="332.5 231.51 323.39 236.73 314.3 231.51 323.39 226.21 332.5 231.51"/><polygon class="cls-4" points="343.92 238.11 334.9 243.39 325.74 238.11 334.9 232.82 343.92 238.11"/><polygon class="cls-4" points="355.43 244.72 346.27 250.01 337.19 244.72 346.27 239.43 355.43 244.72"/><polygon class="cls-4" points="366.58 251.13 357.42 256.41 348.33 251.13 357.42 245.85 366.58 251.13"/><polygon class="cls-4" points="378 257.79 368.92 262.96 359.76 257.79 368.92 252.51 378 257.79"/><polygon class="cls-4" points="389.46 264.37 380.37 269.66 371.21 264.37 380.37 259.11 389.46 264.37"/><polygon class="cls-4" points="400.96 271 391.8 276.25 382.71 271 391.8 265.72 400.96 271"/><polygon class="cls-4" points="412.35 277.56 403.25 282.87 394.1 277.56 403.25 272.37 412.35 277.56"/><polygon class="cls-4" points="423.83 284.22 414.67 289.53 405.6 284.22 414.67 278.98 423.83 284.22"/><polygon class="cls-4" points="275.2 211.58 266.12 216.95 256.9 211.58 266.12 206.37 275.2 211.58"/><polygon class="cls-4" points="286.67 218.24 277.59 223.49 268.42 218.24 277.59 213 286.67 218.24"/><polygon class="cls-4" points="298.16 224.85 289.02 230.16 279.87 224.85 289.02 219.61 298.16 224.85"/><polygon class="cls-4" points="309.61 231.51 300.5 236.73 291.36 231.51 300.5 226.21 309.61 231.51"/><polygon class="cls-4" points="321.06 238.11 311.95 243.39 302.81 238.11 311.95 232.82 321.06 238.11"/><polygon class="cls-4" points="332.5 244.72 323.39 250.01 314.3 244.72 323.39 239.43 332.5 244.72"/><polygon class="cls-4" points="343.92 251.35 334.9 256.63 325.74 251.35 334.9 246.1 343.92 251.35"/><polygon class="cls-4" points="355.05 257.79 345.96 262.96 336.88 257.79 345.96 252.51 355.05 257.79"/><polygon class="cls-4" points="366.58 264.37 357.42 269.66 348.33 264.37 357.42 259.11 366.58 264.37"/><polygon class="cls-4" points="378 271 368.92 276.25 359.76 271 368.92 265.72 378 271"/><polygon class="cls-4" points="389.46 277.56 380.37 282.87 371.21 277.56 380.37 272.37 389.46 277.56"/><polygon class="cls-4" points="400.96 284.22 391.8 289.53 382.71 284.22 391.8 278.98 400.96 284.22"/><polygon class="cls-4" points="423.83 297.51 414.67 302.73 394.1 290.85 403.25 285.62 423.83 297.51"/><polygon class="cls-4" points="240.96 204.94 231.93 210.25 220.43 203.56 229.53 198.34 240.96 204.94"/><polygon class="cls-4" points="263.95 218.18 254.81 223.49 245.7 218.18 254.81 212.92 263.95 218.18"/><polygon class="cls-4" points="252.54 211.53 243.36 216.83 234.22 211.53 243.36 206.32 252.54 211.53"/><polygon class="cls-4" points="343.81 264.25 334.65 269.62 257.11 224.73 266.26 219.58 343.81 264.25"/><polygon class="cls-4" points="355.24 270.87 346.07 276.2 337.01 270.87 346.07 265.58 355.24 270.87"/><polygon class="cls-4" points="366.77 277.56 357.53 282.79 348.44 277.56 357.53 272.24 366.77 277.56"/><polygon class="cls-4" points="378.11 284.1 369.03 289.45 359.94 284.1 369.03 278.92 378.11 284.1"/><polygon class="cls-4" points="389.62 290.71 380.54 296 371.32 290.71 380.54 285.5 389.62 290.71"/><polygon class="cls-4" points="412.58 304 403.44 309.23 382.82 297.37 392.06 292.12 412.58 304"/><polygon class="cls-4" points="457.79 277.9 448.58 283.16 439.49 277.9 448.58 272.63 457.79 277.9"/><polygon class="cls-4" points="297.91 198.56 288.74 203.79 279.66 198.56 288.74 193.17 297.91 198.56"/><polygon class="cls-4" points="309.36 205.14 300.2 210.45 291.17 205.14 300.2 199.91 309.36 205.14"/><polygon class="cls-4" points="320.86 211.85 311.64 217.08 302.56 211.85 311.64 206.57 320.86 211.85"/><polygon class="cls-4" points="332.32 218.4 323.15 223.72 314.07 218.4 323.15 213.17 332.32 218.4"/><polygon class="cls-4" points="343.74 224.98 334.6 230.29 325.49 224.98 334.6 219.75 343.74 224.98"/><polygon class="cls-4" points="355.24 231.72 346.07 236.98 336.96 231.72 346.07 226.33 355.24 231.72"/><polygon class="cls-4" points="366.64 238.19 357.53 243.53 348.39 238.19 357.53 232.96 366.64 238.19"/><polygon class="cls-4" points="377.78 244.65 368.69 249.94 359.54 244.65 368.69 239.43 377.78 244.65"/><polygon class="cls-4" points="389.21 251.26 380.18 256.5 371.01 251.26 380.18 246.06 389.21 251.26"/><polygon class="cls-4" points="400.63 257.85 391.62 263.13 382.41 257.85 391.62 252.64 400.63 257.85"/><polygon class="cls-4" points="412.08 264.5 403.05 269.79 393.91 264.5 403.05 259.19 412.08 264.5"/><polygon class="cls-4" points="423.58 271.13 414.5 276.45 405.34 271.13 414.5 265.85 423.58 271.13"/><polygon class="cls-4" points="426.17 272.37 446.79 284.22 426.17 296.08 417.09 290.85 428.54 284.22 417.09 277.56 426.17 272.37"/><polygon class="cls-4" points="365.78 209.65 356.67 214.87 347.53 209.65 356.67 204.29 365.78 209.65"/><polygon class="cls-4" points="377.2 216.17 368.12 221.53 359.02 216.17 368.12 210.91 377.2 216.17"/><polygon class="cls-4" points="388.66 222.86 379.57 228.03 370.41 222.86 379.57 217.57 388.66 222.86"/><polygon class="cls-4" points="400.16 229.43 391.06 234.72 381.91 229.43 391.06 224.18 400.16 229.43"/><polygon class="cls-4" points="417.34 239.35 408.19 244.65 399.09 239.35 408.19 234.1 417.34 239.35"/><polygon class="cls-4" points="428.79 245.98 419.64 251.26 410.56 245.98 419.64 240.69 428.79 245.98"/><polygon class="cls-4" points="440.23 252.54 431.13 257.85 421.98 252.54 431.13 247.27 440.23 252.54"/><polygon class="cls-4" points="451.71 259.19 442.57 264.5 433.43 259.19 442.57 253.88 451.71 259.19"/><polygon class="cls-4" points="470.92 270.28 461.82 275.57 444.92 265.85 454.14 260.62 470.92 270.28"/><polygon class="cls-4" points="337.01 276.45 309.05 292.48 249.74 258.29 277.68 242.1 337.01 276.45"/><polygon class="cls-5" points="378.1 321.8 369.85 326.49 361.31 321.58 369.41 316.9 378.1 321.8"/><polygon class="cls-6" points="367.75 315.88 359.6 320.61 350.99 315.67 359.14 310.93 367.75 315.88"/><path class="cls-2" d="M353.24,42.84a2.41,2.41,0,0,1,2.59.21L550.52,155.39a7.76,7.76,0,0,1,3.52,6.18v138.1c0,1.18-.36,2-1,2.23h0v.1l-5.73,3.36-1.32-6.3L355.83,189.37a7.73,7.73,0,0,1-3.52-6.11V50.88l-1.07,1-3.91-5.54,5.91-3.48Z" transform="translate(-47.96 -42.56)"/><path class="cls-7" d="M350,46.38,544.78,158.82a7.92,7.92,0,0,1,3.47,6.09V303.1c0,2.26-1.64,3.15-3.47,2.07L350,192.73a7.87,7.87,0,0,1-3.58-6.14l0-138.14C346.48,46.13,348.05,45.23,350,46.38Z" transform="translate(-47.96 -42.56)"/><polygon class="cls-2" points="310.59 131.72 491.74 236.29 491.74 239.76 307.43 133.36 307.43 16.84 310.59 18.66 310.59 131.72"/><polygon class="cls-8" points="491.74 236.29 310.59 131.72 310.59 18.66 491.82 123.31 491.74 236.29"/><path class="cls-3" d="M375.24,116.61l4.69,2.71v24l-4.69-2.7Z" transform="translate(-47.96 -42.56)"/><path class="cls-3" d="M388.88,129.05l-5.7-3.29v-4.57l16.12,9.31v4.57l-5.7-3.3V151.2l-4.72-2.72Z" transform="translate(-47.96 -42.56)"/><path class="cls-3" d="M407.59,156.26l2.67-2.17a17.49,17.49,0,0,0,5.13,5.47c1.95,1.12,2.91.79,2.91-.65s-1.18-2.67-3-4.6l-2.71-2.89c-2.14-2.22-4.18-5.46-4.18-9,0-4,3.06-5.37,7.4-2.87a19.6,19.6,0,0,1,6.69,7l-2.39,2a13.62,13.62,0,0,0-4.3-4.4c-1.63-.93-2.65-.71-2.65.65s1.37,2.78,3.16,4.65l2.68,2.8c2.51,2.63,4.11,5.5,4.11,8.89,0,4-2.87,5.78-7.84,2.91A22.94,22.94,0,0,1,407.59,156.26Z" transform="translate(-47.96 -42.56)"/><path class="cls-3" d="M426.64,146.29l13,7.5v4.57l-8.32-4.81v4.83l7.07,4.08V167l-7.07-4.09v5.52l8.63,5V178l-13.32-7.69Z" transform="translate(-47.96 -42.56)"/><path class="cls-3" d="M444.1,156.37l7.49,4.32c4.4,2.54,8,6.39,8,12.09,0,3.53-1.46,4.93-3.69,4.79l4.71,12.32-5.26-3-4-11-2.58-1.49v8.65l-4.69-2.71Zm7.11,15.14c2.46,1.42,3.79,1,3.79-1.38s-1.33-3.94-3.79-5.35l-2.42-1.4v6.73Z" transform="translate(-47.96 -42.56)"/><path class="cls-3" d="M460.55,165.86l5,2.87L468,181.35c.64,3,1.06,5.65,1.69,8.67l.13.08c.61-2.31,1.05-4.48,1.66-6.74l2.45-9.77,4.78,2.76-6.24,20.39-5.65-3.26Z" transform="translate(-47.96 -42.56)"/><path class="cls-3" d="M480.94,177.64l4.68,2.7v24l-4.68-2.7Z" transform="translate(-47.96 -42.56)"/><path class="cls-3" d="M489.54,194.75c0-7.95,4.56-10,9.82-6.92a18.35,18.35,0,0,1,6.25,6.73l-2.49,2a11.16,11.16,0,0,0-3.66-4c-2.84-1.64-5.1,0-5.1,4.78s2,8.94,5,10.71a3.62,3.62,0,0,0,4.05.09l2.49,4.82c-1.73,1.33-4,1.22-6.73-.35C493.94,209.58,489.54,202.81,489.54,194.75Z" transform="translate(-47.96 -42.56)"/><path class="cls-3" d="M509.08,193.88l13,7.51V206l-8.32-4.8V206l7.08,4.08v4.53l-7.08-4.08V216l8.64,5v4.57l-13.32-7.69Z" transform="translate(-47.96 -42.56)"/><polygon class="cls-2" points="352.57 171.36 307.43 145.28 307.43 140.31 352.57 166.33 352.57 171.36"/><polygon class="cls-1" points="229.23 105.7 119.01 42.06 67.04 72.06 177.26 135.7 229.23 105.7"/><polygon class="cls-9" points="144.73 112.19 140.57 109.78 140.57 112.69 144.73 115.09 144.73 112.19"/><polygon class="cls-10" points="150.12 109.08 145.98 110.56 144.73 112.19 144.73 115.09 150.12 111.99 150.12 109.08"/><polygon class="cls-11" points="150.12 109.08 145.95 106.67 140.57 109.78 144.73 112.19 150.12 109.08"/><polygon class="cls-9" points="138.14 116.58 132.45 113.29 132.45 117.29 138.14 120.57 138.14 116.58"/><polygon class="cls-12" points="145.52 112.31 139.89 114.35 138.14 116.58 138.14 120.57 145.52 116.3 145.52 112.31"/><polygon class="cls-13" points="145.52 112.31 139.83 109.04 132.45 113.29 138.14 116.58 145.52 112.31"/><path class="cls-14" d="M184.65,161.07s.48-.7-.22-1.91a4.79,4.79,0,0,0-2.24-1.61c-10,7-19.84,8.95-26.34,5.18a10.16,10.16,0,0,1-5.23-9.9c.6-6.46,6.64-12.32,16.19-15.72L165.35,133c-5.83,2.09-10.5,4.95-13.84,8.52a18.67,18.67,0,0,0-5.2,10.89,14.41,14.41,0,0,0,1.57,8.06,14.92,14.92,0,0,0,5.8,6,20.65,20.65,0,0,0,13.46,2.18C172.75,167.86,178.65,165.3,184.65,161.07Z" transform="translate(-47.96 -42.56)"/><polygon class="cls-9" points="158.36 120.05 154.2 117.67 154.2 120.57 158.36 122.98 158.36 120.05"/><polygon class="cls-10" points="163.73 116.95 159.62 118.43 158.36 120.05 158.36 122.98 163.73 119.86 163.73 116.95"/><polygon class="cls-11" points="163.73 116.95 159.57 114.55 154.2 117.67 158.36 120.05 163.73 116.95"/><polygon class="cls-9" points="151.8 124.44 146.08 121.17 146.11 125.14 151.79 128.44 151.8 124.44"/><polygon class="cls-12" points="159.16 120.2 153.52 122.22 151.8 124.44 151.79 128.44 159.16 124.19 159.16 120.2"/><polygon class="cls-13" points="159.16 120.2 153.46 116.9 146.08 121.17 151.8 124.44 159.16 120.2"/><path class="cls-15" d="M198.26,169s.48-.71-.23-1.94a4.86,4.86,0,0,0-2.23-1.61c-10,7-19.86,8.95-26.34,5.2a10.23,10.23,0,0,1-5.25-9.91c.6-6.45,6.66-12.32,16.2-15.72L179,141a34.47,34.47,0,0,0-13.83,8.5,18.63,18.63,0,0,0-5.22,10.9,14.47,14.47,0,0,0,7.37,14,20.48,20.48,0,0,0,13.46,2.19C186.35,175.79,192.25,173.23,198.26,169Z" transform="translate(-47.96 -42.56)"/><polygon class="cls-16" points="222.21 106.05 222.21 103.28 82.34 74.27 82.34 77.06 177.39 131.93 222.21 106.05"/><polygon class="cls-8" points="222.21 103.28 127.16 48.4 82.34 74.27 177.39 129.16 222.21 103.28"/><polygon class="cls-16" points="205.57 109.62 200.43 106.66 194.41 110.12 199.55 113.11 205.57 109.62"/><polygon class="cls-17" points="182.03 99.88 160.36 87.36 134.97 102.02 156.66 114.51 182.03 99.88"/><polygon class="cls-17" points="132.97 72.36 111.27 59.84 85.92 74.48 107.6 87.01 132.97 72.36"/><polygon class="cls-18" points="191.33 116.1 186.91 113.55 186.94 114.62 191.35 117.17 191.33 116.1"/><polygon class="cls-10" points="196.51 113.12 191.53 115.05 191.33 116.1 191.35 117.17 196.52 114.2 196.51 113.12"/><polygon class="cls-11" points="196.51 113.12 192.08 110.58 186.91 113.55 191.33 116.1 196.51 113.12"/><polygon class="cls-19" points="192.58 114.43 191.75 113.95 193.96 112.67 194.81 113.15 192.58 114.43"/><polygon class="cls-18" points="207.15 107.31 199.91 103.13 199.94 104.88 207.17 109.06 207.15 107.31"/><polygon class="cls-20" points="207.16 108.25 199.92 104.07 199.94 104.88 207.17 109.06 207.16 108.25"/><polygon class="cls-10" points="215.61 102.43 207.45 105.59 207.15 107.31 207.17 109.06 215.63 104.18 215.61 102.43"/><polygon class="cls-4" points="215.61 103.35 207.16 108.25 207.17 109.06 215.63 104.18 215.61 103.35"/><polygon class="cls-11" points="215.61 102.43 208.37 98.25 199.91 103.13 207.15 107.31 215.61 102.43"/><polygon class="cls-19" points="206.97 105.84 204.59 104.46 210.79 100.9 213.17 102.26 206.97 105.84"/><polygon class="cls-11" points="167.85 118.89 160.61 114.71 160.66 116.46 167.88 120.64 167.85 118.89"/><polygon points="176.31 113.99 168.16 117.17 167.85 118.89 167.88 120.64 176.33 115.75 176.31 113.99"/><polygon class="cls-10" points="176.31 113.99 169.06 109.84 160.61 114.71 167.85 118.89 176.31 113.99"/><polygon class="cls-19" points="167.83 114.34 165.46 112.98 169 110.94 171.39 112.3 167.83 114.34"/><polygon class="cls-11" points="130.3 98.68 123.09 94.5 123.11 96.24 130.34 100.42 130.3 98.68"/><polygon points="138.77 93.79 130.63 96.94 130.3 98.68 130.34 100.42 138.81 95.54 138.77 93.79"/><polygon class="cls-10" points="138.77 93.79 131.54 89.62 123.09 94.5 130.3 98.68 138.77 93.79"/><polygon class="cls-19" points="130.29 94.14 127.93 92.76 131.46 90.71 133.84 92.07 130.29 94.14"/><polygon class="cls-11" points="176.85 122.45 172.43 119.89 172.46 120.97 176.88 123.51 176.85 122.45"/><polygon points="185.23 117.61 178.22 120.73 176.85 122.45 176.88 123.51 185.25 118.69 185.23 117.61"/><polygon class="cls-10" points="185.23 117.61 180.81 115.06 172.43 119.89 176.85 122.45 185.23 117.61"/><polygon class="cls-11" points="119.04 93 114.61 90.45 114.62 91.52 119.04 94.06 119.04 93"/><polygon points="127.41 88.17 120.38 91.28 119.04 93 119.04 94.06 127.43 89.23 127.41 88.17"/><polygon class="cls-10" points="127.41 88.17 122.98 85.61 114.61 90.45 119.04 93 127.41 88.17"/><polygon class="cls-11" points="113.28 89.63 108.87 87.07 108.88 88.14 113.3 90.68 113.28 89.63"/><polygon points="121.64 84.79 114.61 87.91 113.28 89.63 113.3 90.68 121.65 85.86 121.64 84.79"/><polygon class="cls-10" points="121.64 84.79 117.23 82.23 108.87 87.07 113.28 89.63 121.64 84.79"/><polygon class="cls-16" points="189.91 119.66 187.84 118.46 181.31 122.23 183.39 123.42 189.91 119.66"/><path class="cls-10" d="M205.88,155l43.88-25.33-9.64-20.14-74.76-43-49.21,16.9V99h0c-.28,2.45,1.19,5,4.4,6.81Zm20.59-18a27.78,27.78,0,0,1-6.13,2.53l-32.28-14.33c.83-2.49,2.92-4.84,6.25-6.77,8.88-5.14,23.27-5.14,32.16,0S235.35,131.91,226.47,137Zm-44.62-19.69L149.58,103c.82-2.48,2.91-4.85,6.24-6.77,8.88-5.14,23.28-5.14,32.17,0a15.93,15.93,0,0,1,4.75,4C181.24,105.51,181.85,117.35,181.85,117.35Z" transform="translate(-47.96 -42.56)"/><polygon points="208.84 102.3 184.17 101.03 157.93 96.97 157.93 112.47 184.17 116.54 208.84 102.3"/><path class="cls-18" d="M201.09,107.61l.18-1.46h11.44l-.22,1.46-2.71,7.48a15.31,15.31,0,0,0-6,0Z" transform="translate(-47.96 -42.56)"/><path class="cls-4" d="M201.27,106.15h11.44L210,113.64a14.66,14.66,0,0,0-6,0Z" transform="translate(-47.96 -42.56)"/><path class="cls-18" d="M226,112.06l-.2,1.47-11.1,4.18a7.65,7.65,0,0,0-4.22-2.45l.2-1.47Z" transform="translate(-47.96 -42.56)"/><path class="cls-4" d="M217.92,107.39l8.08,4.67-11.1,4.19a7.62,7.62,0,0,0-4.22-2.46Z" transform="translate(-47.96 -42.56)"/><path class="cls-18" d="M187.79,113.53l.19-1.47,15.32,1.73-.18,1.47a8.76,8.76,0,0,0-4.25,2.45Z" transform="translate(-47.96 -42.56)"/><path class="cls-4" d="M188,112.06l8.07-4.66,7.25,6.39a8.89,8.89,0,0,0-4.24,2.46Z" transform="translate(-47.96 -42.56)"/><path d="M213,126.2a13.65,13.65,0,0,1-12.37,0c-1.74-1-2.6-2.35-2.53-3.68h0v-7.18l17.45.47,0,6.67h0C215.59,123.82,214.75,125.18,213,126.2Z" transform="translate(-47.96 -42.56)"/><path class="cls-11" d="M213,119.12c3.43-2,3.43-5.16,0-7.15a13.73,13.73,0,0,0-12.36,0c-3.4,2-3.4,5.18,0,7.15A13.66,13.66,0,0,0,213,119.12Z" transform="translate(-47.96 -42.56)"/><path class="cls-18" d="M228.15,121.67l-.19,1.47-13-1.58.2-1.46S227.4,120.44,228.15,121.67Z" transform="translate(-47.96 -42.56)"/><path class="cls-4" d="M228.15,115.06v6.61l-13-1.57a15.66,15.66,0,0,0,.32-3.5Z" transform="translate(-47.96 -42.56)"/><path class="cls-18" d="M185.62,123.14v-6.6l.2-1.48,12.24,1.5a2.87,2.87,0,0,0,.72,3.54l-.19,1.46Z" transform="translate(-47.96 -42.56)"/><path class="cls-4" d="M185.82,121.67v-6.61l12.24,1.5a7.54,7.54,0,0,0,.72,3.54Z" transform="translate(-47.96 -42.56)"/><polygon class="cls-18" points="147.9 88.24 139.83 83.59 140.02 82.12 155.34 80.39 155.15 81.85 147.9 88.24"/><path class="cls-4" d="M196.05,129.33,188,124.68l11.08-4.18A7.82,7.82,0,0,0,203.3,123Z" transform="translate(-47.96 -42.56)"/><polygon class="cls-18" points="177.84 83.59 169.76 88.24 162.52 81.85 162.72 80.39 178.04 82.12 177.84 83.59"/><path class="cls-4" d="M226,124.68l-8.08,4.66L210.68,123a9,9,0,0,0,4.23-2.45Z" transform="translate(-47.96 -42.56)"/><path class="cls-18" d="M212.49,132.06h-11.4l.18-1.47s7.53-1.53,11.44,0Z" transform="translate(-47.96 -42.56)"/><path class="cls-4" d="M212.71,130.59H201.27l2.72-7.48a15.22,15.22,0,0,0,6,0Z" transform="translate(-47.96 -42.56)"/><path class="cls-18" d="M162.6,85.38l.18-1.46h11.44L174,85.38l-2.7,7.49a15.11,15.11,0,0,0-6,0Z" transform="translate(-47.96 -42.56)"/><path class="cls-4" d="M162.78,83.92h11.44l-2.73,7.49a14.62,14.62,0,0,0-6,0Z" transform="translate(-47.96 -42.56)"/><path class="cls-18" d="M187.51,89.83l-.2,1.48-11.09,4.17A7.71,7.71,0,0,0,172,93l.2-1.47Z" transform="translate(-47.96 -42.56)"/><path class="cls-4" d="M179.44,85.16l8.07,4.67L176.42,94a7.68,7.68,0,0,0-4.23-2.46Z" transform="translate(-47.96 -42.56)"/><path class="cls-18" d="M149.3,91.31l.19-1.48,15.32,1.73L164.63,93a8.76,8.76,0,0,0-4.25,2.45Z" transform="translate(-47.96 -42.56)"/><path class="cls-4" d="M149.49,89.83l8.08-4.66,7.24,6.39A8.89,8.89,0,0,0,160.57,94Z" transform="translate(-47.96 -42.56)"/><path d="M174.49,104a13.59,13.59,0,0,1-12.37,0c-1.74-1-2.6-2.35-2.53-3.68h0V93.13l17.45.46,0,6.67h0C177.1,101.59,176.26,103,174.49,104Z" transform="translate(-47.96 -42.56)"/><path class="cls-11" d="M174.48,96.89c3.43-2,3.43-5.15,0-7.15a13.73,13.73,0,0,0-12.36,0c-3.4,2-3.4,5.18,0,7.15A13.66,13.66,0,0,0,174.48,96.89Z" transform="translate(-47.96 -42.56)"/><path class="cls-18" d="M189.66,99.43l-.19,1.47-13-1.56.2-1.47S188.91,98.22,189.66,99.43Z" transform="translate(-47.96 -42.56)"/><path class="cls-4" d="M189.66,92.83v6.6l-13-1.56a15,15,0,0,0,.32-3.5Z" transform="translate(-47.96 -42.56)"/><path class="cls-18" d="M147.14,100.9V94.31l.19-1.48,12.24,1.51a2.85,2.85,0,0,0,.72,3.53l-.19,1.47Z" transform="translate(-47.96 -42.56)"/><path class="cls-4" d="M147.33,99.43v-6.6l12.24,1.51a7.51,7.51,0,0,0,.72,3.53Z" transform="translate(-47.96 -42.56)"/><polygon class="cls-18" points="109.41 66.01 101.35 61.36 101.54 59.89 116.86 58.16 116.67 59.62 109.41 66.01"/><path class="cls-4" d="M157.57,107.1l-8.08-4.65,11.08-4.18a7.82,7.82,0,0,0,4.24,2.45Z" transform="translate(-47.96 -42.56)"/><polygon class="cls-18" points="139.35 61.36 131.27 66.01 124.03 59.62 124.23 58.16 139.56 59.89 139.35 61.36"/><path class="cls-4" d="M187.51,102.45l-8.07,4.67-7.25-6.4a9.06,9.06,0,0,0,4.24-2.45Z" transform="translate(-47.96 -42.56)"/><path class="cls-18" d="M174,109.83H162.6l.18-1.46s7.53-1.54,11.44,0Z" transform="translate(-47.96 -42.56)"/><path class="cls-4" d="M174.22,108.37H162.78l2.73-7.49a15,15,0,0,0,6,0Z" transform="translate(-47.96 -42.56)"/><path class="cls-11" d="M205.88,139.53l43.88-25.33L164.44,65c-5.95-3.44-15.68-3.44-21.63,0L120.56,77.81c-5.93,3.43-5.93,9.06,0,12.49ZM222.25,124c-8.89,5.14-23.27,5.14-32.16,0s-8.87-13.44,0-18.57,23.28-5.13,32.17,0S231.14,118.85,222.25,124Zm-37.79-21.83c-8.88,5.14-23.27,5.14-32.16,0s-8.87-13.43,0-18.57,23.29-5.12,32.17,0S193.36,97,184.46,102.15Z" transform="translate(-47.96 -42.56)"/><path class="cls-6" d="M170.18,68.27l-1.91-1.09L136.36,85.61c-5.82,3.37-5.82,8.83,0,12.2l70.93,40.93,1.92-1.11L138.29,96.7c-4.77-2.76-4.77-7.23,0-10Z" transform="translate(-47.96 -42.56)"/><polygon class="cls-10" points="208.84 86.8 201.81 71.64 157.93 96.97 184.17 101.03 208.84 86.8"/><polygon class="cls-19" points="195.53 70.7 180.91 62.27 179.28 63.21 193.91 71.64 195.53 70.7"/><path d="M232.13,159.1l24.66-14.24v-15.5l-24.66,14.23Z" transform="translate(-47.96 -42.56)"/><polygon class="cls-11" points="184.17 116.54 184.17 101.03 157.93 96.97 157.93 112.47 184.17 116.54"/><path class="cls-1" d="M125.44,85.31a4.26,4.26,0,0,0,3.9,0,1.19,1.19,0,0,0,0-2.25,4.26,4.26,0,0,0-3.9,0A1.19,1.19,0,0,0,125.44,85.31Z" transform="translate(-47.96 -42.56)"/><path class="cls-13" d="M127.35,82.76h2.23v1.3h0a1.09,1.09,0,0,1-.65.89,3.42,3.42,0,0,1-3.13,0,1.06,1.06,0,0,1-.65-.91h0V82.76Z" transform="translate(-47.96 -42.56)"/><path class="cls-9" d="M125.79,83.73a3.54,3.54,0,0,0,3.14,0c.86-.51.86-1.32,0-1.81a3.41,3.41,0,0,0-3.14,0C124.93,82.41,124.93,83.22,125.79,83.73Z" transform="translate(-47.96 -42.56)"/><polygon class="cls-1" points="170.03 202.33 54.74 135.75 0.37 167.13 115.67 233.7 170.03 202.33"/><polygon class="cls-16" points="171.3 197.25 171.3 195.02 0.37 159.56 0.37 161.81 116.53 228.88 171.3 197.25"/><polygon class="cls-8" points="171.3 195.02 55.14 127.95 0.37 159.56 116.53 226.63 171.3 195.02"/><polygon class="cls-16" points="150.98 202.76 144.67 199.14 137.3 203.38 143.6 207.02 150.98 202.76"/><polygon class="cls-17" points="122.19 190.85 95.69 175.55 64.68 193.45 91.18 208.75 122.19 190.85"/><polygon class="cls-17" points="62.22 157.22 35.73 141.92 4.72 159.82 31.24 175.11 62.22 157.22"/><polygon class="cls-18" points="133.56 210.69 128.16 207.57 128.19 208.86 133.58 211.99 133.56 210.69"/><polygon class="cls-10" points="139.87 207.04 133.8 209.4 133.56 210.69 133.58 211.99 139.89 208.34 139.87 207.04"/><polygon class="cls-11" points="139.87 207.04 134.48 203.92 128.16 207.57 133.56 210.69 139.87 207.04"/><polygon class="cls-19" points="135.09 208.63 134.05 208.04 136.77 206.48 137.8 207.07 135.09 208.63"/><polygon class="cls-18" points="134.33 195.24 125.76 190.35 125.8 191.64 134.36 196.54 134.33 195.24"/><polygon class="cls-10" points="140.65 191.6 134.57 193.95 134.33 195.24 134.36 196.54 140.68 192.91 140.65 191.6"/><polygon class="cls-11" points="140.65 191.6 132.09 186.71 125.76 190.35 134.33 195.24 140.65 191.6"/><polygon class="cls-19" points="135.87 193.2 134.83 192.6 137.55 191.03 138.58 191.64 135.87 193.2"/><polygon class="cls-18" points="65.84 153.32 60.43 150.2 60.45 151.49 65.85 154.62 65.84 153.32"/><polygon class="cls-10" points="72.14 149.67 66.07 152.02 65.84 153.32 65.85 154.62 72.17 150.97 72.14 149.67"/><polygon class="cls-11" points="72.14 149.67 66.75 146.55 60.43 150.2 65.84 153.32 72.14 149.67"/><polygon class="cls-19" points="67.37 151.27 66.33 150.67 69.05 149.1 70.09 149.7 67.37 151.27"/><polygon class="cls-18" points="152.88 199.94 144.04 194.84 144.08 196.97 152.91 202.07 152.88 199.94"/><polygon class="cls-20" points="152.9 201.08 144.06 195.98 144.08 196.97 152.91 202.07 152.9 201.08"/><polygon class="cls-10" points="163.22 193.96 153.26 197.84 152.88 199.94 152.91 202.07 163.25 196.1 163.22 193.96"/><polygon class="cls-4" points="163.24 195.12 152.9 201.08 152.91 202.07 163.25 196.1 163.24 195.12"/><polygon class="cls-11" points="163.22 193.96 154.38 188.86 144.04 194.84 152.88 199.94 163.22 193.96"/><polygon class="cls-19" points="152.67 198.13 149.77 196.46 157.34 192.1 160.24 193.77 152.67 198.13"/><polygon class="cls-18" points="97.27 166.05 76.11 153.83 76.14 155.94 97.31 168.17 97.27 166.05"/><polygon class="cls-20" points="97.28 167.18 76.13 154.96 76.14 155.94 97.31 168.17 97.28 167.18"/><polygon class="cls-10" points="107.61 160.08 97.66 163.93 97.27 166.05 97.31 168.17 107.64 162.21 107.61 160.08"/><polygon class="cls-4" points="107.63 161.21 97.28 167.18 97.31 168.17 107.64 162.21 107.63 161.21"/><polygon class="cls-11" points="107.61 160.08 86.45 147.85 76.11 153.83 97.27 166.05 107.61 160.08"/><polygon class="cls-19" points="97.06 164.25 94.15 162.57 101.73 158.2 104.64 159.88 97.06 164.25"/><polygon class="cls-11" points="104.84 214.09 96.01 208.99 96.06 211.11 104.89 216.22 104.84 214.09"/><polygon points="115.2 208.11 105.24 211.97 104.84 214.09 104.89 216.22 115.22 210.25 115.2 208.11"/><polygon class="cls-10" points="115.2 208.11 106.34 203.02 96.01 208.99 104.84 214.09 115.2 208.11"/><polygon class="cls-19" points="104.83 208.53 101.93 206.86 106.27 204.36 109.18 206.03 104.83 208.53"/><polygon class="cls-11" points="122.83 206.18 110.47 199.05 110.53 202.03 122.86 209.16 122.83 206.18"/><polygon points="137.26 197.84 123.36 203.24 122.83 206.18 122.86 209.16 137.3 200.82 137.26 197.84"/><polygon class="cls-10" points="137.26 197.84 124.91 190.72 110.47 199.05 122.83 206.18 137.26 197.84"/><polygon class="cls-11" points="65.26 173.88 52.9 166.76 52.96 169.74 65.31 176.88 65.26 173.88"/><polygon points="79.71 165.55 65.8 170.94 65.26 173.88 65.31 176.88 79.74 168.54 79.71 165.55"/><polygon class="cls-10" points="79.71 165.55 67.33 158.43 52.9 166.76 65.26 173.88 79.71 165.55"/><polygon class="cls-11" points="115.12 179.61 106.52 174.64 106.54 176.71 115.16 181.69 115.12 179.61"/><polygon points="125.2 173.78 115.49 177.55 115.12 179.61 115.16 181.69 125.23 175.88 125.2 173.78"/><polygon class="cls-10" points="125.2 173.78 116.58 168.82 106.52 174.64 115.12 179.61 125.2 173.78"/><polygon class="cls-11" points="58.99 189.38 50.15 184.28 50.18 186.41 59.02 191.51 58.99 189.38"/><polygon points="69.33 183.42 59.38 187.27 58.99 189.38 59.02 191.51 69.36 185.55 69.33 183.42"/><polygon class="cls-10" points="69.33 183.42 60.5 178.32 50.15 184.28 58.99 189.38 69.33 183.42"/><polygon class="cls-19" points="58.97 183.84 56.07 182.15 60.41 179.65 63.3 181.34 58.97 183.84"/><polygon class="cls-11" points="115.87 218.43 110.46 215.32 110.49 216.62 115.89 219.74 115.87 218.43"/><polygon points="126.09 212.52 117.52 216.34 115.87 218.43 115.89 219.74 126.13 213.83 126.09 212.52"/><polygon class="cls-10" points="126.09 212.52 120.7 209.41 110.46 215.32 115.87 218.43 126.09 212.52"/><polygon class="cls-11" points="50.31 138.38 44.91 135.26 44.93 136.56 50.33 139.68 50.31 138.38"/><polygon points="60.54 132.47 51.94 136.28 50.31 138.38 50.33 139.68 60.56 133.77 60.54 132.47"/><polygon class="cls-10" points="60.54 132.47 55.14 129.35 44.91 135.26 50.31 138.38 60.54 132.47"/><polygon class="cls-11" points="142.68 189.16 150.98 184.39 150.92 186.38 142.65 191.17 142.68 189.16"/><polygon points="126.96 180.1 140.15 185.95 142.68 189.16 142.65 191.17 126.92 182.09 126.96 180.1"/><polygon class="cls-10" points="126.96 180.1 135.25 175.32 150.98 184.39 142.68 189.16 126.96 180.1"/><polygon class="cls-11" points="59.87 145.67 51.01 140.56 51.06 142.69 59.89 147.8 59.87 145.67"/><polygon points="70.2 139.7 60.24 143.55 59.87 145.67 59.89 147.8 70.23 141.83 70.2 139.7"/><polygon class="cls-10" points="70.2 139.7 61.35 134.6 51.01 140.56 59.87 145.67 70.2 139.7"/><polygon class="cls-19" points="59.84 140.11 56.94 138.44 61.27 135.94 64.18 137.61 59.84 140.11"/><polygon class="cls-11" points="45.21 182.45 39.81 179.34 39.83 180.62 45.22 183.75 45.21 182.45"/><polygon points="55.45 176.54 46.84 180.35 45.21 182.45 45.22 183.75 55.46 177.84 55.45 176.54"/><polygon class="cls-10" points="55.45 176.54 50.04 173.41 39.81 179.34 45.21 182.45 55.45 176.54"/><polygon class="cls-11" points="38.17 178.32 32.77 175.2 32.79 176.51 38.19 179.62 38.17 178.32"/><polygon points="48.39 172.41 39.81 176.22 38.17 178.32 38.19 179.62 48.42 173.72 48.39 172.41"/><polygon class="cls-10" points="48.39 172.41 43 169.29 32.77 175.2 38.17 178.32 48.39 172.41"/><polygon class="cls-16" points="131.82 215.03 129.29 213.57 121.32 218.17 123.86 219.63 131.82 215.03"/><polygon class="cls-18" points="91.49 200.25 71.23 188.54 71.32 193.43 91.57 205.12 91.49 200.25"/><polygon class="cls-20" points="91.53 202.87 71.27 191.17 71.32 193.43 91.57 205.12 91.53 202.87"/><polygon class="cls-10" points="115.2 186.56 92.38 195.41 91.49 200.25 91.57 205.12 115.25 191.43 115.2 186.56"/><polygon class="cls-4" points="115.24 189.16 91.53 202.87 91.57 205.12 115.25 191.43 115.24 189.16"/><polygon class="cls-11" points="115.2 186.56 94.92 174.86 71.23 188.54 91.49 200.25 115.2 186.56"/><polygon class="cls-18" points="88.24 194.48 81.58 190.65 98.94 180.62 105.61 184.45 88.24 194.48"/><polygon class="cls-18" points="31.01 167.3 10.75 155.61 10.84 160.48 31.09 172.19 31.01 167.3"/><polygon class="cls-20" points="31.06 169.92 10.8 158.22 10.84 160.48 31.09 172.19 31.06 169.92"/><polygon class="cls-10" points="54.72 153.63 31.9 162.47 31.01 167.3 31.09 172.19 54.79 158.5 54.72 153.63"/><polygon class="cls-4" points="54.76 156.23 31.06 169.92 31.09 172.19 54.79 158.5 54.76 156.23"/><polygon class="cls-11" points="54.72 153.63 34.46 141.92 10.75 155.61 31.01 167.3 54.72 153.63"/><path class="cls-1" d="M137.76,215.78a3.07,3.07,0,0,1-2.77,0c-.78-.45-.78-1.16,0-1.61a3.14,3.14,0,0,1,2.77,0A.85.85,0,0,1,137.76,215.78Z" transform="translate(-47.96 -42.56)"/><path class="cls-21" d="M134.8,211.12v3.76h0a.81.81,0,0,0,.47.65,2.5,2.5,0,0,0,2.23,0,.81.81,0,0,0,.47-.65h0v-3.76Z" transform="translate(-47.96 -42.56)"/><path class="cls-6" d="M137.5,211.76a2.5,2.5,0,0,1-2.23,0,.68.68,0,0,1,0-1.28,2.44,2.44,0,0,1,2.23,0C138.13,210.83,138.13,211.41,137.5,211.76Z" transform="translate(-47.96 -42.56)"/><path class="cls-1" d="M134,217.77a3,3,0,0,1-2.78,0c-.76-.43-.76-1.15,0-1.6a3.16,3.16,0,0,1,2.78,0C134.8,216.62,134.8,217.34,134,217.77Z" transform="translate(-47.96 -42.56)"/><path class="cls-21" d="M131.09,213.12v3.75h0a.79.79,0,0,0,.47.66,2.48,2.48,0,0,0,2.22,0,.77.77,0,0,0,.47-.66h0v-3.75Z" transform="translate(-47.96 -42.56)"/><path class="cls-6" d="M133.78,213.76a2.48,2.48,0,0,1-2.22,0c-.62-.35-.62-.92,0-1.27a2.42,2.42,0,0,1,2.22,0C134.41,212.84,134.4,213.41,133.78,213.76Z" transform="translate(-47.96 -42.56)"/><path class="cls-1" d="M130.11,220.13a3,3,0,0,1-2.76,0c-.77-.43-.77-1.15,0-1.6a3.05,3.05,0,0,1,2.76,0C130.87,219,130.87,219.7,130.11,220.13Z" transform="translate(-47.96 -42.56)"/><path class="cls-21" d="M127.16,215.48v3.77h0a.79.79,0,0,0,.48.63,2.48,2.48,0,0,0,2.22,0,.79.79,0,0,0,.47-.63h0v-3.77Z" transform="translate(-47.96 -42.56)"/><path class="cls-6" d="M129.86,216.12a2.42,2.42,0,0,1-2.22,0,.67.67,0,0,1,0-1.28,2.48,2.48,0,0,1,2.22,0A.67.67,0,0,1,129.86,216.12Z" transform="translate(-47.96 -42.56)"/><path class="cls-1" d="M126.4,222.13a3,3,0,0,1-2.77,0,.84.84,0,0,1,0-1.59,3,3,0,0,1,2.77,0A.84.84,0,0,1,126.4,222.13Z" transform="translate(-47.96 -42.56)"/><path class="cls-21" d="M123.46,217.49v3.74h0a.77.77,0,0,0,.46.65,2.52,2.52,0,0,0,2.24,0,.79.79,0,0,0,.46-.65h0v-3.74Z" transform="translate(-47.96 -42.56)"/><path class="cls-6" d="M126.16,218.13a2.49,2.49,0,0,1-2.24,0c-.63-.36-.63-.93,0-1.29a2.46,2.46,0,0,1,2.24,0A.68.68,0,0,1,126.16,218.13Z" transform="translate(-47.96 -42.56)"/><path class="cls-1" d="M95,183.74a3,3,0,0,1-2.78,0c-.76-.43-.76-1.15,0-1.6a3.09,3.09,0,0,1,2.78,0C95.77,182.59,95.77,183.31,95,183.74Z" transform="translate(-47.96 -42.56)"/><path class="cls-21" d="M92.06,179.1v3.75h0a.78.78,0,0,0,.47.64,2.48,2.48,0,0,0,2.22,0,.78.78,0,0,0,.47-.64h0V179.1Z" transform="translate(-47.96 -42.56)"/><path class="cls-6" d="M94.75,179.73a2.36,2.36,0,0,1-2.22,0c-.62-.34-.62-.92,0-1.28a2.48,2.48,0,0,1,2.22,0C95.37,178.81,95.37,179.39,94.75,179.73Z" transform="translate(-47.96 -42.56)"/><path class="cls-1" d="M91.29,185.75a3,3,0,0,1-2.77,0,.84.84,0,0,1,0-1.6,3.07,3.07,0,0,1,2.77,0A.84.84,0,0,1,91.29,185.75Z" transform="translate(-47.96 -42.56)"/><path class="cls-21" d="M88.36,181.1v3.77h0a.76.76,0,0,0,.45.62,2.46,2.46,0,0,0,2.24,0,.79.79,0,0,0,.45-.62h0V181.1Z" transform="translate(-47.96 -42.56)"/><path class="cls-6" d="M91.05,181.74a2.52,2.52,0,0,1-2.24,0,.67.67,0,0,1,0-1.28,2.46,2.46,0,0,1,2.24,0A.68.68,0,0,1,91.05,181.74Z" transform="translate(-47.96 -42.56)"/><path class="cls-1" d="M173.39,228.45a3,3,0,0,1-2.78,0,.84.84,0,0,1,0-1.59,3,3,0,0,1,2.78,0A.84.84,0,0,1,173.39,228.45Z" transform="translate(-47.96 -42.56)"/><path class="cls-21" d="M170.45,223.8v3.75h0a.84.84,0,0,0,.46.66,2.57,2.57,0,0,0,2.23,0,.82.82,0,0,0,.46-.66h0V223.8Z" transform="translate(-47.96 -42.56)"/><path class="cls-6" d="M173.14,224.44a2.44,2.44,0,0,1-2.23,0c-.61-.35-.61-.92,0-1.29a2.5,2.5,0,0,1,2.23,0C173.76,223.52,173.76,224.09,173.14,224.44Z" transform="translate(-47.96 -42.56)"/><path class="cls-1" d="M169.67,230.46a3.14,3.14,0,0,1-2.77,0,.85.85,0,0,1,0-1.61,3.07,3.07,0,0,1,2.77,0C170.45,229.3,170.45,230,169.67,230.46Z" transform="translate(-47.96 -42.56)"/><path class="cls-21" d="M166.72,225.8v3.75h0a.79.79,0,0,0,.48.65,2.44,2.44,0,0,0,2.23,0,.77.77,0,0,0,.45-.65h0V225.8Z" transform="translate(-47.96 -42.56)"/><path class="cls-6" d="M169.43,226.44a2.44,2.44,0,0,1-2.23,0,.67.67,0,0,1,0-1.28,2.44,2.44,0,0,1,2.23,0A.67.67,0,0,1,169.43,226.44Z" transform="translate(-47.96 -42.56)"/><path class="cls-1" d="M164.38,207.88a3.07,3.07,0,0,1-2.77,0,.85.85,0,0,1,0-1.61,3.07,3.07,0,0,1,2.77,0A.85.85,0,0,1,164.38,207.88Z" transform="translate(-47.96 -42.56)"/><path class="cls-21" d="M161.43,203.22V207h0a.82.82,0,0,0,.46.64,2.46,2.46,0,0,0,2.24,0,.78.78,0,0,0,.46-.64h0v-3.76Z" transform="translate(-47.96 -42.56)"/><path class="cls-6" d="M164.13,203.87a2.46,2.46,0,0,1-2.24,0,.69.69,0,0,1,0-1.3,2.59,2.59,0,0,1,2.24,0A.69.69,0,0,1,164.13,203.87Z" transform="translate(-47.96 -42.56)"/><path class="cls-1" d="M160.65,209.89a3,3,0,0,1-2.75,0c-.77-.46-.77-1.17,0-1.61a3,3,0,0,1,2.75,0C161.43,208.72,161.43,209.44,160.65,209.89Z" transform="translate(-47.96 -42.56)"/><path class="cls-21" d="M157.71,205.23V209h0a.79.79,0,0,0,.48.64,2.5,2.5,0,0,0,2.23,0,.76.76,0,0,0,.45-.64h0v-3.75Z" transform="translate(-47.96 -42.56)"/><path class="cls-6" d="M160.42,205.87a2.5,2.5,0,0,1-2.23,0c-.63-.36-.63-.93,0-1.29a2.5,2.5,0,0,1,2.23,0C161,204.94,161,205.51,160.42,205.87Z" transform="translate(-47.96 -42.56)"/><path class="cls-1" d="M131.2,187.7a3,3,0,0,1-2.77,0c-.77-.45-.77-1.16,0-1.6a3.07,3.07,0,0,1,2.77,0A.85.85,0,0,1,131.2,187.7Z" transform="translate(-47.96 -42.56)"/><path class="cls-21" d="M128.26,183v3.76h0a.8.8,0,0,0,.46.65,2.5,2.5,0,0,0,2.23,0,.8.8,0,0,0,.46-.65h0V183Z" transform="translate(-47.96 -42.56)"/><path class="cls-6" d="M131,183.69a2.5,2.5,0,0,1-2.23,0,.68.68,0,0,1,0-1.29,2.5,2.5,0,0,1,2.23,0C131.57,182.75,131.57,183.33,131,183.69Z" transform="translate(-47.96 -42.56)"/><path class="cls-1" d="M127.49,189.7a3,3,0,0,1-2.77,0,.84.84,0,0,1,0-1.6,3.07,3.07,0,0,1,2.77,0A.84.84,0,0,1,127.49,189.7Z" transform="translate(-47.96 -42.56)"/><path class="cls-21" d="M124.55,185v3.77h0a.79.79,0,0,0,.45.64,2.46,2.46,0,0,0,2.24,0,.78.78,0,0,0,.46-.64h0V185Z" transform="translate(-47.96 -42.56)"/><path class="cls-6" d="M127.24,185.69a2.46,2.46,0,0,1-2.24,0,.68.68,0,0,1,0-1.28,2.46,2.46,0,0,1,2.24,0A.67.67,0,0,1,127.24,185.69Z" transform="translate(-47.96 -42.56)"/><path class="cls-4" d="M147.61,279.58a10.86,10.86,0,0,1,4.92-8.52l69.75-40.27,1.6.94-71.36,50.69a4.42,4.42,0,0,1-2.07.65l-.13.45-1.65-1.06A3.74,3.74,0,0,1,147.61,279.58Z" transform="translate(-47.96 -42.56)"/><path class="cls-20" d="M154.12,272l69.76-40.27v11.35l-69.76,40.28c-2.71,1.57-4.92.29-4.92-2.84A10.89,10.89,0,0,1,154.12,272Z" transform="translate(-47.96 -42.56)"/><polygon class="cls-10" points="141.24 212.83 141.23 219.05 140.12 218.39 140.12 212.16 141.24 212.83"/><polygon class="cls-18" points="159.3 202.36 151.71 207.91 141.24 212.83 140.12 212.16 158.19 201.7 159.3 202.36"/><polygon class="cls-11" points="159.3 202.36 159.31 208.61 141.23 219.05 141.24 212.83 159.3 202.36"/><polygon class="cls-10" points="157.51 205 157.51 207.99 143.03 216.37 143.03 213.39 157.51 205"/><polygon class="cls-10" points="123.97 222.78 123.96 229.01 122.86 228.35 122.85 222.11 123.97 222.78"/><polygon class="cls-18" points="136.09 215.76 128.5 221.3 123.97 222.78 122.85 222.11 134.97 215.11 136.09 215.76"/><polygon class="cls-11" points="136.09 215.76 136.1 222.01 123.96 229.01 123.97 222.78 136.09 215.76"/><polygon class="cls-10" points="134.3 218.39 134.3 221.39 125.76 226.33 125.76 223.35 134.3 218.39"/><path class="cls-6" d="M61.53,260.68,48,268.51V266l.93-.54.58-2.37L60,257l.59,1.68.94-.54Z" transform="translate(-47.96 -42.56)"/><polygon class="cls-22" points="26.55 222.84 12.05 214.47 1.51 220.54 16.02 228.92 26.55 222.84"/><polygon class="cls-22" points="15.44 231.28 0.93 222.91 0 223.46 14.5 231.82 15.44 231.28"/><polygon class="cls-22" points="28.07 223.99 13.57 215.62 12.63 216.16 27.13 224.53 28.07 223.99"/><path class="cls-6" d="M76,269.05l-13.57,7.83v-2.5l.94-.54.58-2.36,10.53-6.08.58,1.69.94-.54Z" transform="translate(-47.96 -42.56)"/><polygon class="cls-6" points="14.5 234.32 0 225.95 0 223.46 14.5 231.82 14.5 234.32"/><polygon class="cls-6" points="15.44 231.28 0.93 222.91 1.51 220.54 16.02 228.92 15.44 231.28"/><polygon class="cls-18" points="48.06 229.98 54.02 239.18 48.03 242.64 32.1 239.2 12.83 228.08 28.8 218.86 48.06 229.98"/><polygon class="cls-11" points="32.1 248.64 12.83 237.52 12.83 228.08 32.1 239.2 32.1 248.64"/><polygon class="cls-10" points="48.03 252.08 32.1 248.64 32.1 239.2 48.03 242.64 48.03 252.08"/><polygon points="54.02 248.62 48.03 252.08 48.03 242.64 54.02 239.18 54.02 248.62"/><path class="cls-11" d="M105.87,296.36l3.76-6.25-8.82-5.17h0a1.83,1.83,0,0,0-1.82.18,5.74,5.74,0,0,0-2.58,4.47,1.87,1.87,0,0,0,.71,1.65Z" transform="translate(-47.96 -42.56)"/><path d="M107.7,290.22c1.44-.82,2.59-.15,2.59,1.49a5.68,5.68,0,0,1-2.59,4.47c-1.42.83-2.57.16-2.57-1.49A5.73,5.73,0,0,1,107.7,290.22Z" transform="translate(-47.96 -42.56)"/><path class="cls-1" d="M238.12,352.26c1.47,4.46-8.09,11.61-21.35,16s-25.2,4.25-26.67-.21,8.1-11.61,21.36-16S236.67,347.8,238.12,352.26Z" transform="translate(-47.96 -42.56)"/><path class="cls-3" d="M201.19,354.78a56.15,56.15,0,0,1-6.86,5.52c-1,.59.29,3.44.33,3.51s2.44.36,4.7-.8a15.29,15.29,0,0,0,3.6-2.48,16.83,16.83,0,0,0,4.95-2.62c.44-1.24-.5-4.15-.5-4.15Z" transform="translate(-47.96 -42.56)"/><path class="cls-5" d="M205.52,307.73c-2.22,7.53-8.57,21.57-8.79,24.29-.43,5.23,1.61,15.58,2.23,23.49,0,1.89,7.52,1.19,8.92-1.85-.3-6.13-1.61-15.3-1.52-18.84,0-1.32,9.74-19.06,9.74-19.06Z" transform="translate(-47.96 -42.56)"/><path class="cls-3" d="M234.69,348.85s1.64,3.06.8,4.49c-.63,1-3.28,6.75-4.35,8.24-1.4,1.95-5.23,1-5.93.59a2.48,2.48,0,0,1-.41-3.67,17.52,17.52,0,0,0,4.2-7.2Z" transform="translate(-47.96 -42.56)"/><path class="cls-23" d="M226.41,308.84c2.41,8.88-.41,23.77.41,28.07,3.54,3.14,5.68,8.73,7.7,10.83,2.21,2.3-4.52,8.69-7,4.78-4-6.38-8-9.13-8.7-11.51-1.95-7.07-3.66-22.3-3.66-22.3s-6.13-2.23-9.34-10.3C205.79,306.46,226.22,308.13,226.41,308.84Z" transform="translate(-47.96 -42.56)"/><path class="cls-6" d="M225.84,269.91c.66,1.75-1,7,2.62,10.93,5.86-10.3-1.54-13.68-1.54-13.68S225.4,269.39,225.84,269.91Z" transform="translate(-47.96 -42.56)"/><path d="M227.15,268.8c-.37.92-1.11,1.5-1.64,1.29s-.68-1.14-.31-2.07,1.1-1.5,1.64-1.29S227.51,267.87,227.15,268.8Z" transform="translate(-47.96 -42.56)"/><path class="cls-24" d="M203.58,283.38s-1.51,2.07-2.49,3.26c-2.54.25-8.11,4-12.77,4.77-.47-.06-.66-1.1-1.84-1.13a2.16,2.16,0,0,0-1.79,1.13s-2.57.58-2.58,1.64,2.54,4.28,4.15,4.26a4.56,4.56,0,0,0,3.26-1.76c4.83-1.15,12.25-1.36,15.39-4.14,1.44-1.27,4.82-4.37,4.82-4.37Z" transform="translate(-47.96 -42.56)"/><path class="cls-11" d="M215.07,272.23c4.47,2.18.66,6.82-.6,9-.57,1-3.15,4.39-4.22,5.91-1.45,2.07-8.4-2.81-7.38-4.4.73-1.15,2.22-3.36,3.25-4.62C207.56,276.33,210.47,270,215.07,272.23Z" transform="translate(-47.96 -42.56)"/><path class="cls-25" d="M225,270.15a8.82,8.82,0,0,0,.36,3l.66,2.54-4.29,4-5.76,0-1.69-2.42,2.74-5,6.66-2.13S224.6,269.69,225,270.15Z" transform="translate(-47.96 -42.56)"/><path class="cls-18" d="M231.8,279.76a73.83,73.83,0,0,1-6.44-6.59c-.36,3.35-5.41,6.65-8.71,4.63-2.46-1.5-.2-4.35,1-5.05a6.59,6.59,0,0,0-3.11-1.24s-4.94,4.6-5.74,11-1.65,14-3.84,25c-.35,1.79,7.37,6.31,14.1,7.11s8.35-1.69,8.35-3.9a103.23,103.23,0,0,1,3.05-23.19Z" transform="translate(-47.96 -42.56)"/><path class="cls-24" d="M227.88,294.71a37.84,37.84,0,0,0,1.79,8.76c-2.21.9-4.94,6.45-6,7.32l1.23,3.32c4.22-2.62,9.05-4.73,10.13-9.33.56-2.4-.42-10.94-.42-10.94h-2.55S228.49,293.63,227.88,294.71Z" transform="translate(-47.96 -42.56)"/><path class="cls-6" d="M216.92,286.08l-3.73-2.45c-1.06-.69-2-.22-2.05,1l-.32,5.61a4.41,4.41,0,0,0,1.8,3.55l3.73,2.45c1.06.69,2,.22,2.05-1l.32-5.61A4.41,4.41,0,0,0,216.92,286.08Zm-.48,1.08a2.49,2.49,0,0,1,.65,2c-.05.83-.41,1.29-.82,1a2.51,2.51,0,0,1-.65-2C215.67,287.36,216,286.9,216.44,287.16Zm-2.92-.76a1.82,1.82,0,0,1,.74,1.47c0,.52-.41.71-.85.43a1.81,1.81,0,0,1-.73-1.47C212.7,286.31,213.08,286.12,213.52,286.4Zm1.07,6.71c-1.44-.94-2.59-2.21-2.55-2.83l5.23,3.43C217.24,294.32,216,294.06,214.59,293.11Z" transform="translate(-47.96 -42.56)"/><path class="cls-24" d="M214.72,261.9a9.61,9.61,0,0,0-1.84,5,4.57,4.57,0,0,0,.44,1.4,4.32,4.32,0,0,0-.23,1.66c.07.83.64,5.5,1.11,6.08a3.29,3.29,0,0,0,2.61.86c3.13-.57,5.05-3.13,5.79-4a3.52,3.52,0,0,0,.46-1.47,2.55,2.55,0,0,0,2.14-1.78c1.05-2.3.32-2.68.32-2.68l-3.15-3.58-4.71-2.16Z" transform="translate(-47.96 -42.56)"/><path class="cls-6" d="M224.88,267.52a3.53,3.53,0,0,0-2.21,1.31s-1.3.15-1.9-1.61c-.34-1-.66-2.29-1-2.47-.78-.4-1.91.5-4.16-.72-3.06-1.67.11-6,5.76-5.37,5.84.67,5.36,6.15,5.36,7.52a5.4,5.4,0,0,1-1.51,3.52S225.91,267.39,224.88,267.52Z" transform="translate(-47.96 -42.56)"/><path class="cls-11" d="M229.72,279.84c4.82-1.29,5,4.72,5.44,7.16.2,1.11.5,5.38.69,7.22.26,2.52-8.18,3.4-8.46,1.53-.2-1.35-.52-4-.57-5.62C226.75,287.86,224.78,281.16,229.72,279.84Z" transform="translate(-47.96 -42.56)"/><polygon class="cls-26" points="162.51 254.38 162.5 252.18 170.72 257.72 162.51 254.38"/><path class="cls-24" d="M220.66,310.42s-2.69-2.16-2.12-2.67,4.3,1,5.15,3l-1.55.62Z" transform="translate(-47.96 -42.56)"/><path class="cls-1" d="M363.86,417.45c1.68,4.76-8.75,12.22-23.29,16.65s-27.69,4.16-29.36-.6,8.75-12.22,23.29-16.65S362.19,412.69,363.86,417.45Z" transform="translate(-47.96 -42.56)"/><path class="cls-24" d="M314.07,360.82c4.84-1.14,9.34-.79,12.47-3.57,1.45-1.28,4.83-4.37,4.83-4.37l-6.16-3.67s-1.5,2.08-2.49,3.27c-2.54.25-8.1,4-12.77,4.77-.46-.06-.65-1.11-1.83-1.13a2.16,2.16,0,0,0-1.8,1.13Z" transform="translate(-47.96 -42.56)"/><path class="cls-27" d="M336.7,338.06c4.48,2.19.66,6.83-.6,9-.56,1-3.14,4.39-4.21,5.9-1.45,2.08-8.4-2.8-7.39-4.39.74-1.16,2.23-3.36,3.26-4.62C329.2,342.17,332.1,335.82,336.7,338.06Z" transform="translate(-47.96 -42.56)"/><path class="cls-25" d="M346.64,336a8.88,8.88,0,0,0,.36,3l.65,2.54-4.28,3.95-5.77,0-1.69-2.42,2.74-5,6.67-2.12S346.23,335.53,346.64,336Z" transform="translate(-47.96 -42.56)"/><path class="cls-28" d="M319.5,425.1a28.4,28.4,0,0,1-7,4.25c-.93.41-1.39,3.86-.12,4a11.92,11.92,0,0,0,4-.26,14.55,14.55,0,0,0,4.37-2.14s4-.19,4.89-1c.67-.63.48-4.41.48-4.41S320.05,424.85,319.5,425.1Z" transform="translate(-47.96 -42.56)"/><path class="cls-14" d="M327.94,368.64c-6.6,17.38-7.07,41.22-9.27,55.88-.39,2.56,9.42,4.3,9.55.32.7-20.88,8.69-40.06,9.14-44.06S328.93,367,327.94,368.64Z" transform="translate(-47.96 -42.56)"/><path class="cls-28" d="M354.4,417.16c-.26,3.13-3.52,6.1-4.28,7.19-.46.66-.63,2.23.36,2.72s3.81,1.32,5.63,0c1.62-1.13,5.75-6.64,6.15-7.82a4,4,0,0,0-1.95-5.11S354.41,416.6,354.4,417.16Z" transform="translate(-47.96 -42.56)"/><path class="cls-15" d="M345.85,371.09c4.88,5.63,4.35,25.61,5.44,29.81,3.7,2.89,6.64,8.33,8.91,12,2.47,4-5,9.24-7.05,5.14-3.78-7.69-9-11.13-9.8-13.45-2.38-6.87-6.48-19.67-6.48-19.67s-8.88-7.42-8.93-16.24C327.76,366.71,345.37,370.53,345.85,371.09Z" transform="translate(-47.96 -42.56)"/><path class="cls-3" d="M353.43,345.6A74.56,74.56,0,0,1,347,339c-.22,2-2.11,4-4.3,4.83a4.41,4.41,0,0,1-4.66,1.42,2.59,2.59,0,0,1-.78-2.85c-.43-1.49,1.11-3.28,2-3.82a6.54,6.54,0,0,0-3.1-1.24s-4.94,4.6-5.74,11-1.31,14.22-3.27,20.48c-.85,2.68-.62,5.64,3.27,8.24a6.75,6.75,0,0,0,1.35-2.19,10,10,0,0,1,.4,3.2c6.67,3.31,8.43-2.21,11.45-2.73,3.62-.62,5.41,4.33,5.41,4.33,0-11.54,3.05-26.35,3.05-26.35Z" transform="translate(-47.96 -42.56)"/><path class="cls-1" d="M337.79,344.46a13.37,13.37,0,0,0-4-1.2,8.67,8.67,0,0,1,2.47-2.7l.71.39S337.59,344.06,337.79,344.46Z" transform="translate(-47.96 -42.56)"/><path class="cls-1" d="M339.06,345a16.07,16.07,0,0,1,3.27,2.37,11,11,0,0,0,5.41-7.13l-6.2,4.51Z" transform="translate(-47.96 -42.56)"/><path class="cls-6" d="M338.15,346.13c-2.14,5-4.69,25.41-4.69,25.41L332,372.78l-1.19-2.1s2.46-19.77,6.79-24.86a.66.66,0,0,1,.59-.36A1.38,1.38,0,0,0,338.15,346.13Z" transform="translate(-47.96 -42.56)"/><path class="cls-7" d="M334.24,343.06a10.92,10.92,0,0,1,3.4-4.2,13.85,13.85,0,0,1-1.17,2.49Z" transform="translate(-47.96 -42.56)"/><path class="cls-20" d="M335.45,341.73c-.7.21-1.21,1.33-1.21,1.33a19.39,19.39,0,0,1,1.85-.85Z" transform="translate(-47.96 -42.56)"/><path class="cls-6" d="M337.6,344.19s-.65-.83-.63-1.26c-.06-.12-.32,0-.37,0a3.1,3.1,0,0,0,.76,2l.29-.39Z" transform="translate(-47.96 -42.56)"/><path class="cls-28" d="M338,344.79s-1.09-2.92,1.06-7.67a42.53,42.53,0,0,0-3.61,4.61A16.59,16.59,0,0,1,338,344.79Z" transform="translate(-47.96 -42.56)"/><path class="cls-6" d="M339.41,345.25a14.63,14.63,0,0,0,2.26-1.19.5.5,0,0,1,.5.62,5.67,5.67,0,0,1-3.05,1.17l-.06-.43Z" transform="translate(-47.96 -42.56)"/><path class="cls-20" d="M340.74,344.6c-1.42,1-2,.53-2,.53a29.63,29.63,0,0,0,5.65-2.36,4.62,4.62,0,0,1-2.65,1.87A6.88,6.88,0,0,1,340.74,344.6Z" transform="translate(-47.96 -42.56)"/><polygon class="cls-21" points="291.45 302.69 289.64 301.63 289.4 302.41 289.64 303.26 290.19 303.57 291.17 303.3 291.45 302.69"/><path class="cls-28" d="M347.84,339.84a5.69,5.69,0,0,1-.93-1.81c-1.78,3.94-6.17,6.57-6.17,6.57a7.56,7.56,0,0,1,1.68,2.41S347.28,343.06,347.84,339.84Z" transform="translate(-47.96 -42.56)"/><path class="cls-24" d="M349.52,360.54a37.41,37.41,0,0,0,1.79,8.77c-2.21.9-4.94,6.45-6,7.32l1.22,3.32c4.23-2.63,9.06-4.73,10.13-9.33.57-2.41-.42-10.94-.42-10.94h-2.55S350.12,359.47,349.52,360.54Z" transform="translate(-47.96 -42.56)"/><polygon class="cls-25" points="289.98 294.56 289.98 298.65 295.65 299.17 296.33 293.23 291.45 293.06 289.98 294.56"/><path class="cls-24" d="M347.15,327.81a9.66,9.66,0,0,1,1.84,5,4.36,4.36,0,0,1-.43,1.4,4.32,4.32,0,0,1,.23,1.66c-.07.83-.65,5.5-1.12,6.07a3.27,3.27,0,0,1-2.61.87c-3.12-.57-5.05-3.13-5.79-4a3.62,3.62,0,0,1-.45-1.47,2.54,2.54,0,0,1-2.14-1.78c-1.05-2.3-.32-2.68-.32-2.68l3.14-3.58,4.72-2.15Z" transform="translate(-47.96 -42.56)"/><path class="cls-11" d="M337,333.42a3.61,3.61,0,0,1,2.21,1.31s1.29.16,1.89-1.6a11.65,11.65,0,0,1,.77-2.15,2.42,2.42,0,0,1,2.16-.69c.6.06,1.29,1,1.1,2.27,3.06-1.66,6.77-9.13-4.61-8-5.84.59-5.35,6.15-5.36,7.52a5.39,5.39,0,0,0,1.52,3.52S336,333.3,337,333.42Z" transform="translate(-47.96 -42.56)"/><path class="cls-27" d="M351.36,345.67c4.81-1.28,5,4.73,5.43,7.17.21,1.11.5,5.38.7,7.22.26,2.52-8.19,3.4-8.47,1.53-.2-1.35-.52-4-.57-5.63C348.38,353.7,346.41,347,351.36,345.67Z" transform="translate(-47.96 -42.56)"/><path class="cls-24" d="M427.62,369.34s4.86,6.61,6,9.8-.25,7.73-.76,8.51-6.27,1.78-6.27,1.78l-1.88-6.68a22.9,22.9,0,0,0,3.1-.45c-1.82-3-3-10.21-3.55-11.17Z" transform="translate(-47.96 -42.56)"/><path class="cls-27" d="M411.35,387.3c-.15,5.2,3.1,7.63,5.09,6,4.39-3.68,8.8-2.9,10.72-3.14,2.62-.34,1.51-8.76-.46-8.59-1.42.11-3.53.38-6,.43S411.51,382,411.35,387.3Z" transform="translate(-47.96 -42.56)"/><path class="cls-10" d="M472.7,396.61c-12.92,0-33.89-2.94-52-19-5.11-4.54-8.33-3.33-16.12-.42-8.78,3.29-22.06,8.25-46.16,6.37-14.91-1.16-30.44-10.9-50.1-23.23-16.05-10.06-34.24-21.47-56.32-30.77-9.42-4-21.33-10.44-35.13-17.92-9.78-5.31-19.9-10.8-30.32-16-1.33-.67-3.16-1.38-4.32-1-1.44.49-2.64,3-3.91,5.72-2.27,4.83-5.38,11.44-13.42,14-11.55,3.62-29.84-2.15-57.55-18.15a2.73,2.73,0,1,1,2.74-4.73c25.57,14.76,43.47,20.7,53.17,17.66,5.75-1.8,8-6.51,10.11-11.07,1.77-3.76,3.45-7.32,7.07-8.57,2.42-.83,5.22-.42,8.57,1.27,10.5,5.28,20.65,10.79,30.47,16.12,13.67,7.41,25.48,13.82,34.65,17.69,22.48,9.47,40.87,21,57.09,31.18,19,11.92,34,21.35,47.63,22.41,22.88,1.78,35-2.74,43.81-6,8.18-3.06,14.1-5.28,21.68,1.46,25.84,23,59.14,16.84,59.47,16.77a2.74,2.74,0,0,1,1.06,5.37A67.27,67.27,0,0,1,472.7,396.61Z" transform="translate(-47.96 -42.56)"/><path class="cls-24" d="M425.08,372.45c-.29.05-3.24,1.94-4.3,1.86s-2.85-1.05-2.85-1.83c0-1.34,2.14-5.11,3.7-5.17,1.29-.06,5.1.8,6,2S425.08,372.45,425.08,372.45Z" transform="translate(-47.96 -42.56)"/><path class="cls-1" d="M478.42,516.67c.3,4.36,12.05,10.3,26.27,13.28s25.49,1.85,25.19-2.51-12.07-10.3-26.27-13.27S478.12,512.31,478.42,516.67Z" transform="translate(-47.96 -42.56)"/><path class="cls-20" d="M513.31,424.31s1.39-2.37,4.83-.31c2.78,1.66,2.08,3.54,2.08,3.54l-1.89,3.06-5-.93-.67-2.77Z" transform="translate(-47.96 -42.56)"/><path class="cls-24" d="M513.31,424.31s2-3.39,3-5.29c1-4.77,5-15.53,5-15.53a25.16,25.16,0,0,1-1.65-3.88c0-.63.38-4.28,1.1-4.43s.58,3.06.73,3.11c1-.4,1.17-2.44,1.17-2.44s0-3.73,1.07-4,3.31,4.54,3.29,5.53-2.3,7.06-2.3,7.06-.07,12.35-2.33,16.47c-.83,1.52-4.89,10.2-4.89,10.2l-5.33-2.74Z" transform="translate(-47.96 -42.56)"/><path class="cls-27" d="M509.3,439.75c-3.56-1.66-2.26-5.84-1.7-7,1.5-3.07,4.86-6.25,5.71-8.47-.62,2.56,3.59,6.77,6.91,3.23-.86,2.25-4.6,9.76-5.12,12.77C514.68,442.7,513.26,441.6,509.3,439.75Z" transform="translate(-47.96 -42.56)"/><path class="cls-25" d="M499.64,431.92a17,17,0,0,1,.34,2.89l.45,3.21,5,5.31,5.7-1.11v-4.4l-3.27-8.15-7.32.3A8.7,8.7,0,0,1,499.64,431.92Z" transform="translate(-47.96 -42.56)"/><path class="cls-29" d="M521.52,520.5a28.73,28.73,0,0,0,6.93,4.52c.93.44,1.27,3.94,0,4.05a12.06,12.06,0,0,1-4.06-.4,15.1,15.1,0,0,1-4.34-2.3s-4.06-.34-4.89-1.17c-.66-.65-.33-4.47-.33-4.47S521,520.23,521.52,520.5Z" transform="translate(-47.96 -42.56)"/><path class="cls-10" d="M514.92,463.3C521,481,520.65,505.1,522.37,520c.3,2.58-9.64,4-9.64,0,0-21.08-7.4-40.69-7.72-44.73S514,461.64,514.92,463.3Z" transform="translate(-47.96 -42.56)"/><path class="cls-29" d="M486.6,511.32c.16,3.16,3.35,6.27,4.08,7.39.44.68.55,2.27-.46,2.72s-3.89,1.21-5.68-.14c-1.6-1.19-5.57-6.89-5.93-8.09a4.06,4.06,0,0,1,2.13-5.09S486.62,510.75,486.6,511.32Z" transform="translate(-47.96 -42.56)"/><path class="cls-11" d="M496.78,465.16c-5.11,5.52-5.26,25.67-6.49,29.87-3.83,2.79-7,8.17-9.39,11.76-2.62,3.9,4.76,9.48,6.93,5.42,4.08-7.63,9.45-10.92,10.34-13.23,2.63-6.84,7.19-19.6,7.19-19.6s9.21-7.19,9.56-16.08C515.17,461.36,497.28,464.62,496.78,465.16Z" transform="translate(-47.96 -42.56)"/><path class="cls-29" d="M515.1,460.48l-.18,2.82a17,17,0,0,1-13.28,4.3c-3.91-.42-4.86-2.44-4.86-2.44l.59-2.25Z" transform="translate(-47.96 -42.56)"/><path class="cls-3" d="M492.61,441.55c.87-1,4.73-3.73,6.38-5.51l5.93,4.87,3.51.67.38-.88-.46-7.5H510s7.52,3.45,6.78,13.95c-.47,6.68-1.57,11.2-1.47,12.92s-6.3,5.44-11.77,5.44c-4.33,0-6.16-1.71-6.37-3-.61-3.61-5.18-11.11-5.88-12.75S493.54,443.6,492.61,441.55Z" transform="translate(-47.96 -42.56)"/><path class="cls-1" d="M508.75,440.54a13.92,13.92,0,0,1,4-1.19,8.93,8.93,0,0,0-2.47-2.7l-.71.39A35.42,35.42,0,0,1,508.75,440.54Z" transform="translate(-47.96 -42.56)"/><path class="cls-1" d="M507.48,441.13a16.14,16.14,0,0,0-3.26,2.37,11,11,0,0,1-5.41-7.13l6.2,4.51Z" transform="translate(-47.96 -42.56)"/><path class="cls-6" d="M508.4,442.22c2.13,5,1.66,25.41,1.66,25.41l1.46,1.25,1.19-2.11s.56-19.77-3.76-24.86a.67.67,0,0,0-.6-.36A1.48,1.48,0,0,1,508.4,442.22Z" transform="translate(-47.96 -42.56)"/><path class="cls-7" d="M512.31,439.15a10.92,10.92,0,0,0-3.4-4.2,13.18,13.18,0,0,0,1.17,2.49Z" transform="translate(-47.96 -42.56)"/><path class="cls-20" d="M511.1,437.82c.69.22,1.21,1.33,1.21,1.33s-1.39-.71-1.85-.85Z" transform="translate(-47.96 -42.56)"/><path class="cls-6" d="M508.94,440.29s.66-.83.64-1.26c.06-.13.32,0,.37,0a3.15,3.15,0,0,1-.76,2l-.3-.39Z" transform="translate(-47.96 -42.56)"/><path class="cls-28" d="M508.54,440.88s1.1-2.92-1.06-7.68a44,44,0,0,1,3.62,4.62A16.76,16.76,0,0,0,508.54,440.88Z" transform="translate(-47.96 -42.56)"/><path class="cls-6" d="M507.13,441.34a14.62,14.62,0,0,1-2.25-1.19.5.5,0,0,0-.5.62,5.68,5.68,0,0,0,3,1.18l.06-.44Z" transform="translate(-47.96 -42.56)"/><path class="cls-20" d="M505.81,440.69c1.41,1.06,2,.52,2,.52a29.31,29.31,0,0,1-5.65-2.35,4.63,4.63,0,0,0,2.66,1.87A6.9,6.9,0,0,0,505.81,440.69Z" transform="translate(-47.96 -42.56)"/><polygon class="cls-21" points="459.17 398.78 460.99 397.73 461.23 398.5 460.99 399.35 460.44 399.67 459.46 399.39 459.17 398.78"/><path class="cls-28" d="M498.71,435.93a5.76,5.76,0,0,0,.92-1.81c1.79,3.94,6.18,6.57,6.18,6.57a7.49,7.49,0,0,0-1.69,2.4S499.26,439.15,498.71,435.93Z" transform="translate(-47.96 -42.56)"/><path class="cls-24" d="M506.28,420.06c3.76,1.57,3.43,5.33,3.53,5.93.55.67,1.38,7.54,1.29,7.94a2.45,2.45,0,0,1-2.06,1.49,12.12,12.12,0,0,1-7.05-1.93,5.29,5.29,0,0,1-1.05-1.6s-1.24.76-1.86-.25a14.35,14.35,0,0,1-2.25-4.91l1.84-4.4,3.76-2.68S505.69,419.9,506.28,420.06Z" transform="translate(-47.96 -42.56)"/><path class="cls-20" d="M487.49,438.49s-.67-2.2,2.93-4c4-1.95,5.12.92,5.12.92l.36,3.63-3.09,2.65-3.9-.6Z" transform="translate(-47.96 -42.56)"/><path class="cls-24" d="M488.66,440.11s-.62-1.94-1.17-4.18-.68-10.48-1.5-14.42a7.11,7.11,0,0,0,3.88-.88c1.06,3.1,3.23,8.48,3.61,13.38a20.37,20.37,0,0,1,2.2,3.93l-1.5,2.83-3.73.78Z" transform="translate(-47.96 -42.56)"/><path class="cls-27" d="M495,450.48c-3.77,1.14-5.58-2.85-5.92-4.07-.92-3.29-.74-5.7-1.59-7.92,1.25,2.32,7.93,1.8,8.05-3.05.86,2.25,2.15,5.77,2.72,7.35C499.07,445.09,499.18,449.22,495,450.48Z" transform="translate(-47.96 -42.56)"/><path class="cls-29" d="M499.08,431.64s-1.58-2.83-.76-3.56,1.83.56,1.83.56a13.28,13.28,0,0,0,.55-1.58c.14-.56.66-.83.92-1.36s-.12-1.51.12-1.95,5.64-.93,6.19-2.77c.24-.81-5.52-4.9-10.58.35C492.75,426.11,499.08,431.64,499.08,431.64Z" transform="translate(-47.96 -42.56)"/><path class="cls-18" d="M465.34,405.86a1,1,0,0,1-.45-1V393.8a3.31,3.31,0,0,1,1.49-2.58l29.55-17.06a1,1,0,0,1,1.09-.08L527.86,392l-31.32,31.87Z" transform="translate(-47.96 -42.56)"/><polygon class="cls-11" points="444.99 355.86 429.44 346.89 427.79 347.84 443.33 356.81 444.99 355.86"/><path class="cls-11" d="M496.14,422.94c0,.95.67,1.33,1.49.86l29.55-17.06a3.28,3.28,0,0,0,1.49-2.58V393.07c0-.95-.67-1.34-1.48-.87l-29.56,17.07a3.31,3.31,0,0,0-1.49,2.57Z" transform="translate(-47.96 -42.56)"/><path class="cls-21" d="M527.08,400.33,525,404.19l-2-1.16h0a1.07,1.07,0,0,1-.45-1,3.41,3.41,0,0,1,1.56-2.71,1.09,1.09,0,0,1,1.07-.12Z" transform="translate(-47.96 -42.56)"/><path class="cls-6" d="M524.42,403.15c0,1,.7,1.4,1.56.9a3.44,3.44,0,0,0,1.56-2.7c0-1-.7-1.4-1.56-.9A3.49,3.49,0,0,0,524.42,403.15Z" transform="translate(-47.96 -42.56)"/><path class="cls-10" d="M524.87,402.89c0,.72.5,1,1.11.64a2.4,2.4,0,0,0,1.11-1.93c0-.7-.49-1-1.11-.64A2.47,2.47,0,0,0,524.87,402.89Z" transform="translate(-47.96 -42.56)"/><path class="cls-21" d="M504.59,420.17l-2-1.15a1.07,1.07,0,0,1-.33-1.07l1.06-9a4,4,0,0,1,1.7-2.69l14.38-8.3a1.23,1.23,0,0,1,1.19-.1h0l2,1.14-1.23,1.45.81,6a2.68,2.68,0,0,1-1.27,2.44l-13.21,7.63Z" transform="translate(-47.96 -42.56)"/><path class="cls-6" d="M504.23,419.08c-.12,1,.45,1.44,1.27,1l17.36-10a2.69,2.69,0,0,0,1.27-2.44l-1.06-7.78c-.11-.87-.88-1.19-1.7-.71L507,407.4a4,4,0,0,0-1.7,2.68Z" transform="translate(-47.96 -42.56)"/><path class="cls-18" d="M505.46,417.85c-.1.89.4,1.26,1.11.85l15.21-8.78a2.35,2.35,0,0,0,1.12-2.14L522,401c-.1-.76-.78-1-1.49-.63l-12.6,7.28a3.5,3.5,0,0,0-1.49,2.35Z" transform="translate(-47.96 -42.56)"/><path class="cls-10" d="M519,403c0,.43.29.6.66.38a1.42,1.42,0,0,0,.66-1.15c0-.42-.29-.6-.66-.38A1.46,1.46,0,0,0,519,403Z" transform="translate(-47.96 -42.56)"/><path class="cls-10" d="M516,404.68c0,.42.3.59.67.38a1.43,1.43,0,0,0,.66-1.15c0-.43-.29-.6-.66-.39A1.47,1.47,0,0,0,516,404.68Z" transform="translate(-47.96 -42.56)"/><path class="cls-10" d="M513,406.39c0,.43.3.6.67.38a1.47,1.47,0,0,0,.66-1.15c0-.42-.29-.59-.67-.38A1.48,1.48,0,0,0,513,406.39Z" transform="translate(-47.96 -42.56)"/><path class="cls-10" d="M510.06,408.11c0,.42.29.6.66.38a1.45,1.45,0,0,0,.67-1.15c0-.43-.3-.6-.67-.38A1.44,1.44,0,0,0,510.06,408.11Z" transform="translate(-47.96 -42.56)"/><path class="cls-10" d="M507.09,409.83c0,.42.29.59.66.38a1.47,1.47,0,0,0,.67-1.16c0-.42-.3-.59-.67-.38A1.46,1.46,0,0,0,507.09,409.83Z" transform="translate(-47.96 -42.56)"/><path class="cls-10" d="M519,409.46c0,.43.29.6.66.39a1.49,1.49,0,0,0,.67-1.16c0-.42-.3-.59-.67-.38A1.46,1.46,0,0,0,519,409.46Z" transform="translate(-47.96 -42.56)"/><path class="cls-10" d="M516,411.18c0,.42.3.59.67.38a1.47,1.47,0,0,0,.66-1.15c0-.42-.29-.6-.66-.38A1.45,1.45,0,0,0,516,411.18Z" transform="translate(-47.96 -42.56)"/><path class="cls-10" d="M513,412.89c0,.43.3.6.66.39a1.48,1.48,0,0,0,.67-1.15c0-.43-.29-.6-.66-.39A1.47,1.47,0,0,0,513,412.89Z" transform="translate(-47.96 -42.56)"/><path class="cls-10" d="M510.06,414.61c0,.43.29.6.67.38a1.47,1.47,0,0,0,.66-1.15c0-.42-.3-.59-.67-.38A1.48,1.48,0,0,0,510.06,414.61Z" transform="translate(-47.96 -42.56)"/><path class="cls-10" d="M507.09,416.33c0,.42.29.59.66.38a1.47,1.47,0,0,0,.67-1.15c0-.43-.3-.6-.67-.39A1.45,1.45,0,0,0,507.09,416.33Z" transform="translate(-47.96 -42.56)"/><path class="cls-10" d="M520.29,405.53c0,.43.3.6.67.39a1.43,1.43,0,0,0,.66-1.16c0-.42-.29-.59-.66-.38A1.47,1.47,0,0,0,520.29,405.53Z" transform="translate(-47.96 -42.56)"/><path class="cls-10" d="M517.32,407.25c0,.43.3.59.67.39a1.5,1.5,0,0,0,.66-1.16c0-.42-.3-.6-.66-.38A1.48,1.48,0,0,0,517.32,407.25Z" transform="translate(-47.96 -42.56)"/><path class="cls-10" d="M514.35,409c0,.43.3.6.66.39a1.47,1.47,0,0,0,.67-1.16c0-.41-.3-.59-.67-.37A1.45,1.45,0,0,0,514.35,409Z" transform="translate(-47.96 -42.56)"/><path class="cls-10" d="M511.37,410.68c0,.43.31.59.67.39a1.49,1.49,0,0,0,.67-1.16c0-.42-.3-.59-.67-.38A1.52,1.52,0,0,0,511.37,410.68Z" transform="translate(-47.96 -42.56)"/><path class="cls-10" d="M508.4,412.39c0,.44.3.61.67.39a1.45,1.45,0,0,0,.67-1.15c0-.43-.3-.6-.67-.39A1.5,1.5,0,0,0,508.4,412.39Z" transform="translate(-47.96 -42.56)"/><path class="cls-21" d="M503.83,413.75l-2.12,3.86-2-1.16h0a1.09,1.09,0,0,1-.45-1,3.45,3.45,0,0,1,1.55-2.71,1.11,1.11,0,0,1,1.08-.12Z" transform="translate(-47.96 -42.56)"/><path class="cls-6" d="M501.18,416.57c0,1,.7,1.39,1.56.9a3.46,3.46,0,0,0,1.56-2.71c0-1-.7-1.39-1.56-.89A3.46,3.46,0,0,0,501.18,416.57Z" transform="translate(-47.96 -42.56)"/><path class="cls-10" d="M501.63,416.31c0,.71.5,1,1.11.64a2.42,2.42,0,0,0,1.11-1.93c0-.7-.5-1-1.11-.64A2.48,2.48,0,0,0,501.63,416.31Z" transform="translate(-47.96 -42.56)"/><path class="cls-24" d="M486,421.51s-3.56-1.61-4.36-2.17a16.35,16.35,0,0,1-2.23-2.68c-.19-.24-.52-3,.12-3.09a9.07,9.07,0,0,1,4.56,1.39,4.26,4.26,0,0,1,.87,2.22,24,24,0,0,1,4.34,2.23c.43.3.58,1.22.58,1.22l-.45,1.13-2.56.51Z" transform="translate(-47.96 -42.56)"/><path class="cls-1" d="M381.52,465.77c-1,4.53,9.36,10.18,23.13,12.62s25.76.72,26.77-3.81-9.36-10.19-23.14-12.63S382.52,461.23,381.52,465.77Z" transform="translate(-47.96 -42.56)"/><path class="cls-28" d="M420.91,468.26a25.76,25.76,0,0,0,7.94,2.58c1,.16,2.32,3,1.14,3.49a8.8,8.8,0,0,1-4,.81,13.12,13.12,0,0,1-4.53-1.2s-3.56,1.21-5.29-.12c-.73-.57-.76-5-.76-5S420.31,468.16,420.91,468.26Z" transform="translate(-47.96 -42.56)"/><path class="cls-30" d="M418.67,419.24c2.61,8.3,2.31,33.61,4.52,48.27.38,2.55-9.18,4.28-9.56.32-2-20.82-5.46-37.3-5.91-41.3S417.68,417.62,418.67,419.24Z" transform="translate(-47.96 -42.56)"/><path class="cls-28" d="M391.88,461.13c.27,3.14,3.52,6.11,4.29,7.2.45.65.62,2.23-.37,2.71s-3.81,1.32-5.63,0c-1.62-1.14-5.75-6.64-6.15-7.82a4,4,0,0,1,2-5.11S391.88,460.57,391.88,461.13Z" transform="translate(-47.96 -42.56)"/><path class="cls-29" d="M400,415.31c-4.88,5.63-4.35,25.62-5.44,29.82-3.7,2.89-6.64,8.33-8.91,12-2.47,4,5,9.24,7.05,5.14,3.79-7.7,9-11.14,9.8-13.45,2.39-6.87,7.08-20.21,7.08-20.21s8.28-6.88,8.33-15.71C418.11,410.94,400.5,414.76,400,415.31Z" transform="translate(-47.96 -42.56)"/><path class="cls-25" d="M405.34,382.41a6.59,6.59,0,0,1-.86,3.13l2.73,4.89L412,393,415.8,391l-1-4.55-2.13-4.31L406.39,381S405.59,382,405.34,382.41Z" transform="translate(-47.96 -42.56)"/><path class="cls-3" d="M397.46,390.9a46,46,0,0,1,6.37-4.82c.07,2,3.87,4.08,6,5.07a4.57,4.57,0,0,0,3.35.38,2.07,2.07,0,0,0,.93-2.1,3.5,3.5,0,0,0-1.13-3.78c1.27-.95,2.3-1.69,2.3-1.69s4.32,3,4.81,10.89c.4,6.46-1.72,13.43-.89,23.15.23,2.8.08,5.15-3.64,6.61a8.6,8.6,0,0,1-1.31-2.64,15.37,15.37,0,0,0-.59,3.47c-6.89,2.81-9.05-3-12-3.7-3.56-.89-5,2.85-5,2.85.88-11.5,1.58-25.12,1.58-25.12Z" transform="translate(-47.96 -42.56)"/><path class="cls-1" d="M413.58,390.83a13.35,13.35,0,0,1,3.94-1.2,8.58,8.58,0,0,0-2.46-2.7l-.71.39S413.78,390.43,413.58,390.83Z" transform="translate(-47.96 -42.56)"/><path class="cls-1" d="M412.3,391.41a16.14,16.14,0,0,0-3.26,2.37,11,11,0,0,1-5.41-7.13l6.2,4.5Z" transform="translate(-47.96 -42.56)"/><path class="cls-15" d="M413.22,392.5c2.13,5,2.06,25.5,2.06,25.5l1.46,1.24,1.19-3.45s.16-18.51-4.16-23.6a.68.68,0,0,0-.59-.37A1.43,1.43,0,0,1,413.22,392.5Z" transform="translate(-47.96 -42.56)"/><path class="cls-7" d="M417.13,389.43a10.92,10.92,0,0,0-3.4-4.2,13.68,13.68,0,0,0,1.17,2.48Z" transform="translate(-47.96 -42.56)"/><path class="cls-20" d="M415.92,388.1c.7.21,1.21,1.33,1.21,1.33s-1.39-.71-1.85-.86Z" transform="translate(-47.96 -42.56)"/><path class="cls-15" d="M413.76,390.56s.66-.83.64-1.25c.06-.13.32-.05.37,0a3.1,3.1,0,0,1-.76,2l-.29-.39Z" transform="translate(-47.96 -42.56)"/><path class="cls-28" d="M413.37,391.15s1.09-2.92-1.07-7.67a41.67,41.67,0,0,1,3.62,4.62A16.7,16.7,0,0,0,413.37,391.15Z" transform="translate(-47.96 -42.56)"/><path class="cls-15" d="M412,391.62a14.63,14.63,0,0,1-2.26-1.19c-.45-.06-.59.52-.5.62a5.75,5.75,0,0,0,3,1.17l.06-.43Z" transform="translate(-47.96 -42.56)"/><path class="cls-20" d="M410.63,391c1.42,1.06,2,.53,2,.53a29.31,29.31,0,0,1-5.65-2.35,4.69,4.69,0,0,0,2.66,1.87A6.19,6.19,0,0,0,410.63,391Z" transform="translate(-47.96 -42.56)"/><polygon class="cls-14" points="364 349.06 365.81 348 366.05 348.78 365.81 349.63 365.26 349.94 364.28 349.66 364 349.06"/><path class="cls-28" d="M403.53,386.2a9.69,9.69,0,0,0,1.39-1.89,18.8,18.8,0,0,0,5.71,6.65,7.48,7.48,0,0,0-1.68,2.41S404.08,389.43,403.53,386.2Z" transform="translate(-47.96 -42.56)"/><path class="cls-24" d="M415.74,373.59a9.66,9.66,0,0,1,1.84,5,4.44,4.44,0,0,1-.43,1.41,4.18,4.18,0,0,1,.22,1.65c-.05.83-.64,5.51-1.1,6.08a3.29,3.29,0,0,1-2.62.86c-3.12-.56-4.9-2.95-5.63-3.8a4.23,4.23,0,0,1-.56-1.46s-.9.48-1.89-.61a43.16,43.16,0,0,1-1.74-4.47l4.27-3.14,4.71-2.16Z" transform="translate(-47.96 -42.56)"/><path class="cls-29" d="M411.46,377c4.87,0,6.12,1.29,6.91-.52.51-1.17-2.62-5.4-6.23-6.77a5,5,0,0,0-6.16,1.64s-4,.75-3.23,5.71a9.2,9.2,0,0,0,2.82,5.72s-1.31-3.21.23-3.28c1,0,2.14,2,2.14,2a3.22,3.22,0,0,1,1.19-1.38C411.38,379.14,411.12,377,411.46,377Z" transform="translate(-47.96 -42.56)"/><path class="cls-30" d="M406.42,371.67c.41-.35,4.13,3.87,4.13,3.87S406,372,406.42,371.67Z" transform="translate(-47.96 -42.56)"/><path class="cls-24" d="M398.87,405.17a26.82,26.82,0,0,1-3.61,6.66c1.24,4.22.26,15.56.81,16.8l-3.57.55c-1.2-5.37-4.53-13.89-3.46-18.49.56-2.41,3.57-10.06,3.57-10.06l4.76,1.51A7.49,7.49,0,0,1,398.87,405.17Z" transform="translate(-47.96 -42.56)"/><path class="cls-24" d="M392.5,429.18s.42,5.55.71,6.3c.78,2,4.35,4.28,4.92,3.95s-1-4.27-1-4.27l.38-2.06s1.51,2.46,2.28,2-.68-3.23-1.17-4a20.25,20.25,0,0,0-2.54-2.51l-2.22-1.09Z" transform="translate(-47.96 -42.56)"/><path class="cls-27" d="M400.19,391.45c-4.51-2.57-6.27,3.45-7.38,5.79-.5,1.06-1.92,5.29-2.61,7.11-.93,2.46,7.36,5.58,8.14,3.77.56-1.31,1.58-3.89,2.06-5.52C401.07,400.34,404.83,394.1,400.19,391.45Z" transform="translate(-47.96 -42.56)"/><path class="cls-24" d="M339.77,378c.06-.69,0-1.84.83-1.9s4.66,1.77,5,3.19a3.56,3.56,0,0,1-.87,2.79,4.1,4.1,0,0,1-3.06-.18A5.64,5.64,0,0,1,339.77,378Z" transform="translate(-47.96 -42.56)"/><path class="cls-24" d="M311.52,360.15c.85.6.53,2.58-.43,3s-4.95-.56-5.6-2-.46-3.31.65-3.52S310.66,359.55,311.52,360.15Z" transform="translate(-47.96 -42.56)"/><path class="cls-1" d="M279.65,388.61c.44,3.81-8.37,8-19.69,9.27s-20.85-.71-21.29-4.51,8.38-8,19.69-9.28S279.21,384.8,279.65,388.61Z" transform="translate(-47.96 -42.56)"/><path class="cls-24" d="M243.62,320.21s.17,1.82.29,2.76c.36,2.85,4.77,7.22,4.73,10.08,0,1.72-8-3-8.6-4.75a36.54,36.54,0,0,1-1.91-8,6.27,6.27,0,0,1,.16-1.94Z" transform="translate(-47.96 -42.56)"/><path class="cls-20" d="M246,305.76a2.56,2.56,0,0,1,.81-1.56l.75,1.36-.55,2h-1.26S245.82,306.48,246,305.76Z" transform="translate(-47.96 -42.56)"/><path class="cls-24" d="M258.17,295.09s1.38,2.94.67,4.86c-.47,4.4-1.28,6.68-2,7s-1.73,0-2,.13a15.34,15.34,0,0,0-.51,3.07l-4.91.41-3.14-1.46-.3-1.51a8.94,8.94,0,0,0,.51-3.09c.34-2,1.86-6.76,1.86-6.76Z" transform="translate(-47.96 -42.56)"/><path class="cls-27" d="M240.75,307.42c7.52-.46,4.57,5.87,4.86,8.46.15,1.36-.06.9.17,2.74.31,2.51-7.91,3.8-8.26.82-.28-2.36-1.06-3.74-1.29-5.82C236.06,312.2,236.1,307.71,240.75,307.42Z" transform="translate(-47.96 -42.56)"/><path class="cls-29" d="M271.42,385.5c2.1.39,4.36-.18,5.17.28,1,.58,2,3.12.11,4.23-2.52,1.51-3.51,1.5-5.63,2.21s-4,1.85-5.3,1.41c-2.28-.79-1.13-6.52-1.13-6.52S270.35,385.22,271.42,385.5Z" transform="translate(-47.96 -42.56)"/><path class="cls-29" d="M246.8,387.14c2.58.7,4.13.23,5.47,1,1,.56,1.34,1.9-.59,2.88a38,38,0,0,1-5.65,2.1c-1.53.79-3.34,2.59-4.89,2.15-3-.84-.26-4.77-.2-6.67C241.69,388.68,245.73,386.85,246.8,387.14Z" transform="translate(-47.96 -42.56)"/><path class="cls-10" d="M243.28,344c-.1,6.09,1.39,19.19,0,22.58-2.69,6.53-2.71,14-3,22.2-.1,2.6,8.74,2,8.75-2,0-12.35,6.8-32.44,6.91-37.39Z" transform="translate(-47.96 -42.56)"/><path class="cls-11" d="M245.83,334.11c-1.48,2.19-3.7,10-1.87,12.6,2,2.82,11.61,5.83,11.61,5.83s5.7,13.21,7.73,35.41c.24,2.59,9.07,1.52,8.86-2.48-1.4-27.11-4.58-36-6.6-43.11a24.62,24.62,0,0,1-1.1-6.12S246.14,333.58,245.83,334.11Z" transform="translate(-47.96 -42.56)"/><path class="cls-29" d="M264.21,332.42a29.67,29.67,0,0,0,.25,3.82c.35,2.5-6.25,3.36-9.51,2.85-7-1.09-9.34-3.92-9.12-5a29.45,29.45,0,0,0,.47-3.76Z" transform="translate(-47.96 -42.56)"/><path class="cls-3" d="M260.49,316.53a45.32,45.32,0,0,0-6-5.18c-8-.24-9.2-2.92-9.2-2.92s-4-.11-5.6,1.86-1,5.83.45,9.67,5.55,9,6.08,11.31,4.37,5.54,11.13,5.71,6.81-3.44,6.81-3.44Z" transform="translate(-47.96 -42.56)"/><path class="cls-6" d="M258.17,295.09c-.32.34,1.06,2.34.09,3.5s-1,3.34-1.29,3.65-.9-1-1.55-.31c-1,1-1,3.61-1,3.61a2.92,2.92,0,0,1-2.83,1.94c-4.08.14-5.1-2-5.1-2a11.05,11.05,0,0,1-1.43-9.38c1.71-5.08,7.81-4,11.11-4.39C258.62,291.41,258.83,294,258.17,295.09Z" transform="translate(-47.96 -42.56)"/><path class="cls-21" d="M251.89,295.27c-.09.7,6.28-.18,6.28-.18S252,294.57,251.89,295.27Z" transform="translate(-47.96 -42.56)"/><path class="cls-24" d="M267.67,328.71a24.53,24.53,0,0,1,3,6.08c4,2.73,7.86,7,10.85,9.2l6,3.68c-1.14,1.28-2.62,1.42-4.45,1.41a20,20,0,0,1-4.27-2.72c-4-3-10.72-4.44-13.72-9-.45-1.25-2.56-3.3-3.41-5.07A24.23,24.23,0,0,0,267.67,328.71Z" transform="translate(-47.96 -42.56)"/><path class="cls-27" d="M256.72,316.3c3.6-2.14,6.67,3.32,8,5.53.73,1.17,2.56,4.55,3.56,6.1,1.37,2.13-6.25,6.67-7.39,4.59s-4-5.95-5.1-7.73C255.06,323.58,252.72,318.68,256.72,316.3Z" transform="translate(-47.96 -42.56)"/><path class="cls-20" d="M245,308.43s-1.36,2.57,3.93,3.89c4.66,1.18,6.23-.5,6.23-.5Z" transform="translate(-47.96 -42.56)"/><path class="cls-3" d="M246,305.76a7,7,0,0,1-.88,2.18c-1.2,4.15,8.12,5.45,10.77,3.49a15.19,15.19,0,0,1-1-2.46C248.34,310.66,245.63,307.86,246,305.76Z" transform="translate(-47.96 -42.56)"/><path class="cls-24" d="M217.46,311.92c.06-.7.06-1.27.92-1.33s4.57,1.2,4.91,2.61a15.78,15.78,0,0,1,.4,2.2,4.84,4.84,0,0,1-2.87.64C218.92,315.74,217.39,312.61,217.46,311.92Z" transform="translate(-47.96 -42.56)"/><path class="cls-24" d="M188.5,294.75c.86.61.54,2.58-.43,3s-4.94-.55-5.59-2-.46-3.3.64-3.52S187.65,294.15,188.5,294.75Z" transform="translate(-47.96 -42.56)"/><path class="cls-1" d="M162.49,542.11l-.89-.52L49.49,476.87l94.29-54.45.89.52,112.1,64.73Z" transform="translate(-47.96 -42.56)"/><polygon class="cls-11" points="114.53 497.49 5.09 434.31 5.09 393.9 114.53 457.08 114.53 497.49"/><polygon class="cls-18" points="13.73 437.07 7.21 433.31 7.21 397.33 13.73 401.09 13.73 437.07"/><polygon class="cls-10" points="13 407.6 7.94 404.68 7.94 398.81 13 401.74 13 407.6"/><polygon class="cls-11" points="13 429.98 7.94 427.05 7.94 407.6 13 410.53 13 429.98"/><polygon class="cls-8" points="12.17 406.15 8.77 404.19 8.77 400.26 12.17 402.23 12.17 406.15"/><polygon class="cls-18" points="23.63 442.79 17.1 439.03 17.11 403.04 23.63 406.8 23.63 442.79"/><polygon class="cls-10" points="22.9 413.32 17.83 410.39 17.83 404.53 22.9 407.46 22.9 413.32"/><polygon class="cls-11" points="22.9 435.69 17.83 432.76 17.83 413.32 22.9 416.25 22.9 435.69"/><polygon class="cls-8" points="22.06 411.87 18.67 409.91 18.67 405.98 22.06 407.94 22.06 411.87"/><polygon class="cls-18" points="33.52 448.51 27 444.74 27 408.75 33.52 412.52 33.52 448.51"/><polygon class="cls-10" points="32.8 419.03 27.73 416.1 27.73 410.25 32.8 413.17 32.8 419.03"/><polygon class="cls-11" points="32.8 441.4 27.73 438.47 27.73 419.03 32.8 421.96 32.8 441.4"/><polygon class="cls-8" points="31.96 417.58 28.57 415.62 28.57 411.7 31.96 413.66 31.96 417.58"/><polygon class="cls-18" points="43.42 454.23 36.89 450.46 36.9 414.47 43.42 418.24 43.42 454.23"/><polygon class="cls-10" points="42.69 424.75 37.63 421.82 37.63 415.96 42.69 418.9 42.69 424.75"/><polygon class="cls-11" points="42.69 447.13 37.63 444.19 37.63 424.75 42.69 427.68 42.69 447.13"/><polygon class="cls-8" points="41.85 423.3 38.46 421.33 38.46 417.42 41.85 419.38 41.85 423.3"/><polygon class="cls-18" points="53.32 459.94 46.79 456.18 46.8 420.18 53.32 423.95 53.32 459.94"/><polygon class="cls-10" points="52.59 430.46 47.52 427.53 47.52 421.68 52.59 424.61 52.59 430.46"/><polygon class="cls-11" points="52.59 452.84 47.52 449.91 47.52 430.46 52.59 433.39 52.59 452.84"/><polygon class="cls-8" points="51.75 429.01 48.36 427.05 48.36 423.13 51.75 425.09 51.75 429.01"/><polygon class="cls-18" points="63.21 465.66 56.68 461.89 56.69 425.9 63.21 429.67 63.21 465.66"/><polygon class="cls-10" points="62.48 436.17 57.41 433.25 57.41 427.39 62.48 430.32 62.48 436.17"/><polygon class="cls-11" points="62.48 458.56 57.41 455.63 57.41 436.17 62.48 439.11 62.48 458.56"/><polygon class="cls-8" points="61.64 434.73 58.25 432.76 58.25 428.85 61.64 430.81 61.64 434.73"/><polygon class="cls-18" points="73.1 471.37 66.58 467.6 66.58 431.61 73.1 435.38 73.1 471.37"/><polygon class="cls-10" points="72.38 441.89 67.31 438.96 67.31 433.11 72.38 436.04 72.38 441.89"/><polygon class="cls-11" points="72.38 464.27 67.31 461.34 67.31 441.89 72.38 444.82 72.38 464.27"/><polygon class="cls-8" points="71.54 440.44 68.14 438.47 68.14 434.56 71.54 436.52 71.54 440.44"/><polygon class="cls-18" points="83 477.09 76.47 473.32 76.48 437.32 83 441.09 83 477.09"/><polygon class="cls-10" points="82.27 447.61 77.2 444.67 77.2 438.82 82.27 441.75 82.27 447.61"/><polygon class="cls-11" points="82.27 469.98 77.2 467.06 77.2 447.61 82.27 450.53 82.27 469.98"/><polygon class="cls-8" points="81.43 446.15 78.04 444.19 78.04 440.27 81.43 442.24 81.43 446.15"/><polygon class="cls-18" points="92.9 482.81 86.37 479.04 86.37 443.05 92.9 446.81 92.9 482.81"/><polygon class="cls-10" points="92.17 453.32 87.1 450.39 87.1 444.54 92.17 447.47 92.17 453.32"/><polygon class="cls-11" points="92.17 475.7 87.1 472.78 87.1 453.32 92.17 456.25 92.17 475.7"/><polygon class="cls-8" points="91.33 451.87 87.94 449.9 87.94 445.99 91.33 447.96 91.33 451.87"/><polygon class="cls-18" points="102.79 488.52 96.27 484.76 96.27 448.76 102.79 452.53 102.79 488.52"/><polygon class="cls-10" points="102.06 459.03 96.99 456.1 96.99 450.26 102.06 453.19 102.06 459.03"/><polygon class="cls-11" points="102.06 481.42 96.99 478.49 96.99 459.03 102.06 461.96 102.06 481.42"/><polygon class="cls-8" points="101.22 457.58 97.83 455.62 97.83 451.71 101.22 453.67 101.22 457.58"/><polygon class="cls-18" points="112.69 494.23 106.16 490.47 106.17 454.48 112.69 458.24 112.69 494.23"/><polygon class="cls-10" points="111.96 464.75 106.89 461.82 106.89 455.98 111.96 458.9 111.96 464.75"/><polygon class="cls-11" points="111.96 487.13 106.89 484.21 106.89 464.75 111.96 467.67 111.96 487.13"/><polygon class="cls-8" points="111.12 463.29 107.73 461.33 107.73 457.42 111.12 459.39 111.12 463.29"/><polygon class="cls-18" points="114.53 457.08 5.09 393.9 95.82 341.51 205.26 404.7 114.53 457.08"/><polygon class="cls-11" points="112.51 381.11 76.08 360.06 96.72 348.15 133.15 369.19 112.51 381.11"/><polygon class="cls-10" points="114.53 497.49 114.53 457.08 205.26 404.7 205.26 445.11 114.53 497.49"/><path class="cls-1" d="M159.54,493.43,66.75,439.86,132,402.13l92.79,53.57Z" transform="translate(-47.96 -42.56)"/><polygon class="cls-11" points="111.58 448.81 22.36 397.3 22.36 344.84 111.58 396.36 111.58 448.81"/><polygon class="cls-31" points="39.91 360.94 24.1 351.81 24.1 348.68 39.91 357.81 39.91 360.94"/><polygon class="cls-18" points="111.58 396.36 22.36 344.84 84.09 309.17 173.31 360.69 111.58 396.36"/><polygon class="cls-11" points="63.22 361.63 33.52 344.48 50.34 334.77 80.05 351.92 63.22 361.63"/><polygon class="cls-11" points="113.29 390.54 83.58 373.39 100.4 363.68 130.11 380.83 113.29 390.54"/><polygon class="cls-11" points="96.83 342.2 67.13 325.05 83.95 315.34 113.65 332.49 96.83 342.2"/><polygon class="cls-11" points="146.9 371.11 117.19 353.96 134.01 344.25 163.72 361.4 146.9 371.11"/><polygon class="cls-10" points="111.58 448.81 111.58 396.36 173.31 360.69 173.31 413.15 111.58 448.81"/><polygon class="cls-11" points="170.1 411.91 152.2 422.25 152.2 405.55 170.1 395.21 170.1 411.91"/><polygon points="169.05 399.26 153.25 408.39 153.25 407.09 169.05 397.97 169.05 399.26"/><polygon points="169.05 410.03 153.25 419.15 153.25 417.85 169.05 408.73 169.05 410.03"/><polygon points="169.05 406.55 153.25 415.67 153.25 414.38 169.05 405.25 169.05 406.55"/><polygon points="169.05 403.07 153.25 412.2 153.25 410.9 169.05 401.78 169.05 403.07"/><polygon class="cls-18" points="108.44 441.8 86.06 428.88 86.06 387.17 108.44 400.08 108.44 441.8"/><polygon class="cls-31" points="105.51 412.38 89.11 402.91 89.11 392.36 105.51 401.83 105.51 412.38"/><polygon class="cls-11" points="102.43 436.38 92.19 430.46 92.19 419.15 102.43 425.07 102.43 436.38"/><polygon class="cls-31" points="105.51 415.48 89.11 406.01 89.11 404.36 105.51 413.83 105.51 415.48"/><polygon class="cls-20" points="94.48 394.1 87.06 389.81 87.06 389.07 94.48 393.36 94.48 394.1"/><polygon class="cls-18" points="33.45 398.51 24.1 393.12 24.1 354.25 33.45 359.63 33.45 398.51"/><polygon class="cls-6" points="29.83 366.89 27.72 365.67 27.72 363.91 29.83 365.13 29.83 366.89"/><polygon class="cls-6" points="29.83 380.84 27.72 379.62 27.72 377.85 29.83 379.07 29.83 380.84"/><polygon class="cls-10" points="26.88 384.74 25.07 383.7 25.07 358.85 26.88 359.89 26.88 384.74"/><polygon class="cls-10" points="32.62 388.08 30.81 387.03 30.81 362.18 32.62 363.22 32.62 388.08"/><polygon class="cls-10" points="32.62 396.36 24.93 391.92 24.93 388.16 32.62 392.58 32.62 396.36"/><polygon class="cls-10" points="83.48 418.09 73.41 412.28 73.41 386.64 83.48 392.46 83.48 418.09"/><polygon class="cls-18" points="83.48 427.15 73.41 421.34 73.41 414.28 83.48 420.1 83.48 427.15"/><polygon class="cls-18" points="79.32 387.99 73.41 384.57 73.41 382.49 79.32 385.92 79.32 387.99"/><polygon class="cls-8" points="83.48 390.38 80.22 388.51 80.22 386.44 83.48 388.31 83.48 390.38"/><path class="cls-20" d="M128.68,464.59c0,1.46-1,2-2.28,1.32a5,5,0,0,1-2.28-4c0-1.45,1-2,2.28-1.31A5,5,0,0,1,128.68,464.59Z" transform="translate(-47.96 -42.56)"/><path class="cls-10" d="M127.41,463.86c0,.64-.45.9-1,.58a2.21,2.21,0,0,1-1-1.74c0-.65.46-.91,1-.59A2.25,2.25,0,0,1,127.41,463.86Z" transform="translate(-47.96 -42.56)"/><polygon class="cls-10" points="70.57 410.64 60.49 404.82 60.49 379.19 70.57 385.01 70.57 410.64"/><polygon class="cls-18" points="70.57 419.7 60.49 413.88 60.49 406.82 70.57 412.64 70.57 419.7"/><polygon class="cls-18" points="66.41 380.53 60.49 377.11 60.49 375.04 66.41 378.46 66.41 380.53"/><polygon class="cls-8" points="70.57 382.93 67.3 381.06 67.3 378.99 70.57 380.86 70.57 382.93"/><path class="cls-20" d="M115.76,457.14c0,1.45-1,2-2.28,1.31a5,5,0,0,1-2.27-3.94c0-1.46,1-2.05,2.27-1.32A5,5,0,0,1,115.76,457.14Z" transform="translate(-47.96 -42.56)"/><path class="cls-10" d="M114.49,456.4c0,.65-.45.91-1,.58a2.22,2.22,0,0,1-1-1.74c0-.64.46-.9,1-.58A2.21,2.21,0,0,1,114.49,456.4Z" transform="translate(-47.96 -42.56)"/><polygon class="cls-10" points="57.76 403.25 47.68 397.43 47.68 371.8 57.76 377.61 57.76 403.25"/><polygon class="cls-18" points="57.76 412.31 47.68 406.49 47.68 399.43 57.76 405.25 57.76 412.31"/><polygon class="cls-18" points="53.6 373.14 47.68 369.72 47.68 367.65 53.6 371.07 53.6 373.14"/><polygon class="cls-8" points="57.76 375.54 54.49 373.66 54.49 371.59 57.76 373.46 57.76 375.54"/><path class="cls-20" d="M103,449.74c0,1.46-1,2.05-2.28,1.32a5,5,0,0,1-2.28-3.95c0-1.45,1-2,2.28-1.31A5,5,0,0,1,103,449.74Z" transform="translate(-47.96 -42.56)"/><path class="cls-10" d="M101.69,449c0,.64-.46.9-1,.58a2.21,2.21,0,0,1-1-1.74c0-.65.45-.91,1-.58A2.24,2.24,0,0,1,101.69,449Z" transform="translate(-47.96 -42.56)"/><polygon class="cls-10" points="45.15 395.97 35.07 390.15 35.07 364.52 45.15 370.33 45.15 395.97"/><polygon class="cls-18" points="45.15 405.03 35.07 399.21 35.07 392.15 45.15 397.97 45.15 405.03"/><polygon class="cls-18" points="40.99 365.86 35.07 362.44 35.07 360.37 40.99 363.79 40.99 365.86"/><polygon class="cls-8" points="45.15 368.26 41.89 366.38 41.89 364.31 45.15 366.18 45.15 368.26"/><path class="cls-20" d="M90.35,442.46c0,1.46-1,2.05-2.28,1.32a5,5,0,0,1-2.28-3.95c0-1.45,1-2,2.28-1.31A5,5,0,0,1,90.35,442.46Z" transform="translate(-47.96 -42.56)"/><path class="cls-10" d="M89.08,441.73c0,.65-.45.91-1,.58a2.21,2.21,0,0,1-1-1.74c0-.64.46-.91,1-.58A2.21,2.21,0,0,1,89.08,441.73Z" transform="translate(-47.96 -42.56)"/><polygon class="cls-1" points="373.89 476.46 269.46 416.16 220.21 444.58 324.64 504.88 373.89 476.46"/><polygon class="cls-9" points="290.61 480.04 286.44 477.64 286.44 480.55 290.61 482.96 290.61 480.04"/><polygon class="cls-10" points="296.03 476.93 291.84 478.43 290.61 480.04 290.61 482.96 296.03 479.87 296.03 476.93"/><polygon class="cls-11" points="296.03 476.93 291.84 474.54 286.44 477.64 290.61 480.04 296.03 476.93"/><polygon class="cls-9" points="284.04 484.44 278.33 481.14 278.33 485.14 284.04 488.44 284.04 484.44"/><polygon class="cls-12" points="291.4 480.2 285.79 482.23 284.04 484.44 284.04 488.44 291.4 484.18 291.4 480.2"/><polygon class="cls-13" points="291.4 480.2 285.7 476.9 278.33 481.14 284.04 484.44 291.4 480.2"/><path class="cls-14" d="M330.54,529a1.92,1.92,0,0,0-.23-2,4.78,4.78,0,0,0-2.23-1.62c-10,7-19.88,9-26.39,5.22a10.2,10.2,0,0,1-5.24-9.91c.59-6.47,6.67-12.35,16.21-15.73l-1.47-4.1a35.64,35.64,0,0,0-13.88,8.52,18.84,18.84,0,0,0-5.18,10.89,14.91,14.91,0,0,0,1.55,8.1,15.26,15.26,0,0,0,5.82,6A20.77,20.77,0,0,0,313,536.54C318.63,535.73,324.51,533.16,330.54,529Z" transform="translate(-47.96 -42.56)"/><polygon class="cls-9" points="304.26 487.96 300.08 485.53 300.08 488.44 304.26 490.83 304.26 487.96"/><polygon class="cls-10" points="309.65 484.83 305.5 486.31 304.26 487.96 304.26 490.83 309.65 487.73 309.65 484.83"/><polygon class="cls-11" points="309.65 484.83 305.46 482.41 300.08 485.53 304.26 487.96 309.65 484.83"/><polygon class="cls-9" points="297.68 492.32 291.96 489.03 292 493.05 297.68 496.33 297.68 492.32"/><polygon class="cls-12" points="305.05 488.08 299.39 490.11 297.68 492.32 297.68 496.33 305.05 492.07 305.05 488.08"/><polygon class="cls-13" points="305.05 488.08 299.35 484.79 291.96 489.03 297.68 492.32 305.05 488.08"/><path class="cls-15" d="M344.11,536.87s.53-.7-.2-1.92a4.72,4.72,0,0,0-2.22-1.6c-10,7-19.87,9-26.38,5.2a10.21,10.21,0,0,1-5.26-9.91c.61-6.47,6.7-12.34,16.24-15.74l-1.47-4.1A34.4,34.4,0,0,0,311,517.33a19,19,0,0,0-5.23,10.9,14.64,14.64,0,0,0,1.58,8.09,15.34,15.34,0,0,0,5.8,6,21,21,0,0,0,13.5,2.17C332.25,543.65,338.11,541.13,344.11,536.87Z" transform="translate(-47.96 -42.56)"/><polygon class="cls-16" points="368.18 473.9 368.18 471.13 228.13 442.1 228.13 444.9 323.31 499.81 368.18 473.9"/><polygon class="cls-8" points="368.18 471.13 273.02 416.19 228.13 442.1 323.31 497.06 368.18 471.13"/><polygon class="cls-16" points="351.56 477.5 346.39 474.52 340.36 478 345.51 480.98 351.56 477.5"/><polygon class="cls-17" points="327.97 467.74 306.28 455.19 280.85 469.85 302.55 482.41 327.97 467.74"/><polygon class="cls-17" points="278.82 440.2 257.1 427.65 231.71 442.31 253.44 454.85 278.82 440.2"/><polygon class="cls-18" points="337.26 483.97 332.87 481.43 332.87 482.47 337.31 485.04 337.26 483.97"/><polygon class="cls-10" points="342.45 480.98 337.48 482.93 337.26 483.97 337.31 485.04 342.45 482.05 342.45 480.98"/><polygon class="cls-11" points="342.45 480.98 338.02 478.44 332.87 481.43 337.26 483.97 342.45 480.98"/><polygon class="cls-19" points="338.53 482.31 337.7 481.82 339.93 480.54 340.76 481.03 338.53 482.31"/><polygon class="cls-18" points="353.1 475.17 345.86 470.99 345.9 472.74 353.14 476.93 353.1 475.17"/><polygon class="cls-20" points="353.14 476.13 345.86 471.94 345.9 472.74 353.14 476.93 353.14 476.13"/><polygon class="cls-10" points="361.55 470.28 353.41 473.45 353.1 475.17 353.14 476.93 361.59 472.04 361.55 470.28"/><polygon class="cls-4" points="361.55 471.21 353.14 476.13 353.14 476.93 361.59 472.04 361.55 471.21"/><polygon class="cls-11" points="361.55 470.28 354.32 466.12 345.86 470.99 353.1 475.17 361.55 470.28"/><polygon class="cls-19" points="352.94 473.7 350.56 472.34 356.72 468.75 359.14 470.11 352.94 473.7"/><polygon class="cls-11" points="313.76 486.77 306.51 482.59 306.54 484.34 313.79 488.5 313.76 486.77"/><polygon points="322.2 481.87 314.08 485.04 313.76 486.77 313.79 488.5 322.23 483.63 322.2 481.87"/><polygon class="cls-10" points="322.2 481.87 314.93 477.69 306.51 482.59 313.76 486.77 322.2 481.87"/><polygon class="cls-19" points="313.76 482.23 311.37 480.86 314.92 478.8 317.32 480.16 313.76 482.23"/><polygon class="cls-11" points="276.15 466.51 268.95 462.34 268.95 464.1 276.22 468.28 276.15 466.51"/><polygon points="284.64 461.63 276.53 464.8 276.15 466.51 276.22 468.28 284.69 463.38 284.64 461.63"/><polygon class="cls-10" points="284.64 461.63 277.39 457.46 268.95 462.34 276.15 466.51 284.64 461.63"/><polygon class="cls-19" points="276.15 461.99 273.8 460.62 277.3 458.54 279.69 459.93 276.15 461.99"/><polygon class="cls-11" points="322.77 490.34 318.31 487.77 318.35 488.83 322.8 491.38 322.77 490.34"/><polygon points="331.15 485.47 324.13 488.62 322.77 490.34 322.8 491.38 331.21 486.57 331.15 485.47"/><polygon class="cls-10" points="331.15 485.47 326.71 482.93 318.31 487.77 322.77 490.34 331.15 485.47"/><polygon class="cls-11" points="264.87 460.85 260.47 458.31 260.47 459.35 264.87 461.93 264.87 460.85"/><polygon points="273.27 456 266.23 459.14 264.87 460.85 264.87 461.93 273.27 457.07 273.27 456"/><polygon class="cls-10" points="273.27 456 268.85 453.43 260.47 458.31 264.87 460.85 273.27 456"/><polygon class="cls-11" points="259.14 457.49 254.71 454.93 254.71 455.97 259.14 458.52 259.14 457.49"/><polygon points="267.51 452.62 260.47 455.74 259.14 457.49 259.14 458.52 267.51 453.7 267.51 452.62"/><polygon class="cls-10" points="267.51 452.62 263.07 450.06 254.71 454.93 259.14 457.49 267.51 452.62"/><polygon class="cls-16" points="335.86 487.54 333.75 486.35 327.24 490.11 329.3 491.3 335.86 487.54"/><path class="cls-10" d="M351.8,522.9l43.91-25.34-9.66-20.17-27.69-15.84-16.42,4.93-22-12.7c-5.94-3.43-15.75-3.43-21.63,0l-10.52,6.05-.08-5.66-16.12,2.6v15.55h0c-.28,2.47,1.19,5,4.43,6.81Zm20.57-18a26.73,26.73,0,0,1-6.12,2.51L334,493.09c.82-2.49,2.93-4.87,6.26-6.81,8.87-5.12,23.3-5.12,32.16,0S381.3,499.74,372.37,504.9Z" transform="translate(-47.96 -42.56)"/><polygon points="354.79 470.14 330.08 468.88 303.84 464.82 303.84 480.35 330.08 484.4 354.79 470.14"/><polygon class="cls-11" points="350.52 470.34 350.52 460.52 334.87 469.54 334.87 479.37 350.52 470.34"/><path class="cls-18" d="M350.58,472.13l.2-1.47h11.43l-.2,1.47-2.74,7.49a14.79,14.79,0,0,0-6,0Z" transform="translate(-47.96 -42.56)"/><path class="cls-4" d="M350.78,470.66h11.43l-2.7,7.5a15.06,15.06,0,0,0-6,0Z" transform="translate(-47.96 -42.56)"/><path class="cls-18" d="M375.5,476.6l-.21,1.44-11.09,4.19A7.67,7.67,0,0,0,360,479.8l.25-1.47Z" transform="translate(-47.96 -42.56)"/><path class="cls-4" d="M367.41,471.91l8.09,4.69-11.09,4.17a7.61,7.61,0,0,0-4.21-2.44Z" transform="translate(-47.96 -42.56)"/><path class="cls-18" d="M337.25,478l.21-1.44,15.3,1.73-.16,1.47a8.84,8.84,0,0,0-4.26,2.43Z" transform="translate(-47.96 -42.56)"/><path class="cls-4" d="M337.46,476.6l8.09-4.67,7.21,6.4a8.58,8.58,0,0,0-4.19,2.44Z" transform="translate(-47.96 -42.56)"/><path d="M362.47,490.74a13.75,13.75,0,0,1-12.37,0c-1.76-1-2.61-2.34-2.52-3.65h-.05v-7.2l17.5.46,0,6.68h0C365.1,488.37,364.25,489.72,362.47,490.74Z" transform="translate(-47.96 -42.56)"/><path class="cls-11" d="M362.47,483.67c3.4-2,3.4-5.19,0-7.19a13.81,13.81,0,0,0-12.37,0c-3.41,2-3.41,5.2,0,7.19A13.75,13.75,0,0,0,362.47,483.67Z" transform="translate(-47.96 -42.56)"/><path class="cls-18" d="M377.67,486.2l-.18,1.46-13-1.56.18-1.49S376.94,485,377.67,486.2Z" transform="translate(-47.96 -42.56)"/><path class="cls-4" d="M377.67,479.6v6.6l-13-1.59a13.42,13.42,0,0,0,.35-3.49Z" transform="translate(-47.96 -42.56)"/><path class="cls-18" d="M335.12,487.66v-6.59l.19-1.47,12.22,1.48a2.88,2.88,0,0,0,.73,3.53l-.19,1.49Z" transform="translate(-47.96 -42.56)"/><path class="cls-4" d="M335.31,486.2v-6.6l12.22,1.48a7.44,7.44,0,0,0,.73,3.53Z" transform="translate(-47.96 -42.56)"/><polygon class="cls-18" points="297.39 452.8 289.29 448.13 289.5 446.67 304.8 444.91 304.64 446.38 297.39 452.8"/><path class="cls-4" d="M345.55,493.88l-8.09-4.66L348.57,485a7.66,7.66,0,0,0,4.19,2.44Z" transform="translate(-47.96 -42.56)"/><polygon class="cls-18" points="327.33 448.13 319.29 452.8 311.99 446.38 312.25 444.91 327.54 446.67 327.33 448.13"/><path class="cls-4" d="M375.5,489.22l-8.09,4.66-7.21-6.41a8.64,8.64,0,0,0,4.21-2.44Z" transform="translate(-47.96 -42.56)"/><path class="cls-18" d="M362,496.61H350.58l.2-1.48s7.49-1.55,11.43,0Z" transform="translate(-47.96 -42.56)"/><path class="cls-4" d="M362.21,495.13H350.78l2.71-7.48a15.42,15.42,0,0,0,6,0Z" transform="translate(-47.96 -42.56)"/><path class="cls-11" d="M351.8,507.37,395.71,482l-75.79-43.77c-5.94-3.42-15.7-3.45-21.63,0L276,451.11c-5.95,3.45-5.95,9.09,0,12.53Zm20.57-18c-8.86,5.15-23.29,5.15-32.16,0s-8.92-13.49,0-18.61,23.33-5.12,32.19,0S381.3,484.24,372.37,489.38Z" transform="translate(-47.96 -42.56)"/><path class="cls-13" d="M325.67,441.6l-1.93-1.1-28.06,16.16c-5.8,3.38-5.8,8.86,0,12.22l61.38,35.44,1.9-1.11-61.34-35.44c-4.81-2.77-4.81-7.23,0-10Z" transform="translate(-47.96 -42.56)"/><polygon class="cls-10" points="354.79 454.64 347.76 439.48 303.84 464.82 330.08 468.88 354.79 454.64"/><polygon class="cls-19" points="303.44 418.25 277.03 402.96 272.98 405.27 299.41 420.55 303.44 418.25"/><path d="M378,527l24.7-14.26V497.19L378,511.44Zm4.79-5v-9.83l15.65-9v9.82Z" transform="translate(-47.96 -42.56)"/><polygon class="cls-11" points="330.08 484.4 330.08 468.88 303.84 464.82 303.84 480.35 330.08 484.4"/><path class="cls-1" d="M280.88,458.63a4.1,4.1,0,0,0,3.88,0c1.09-.62,1.09-1.6,0-2.25a4.28,4.28,0,0,0-3.88,0C279.78,457,279.78,458,280.88,458.63Z" transform="translate(-47.96 -42.56)"/><path class="cls-21" d="M282.81,456.09H285v1.3h0c0,.32-.24.62-.68.91a3.56,3.56,0,0,1-3.12,0,1.09,1.09,0,0,1-.66-.91h0v-1.3Z" transform="translate(-47.96 -42.56)"/><path class="cls-6" d="M281.23,457.05a3.37,3.37,0,0,0,3.12,0c.86-.49.86-1.29,0-1.81a3.37,3.37,0,0,0-3.12,0C280.36,455.76,280.36,456.56,281.23,457.05Z" transform="translate(-47.96 -42.56)"/></svg>