<svg id="Layer_1" data-name="Layer 1" xmlns="http://www.w3.org/2000/svg" viewBox="0 0 500 368.76"><defs><style>.cls-1{fill:#ececec;}.cls-2{fill:#f0f0f0;}.cls-3{fill:#f5f5f5;}.cls-4{fill:#1a2e35;}.cls-10,.cls-12,.cls-13,.cls-21,.cls-5,.cls-7,.cls-9{fill:#fff;}.cls-17,.cls-5{opacity:0.3;}.cls-6{opacity:0.6;}.cls-8{fill:#007cff;}.cls-15,.cls-16,.cls-9{opacity:0.2;}.cls-10,.cls-14,.cls-20{opacity:0.5;}.cls-11,.cls-12{opacity:0.9;}.cls-13{opacity:0.4;}.cls-18{fill:#ff8b7b;}.cls-19{fill:#ff5551;}.cls-21,.cls-22{opacity:0.7;}</style></defs><rect class="cls-1" x="416.78" y="343.54" width="33.12" height="0.25"/><rect class="cls-1" x="322.53" y="346.26" width="8.69" height="0.25"/><rect class="cls-1" x="396.59" y="334.26" width="19.19" height="0.25"/><rect class="cls-1" x="52.46" y="335.94" width="43.19" height="0.25"/><rect class="cls-1" x="104.56" y="335.94" width="6.33" height="0.25"/><rect class="cls-1" x="131.47" y="340.16" width="93.68" height="0.25"/><path class="cls-1" d="M249.9,349H56.8a5.71,5.71,0,0,1-5.71-5.71V71.83a5.71,5.71,0,0,1,5.71-5.71H249.9a5.71,5.71,0,0,1,5.71,5.71V343.26A5.71,5.71,0,0,1,249.9,349ZM56.8,66.37a5.47,5.47,0,0,0-5.46,5.46V343.26a5.47,5.47,0,0,0,5.46,5.46H249.9a5.47,5.47,0,0,0,5.46-5.46V71.83a5.47,5.47,0,0,0-5.46-5.46Z" transform="translate(-11.5 -66.12)"/><path class="cls-1" d="M466.2,349H273.1a5.71,5.71,0,0,1-5.71-5.71V71.83a5.71,5.71,0,0,1,5.71-5.71H466.2a5.71,5.71,0,0,1,5.71,5.71V343.26A5.71,5.71,0,0,1,466.2,349ZM273.1,66.37a5.47,5.47,0,0,0-5.46,5.46V343.26a5.47,5.47,0,0,0,5.46,5.46H466.2a5.47,5.47,0,0,0,5.46-5.46V71.83a5.47,5.47,0,0,0-5.46-5.46Z" transform="translate(-11.5 -66.12)"/><rect class="cls-1" y="327.45" width="500" height="0.25"/><path class="cls-1" d="M146.8,190.74a41.58,41.58,0,1,1,41.59-41.58A41.63,41.63,0,0,1,146.8,190.74Zm0-75.16a33.58,33.58,0,1,0,33.59,33.58A33.62,33.62,0,0,0,146.8,115.58Z" transform="translate(-11.5 -66.12)"/><path class="cls-1" d="M146.8,175.5a26.34,26.34,0,1,1,26.35-26.34A26.37,26.37,0,0,1,146.8,175.5Zm0-44.68a18.34,18.34,0,1,0,18.35,18.34A18.36,18.36,0,0,0,146.8,130.82Z" transform="translate(-11.5 -66.12)"/><circle class="cls-1" cx="135.3" cy="83.04" r="10.4"/><path class="cls-2" d="M408.76,366.92a41.59,41.59,0,1,1,41.59-41.58A41.63,41.63,0,0,1,408.76,366.92Zm0-75.17a33.59,33.59,0,1,0,33.59,33.59A33.63,33.63,0,0,0,408.76,291.75Z" transform="translate(-11.5 -66.12)"/><path class="cls-2" d="M408.76,351.68a26.35,26.35,0,1,1,26.35-26.34A26.37,26.37,0,0,1,408.76,351.68Zm0-44.69a18.35,18.35,0,1,0,18.35,18.35A18.37,18.37,0,0,0,408.76,307Z" transform="translate(-11.5 -66.12)"/><circle class="cls-2" cx="397.27" cy="259.22" r="10.4"/><path class="cls-1" d="M141.21,337.68a28,28,0,0,0-.52-5.38l5.57-4.08a34.3,34.3,0,0,0-3-7.15l-6.82,1.06a28.12,28.12,0,0,0-7.61-7.61l1.06-6.82a34.17,34.17,0,0,0-7.16-3l-4.07,5.57a28.09,28.09,0,0,0-10.76,0l-4.07-5.57a34.3,34.3,0,0,0-7.15,3l1.06,6.82a28.12,28.12,0,0,0-7.61,7.61l-6.82-1.06a33.77,33.77,0,0,0-3,7.15L86,332.3a27.57,27.57,0,0,0,0,10.76l-5.57,4.07a33.77,33.77,0,0,0,3,7.15l6.82-1.06a28.12,28.12,0,0,0,7.61,7.61l-1.06,6.82a33.77,33.77,0,0,0,7.15,3l4.07-5.57a27.57,27.57,0,0,0,10.76,0l4.07,5.57a33.64,33.64,0,0,0,7.16-3l-1.06-6.82a28.12,28.12,0,0,0,7.61-7.61l6.82,1.06a34.3,34.3,0,0,0,3-7.15l-5.57-4.07A28.12,28.12,0,0,0,141.21,337.68Zm-27.89,13.75a13.75,13.75,0,1,1,13.75-13.75A13.76,13.76,0,0,1,113.32,351.43Z" transform="translate(-11.5 -66.12)"/><path class="cls-2" d="M438.83,120.36a28,28,0,0,0-.53-5.38l5.57-4.07a33.64,33.64,0,0,0-3-7.16l-6.82,1.06a28.12,28.12,0,0,0-7.61-7.61l1.06-6.82a34.3,34.3,0,0,0-7.15-3L416.32,93a28.09,28.09,0,0,0-10.76,0l-4.07-5.57a34.17,34.17,0,0,0-7.16,3l1.06,6.82a28.12,28.12,0,0,0-7.61,7.61L381,103.75a34.17,34.17,0,0,0-3,7.16l5.57,4.07a28.09,28.09,0,0,0,0,10.76L378,129.81a34.39,34.39,0,0,0,3,7.16l6.82-1.06a28.12,28.12,0,0,0,7.61,7.61l-1.06,6.81a33.67,33.67,0,0,0,7.16,3l4.07-5.57a28.09,28.09,0,0,0,10.76,0l4.07,5.57a33.8,33.8,0,0,0,7.15-3l-1.06-6.81a28.12,28.12,0,0,0,7.61-7.61l6.82,1.06a33.86,33.86,0,0,0,3-7.16l-5.57-4.07A28,28,0,0,0,438.83,120.36Zm-27.89,13.75a13.75,13.75,0,1,1,13.75-13.75A13.75,13.75,0,0,1,410.94,134.11Z" transform="translate(-11.5 -66.12)"/><path class="cls-2" d="M390.34,165.15a14,14,0,0,0-.26-2.69l2.79-2a16.59,16.59,0,0,0-1.49-3.58l-3.4.53a14.1,14.1,0,0,0-3.81-3.81l.53-3.4a16.59,16.59,0,0,0-3.58-1.49l-2,2.79a14,14,0,0,0-5.38,0l-2-2.79a16.59,16.59,0,0,0-3.58,1.49l.53,3.4a14.06,14.06,0,0,0-3.8,3.81l-3.41-.53a17.08,17.08,0,0,0-1.48,3.58l2.78,2a14,14,0,0,0,0,5.38l-2.78,2a17.08,17.08,0,0,0,1.48,3.58l3.41-.53a14,14,0,0,0,3.8,3.8l-.53,3.41a17.08,17.08,0,0,0,3.58,1.48l2-2.78a14,14,0,0,0,5.38,0l2,2.78a17.08,17.08,0,0,0,3.58-1.48l-.53-3.41a14.06,14.06,0,0,0,3.81-3.8l3.4.53a16.59,16.59,0,0,0,1.49-3.58l-2.79-2A14,14,0,0,0,390.34,165.15ZM376.4,172a6.88,6.88,0,1,1,6.87-6.88A6.88,6.88,0,0,1,376.4,172Z" transform="translate(-11.5 -66.12)"/><ellipse id="_Path_" data-name="&lt;Path&gt;" class="cls-3" cx="250" cy="357.44" rx="193.89" ry="11.32"/><path class="cls-4" d="M260.66,381.19a1.93,1.93,0,0,0-1.38,0H225l-14.41,42.25h36.18l.75-2.29h2.18l12.11-37.57A1.93,1.93,0,0,0,260.66,381.19Zm-15.73,19.92L243.69,405a5.82,5.82,0,0,1-5.54,4h-1.73a4.46,4.46,0,0,1-4.25-5.83l1.25-3.86a5.81,5.81,0,0,1,5.53-4h1.74A4.46,4.46,0,0,1,244.93,401.11Z" transform="translate(-11.5 -66.12)"/><path class="cls-5" d="M260.66,381.19a1.93,1.93,0,0,0-1.38,0H225l-14.41,42.25h36.18l.75-2.29h2.18l12.11-37.57A1.93,1.93,0,0,0,260.66,381.19Zm-15.73,19.92L243.69,405a5.82,5.82,0,0,1-5.54,4h-1.73a4.46,4.46,0,0,1-4.25-5.83l1.25-3.86a5.81,5.81,0,0,1,5.53-4h1.74A4.46,4.46,0,0,1,244.93,401.11Z" transform="translate(-11.5 -66.12)"/><path class="cls-4" d="M289,421.15H253.31a1.93,1.93,0,0,1,1.93,1.93v.73a1.93,1.93,0,0,1-1.93,1.93H289a1.93,1.93,0,0,0,1.92-1.93v-.73A1.93,1.93,0,0,0,289,421.15Z" transform="translate(-11.5 -66.12)"/><path class="cls-5" d="M289,421.15H253.31a1.93,1.93,0,0,1,1.93,1.93v.73a1.93,1.93,0,0,1-1.93,1.93H289a1.93,1.93,0,0,0,1.92-1.93v-.73A1.93,1.93,0,0,0,289,421.15Z" transform="translate(-11.5 -66.12)"/><path class="cls-4" d="M253.31,425.74H208.47l14-43.34a1.93,1.93,0,0,1,2.53-1.21h0a1.93,1.93,0,0,1,1.14,2.39L214,421.15h39.31a1.93,1.93,0,0,1,1.93,1.93v.73A1.93,1.93,0,0,1,253.31,425.74Z" transform="translate(-11.5 -66.12)"/><g class="cls-6"><path class="cls-7" d="M253.31,425.74H208.47l14-43.34a1.93,1.93,0,0,1,2.53-1.21h0a1.93,1.93,0,0,1,1.14,2.39L214,421.15h39.31a1.93,1.93,0,0,1,1.93,1.93v.73A1.93,1.93,0,0,1,253.31,425.74Z" transform="translate(-11.5 -66.12)"/></g><path class="cls-4" d="M240.69,395.28H239c-.13,0-.25,0-.38,0a4.46,4.46,0,0,1,3.75,5.8L241.08,405a5.81,5.81,0,0,1-5.16,4c.16,0,.33,0,.5,0h1.73a5.82,5.82,0,0,0,5.54-4l1.24-3.86A4.46,4.46,0,0,0,240.69,395.28Z" transform="translate(-11.5 -66.12)"/><path class="cls-8" d="M162.91,258.08H145.18a6.07,6.07,0,0,0-6.14,6.74l10.05,114.94a7.51,7.51,0,0,0,7.33,6.74h17.72Z" transform="translate(-11.5 -66.12)"/><path class="cls-9" d="M162.91,258.08H145.18a6.07,6.07,0,0,0-6.14,6.74l10.05,114.94a7.51,7.51,0,0,0,7.33,6.74h17.72Z" transform="translate(-11.5 -66.12)"/><path class="cls-8" d="M319.77,386.5H161a7.49,7.49,0,0,1-7.32-6.74L143.62,264.82a6.08,6.08,0,0,1,6.15-6.74H308.54a7.49,7.49,0,0,1,7.32,6.74l10.06,114.94A6.08,6.08,0,0,1,319.77,386.5Z" transform="translate(-11.5 -66.12)"/><path class="cls-10" d="M319.77,386.5H161a7.49,7.49,0,0,1-7.32-6.74L143.62,264.82a6.08,6.08,0,0,1,6.15-6.74H308.54a7.49,7.49,0,0,1,7.32,6.74l10.06,114.94A6.08,6.08,0,0,1,319.77,386.5Z" transform="translate(-11.5 -66.12)"/><path class="cls-8" d="M152.66,368.15l1,11.61A7.49,7.49,0,0,0,161,386.5H319.77a6.08,6.08,0,0,0,6.15-6.74l-1-11.61Z" transform="translate(-11.5 -66.12)"/><path class="cls-9" d="M152.66,368.15l1,11.61A7.49,7.49,0,0,0,161,386.5H319.77a6.08,6.08,0,0,0,6.15-6.74l-1-11.61Z" transform="translate(-11.5 -66.12)"/><polygon class="cls-7" points="137.77 197.7 146.4 296.3 307.17 296.3 298.54 197.7 137.77 197.7"/><polygon class="cls-4" points="175.64 213.11 145.57 213.11 144.63 202.29 174.69 202.29 175.64 213.11"/><polygon class="cls-4" points="226.17 207.7 207.9 207.7 207.43 202.29 225.7 202.29 226.17 207.7"/><polygon class="cls-4" points="191.5 291.84 161.56 291.84 160.29 277.35 190.23 277.35 191.5 291.84"/><polygon class="cls-4" points="227.68 291.84 197.74 291.84 196.47 277.35 226.41 277.35 227.68 291.84"/><polygon class="cls-4" points="263.86 291.84 233.92 291.84 232.65 277.35 262.59 277.35 263.86 291.84"/><polygon class="cls-4" points="300.04 291.84 270.1 291.84 268.83 277.35 298.77 277.35 300.04 291.84"/><polygon class="cls-4" points="248.34 207.7 230.07 207.7 229.6 202.29 247.87 202.29 248.34 207.7"/><polygon class="cls-4" points="270.51 207.7 252.24 207.7 251.76 202.29 270.04 202.29 270.51 207.7"/><polygon class="cls-4" points="292.68 207.7 274.41 207.7 273.93 202.29 292.2 202.29 292.68 207.7"/><polygon class="cls-4" points="305.04 272.48 144.27 272.48 139.73 220.66 300.51 220.66 305.04 272.48"/><g class="cls-11"><polygon class="cls-7" points="175.64 213.11 145.57 213.11 144.63 202.29 174.69 202.29 175.64 213.11"/><polygon class="cls-7" points="226.17 207.7 207.9 207.7 207.43 202.29 225.7 202.29 226.17 207.7"/><polygon class="cls-7" points="191.5 291.84 161.56 291.84 160.29 277.35 190.23 277.35 191.5 291.84"/><polygon class="cls-7" points="227.68 291.84 197.74 291.84 196.47 277.35 226.41 277.35 227.68 291.84"/><polygon class="cls-7" points="263.86 291.84 233.92 291.84 232.65 277.35 262.59 277.35 263.86 291.84"/><polygon class="cls-7" points="300.04 291.84 270.1 291.84 268.83 277.35 298.77 277.35 300.04 291.84"/><polygon class="cls-7" points="248.34 207.7 230.07 207.7 229.6 202.29 247.87 202.29 248.34 207.7"/><polygon class="cls-7" points="270.51 207.7 252.24 207.7 251.76 202.29 270.04 202.29 270.51 207.7"/><polygon class="cls-7" points="292.68 207.7 274.41 207.7 273.93 202.29 292.2 202.29 292.68 207.7"/><polygon class="cls-7" points="305.04 272.48 144.27 272.48 139.73 220.66 300.51 220.66 305.04 272.48"/></g><path class="cls-8" d="M202.68,128.49h10.18l10.25,117.25H212.94a9.51,9.51,0,0,1-9.28-8.54L194.89,137A7.7,7.7,0,0,1,202.68,128.49Z" transform="translate(-11.5 -66.12)"/><path class="cls-8" d="M196.38,140.25a.91.91,0,0,0-.89-.82.74.74,0,0,0-.74.82l.69,7.85a.9.9,0,0,0,.88.82.74.74,0,0,0,.75-.82Z" transform="translate(-11.5 -66.12)"/><path class="cls-10" d="M196.38,140.25a.91.91,0,0,0-.89-.82.74.74,0,0,0-.74.82l.69,7.85a.9.9,0,0,0,.88.82.74.74,0,0,0,.75-.82Z" transform="translate(-11.5 -66.12)"/><path class="cls-8" d="M215,245.74h41.92a7.71,7.71,0,0,0,7.79-8.54L256,137a9.5,9.5,0,0,0-9.28-8.53H204.77A7.69,7.69,0,0,0,197,137l8.76,100.18A9.51,9.51,0,0,0,215,245.74Z" transform="translate(-11.5 -66.12)"/><path class="cls-10" d="M215,245.74h41.92a7.71,7.71,0,0,0,7.79-8.54L256,137a9.5,9.5,0,0,0-9.28-8.53H204.77A7.69,7.69,0,0,0,197,137l8.76,100.18A9.51,9.51,0,0,0,215,245.74Z" transform="translate(-11.5 -66.12)"/><path class="cls-7" d="M204.94,130.45h10.89a1.59,1.59,0,0,1,1.52,1.23l.07.35a3.87,3.87,0,0,0,3.7,3h10.35a3.11,3.11,0,0,0,3.17-3l0-.35a1.27,1.27,0,0,1,1.3-1.23h10.89A7.31,7.31,0,0,1,254,137l8.77,100.18a5.94,5.94,0,0,1-6,6.58H214.85a7.33,7.33,0,0,1-7.15-6.58L198.93,137A5.93,5.93,0,0,1,204.94,130.45Z" transform="translate(-11.5 -66.12)"/><path class="cls-4" d="M228.53,131.56a.92.92,0,0,0,.9.83.75.75,0,0,0,.76-.83.93.93,0,0,0-.9-.84A.76.76,0,0,0,228.53,131.56Z" transform="translate(-11.5 -66.12)"/><path class="cls-4" d="M222.55,130.72h2.85a.94.94,0,0,1,.91.84.75.75,0,0,1-.76.83H222.7a.93.93,0,0,1-.91-.83A.76.76,0,0,1,222.55,130.72Z" transform="translate(-11.5 -66.12)"/><polygon class="cls-4" points="248.29 137.38 193.22 137.38 188.41 82.31 243.47 82.31 248.29 137.38"/><path class="cls-4" d="M211.35,141.9a4,4,0,0,1-4.09,4.48,5,5,0,0,1-4.87-4.48,4,4,0,0,1,4.09-4.48A5,5,0,0,1,211.35,141.9Z" transform="translate(-11.5 -66.12)"/><path class="cls-4" d="M248.33,144h-8.6a2.29,2.29,0,0,1-2.24-2.06h0a1.86,1.86,0,0,1,1.88-2.07H248a2.3,2.3,0,0,1,2.24,2.07h0A1.86,1.86,0,0,1,248.33,144Z" transform="translate(-11.5 -66.12)"/><path class="cls-4" d="M229.53,211.21h-18.4a2.2,2.2,0,0,1-2.15-2h0a1.78,1.78,0,0,1,1.8-2h18.41a2.21,2.21,0,0,1,2.15,2h0A1.79,1.79,0,0,1,229.53,211.21Z" transform="translate(-11.5 -66.12)"/><path class="cls-4" d="M253.51,218.91H211.8a2.2,2.2,0,0,1-2.15-2h0a1.79,1.79,0,0,1,1.81-2h41.7a2.2,2.2,0,0,1,2.16,2h0A1.79,1.79,0,0,1,253.51,218.91Z" transform="translate(-11.5 -66.12)"/><path class="cls-4" d="M243.6,224.93H212.33a2.2,2.2,0,0,1-2.15-2h0a1.78,1.78,0,0,1,1.8-2h31.28a2.2,2.2,0,0,1,2.15,2h0A1.78,1.78,0,0,1,243.6,224.93Z" transform="translate(-11.5 -66.12)"/><path class="cls-4" d="M249.66,231h-36.8a2.19,2.19,0,0,1-2.15-2h0a1.78,1.78,0,0,1,1.8-2h36.81a2.2,2.2,0,0,1,2.15,2h0A1.79,1.79,0,0,1,249.66,231Z" transform="translate(-11.5 -66.12)"/><path class="cls-4" d="M224.65,237H213.38a2.2,2.2,0,0,1-2.15-2h0a1.79,1.79,0,0,1,1.81-2H224.3a2.19,2.19,0,0,1,2.15,2h0A1.77,1.77,0,0,1,224.65,237Z" transform="translate(-11.5 -66.12)"/><polygon class="cls-12" points="248.29 137.38 193.22 137.38 188.41 82.31 243.47 82.31 248.29 137.38"/><path class="cls-12" d="M211.35,141.9a4,4,0,0,1-4.09,4.48,5,5,0,0,1-4.87-4.48,4,4,0,0,1,4.09-4.48A5,5,0,0,1,211.35,141.9Z" transform="translate(-11.5 -66.12)"/><path class="cls-12" d="M248.33,144h-8.6a2.29,2.29,0,0,1-2.24-2.06h0a1.86,1.86,0,0,1,1.88-2.07H248a2.3,2.3,0,0,1,2.24,2.07h0A1.86,1.86,0,0,1,248.33,144Z" transform="translate(-11.5 -66.12)"/><path class="cls-12" d="M229.53,211.21h-18.4a2.2,2.2,0,0,1-2.15-2h0a1.78,1.78,0,0,1,1.8-2h18.41a2.21,2.21,0,0,1,2.15,2h0A1.79,1.79,0,0,1,229.53,211.21Z" transform="translate(-11.5 -66.12)"/><path class="cls-12" d="M253.51,218.91H211.8a2.2,2.2,0,0,1-2.15-2h0a1.79,1.79,0,0,1,1.81-2h41.7a2.2,2.2,0,0,1,2.16,2h0A1.79,1.79,0,0,1,253.51,218.91Z" transform="translate(-11.5 -66.12)"/><path class="cls-12" d="M243.6,224.93H212.33a2.2,2.2,0,0,1-2.15-2h0a1.78,1.78,0,0,1,1.8-2h31.28a2.2,2.2,0,0,1,2.15,2h0A1.78,1.78,0,0,1,243.6,224.93Z" transform="translate(-11.5 -66.12)"/><path class="cls-12" d="M249.66,231h-36.8a2.19,2.19,0,0,1-2.15-2h0a1.78,1.78,0,0,1,1.8-2h36.81a2.2,2.2,0,0,1,2.15,2h0A1.79,1.79,0,0,1,249.66,231Z" transform="translate(-11.5 -66.12)"/><path class="cls-12" d="M224.65,237H213.38a2.2,2.2,0,0,1-2.15-2h0a1.79,1.79,0,0,1,1.81-2H224.3a2.19,2.19,0,0,1,2.15,2h0A1.77,1.77,0,0,1,224.65,237Z" transform="translate(-11.5 -66.12)"/><path class="cls-8" d="M93.09,335H86.82a4.17,4.17,0,0,0-4.22,4.62l7,79.95a5.13,5.13,0,0,0,5,4.61h6.28Z" transform="translate(-11.5 -66.12)"/><path class="cls-9" d="M93.09,335H86.82a4.17,4.17,0,0,0-4.22,4.62l7,79.95a5.13,5.13,0,0,0,5,4.61h6.28Z" transform="translate(-11.5 -66.12)"/><path class="cls-8" d="M195.13,424.13H97.35a5.13,5.13,0,0,1-5-4.61l-7-79.95A4.17,4.17,0,0,1,89.55,335h97.78a5.14,5.14,0,0,1,5,4.62l7,79.95A4.15,4.15,0,0,1,195.13,424.13Z" transform="translate(-11.5 -66.12)"/><path class="cls-10" d="M195.13,424.13H97.35a5.13,5.13,0,0,1-5-4.61l-7-79.95A4.17,4.17,0,0,1,89.55,335h97.78a5.14,5.14,0,0,1,5,4.62l7,79.95A4.15,4.15,0,0,1,195.13,424.13Z" transform="translate(-11.5 -66.12)"/><path class="cls-8" d="M141,351.39H248a0,0,0,0,1,0,0v2.16a6,6,0,0,1-6,6H141a0,0,0,0,1,0,0v-8.15A0,0,0,0,1,141,351.39Z"/><path class="cls-9" d="M141,351.39H248a0,0,0,0,1,0,0v2.16a6,6,0,0,1-6,6H141a0,0,0,0,1,0,0v-8.15A0,0,0,0,1,141,351.39Z"/><path class="cls-13" d="M214.84,421.59h-8.55a4.08,4.08,0,0,1-4.07-4.08h16.7A4.08,4.08,0,0,1,214.84,421.59Z" transform="translate(-11.5 -66.12)"/><polygon class="cls-7" points="181.69 344.51 175.54 274.19 79.27 274.19 85.42 344.51 181.69 344.51"/><path class="cls-4" d="M143.17,337.68a1.07,1.07,0,0,1-1.08,1.19,1.34,1.34,0,0,1-1.3-1.19,1.08,1.08,0,0,1,1.09-1.2A1.32,1.32,0,0,1,143.17,337.68Z" transform="translate(-11.5 -66.12)"/><path class="cls-8" d="M81.15,351.39h67.08a0,0,0,0,1,0,0v2.16a6,6,0,0,1-6,6H87.15a6,6,0,0,1-6-6v-2.16A0,0,0,0,1,81.15,351.39Z"/><path class="cls-13" d="M103.13,422.35H98.48a1,1,0,0,1-1-1h0a1,1,0,0,1,1-1h4.65a1,1,0,0,1,1,1h0A1,1,0,0,1,103.13,422.35Z" transform="translate(-11.5 -66.12)"/><path class="cls-13" d="M113.13,422.35h-4.65a1,1,0,0,1-1-1h0a1,1,0,0,1,1-1h4.65a1,1,0,0,1,1,1h0A1,1,0,0,1,113.13,422.35Z" transform="translate(-11.5 -66.12)"/><polygon class="cls-4" points="100.84 285.32 84.6 285.32 84.05 279.01 100.29 279.01 100.84 285.32"/><polygon class="cls-4" points="135.85 281.3 125.68 281.3 125.48 279.01 135.65 279.01 135.85 281.3"/><polygon class="cls-4" points="148.08 281.3 137.91 281.3 137.71 279.01 147.88 279.01 148.08 281.3"/><polygon class="cls-4" points="160.31 281.3 150.14 281.3 149.94 279.01 160.11 279.01 160.31 281.3"/><polygon class="cls-4" points="172.54 281.3 162.37 281.3 162.17 279.01 172.34 279.01 172.54 281.3"/><polygon class="cls-4" points="174.39 302.51 86.11 302.51 84.9 288.76 173.19 288.76 174.39 302.51"/><polygon class="cls-4" points="143.3 331.56 88.65 331.56 86.32 305 140.98 305 143.3 331.56"/><path class="cls-4" d="M139.7,403H101.86a1.37,1.37,0,0,1-1.35-1.24h0a1.11,1.11,0,0,1,1.13-1.24h37.84a1.38,1.38,0,0,1,1.35,1.24h0A1.12,1.12,0,0,1,139.7,403Z" transform="translate(-11.5 -66.12)"/><path class="cls-4" d="M136,407H102.21a1.37,1.37,0,0,1-1.35-1.24h0a1.12,1.12,0,0,1,1.13-1.24h33.83a1.39,1.39,0,0,1,1.35,1.24h0A1.12,1.12,0,0,1,136,407Z" transform="translate(-11.5 -66.12)"/><path class="cls-4" d="M183.9,388.13H161.71a1.39,1.39,0,0,1-1.36-1.25h0a1.12,1.12,0,0,1,1.14-1.24h22.19a1.37,1.37,0,0,1,1.35,1.24h0A1.11,1.11,0,0,1,183.9,388.13Z" transform="translate(-11.5 -66.12)"/><path class="cls-4" d="M180.24,392.14H162.06a1.38,1.38,0,0,1-1.35-1.24h0a1.12,1.12,0,0,1,1.13-1.25H180a1.38,1.38,0,0,1,1.35,1.25h0A1.12,1.12,0,0,1,180.24,392.14Z" transform="translate(-11.5 -66.12)"/><polygon class="cls-4" points="174.13 317.04 148.15 317.04 147.09 305 173.08 305 174.13 317.04"/><polygon class="cls-4" points="176.25 341.21 150.26 341.21 149.21 329.17 175.2 329.17 176.25 341.21"/><g class="cls-11"><polygon class="cls-7" points="100.84 285.32 84.6 285.32 84.05 279.01 100.29 279.01 100.84 285.32"/><polygon class="cls-7" points="135.85 281.3 125.68 281.3 125.48 279.01 135.65 279.01 135.85 281.3"/><polygon class="cls-7" points="148.08 281.3 137.91 281.3 137.71 279.01 147.88 279.01 148.08 281.3"/><polygon class="cls-7" points="160.31 281.3 150.14 281.3 149.94 279.01 160.11 279.01 160.31 281.3"/><polygon class="cls-7" points="172.54 281.3 162.37 281.3 162.17 279.01 172.34 279.01 172.54 281.3"/><polygon class="cls-7" points="174.39 302.51 86.11 302.51 84.9 288.76 173.19 288.76 174.39 302.51"/><polygon class="cls-7" points="143.3 331.56 88.65 331.56 86.32 305 140.98 305 143.3 331.56"/><path class="cls-7" d="M139.7,403H101.86a1.37,1.37,0,0,1-1.35-1.24h0a1.11,1.11,0,0,1,1.13-1.24h37.84a1.38,1.38,0,0,1,1.35,1.24h0A1.12,1.12,0,0,1,139.7,403Z" transform="translate(-11.5 -66.12)"/><path class="cls-7" d="M136,407H102.21a1.37,1.37,0,0,1-1.35-1.24h0a1.12,1.12,0,0,1,1.13-1.24h33.83a1.39,1.39,0,0,1,1.35,1.24h0A1.12,1.12,0,0,1,136,407Z" transform="translate(-11.5 -66.12)"/><path class="cls-7" d="M183.9,388.13H161.71a1.39,1.39,0,0,1-1.36-1.25h0a1.12,1.12,0,0,1,1.14-1.24h22.19a1.37,1.37,0,0,1,1.35,1.24h0A1.11,1.11,0,0,1,183.9,388.13Z" transform="translate(-11.5 -66.12)"/><path class="cls-7" d="M180.24,392.14H162.06a1.38,1.38,0,0,1-1.35-1.24h0a1.12,1.12,0,0,1,1.13-1.25H180a1.38,1.38,0,0,1,1.35,1.25h0A1.12,1.12,0,0,1,180.24,392.14Z" transform="translate(-11.5 -66.12)"/><polygon class="cls-7" points="174.13 317.04 148.15 317.04 147.09 305 173.08 305 174.13 317.04"/><polygon class="cls-7" points="176.25 341.21 150.26 341.21 149.21 329.17 175.2 329.17 176.25 341.21"/></g><path class="cls-8" d="M98.22,149.92H89.59a8,8,0,0,0-8.1,8.87l9.63,110.06a9.88,9.88,0,0,0,9.65,8.87h8.63Z" transform="translate(-11.5 -66.12)"/><path class="cls-9" d="M98.22,149.92H89.59a8,8,0,0,0-8.1,8.87l9.63,110.06a9.88,9.88,0,0,0,9.65,8.87h8.63Z" transform="translate(-11.5 -66.12)"/><path class="cls-8" d="M104.21,277.72h75.62a8,8,0,0,0,8.09-8.87L178.3,158.79a9.89,9.89,0,0,0-9.65-8.88H93a8,8,0,0,0-8.1,8.87l9.63,110.06A9.88,9.88,0,0,0,104.21,277.72Z" transform="translate(-11.5 -66.12)"/><path class="cls-10" d="M104.21,277.72h75.62a8,8,0,0,0,8.09-8.87L178.3,158.79a9.89,9.89,0,0,0-9.65-8.88H93a8,8,0,0,0-8.1,8.87l9.63,110.06A9.88,9.88,0,0,0,104.21,277.72Z" transform="translate(-11.5 -66.12)"/><polygon class="cls-7" points="173.33 202.73 163.7 92.67 76.53 92.67 86.16 202.73 173.33 202.73"/><path class="cls-8" d="M141.85,275.82a3.1,3.1,0,0,1-3-2.79,2.51,2.51,0,0,1,2.54-2.79,3.1,3.1,0,0,1,3,2.79A2.52,2.52,0,0,1,141.85,275.82Zm-.42-4.9A1.91,1.91,0,0,0,139.5,273a2.35,2.35,0,0,0,2.29,2.1,1.89,1.89,0,0,0,1.92-2.1A2.34,2.34,0,0,0,141.43,270.92Z" transform="translate(-11.5 -66.12)"/><polygon class="cls-4" points="159.92 103.37 153.5 103.37 152.94 96.95 159.36 96.95 159.92 103.37"/><polygon class="cls-4" points="100.76 103.37 82.41 103.37 81.85 96.95 100.2 96.95 100.76 103.37"/><polygon class="cls-4" points="164.14 151.53 86.63 151.53 83.1 111.17 160.6 111.17 164.14 151.53"/><polygon class="cls-4" points="135.44 195.76 90.5 195.76 87.11 157.03 132.06 157.03 135.44 195.76"/><polygon class="cls-4" points="147.73 165.86 137.41 165.86 136.64 157.03 146.96 157.03 147.73 165.86"/><path class="cls-4" d="M173.63,226.13h-11.3a1.66,1.66,0,0,1-1.62-1.49h0a1.34,1.34,0,0,1,1.36-1.49h11.3a1.66,1.66,0,0,1,1.62,1.49h0A1.35,1.35,0,0,1,173.63,226.13Z" transform="translate(-11.5 -66.12)"/><path class="cls-4" d="M175.4,232H162.84a1.67,1.67,0,0,1-1.62-1.49h0a1.34,1.34,0,0,1,1.36-1.49h12.56a1.65,1.65,0,0,1,1.62,1.49h0A1.35,1.35,0,0,1,175.4,232Z" transform="translate(-11.5 -66.12)"/><path class="cls-4" d="M174.65,237.82H150.92a1.66,1.66,0,0,1-1.63-1.49h0a1.35,1.35,0,0,1,1.36-1.49h23.74a1.66,1.66,0,0,1,1.62,1.49h0A1.34,1.34,0,0,1,174.65,237.82Z" transform="translate(-11.5 -66.12)"/><path class="cls-4" d="M176.42,243.67h-25a1.65,1.65,0,0,1-1.62-1.49h0a1.34,1.34,0,0,1,1.36-1.49h25a1.65,1.65,0,0,1,1.62,1.49h0A1.34,1.34,0,0,1,176.42,243.67Z" transform="translate(-11.5 -66.12)"/><path class="cls-4" d="M173.72,249.52H151.94a1.66,1.66,0,0,1-1.62-1.49h0a1.34,1.34,0,0,1,1.36-1.49h21.78a1.65,1.65,0,0,1,1.62,1.49h0A1.34,1.34,0,0,1,173.72,249.52Z" transform="translate(-11.5 -66.12)"/><path class="cls-4" d="M177.45,255.37h-25a1.66,1.66,0,0,1-1.62-1.49h0a1.34,1.34,0,0,1,1.36-1.49h25a1.66,1.66,0,0,1,1.62,1.49h0A1.35,1.35,0,0,1,177.45,255.37Z" transform="translate(-11.5 -66.12)"/><path class="cls-4" d="M170.19,261.21H153a1.65,1.65,0,0,1-1.62-1.49h0a1.35,1.35,0,0,1,1.36-1.49h17.23a1.66,1.66,0,0,1,1.62,1.49h0A1.34,1.34,0,0,1,170.19,261.21Z" transform="translate(-11.5 -66.12)"/><polygon class="cls-12" points="159.92 103.37 153.5 103.37 152.94 96.95 159.36 96.95 159.92 103.37"/><polygon class="cls-12" points="100.76 103.37 82.41 103.37 81.85 96.95 100.2 96.95 100.76 103.37"/><polygon class="cls-12" points="164.14 151.53 86.63 151.53 83.1 111.17 160.6 111.17 164.14 151.53"/><polygon class="cls-12" points="135.44 195.76 90.5 195.76 87.11 157.03 132.06 157.03 135.44 195.76"/><polygon class="cls-12" points="147.73 165.86 137.41 165.86 136.64 157.03 146.96 157.03 147.73 165.86"/><path class="cls-12" d="M173.63,226.13h-11.3a1.66,1.66,0,0,1-1.62-1.49h0a1.34,1.34,0,0,1,1.36-1.49h11.3a1.66,1.66,0,0,1,1.62,1.49h0A1.35,1.35,0,0,1,173.63,226.13Z" transform="translate(-11.5 -66.12)"/><path class="cls-12" d="M175.4,232H162.84a1.67,1.67,0,0,1-1.62-1.49h0a1.34,1.34,0,0,1,1.36-1.49h12.56a1.65,1.65,0,0,1,1.62,1.49h0A1.35,1.35,0,0,1,175.4,232Z" transform="translate(-11.5 -66.12)"/><path class="cls-12" d="M174.65,237.82H150.92a1.66,1.66,0,0,1-1.63-1.49h0a1.35,1.35,0,0,1,1.36-1.49h23.74a1.66,1.66,0,0,1,1.62,1.49h0A1.34,1.34,0,0,1,174.65,237.82Z" transform="translate(-11.5 -66.12)"/><path class="cls-12" d="M176.42,243.67h-25a1.65,1.65,0,0,1-1.62-1.49h0a1.34,1.34,0,0,1,1.36-1.49h25a1.65,1.65,0,0,1,1.62,1.49h0A1.34,1.34,0,0,1,176.42,243.67Z" transform="translate(-11.5 -66.12)"/><path class="cls-12" d="M173.72,249.52H151.94a1.66,1.66,0,0,1-1.62-1.49h0a1.34,1.34,0,0,1,1.36-1.49h21.78a1.65,1.65,0,0,1,1.62,1.49h0A1.34,1.34,0,0,1,173.72,249.52Z" transform="translate(-11.5 -66.12)"/><path class="cls-12" d="M177.45,255.37h-25a1.66,1.66,0,0,1-1.62-1.49h0a1.34,1.34,0,0,1,1.36-1.49h25a1.66,1.66,0,0,1,1.62,1.49h0A1.35,1.35,0,0,1,177.45,255.37Z" transform="translate(-11.5 -66.12)"/><path class="cls-12" d="M170.19,261.21H153a1.65,1.65,0,0,1-1.62-1.49h0a1.35,1.35,0,0,1,1.36-1.49h17.23a1.66,1.66,0,0,1,1.62,1.49h0A1.34,1.34,0,0,1,170.19,261.21Z" transform="translate(-11.5 -66.12)"/><path class="cls-4" d="M252.65,325.34h-18.8a5.36,5.36,0,0,1-5.23-4.81L227,301.73a4.54,4.54,0,0,1,4.58-5h18.8a5.36,5.36,0,0,1,5.23,4.81l1.65,18.8a4.54,4.54,0,0,1-4.58,5ZM231.55,299a2.28,2.28,0,0,0-2.33,2.56l1.64,18.8a3.07,3.07,0,0,0,3,2.76h18.8a2.29,2.29,0,0,0,2.34-2.56l-1.65-18.8a3.07,3.07,0,0,0-3-2.76Z" transform="translate(-11.5 -66.12)"/><g class="cls-14"><path class="cls-7" d="M252.65,325.34h-18.8a5.36,5.36,0,0,1-5.23-4.81L227,301.73a4.54,4.54,0,0,1,4.58-5h18.8a5.36,5.36,0,0,1,5.23,4.81l1.65,18.8a4.54,4.54,0,0,1-4.58,5ZM231.55,299a2.28,2.28,0,0,0-2.33,2.56l1.64,18.8a3.07,3.07,0,0,0,3,2.76h18.8a2.29,2.29,0,0,0,2.34-2.56l-1.65-18.8a3.07,3.07,0,0,0-3-2.76Z" transform="translate(-11.5 -66.12)"/></g><path class="cls-8" d="M238.2,318.86l-14.35-13.2a2.48,2.48,0,0,1-.14-3.5h0a2.47,2.47,0,0,1,3.49-.14l10.7,9.83,20.72-22.71a2.47,2.47,0,0,1,3.5-.16h0a2.47,2.47,0,0,1,.16,3.49Z" transform="translate(-11.5 -66.12)"/><g class="cls-15"><path d="M238.2,318.86l-14.35-13.2a2.48,2.48,0,0,1-.14-3.5h0a2.47,2.47,0,0,1,3.49-.14l10.7,9.83,20.72-22.71a2.47,2.47,0,0,1,3.5-.16h0a2.47,2.47,0,0,1,.16,3.49Z" transform="translate(-11.5 -66.12)"/></g><path class="cls-4" d="M151.16,217.94H134.24a4.82,4.82,0,0,1-4.71-4.33l-1.48-16.92a4.08,4.08,0,0,1,4.12-4.5h16.91a4.83,4.83,0,0,1,4.72,4.33l1.48,16.92a4.09,4.09,0,0,1-4.12,4.5Zm-19-23.73a2.05,2.05,0,0,0-2.1,2.31l1.48,16.92a2.76,2.76,0,0,0,2.69,2.48h16.92a2.09,2.09,0,0,0,1.57-.67,2.11,2.11,0,0,0,.53-1.64l-1.48-16.92a2.77,2.77,0,0,0-2.7-2.48Z" transform="translate(-11.5 -66.12)"/><g class="cls-14"><path class="cls-7" d="M151.16,217.94H134.24a4.82,4.82,0,0,1-4.71-4.33l-1.48-16.92a4.08,4.08,0,0,1,4.12-4.5h16.91a4.83,4.83,0,0,1,4.72,4.33l1.48,16.92a4.09,4.09,0,0,1-4.12,4.5Zm-19-23.73a2.05,2.05,0,0,0-2.1,2.31l1.48,16.92a2.76,2.76,0,0,0,2.69,2.48h16.92a2.09,2.09,0,0,0,1.57-.67,2.11,2.11,0,0,0,.53-1.64l-1.48-16.92a2.77,2.77,0,0,0-2.7-2.48Z" transform="translate(-11.5 -66.12)"/></g><path class="cls-8" d="M138.15,212.11l-12.91-11.87a2.22,2.22,0,0,1-.13-3.15h0a2.21,2.21,0,0,1,3.14-.13l9.63,8.85,18.65-20.45a2.23,2.23,0,0,1,3.15-.14h0a2.23,2.23,0,0,1,.14,3.15Z" transform="translate(-11.5 -66.12)"/><g class="cls-15"><path d="M138.15,212.11l-12.91-11.87a2.22,2.22,0,0,1-.13-3.15h0a2.21,2.21,0,0,1,3.14-.13l9.63,8.85,18.65-20.45a2.23,2.23,0,0,1,3.15-.14h0a2.23,2.23,0,0,1,.14,3.15Z" transform="translate(-11.5 -66.12)"/></g><path class="cls-4" d="M157,387.26H138.2a5.36,5.36,0,0,1-5.23-4.81l-1.65-18.8a4.61,4.61,0,0,1,1.17-3.54,4.56,4.56,0,0,1,3.41-1.47h18.8a5.36,5.36,0,0,1,5.23,4.81l1.65,18.8a4.61,4.61,0,0,1-1.17,3.54A4.56,4.56,0,0,1,157,387.26Zm-21.1-26.37a2.28,2.28,0,0,0-2.33,2.56l1.64,18.8a3.07,3.07,0,0,0,3,2.76H157a2.33,2.33,0,0,0,1.75-.74,2.36,2.36,0,0,0,.59-1.82l-1.65-18.8a3.07,3.07,0,0,0-3-2.76Z" transform="translate(-11.5 -66.12)"/><g class="cls-14"><path class="cls-7" d="M157,387.26H138.2a5.36,5.36,0,0,1-5.23-4.81l-1.65-18.8a4.61,4.61,0,0,1,1.17-3.54,4.56,4.56,0,0,1,3.41-1.47h18.8a5.36,5.36,0,0,1,5.23,4.81l1.65,18.8a4.61,4.61,0,0,1-1.17,3.54A4.56,4.56,0,0,1,157,387.26Zm-21.1-26.37a2.28,2.28,0,0,0-2.33,2.56l1.64,18.8a3.07,3.07,0,0,0,3,2.76H157a2.33,2.33,0,0,0,1.75-.74,2.36,2.36,0,0,0,.59-1.82l-1.65-18.8a3.07,3.07,0,0,0-3-2.76Z" transform="translate(-11.5 -66.12)"/></g><path class="cls-8" d="M142.55,380.78l-14.35-13.2a2.48,2.48,0,0,1-.15-3.49h0a2.46,2.46,0,0,1,3.49-.15l10.7,9.83L163,351.06a2.48,2.48,0,0,1,3.5-.16h0a2.47,2.47,0,0,1,.16,3.49Z" transform="translate(-11.5 -66.12)"/><g class="cls-15"><path d="M142.55,380.78l-14.35-13.2a2.48,2.48,0,0,1-.15-3.49h0a2.46,2.46,0,0,1,3.49-.15l10.7,9.83L163,351.06a2.48,2.48,0,0,1,3.5-.16h0a2.47,2.47,0,0,1,.16,3.49Z" transform="translate(-11.5 -66.12)"/></g><path class="cls-4" d="M241.18,193.06H224.26a4.82,4.82,0,0,1-4.71-4.32l-1.48-16.92a4.17,4.17,0,0,1,1.05-3.19,4.11,4.11,0,0,1,3.07-1.32h16.92a4.82,4.82,0,0,1,4.71,4.33l1.48,16.92a4.13,4.13,0,0,1-1.05,3.18A4.07,4.07,0,0,1,241.18,193.06Zm-19-23.73a2.07,2.07,0,0,0-2.1,2.31l1.48,16.92a2.76,2.76,0,0,0,2.69,2.48h16.92a2.05,2.05,0,0,0,2.1-2.3l-1.48-16.92a2.77,2.77,0,0,0-2.69-2.49Z" transform="translate(-11.5 -66.12)"/><g class="cls-14"><path class="cls-7" d="M241.18,193.06H224.26a4.82,4.82,0,0,1-4.71-4.32l-1.48-16.92a4.17,4.17,0,0,1,1.05-3.19,4.11,4.11,0,0,1,3.07-1.32h16.92a4.82,4.82,0,0,1,4.71,4.33l1.48,16.92a4.13,4.13,0,0,1-1.05,3.18A4.07,4.07,0,0,1,241.18,193.06Zm-19-23.73a2.07,2.07,0,0,0-2.1,2.31l1.48,16.92a2.76,2.76,0,0,0,2.69,2.48h16.92a2.05,2.05,0,0,0,2.1-2.3l-1.48-16.92a2.77,2.77,0,0,0-2.69-2.49Z" transform="translate(-11.5 -66.12)"/></g><path class="cls-8" d="M228.18,187.23l-12.92-11.87a2.24,2.24,0,0,1-.13-3.15h0a2.24,2.24,0,0,1,3.15-.13l9.62,8.85,18.66-20.45a2.23,2.23,0,0,1,3.14-.14h0a2.24,2.24,0,0,1,.15,3.15Z" transform="translate(-11.5 -66.12)"/><g class="cls-15"><path d="M228.18,187.23l-12.92-11.87a2.24,2.24,0,0,1-.13-3.15h0a2.24,2.24,0,0,1,3.15-.13l9.62,8.85,18.66-20.45a2.23,2.23,0,0,1,3.14-.14h0a2.24,2.24,0,0,1,.15,3.15Z" transform="translate(-11.5 -66.12)"/></g><path class="cls-4" d="M385.14,347.26H397a12,12,0,0,0,11.94-11l2.16-27.36-4.5-.35-2.16,27.36a7.5,7.5,0,0,1-7.44,6.87H385.14Z" transform="translate(-11.5 -66.12)"/><path class="cls-5" d="M385.14,347.26H397a12,12,0,0,0,11.94-11l2.16-27.36-4.5-.35-2.16,27.36a7.5,7.5,0,0,1-7.44,6.87H385.14Z" transform="translate(-11.5 -66.12)"/><path class="cls-16" d="M401.62,341.12l-.7,3.22a6.6,6.6,0,0,1-1.24,2.6,11.3,11.3,0,0,1-2.68.32H385.14v-4.51H397A7.36,7.36,0,0,0,401.62,341.12Z" transform="translate(-11.5 -66.12)"/><path class="cls-8" d="M391.13,311.8a5.19,5.19,0,0,1-4.63-5.69l3.59-35a5.17,5.17,0,0,1,5.68-4.62h34.3a3.44,3.44,0,0,1,3.08,3.79l-3.93,38.45a3.46,3.46,0,0,1-3.79,3.09Z" transform="translate(-11.5 -66.12)"/><path class="cls-17" d="M391.13,311.8a5.19,5.19,0,0,1-4.63-5.69l3.59-35a5.17,5.17,0,0,1,5.68-4.62h34.3a3.44,3.44,0,0,1,3.08,3.79l-3.93,38.45a3.46,3.46,0,0,1-3.79,3.09Z" transform="translate(-11.5 -66.12)"/><path class="cls-8" d="M429.22,308.71l3.94-38.45a3.46,3.46,0,0,0-3.09-3.79h0a5.17,5.17,0,0,0-5.68,4.62l-3.59,35a5.19,5.19,0,0,0,4.63,5.69h0A3.46,3.46,0,0,0,429.22,308.71Z" transform="translate(-11.5 -66.12)"/><path class="cls-4" d="M390.43,413.57l-.31-.93a2.89,2.89,0,0,0-2.76-2H355.29a2.92,2.92,0,0,0-2.84,2.28l-.08.37a2.82,2.82,0,0,1-2.75,2.22h0a2.82,2.82,0,0,1-2.76-3.43l.08-.37a8.56,8.56,0,0,1,8.35-6.71h32.07a8.55,8.55,0,0,1,8.12,5.87l.31.93a2.83,2.83,0,0,1-2.68,3.71h0A2.83,2.83,0,0,1,390.43,413.57Z" transform="translate(-11.5 -66.12)"/><path class="cls-5" d="M390.43,413.57l-.31-.93a2.89,2.89,0,0,0-2.76-2H355.29a2.92,2.92,0,0,0-2.84,2.28l-.08.37a2.82,2.82,0,0,1-2.75,2.22h0a2.82,2.82,0,0,1-2.76-3.43l.08-.37a8.56,8.56,0,0,1,8.35-6.71h32.07a8.55,8.55,0,0,1,8.12,5.87l.31.93a2.83,2.83,0,0,1-2.68,3.71h0A2.83,2.83,0,0,1,390.43,413.57Z" transform="translate(-11.5 -66.12)"/><rect class="cls-16" x="355.12" y="338.88" width="9.92" height="5.64"/><path class="cls-4" d="M371.58,414.86h0A2.82,2.82,0,0,0,374.4,412v-75h-5.64v75A2.82,2.82,0,0,0,371.58,414.86Z" transform="translate(-11.5 -66.12)"/><path class="cls-5" d="M371.58,414.86h0A2.82,2.82,0,0,0,374.4,412v-75h-5.64v75A2.82,2.82,0,0,0,371.58,414.86Z" transform="translate(-11.5 -66.12)"/><path class="cls-4" d="M367.63,420a3.95,3.95,0,1,0,3.95-4A4,4,0,0,0,367.63,420Z" transform="translate(-11.5 -66.12)"/><path class="cls-4" d="M392,420a3.95,3.95,0,1,0,3.95-4A4,4,0,0,0,392,420Z" transform="translate(-11.5 -66.12)"/><path class="cls-4" d="M342.85,420a3.95,3.95,0,1,0,3.94-4A3.94,3.94,0,0,0,342.85,420Z" transform="translate(-11.5 -66.12)"/><rect class="cls-16" x="357.26" y="275.32" width="5.64" height="13.34"/><path class="cls-4" d="M353.28,347.87h37.2a6.65,6.65,0,0,0,6.49-5.22l1.11-5h-53L347,343.3A6.65,6.65,0,0,0,353.28,347.87Z" transform="translate(-11.5 -66.12)"/><path class="cls-5" d="M353.28,347.87h37.2a6.65,6.65,0,0,0,6.49-5.22l1.11-5h-53L347,343.3A6.65,6.65,0,0,0,353.28,347.87Z" transform="translate(-11.5 -66.12)"/><path class="cls-8" d="M339.24,332.52h57.9a3.31,3.31,0,0,1,3.31,3.31v.76a5,5,0,0,1-5,5H340.9a5,5,0,0,1-5-5v-.76A3.31,3.31,0,0,1,339.24,332.52Z" transform="translate(724.89 607.96) rotate(180)"/><path class="cls-17" d="M339.24,332.52h57.9a3.31,3.31,0,0,1,3.31,3.31v.76a5,5,0,0,1-5,5H340.9a5,5,0,0,1-5-5v-.76A3.31,3.31,0,0,1,339.24,332.52Z" transform="translate(724.89 607.96) rotate(180)"/><path class="cls-8" d="M373.09,332.52h35.34a3.31,3.31,0,0,1,3.31,3.31v.76a5,5,0,0,1-5,5h-32a5,5,0,0,1-5-5v-.76A3.31,3.31,0,0,1,373.09,332.52Z" transform="translate(770.02 607.96) rotate(180)"/><polygon class="cls-18" points="304.98 331.48 301.65 347.52 294.56 346.56 296.02 329.92 304.98 331.48"/><path class="cls-4" d="M305.57,411.87l8.61.61a.56.56,0,0,1,.53.57h0l-.06,6.93a1.37,1.37,0,0,1-1.43,1.28c-3-.26-4.42-.54-8.21-.83A70.8,70.8,0,0,1,295,419.35c-3.19-.74-2.34-3.87-.94-3.84a20.68,20.68,0,0,0,10.2-3.33A2.15,2.15,0,0,1,305.57,411.87Z" transform="translate(-11.5 -66.12)"/><path class="cls-4" d="M301.35,412.52a1,1,0,0,1-.15-1,.66.66,0,0,1,.44-.49c1-.3,3,1.35,3.28,1.54a.29.29,0,0,1,.05.2.19.19,0,0,1-.15.12,8.89,8.89,0,0,1-2.06.13A2.07,2.07,0,0,1,301.35,412.52Zm.4-1.13a.36.36,0,0,0-.22.23.68.68,0,0,0,.08.66c.34.39,1.34.5,2.73.33-.85-.64-2.08-1.38-2.59-1.22Z" transform="translate(-11.5 -66.12)"/><path class="cls-4" d="M304.68,412.85c-.72-.5-1.75-2.21-1.53-3.05a.71.71,0,0,1,.69-.49.93.93,0,0,1,.75.3c.71.82.38,3.06.38,3.14a.19.19,0,0,1-.11.12,0,0,0,0,1-.07,0A.11.11,0,0,1,304.68,412.85Zm-.82-3.14c-.26,0-.36.13-.36.23a3.85,3.85,0,0,0,1.14,2.45,4,4,0,0,0-.33-2.49.45.45,0,0,0-.37-.19Z" transform="translate(-11.5 -66.12)"/><polygon class="cls-16" points="296.02 329.92 304.98 331.48 303.3 339.58 295.25 338.75 296.02 329.92"/><path class="cls-4" d="M376.18,292.41s-.92,15-4.92,15.69-54.91,11.08-58.58,23.08S306,403,306,403l10.19.92s14-50.76,13.33-64.26c0,0,44.5,0,59.34-8.16s7.7-37.32,7.7-37.32Z" transform="translate(-11.5 -66.12)"/><path class="cls-10" d="M376.18,292.41s-.92,15-4.92,15.69-54.91,11.08-58.58,23.08S306,403,306,403l10.19.92s14-50.76,13.33-64.26c0,0,44.5,0,59.34-8.16s7.7-37.32,7.7-37.32Z" transform="translate(-11.5 -66.12)"/><path class="cls-16" d="M330.77,339.67c1.87,0,5.68-.08,10.55-.28l6.4-4.94,37.5-7.56,1.42-12.07s-36.92,2.57-46.82,8.07C332.4,327,331,335.61,330.77,339.67Z" transform="translate(-11.5 -66.12)"/><polygon class="cls-18" points="328.85 334.63 325.54 350.93 318.42 350.21 319.84 333.39 328.85 334.63"/><path class="cls-4" d="M329.3,414.23l8.57.94a.55.55,0,0,1,.51.58h0l-.31,6.93a1.35,1.35,0,0,1-1.44,1.27h0c-3-.37-4.37-.71-8.18-1.15a69,69,0,0,1-10-1.4c-3.11-.86-2.19-3.95-.8-3.86,3.3.18,8-1.49,10.35-3A2.07,2.07,0,0,1,329.3,414.23Z" transform="translate(-11.5 -66.12)"/><path class="cls-4" d="M325.11,414.76a1,1,0,0,1-.13-1.07.7.7,0,0,1,.46-.47c1-.22,3,1.47,3.21,1.67a.19.19,0,0,1,0,.19.16.16,0,0,1-.15.12,9,9,0,0,1-2.07.06A2.08,2.08,0,0,1,325.11,414.76Zm.37-1.14a.28.28,0,0,0-.22.22.63.63,0,0,0,.08.66c.31.4,1.32.54,2.72.42-.84-.67-2-1.46-2.56-1.31Z" transform="translate(-11.5 -66.12)"/><path class="cls-4" d="M328.4,415.14c-.73-.51-1.7-2.25-1.44-3.08a.69.69,0,0,1,.71-.48,1,1,0,0,1,.73.33c.69.84.25,3.09.26,3.15a.22.22,0,0,1-.11.14h-.06A.1.1,0,0,1,328.4,415.14Zm-.73-3.1c-.25,0-.38.12-.37.23a3.89,3.89,0,0,0,1.07,2.48,4.15,4.15,0,0,0-.24-2.51.62.62,0,0,0-.37-.2Z" transform="translate(-11.5 -66.12)"/><polygon class="cls-16" points="328.71 335.27 327.41 341.69 319.27 340.19 319.84 333.41 328.71 335.27"/><path class="cls-18" d="M391.63,244.91c-8.13-1.07-1.81-3.79-1.81-3.79,5.52-1,5.85-5,5.36-8.77L405.29,225c-1.52,4.75-3.51,13.49-.53,16.83,0,0,2.05,4.32-10.62,3.37Z" transform="translate(-11.5 -66.12)"/><path class="cls-16" d="M401.17,228l-6,4.37a14.93,14.93,0,0,1,.14,2.66c2.09-.2,5.17-2.31,5.64-4.44A7.21,7.21,0,0,0,401.17,228Z" transform="translate(-11.5 -66.12)"/><path class="cls-18" d="M409.83,215.5c-1.81,7.7-2.41,11-7,14.51-6.91,5.3-15.93,1.92-16.45-6-.46-7.16,2.57-18.54,10.68-20.74A10.13,10.13,0,0,1,409.83,215.5Z" transform="translate(-11.5 -66.12)"/><path class="cls-4" d="M397.48,216.24c-.13.65-.57,1.14-1,1.09s-.65-.62-.53-1.27.56-1.14,1-1.09S397.6,215.59,397.48,216.24Z" transform="translate(-11.5 -66.12)"/><path class="cls-4" d="M389.57,215.42c-.12.65-.56,1.14-1,1.09s-.66-.62-.54-1.27.57-1.14,1-1.09S389.69,214.77,389.57,215.42Z" transform="translate(-11.5 -66.12)"/><path class="cls-4" d="M389.21,214.2l-1.45-.63S388.32,214.89,389.21,214.2Z" transform="translate(-11.5 -66.12)"/><path class="cls-19" d="M391.57,216.75a19.7,19.7,0,0,1-3.08,3.89,2.62,2.62,0,0,0,2.2.71Z" transform="translate(-11.5 -66.12)"/><path class="cls-4" d="M393.92,224.2a6.74,6.74,0,0,1-1.09,0,.19.19,0,0,1-.15-.22.21.21,0,0,1,.22-.17,5.53,5.53,0,0,0,4.53-1.52.18.18,0,0,1,.27,0,.2.2,0,0,1,0,.27A5.8,5.8,0,0,1,393.92,224.2Z" transform="translate(-11.5 -66.12)"/><path class="cls-4" d="M399.85,212.81a.34.34,0,0,1-.27-.13,2.82,2.82,0,0,0-2.46-1.07.36.36,0,0,1-.42-.33.43.43,0,0,1,.35-.44,3.56,3.56,0,0,1,3.14,1.33.39.39,0,0,1-.07.54A.37.37,0,0,1,399.85,212.81Z" transform="translate(-11.5 -66.12)"/><path class="cls-4" d="M388,211.57a.35.35,0,0,1-.26-.1.37.37,0,0,1,0-.54,4.07,4.07,0,0,1,3.35-1.32.36.36,0,0,1,.29.44.43.43,0,0,1-.47.32,3.23,3.23,0,0,0-2.64,1.07A.45.45,0,0,1,388,211.57Z" transform="translate(-11.5 -66.12)"/><path class="cls-4" d="M397.12,215l-1.45-.64S396.22,215.71,397.12,215Z" transform="translate(-11.5 -66.12)"/><path class="cls-18" d="M343.3,280l.44,0c.85-.06,2-.09,2.92-.2s2-.24,2.91-.42a19.51,19.51,0,0,0,5-1.58,10.12,10.12,0,0,0,1.86-1.14,7.76,7.76,0,0,0,.73-.66,3.51,3.51,0,0,0,.33-.34l.4-.43,2-2.18,2-2.22c2.59-3,5-6.06,7.37-9.2,1.17-1.56,2.3-3.15,3.41-4.74.55-.8,1.09-1.6,1.61-2.4s1.07-1.64,1.48-2.32l.07-.12a6.18,6.18,0,0,1,7.62-2.14c2.85,1.22,4,4.22,2.6,6.7-.6,1.05-1.1,1.91-1.69,2.81s-1.16,1.78-1.77,2.65c-1.18,1.75-2.45,3.44-3.76,5.11a114.63,114.63,0,0,1-8.49,9.61c-1.51,1.54-3.1,3-4.7,4.48-.17.17-.46.41-.75.65s-.57.45-.88.66a15.14,15.14,0,0,1-1.88,1.17,20.06,20.06,0,0,1-4,1.61,25.37,25.37,0,0,1-8.06.85,29.29,29.29,0,0,1-3.79-.45,27.7,27.7,0,0,1-3.72-.93,2.57,2.57,0,0,1-1.84-2.13A2.62,2.62,0,0,1,343.3,280Z" transform="translate(-11.5 -66.12)"/><path class="cls-4" d="M379.49,245.5s-2.31,0-11,14.91c0,0,3.57,8.72,12.86,9.17C381.32,269.58,399.5,244.5,379.49,245.5Z" transform="translate(-11.5 -66.12)"/><path class="cls-20" d="M376.94,250.2l4.82-1.16,5.66,3,1.13,2.82c-1.46,6.77-7.23,14.74-7.23,14.74a14,14,0,0,1-9.48-4.32A96.51,96.51,0,0,0,376.94,250.2Z" transform="translate(-11.5 -66.12)"/><path class="cls-18" d="M334.57,278.47l2.64-1.29a4,4,0,0,1,3.23-.1l4.81,2a5.88,5.88,0,0,1,3.67,4.17l.23,1.13c-4.21,2.4-10.8,2.29-10.8,2.29l-1.88.14a2.86,2.86,0,0,1-3.27-2.25l-.39-3.25A2.88,2.88,0,0,1,334.57,278.47Z" transform="translate(-11.5 -66.12)"/><path class="cls-4" d="M385.26,292.41s1.08,23-2.93,23.69-40.91,4.08-44.57,16.08S330.07,404,330.07,404l10.19,1.92s16-52.76,15.33-66.26c0,0,40.61,1.21,49.33-7.16s6.71-38.32,6.71-38.32Z" transform="translate(-11.5 -66.12)"/><path class="cls-10" d="M385.26,292.41s1.08,23-2.93,23.69-40.91,4.08-44.57,16.08S330.07,404,330.07,404l10.19,1.92s16-52.76,15.33-66.26c0,0,40.61,1.21,49.33-7.16s6.71-38.32,6.71-38.32Z" transform="translate(-11.5 -66.12)"/><path class="cls-4" d="M391.72,241c-.27.17-6.71,4.36,1.69,4.36s11.07-3.65,11.13-3.74c3,.45,6.38,1.09,10.11,2L411.91,300s-23.61,2.13-36.8-3.82c0,0-1.69-41.46,2.23-48C377.34,248.13,379.29,242,391.72,241Z" transform="translate(-11.5 -66.12)"/><path class="cls-20" d="M414.11,254,413,275.93c-4.7-15.59-4.55-23.64-4.55-23.64l1.25-2.94Z" transform="translate(-11.5 -66.12)"/><path class="cls-18" d="M441.52,257.67a2.43,2.43,0,0,0-2.49,1.06l0,.06c-1.18,1.71-2.36,3.5-3.59,5.2s-2.43,3.4-3.7,5c-.82,1-1.67,2-2.51,2.91a1.18,1.18,0,0,1-1.91-.31c-1.3-2.71-2.51-5.5-3.66-8.34-.82-2.08-1.64-4.18-2.41-6.29s-1.53-4.28-2.22-6.29l0-.11a5,5,0,0,0-6.63-3,5.12,5.12,0,0,0-2.84,6.19c.69,2.35,1.47,4.49,2.28,6.71s1.76,4.46,2.75,6.65,2.05,4.37,3.19,6.51,2.39,4.26,3.72,6.33l.17.27a3.74,3.74,0,0,0,.41.5,7.37,7.37,0,0,0,1.76,1.33,6.49,6.49,0,0,0,2.41.73,7.11,7.11,0,0,0,3.9-.74,13.07,13.07,0,0,0,3.71-3,35.13,35.13,0,0,0,4.16-5.91c1.13-2,2.13-4,3.05-6s1.73-4.06,2.46-6.21A2.52,2.52,0,0,0,441.52,257.67Z" transform="translate(-11.5 -66.12)"/><path class="cls-4" d="M428.41,263.49A22,22,0,0,1,413,269.82s-10.1-23.88-1.3-26.37C420,241.1,428.41,263.49,428.41,263.49Z" transform="translate(-11.5 -66.12)"/><path class="cls-18" d="M439.91,250.36,438,252.15a3,3,0,0,0-1,2.64l.58,4.6a5.71,5.71,0,0,0,3,4.33l1,.54c3.42-2.75,5.09-8.23,5.09-8.23l.66-1.51a2.57,2.57,0,0,0-1.27-3.41l-3-1.33A2.93,2.93,0,0,0,439.91,250.36Z" transform="translate(-11.5 -66.12)"/><path class="cls-8" d="M392.92,309.19l-56.57,5.31a1.54,1.54,0,1,0,.29,3.07l56.57-5.31a1.54,1.54,0,0,0-.29-3.07Z" transform="translate(-11.5 -66.12)"/><path class="cls-8" d="M337.39,316.55l26.15-2.45a.73.73,0,0,0,.59-1l-13.36-29.13a2.09,2.09,0,0,0-2.09-1.2l-26.15,2.46a.72.72,0,0,0-.59,1l13.36,29.12A2.07,2.07,0,0,0,337.39,316.55Z" transform="translate(-11.5 -66.12)"/><path class="cls-8" d="M336.46,316.64l26.15-2.45a.73.73,0,0,0,.6-1L349.84,284a2.08,2.08,0,0,0-2.08-1.2l-26.16,2.45a.73.73,0,0,0-.59,1l13.37,29.13A2.07,2.07,0,0,0,336.46,316.64Z" transform="translate(-11.5 -66.12)"/><path class="cls-21" d="M336.46,316.64l26.15-2.45a.73.73,0,0,0,.6-1L349.84,284a2.08,2.08,0,0,0-2.08-1.2l-26.16,2.45a.73.73,0,0,0-.59,1l13.37,29.13A2.07,2.07,0,0,0,336.46,316.64Z" transform="translate(-11.5 -66.12)"/><path class="cls-21" d="M366.1,314.81a1.54,1.54,0,1,1-.29-3.07l27.11-2.55a1.54,1.54,0,0,1,.29,3.07Z" transform="translate(-11.5 -66.12)"/><rect class="cls-20" x="370.54" y="312.38" width="2.2" height="0.72" transform="translate(759.38 523.27) rotate(174.64)"/><rect class="cls-20" x="367.18" y="312.69" width="2.2" height="0.72" transform="translate(752.69 524.22) rotate(174.64)"/><path class="cls-4" d="M407.43,221.37a10.2,10.2,0,0,1-2.7-11.78,16.89,16.89,0,0,0-6.52-1.49c-5,0-10.72,1.06-9.19-2.76,0,0-5.31-6.75,3.73-7.71,0,0-.46-8.51,6.84-3,0,0,6.07-7.22,9.09,2.56,0,0,9.13-4.77,6.75,7,0,0,6.46.12,2.38,7.65,0,0,3.38,4.59-3.33,8.62,0,0,.54,6.55-4.35,5.37,0,0-5.61,7.86-6.38,4.2C403.05,226.6,407.43,221.37,407.43,221.37Z" transform="translate(-11.5 -66.12)"/><path class="cls-18" d="M410.25,223a5.42,5.42,0,0,1-3.43,2.74c-1.83.4-2.52-1.71-1.83-3.75.63-1.83,2.33-4.25,4.08-3.73S411.24,221.24,410.25,223Z" transform="translate(-11.5 -66.12)"/><polygon class="cls-8" points="394.84 158.84 392.94 162.31 397.27 162.31 395.36 158.84 394.84 158.84"/><polygon class="cls-16" points="394.84 158.84 392.94 162.31 397.27 162.31 395.36 158.84 394.84 158.84"/><polygon class="cls-8" points="392.94 162.31 394.84 158.84 396.75 162.31 392.94 162.31"/><polygon class="cls-4" points="293.82 337.35 304.96 338.52 305.84 335.35 293.82 334.02 293.82 337.35"/><polygon class="cls-4" points="318.01 338.52 329.06 340.4 330.13 337.29 318.22 335.19 318.01 338.52"/><path class="cls-4" d="M317.83,237.39c-19.17,0-36.13-15.59-37.81-34.76s12.56-34.76,31.72-34.76,36.13,15.59,37.81,34.76S337,237.39,317.83,237.39Z" transform="translate(-11.5 -66.12)"/><path class="cls-8" d="M319.5,236.56c-19.17,0-36.13-15.6-37.81-34.76S294.25,167,313.42,167s36.12,15.6,37.8,34.77S338.67,236.56,319.5,236.56Z" transform="translate(-11.5 -66.12)"/><g class="cls-22"><path class="cls-7" d="M319.5,236.56c-19.17,0-36.13-15.6-37.81-34.76S294.25,167,313.42,167s36.12,15.6,37.8,34.77S338.67,236.56,319.5,236.56Z" transform="translate(-11.5 -66.12)"/></g><path class="cls-8" d="M319.5,236.56c-19.17,0-36.13-15.6-37.81-34.76S294.25,167,313.42,167s36.12,15.6,37.8,34.77S338.67,236.56,319.5,236.56ZM314,173.72c-15.48,0-27,12.6-25.62,28.08s15.05,28.07,30.53,28.07,27-12.59,25.62-28.07S329.48,173.72,314,173.72Z" transform="translate(-11.5 -66.12)"/><path class="cls-8" d="M318.38,223.82a24.56,24.56,0,0,1-23.95-22,19.89,19.89,0,0,1,20.1-22,24.55,24.55,0,0,1,24,22A19.88,19.88,0,0,1,318.38,223.82Zm-3.27-37.36a13.84,13.84,0,0,0-14,15.34,17.09,17.09,0,0,0,16.68,15.33,13.84,13.84,0,0,0,14-15.33A17.09,17.09,0,0,0,315.11,186.46Z" transform="translate(-11.5 -66.12)"/><path class="cls-8" d="M325.15,201.8a7.84,7.84,0,0,1-7.93,8.69,9.68,9.68,0,0,1-9.46-8.69,7.84,7.84,0,0,1,7.94-8.7A9.67,9.67,0,0,1,325.15,201.8Z" transform="translate(-11.5 -66.12)"/><polygon class="cls-4" points="329.35 111.37 327.65 104.76 334.55 97.87 336.24 104.48 329.35 111.37"/><polygon class="cls-4" points="329.35 111.37 335.96 113.06 342.85 106.17 336.24 104.48 329.35 111.37"/><rect class="cls-4" x="328.71" y="168.68" width="1.88" height="40.02" transform="translate(218.47 -243.95) rotate(45)"/></svg>