<?xml version="1.0" encoding="UTF-8"?>
<svg id="Layer_1" data-name="Layer 1" xmlns="http://www.w3.org/2000/svg" viewBox="0 0 500 421.96">
  <defs>
    <style>
      .cls-1 {
        fill: #f0f0f0;
      }

      .cls-2, .cls-3, .cls-4, .cls-5, .cls-6, .cls-7, .cls-8 {
        fill: #fff;
      }

      .cls-9 {
        fill: #b94d3c;
      }

      .cls-10 {
        fill: #f5f5f5;
      }

      .cls-3, .cls-4, .cls-11, .cls-12 {
        opacity: .3;
      }

      .cls-13 {
        fill: #ff8038;
      }

      .cls-4, .cls-6, .cls-7, .cls-14, .cls-15 {
        isolation: isolate;
      }

      .cls-16, .cls-14, .cls-17 {
        opacity: .2;
      }

      .cls-18 {
        stroke-miterlimit: 10;
      }

      .cls-18, .cls-7, .cls-15 {
        opacity: .1;
      }

      .cls-18, .cls-12, .cls-17 {
        fill: none;
        stroke: #000;
      }

      .cls-18, .cls-17 {
        stroke-width: .5px;
      }

      .cls-5, .cls-6 {
        opacity: .5;
      }

      .cls-19 {
        fill: #e1e1e1;
      }

      .cls-8 {
        opacity: .7;
      }

      .cls-20 {
        fill: #e7e7e7;
      }

      .cls-21 {
        fill: #007cff;
      }

      .cls-22 {
        fill: #cd7a63;
      }

      .cls-23 {
        fill: #ffae6a;
      }

      .cls-24 {
        fill: #ececec;
      }

      .cls-25 {
        fill: #ff4f4d;
      }

      .cls-26 {
        fill: #1a2e35;
      }

      .cls-12 {
        stroke-width: .25px;
      }

      .cls-12, .cls-17 {
        stroke-linecap: round;
        stroke-linejoin: round;
      }
    </style>
  </defs>
  <g>
    <g>
      <g>
        <path class="cls-19" d="m443.92,275h-180.75c-3.23,0-5.86-2.63-5.86-5.86V5.86c0-3.23,2.63-5.86,5.86-5.86h180.75c3.23,0,5.86,2.63,5.86,5.86v263.27c0,3.23-2.63,5.86-5.86,5.86ZM263.17.25c-3.09,0-5.61,2.52-5.61,5.61v263.27c0,3.09,2.52,5.61,5.61,5.61h180.75c3.09,0,5.61-2.52,5.61-5.61V5.86c0-3.09-2.52-5.61-5.61-5.61h-180.75Z"/>
        <path class="cls-19" d="m235.49,275H54.75c-3.23,0-5.86-2.63-5.86-5.86V5.86c0-3.23,2.63-5.86,5.86-5.86h180.75c3.23,0,5.86,2.63,5.86,5.86v263.27c0,3.23-2.63,5.86-5.86,5.86ZM54.75.25c-3.09,0-5.61,2.52-5.61,5.61v263.27c0,3.09,2.52,5.61,5.61,5.61h180.75c3.09,0,5.61-2.52,5.61-5.61V5.86c0-3.09-2.52-5.61-5.61-5.61H54.75Z"/>
      </g>
      <rect class="cls-19" y="336.07" width="500" height=".25"/>
    </g>
    <rect class="cls-19" x="51.67" y="350.33" width="16.06" height=".25"/>
    <rect class="cls-19" x="170.35" y="347.62" width="53.53" height=".25"/>
    <rect class="cls-19" x="68.73" y="359.62" width="36.25" height=".25"/>
    <rect class="cls-19" x="378.35" y="347.49" width="43.19" height=".25"/>
    <rect class="cls-19" x="430.45" y="347.49" width="6.33" height=".25"/>
    <rect class="cls-19" x="316.21" y="353.72" width="53.89" height=".25"/>
  </g>
  <g>
    <g>
      <path class="cls-19" d="m409.8,394.21c-.01-.39-1.33-39.27-7.65-45.42-6.15-5.98-13.21-.22-13.51.02l-.63-.76c.08-.07,8.05-6.57,14.83.03,6.61,6.43,7.9,44.48,7.95,46.1l-.99.03Z"/>
      <path class="cls-19" d="m410.34,401.85c-.05-.46-4.32-46.67,12.55-66.04l.75.65c-16.6,19.05-12.36,64.84-12.31,65.3l-.98.1Z"/>
      <path class="cls-19" d="m409.72,396.97l-.99-.07c.03-.52,3.3-52.53-9.08-63.92l.67-.73c12.73,11.71,9.54,62.55,9.39,64.71Z"/>
      <path class="cls-19" d="m411.33,396.94h-.99c.01-1.44.41-35.14,9.98-40.62,2.13-1.22,4.21-1.42,6.19-.6,5.79,2.39,8.66,12.7,8.78,13.13l-.95.26c-.03-.1-2.86-10.27-8.2-12.48-1.68-.69-3.47-.51-5.32.55-9.08,5.21-9.48,39.42-9.48,39.77Z"/>
      <path class="cls-19" d="m407.6,396.96l-.99-.06c.01-.27,1.44-26.63-5.67-35.92-1.72-2.25-3.6-3.32-5.57-3.18-4.66.33-8.57,7.15-8.61,7.22l-.86-.49c.17-.3,4.21-7.35,9.4-7.72,2.32-.17,4.49,1.04,6.43,3.57,7.34,9.58,5.94,35.48,5.87,36.58Z"/>
      <path class="cls-19" d="m409.16,400.55c-.19-2.56-4.65-62.75,3.19-73.36l.8.59c-7.63,10.31-3.05,72.08-3,72.7l-.99.08Z"/>
    </g>
    <path class="cls-24" d="m428.65,361.81s-4.7,1.73-3.31,5.83c1.4,4.1,16.28,10.83,16.28,10.83,0,0,6.23-5.71.51-15-5.72-9.29-13.35-4.59-13.48-1.66Z"/>
    <path class="cls-24" d="m408.19,354.01s5.01-.21,5.29,4.11c.28,4.32-10.85,16.26-10.85,16.26,0,0-7.95-2.87-6.24-13.65,1.71-10.77,10.56-9.38,11.8-6.72Z"/>
    <path class="cls-24" d="m403.95,333.35s3.34-.36,3.07-2.39c-.27-2.03-12.99-7.27-20.49,1.2,0,0,4.8,8.25,11.75,8.36,6.94.11,5.67-7.16,5.67-7.16Z"/>
    <path class="cls-24" d="m410.17,328.4s-3.02,1.46-3.87-.41c-.85-1.87,7.17-13.04,18.02-9.82,0,0,.29,9.54-5.55,13.31-5.84,3.76-8.6-3.08-8.6-3.08Z"/>
    <path class="cls-24" d="m394.36,360.16s2.31-1.86-.18-2.77c-2.49-.91-14.7-.65-14.82,11.44,0,0,14.22,2.36,15.98-2.24,1.76-4.61-.97-6.43-.97-6.43Z"/>
    <path class="cls-24" d="m423.35,333.04s-2.31-1.86.18-2.77c2.49-.91,14.7-.65,14.82,11.44,0,0-14.22,2.36-15.98-2.24-1.76-4.61.97-6.43.97-6.43Z"/>
    <path class="cls-24" d="m415.84,342.78s-.2-2.26,1.62-1.38,8.19,7.75,1.59,14.27c0,0-8.88-6.58-7.28-10,1.6-3.42,4.06-2.89,4.06-2.89Z"/>
    <path class="cls-24" d="m392.3,346.01s1.38-1.81-.64-2.03c-2.02-.22-11.06,2.19-8.96,11.22,0,0,11.02-.83,11.49-4.58.47-3.75-1.89-4.61-1.89-4.61Z"/>
    <polygon class="cls-1" points="420.59 414.38 398.37 414.38 392.45 387.11 425.94 387.11 420.59 414.38"/>
    <rect class="cls-20" x="390.44" y="386.72" width="37.43" height="7.84"/>
  </g>
  <g>
    <g>
      <path class="cls-19" d="m61.2,394.21c-.01-.39-1.33-39.27-7.65-45.42-6.15-5.98-13.21-.22-13.51.02l-.63-.76c.08-.07,8.05-6.57,14.83.03,6.61,6.43,7.9,44.48,7.95,46.1l-.99.03Z"/>
      <path class="cls-19" d="m61.74,401.85c-.05-.46-4.32-46.67,12.55-66.04l.75.65c-16.6,19.05-12.36,64.84-12.31,65.3l-.99.1Z"/>
      <path class="cls-19" d="m61.11,396.97l-.99-.07c.03-.52,3.3-52.53-9.08-63.92l.67-.73c12.73,11.71,9.54,62.55,9.39,64.71Z"/>
      <path class="cls-19" d="m62.73,396.94h-.99c.01-1.44.41-35.14,9.98-40.62,2.13-1.22,4.21-1.42,6.19-.6,5.79,2.39,8.66,12.7,8.78,13.13l-.95.26c-.03-.1-2.86-10.27-8.2-12.48-1.68-.69-3.47-.51-5.32.55-9.08,5.21-9.48,39.42-9.48,39.77Z"/>
      <path class="cls-19" d="m59,396.96l-.99-.06c.01-.27,1.44-26.63-5.67-35.92-1.72-2.25-3.6-3.32-5.57-3.18-4.66.33-8.57,7.15-8.61,7.22l-.86-.49c.17-.3,4.21-7.35,9.4-7.72,2.32-.17,4.49,1.04,6.43,3.57,7.34,9.58,5.94,35.48,5.87,36.58Z"/>
      <path class="cls-19" d="m60.56,400.55c-.19-2.56-4.65-62.75,3.19-73.36l.8.59c-7.63,10.31-3.05,72.08-3,72.7l-.99.08Z"/>
    </g>
    <path class="cls-24" d="m80.04,361.81s-4.7,1.73-3.31,5.83c1.4,4.1,16.28,10.83,16.28,10.83,0,0,6.23-5.71.51-15-5.72-9.29-13.35-4.59-13.48-1.66Z"/>
    <path class="cls-24" d="m59.59,354.01s5.01-.21,5.3,4.11c.28,4.32-10.85,16.26-10.85,16.26,0,0-7.95-2.87-6.24-13.65,1.71-10.77,10.56-9.38,11.8-6.72Z"/>
    <path class="cls-24" d="m55.35,333.35s3.34-.36,3.07-2.39c-.27-2.03-12.99-7.27-20.49,1.2,0,0,4.8,8.25,11.75,8.36,6.94.11,5.67-7.16,5.67-7.16Z"/>
    <path class="cls-24" d="m61.57,328.4s-3.02,1.46-3.87-.41c-.85-1.87,7.17-13.04,18.02-9.82,0,0,.29,9.54-5.55,13.31-5.84,3.76-8.6-3.08-8.6-3.08Z"/>
    <path class="cls-24" d="m45.76,360.16s2.31-1.86-.18-2.77-14.7-.65-14.82,11.44c0,0,14.22,2.36,15.98-2.24,1.76-4.61-.97-6.43-.97-6.43Z"/>
    <path class="cls-24" d="m74.75,333.04s-2.31-1.86.18-2.77c2.49-.91,14.7-.65,14.82,11.44,0,0-14.22,2.36-15.98-2.24-1.76-4.61.97-6.43.97-6.43Z"/>
    <path class="cls-24" d="m67.23,342.78s-.2-2.26,1.62-1.38c1.83.89,8.19,7.75,1.59,14.27,0,0-8.88-6.58-7.28-10,1.6-3.42,4.06-2.89,4.06-2.89Z"/>
    <path class="cls-24" d="m43.69,346.01s1.38-1.81-.64-2.03c-2.02-.22-11.06,2.19-8.96,11.22,0,0,11.02-.83,11.49-4.58.47-3.75-1.89-4.61-1.89-4.61Z"/>
    <polygon class="cls-1" points="71.99 414.38 49.76 414.38 43.85 387.11 77.34 387.11 71.99 414.38"/>
    <rect class="cls-20" x="41.83" y="386.72" width="37.43" height="7.84"/>
  </g>
  <path class="cls-24" d="m362.24,75.22c-1.11-5.36-3.23-10.34-6.14-14.76l5.29-6.38-11.3-11.3-6.38,5.28c-4.42-2.9-9.4-5.03-14.76-6.14l-.78-8.23h-15.98l-.78,8.23c-5.36,1.11-10.34,3.23-14.76,6.14l-6.38-5.28-11.3,11.3,5.28,6.38c-2.9,4.42-5.03,9.4-6.14,14.76l-8.23.78v15.98l8.23.78c1.11,5.36,3.23,10.34,6.14,14.76l-5.28,6.38,11.3,11.3,6.38-5.29c4.42,2.9,9.4,5.03,14.76,6.14l.78,8.23h15.98l.78-8.23c5.36-1.11,10.34-3.23,14.76-6.14l6.38,5.29,11.3-11.3-5.29-6.38c2.9-4.42,5.03-9.4,6.14-14.76l8.23-.78v-15.98l-8.23-.78Zm-20.43,8.76c0,11.95-9.69,21.63-21.63,21.63s-21.63-9.69-21.63-21.63,9.69-21.63,21.63-21.63,21.63,9.69,21.63,21.63Z"/>
  <path class="cls-24" d="m133.45,187.23c-.96-4.62-2.79-8.92-5.29-12.74l4.56-5.51-9.75-9.75-5.51,4.56c-3.82-2.5-8.11-4.34-12.74-5.29l-.67-7.1h-13.79l-.67,7.1c-4.62.96-8.92,2.79-12.73,5.29l-5.51-4.56-9.75,9.75,4.56,5.51c-2.5,3.82-4.34,8.11-5.29,12.74l-7.1.67v13.79l7.1.67c.96,4.62,2.79,8.92,5.29,12.73l-4.56,5.51,9.75,9.75,5.51-4.56c3.82,2.51,8.11,4.34,12.73,5.29l.67,7.1h13.79l.67-7.1c4.62-.96,8.92-2.79,12.74-5.3l5.51,4.56,9.75-9.75-4.56-5.51c2.5-3.82,4.34-8.11,5.29-12.74l7.1-.67v-13.79l-7.1-.67Zm-17.62,7.56c0,10.31-8.36,18.67-18.67,18.67s-18.67-8.36-18.67-18.67,8.36-18.67,18.67-18.67,18.67,8.36,18.67,18.67Z"/>
  <path class="cls-24" d="m436.63,223.85c-.86-4.15-2.51-8.01-4.76-11.44l4.1-4.95-8.76-8.76-4.95,4.1c-3.43-2.25-7.29-3.89-11.44-4.75l-.6-6.38h-12.38l-.6,6.38c-4.15.86-8.01,2.51-11.44,4.75l-4.95-4.1-8.76,8.76,4.1,4.95c-2.25,3.43-3.89,7.29-4.76,11.44l-6.38.6v12.38l6.38.6c.86,4.15,2.51,8.01,4.76,11.44l-4.1,4.95,8.76,8.76,4.95-4.1c3.43,2.25,7.29,3.89,11.44,4.76l.6,6.38h12.38l.6-6.38c4.15-.86,8.01-2.51,11.44-4.76l4.95,4.1,8.76-8.76-4.1-4.95c2.25-3.43,3.89-7.29,4.76-11.44l6.38-.6v-12.38l-6.38-.6Zm-15.83,6.79c0,9.26-7.51,16.76-16.76,16.76s-16.76-7.51-16.76-16.76,7.51-16.76,16.76-16.76,16.76,7.51,16.76,16.76Z"/>
  <path class="cls-1" d="m233.17,217.19c-.85-4.09-2.47-7.89-4.69-11.27l4.04-4.88-8.63-8.63-4.88,4.04c-3.38-2.22-7.18-3.84-11.27-4.69l-.59-6.28h-12.2l-.59,6.28c-4.09.85-7.89,2.47-11.27,4.69l-4.88-4.04-8.63,8.63,4.04,4.88c-2.22,3.38-3.84,7.18-4.69,11.27l-6.28.59v12.2l6.28.59c.85,4.09,2.47,7.89,4.69,11.27l-4.04,4.88,8.63,8.63,4.88-4.04c3.38,2.22,7.18,3.84,11.27,4.69l.59,6.28h12.2l.59-6.28c4.09-.85,7.89-2.47,11.27-4.69l4.88,4.04,8.63-8.63-4.04-4.88c2.22-3.38,3.84-7.18,4.69-11.27l6.28-.59v-12.2l-6.28-.59Zm-15.6,6.69c0,9.12-7.4,16.52-16.52,16.52s-16.52-7.4-16.52-16.52,7.4-16.52,16.52-16.52,16.52,7.4,16.52,16.52Z"/>
  <path class="cls-1" d="m217.11,153.41c-.4-1.92-1.16-3.71-2.2-5.3l1.9-2.29-4.05-4.06-2.29,1.9c-1.59-1.04-3.37-1.8-5.3-2.2l-.28-2.95h-5.73l-.28,2.95c-1.92.4-3.71,1.16-5.3,2.2l-2.29-1.9-4.05,4.06,1.9,2.29c-1.04,1.59-1.8,3.37-2.2,5.3l-2.95.28v5.73l2.95.28c.4,1.92,1.16,3.71,2.2,5.3l-1.9,2.29,4.05,4.05,2.29-1.9c1.59,1.04,3.37,1.8,5.3,2.2l.28,2.95h5.73l.28-2.95c1.92-.4,3.71-1.16,5.3-2.2l2.29,1.9,4.05-4.05-1.9-2.29c1.04-1.59,1.8-3.37,2.2-5.3l2.95-.28v-5.73l-2.95-.28Zm-7.33,3.15c0,4.29-3.48,7.76-7.76,7.76s-7.76-3.48-7.76-7.76,3.48-7.76,7.76-7.76,7.76,3.48,7.76,7.76Z"/>
  <path class="cls-1" d="m281.33,16.95c-.45-2.18-1.31-4.2-2.49-6l2.15-2.59-4.59-4.59-2.59,2.15c-1.8-1.18-3.82-2.04-5.99-2.49l-.31-3.34h-6.49l-.31,3.34c-2.18.45-4.2,1.31-5.99,2.49l-2.59-2.15-4.59,4.59,2.15,2.59c-1.18,1.8-2.04,3.82-2.49,5.99l-3.34.32v6.49l3.34.32c.45,2.18,1.31,4.2,2.49,5.99l-2.15,2.59,4.59,4.59,2.59-2.15c1.8,1.18,3.82,2.04,5.99,2.49l.31,3.34h6.49l.31-3.34c2.18-.45,4.2-1.31,5.99-2.49l2.59,2.15,4.59-4.59-2.15-2.59c1.18-1.8,2.04-3.82,2.49-5.99l3.34-.32v-6.49l-3.34-.32Zm-8.3,3.56c0,4.85-3.93,8.79-8.79,8.79s-8.79-3.93-8.79-8.79,3.93-8.79,8.79-8.79,8.79,3.93,8.79,8.79Z"/>
  <path class="cls-1" d="m410.85,62.86c-.34-1.65-1-3.19-1.9-4.56l1.63-1.97-3.49-3.49-1.97,1.63c-1.37-.9-2.9-1.55-4.56-1.9l-.24-2.54h-4.94l-.24,2.54c-1.65.34-3.19,1-4.56,1.9l-1.97-1.63-3.49,3.49,1.63,1.97c-.9,1.37-1.55,2.9-1.9,4.56l-2.54.24v4.94l2.54.24c.34,1.65,1,3.19,1.9,4.56l-1.63,1.97,3.49,3.49,1.97-1.63c1.37.9,2.9,1.55,4.56,1.9l.24,2.54h4.94l.24-2.54c1.65-.34,3.19-1,4.56-1.9l1.97,1.63,3.49-3.49-1.63-1.97c.9-1.37,1.55-2.9,1.9-4.56l2.54-.24v-4.94l-2.54-.24Zm-6.31,2.71c0,3.69-2.99,6.68-6.68,6.68s-6.68-2.99-6.68-6.68,2.99-6.68,6.68-6.68,6.68,2.99,6.68,6.68Z"/>
  <path class="cls-10" d="m464.65,415.83c0,3.39-93.52,6.13-208.87,6.13s-208.87-2.75-208.87-6.13,93.52-6.13,208.87-6.13,208.87,2.75,208.87,6.13Z"/>
  <g>
    <path class="cls-21" d="m408.34,107.4h-33.68c-3.45,0-6.24,2.8-6.24,6.24v24.39c0,3.45,2.8,6.24,6.24,6.24h4.23v7.59l6.17-7.59h23.27c3.45,0,6.24-2.8,6.24-6.24v-24.39c0-3.45-2.8-6.24-6.24-6.24Z"/>
    <path class="cls-2" d="m383.15,122.32c1.95-.3,3.6,1.36,3.31,3.31-.19,1.21-1.18,2.21-2.39,2.39-1.95.3-3.61-1.36-3.31-3.31.19-1.21,1.18-2.21,2.39-2.39Zm6.38,2.39c-.3,1.95,1.36,3.61,3.31,3.31,1.21-.19,2.21-1.18,2.39-2.39.3-1.95-1.36-3.6-3.31-3.31-1.21.19-2.21,1.18-2.39,2.39Zm8.77,0c-.3,1.95,1.36,3.61,3.31,3.31,1.21-.19,2.21-1.18,2.39-2.39.3-1.95-1.36-3.6-3.31-3.31-1.21.19-2.21,1.18-2.39,2.39Z"/>
    <path class="cls-21" d="m375.17,106.07h21.98c.48,0,.48-.75,0-.75h-21.98c-.48,0-.48.75,0,.75h0Z"/>
  </g>
  <g>
    <g>
      <path class="cls-22" d="m303.66,226.57c.18-.03,7.51,3.67,7.51,3.67l3.52-8.53-5.92.04s-5.4,4.7-5.25,4.76"/>
      <g>
        <path class="cls-22" d="m309.07,221.85s-.11-2.74-1.8-4.25c-1.68-1.51-2.62-3.17-3.95-4.21-1.33-1.04-.89,1.19-.41,2.34.47,1.14,1,2.44.09,2.66-.91.22-8.67-2.07-9.91-1.62-1.23.45-.09,1.21-.09,1.21,0,0-1.74-.5-2.3.19-.56.69.44,1.34.44,1.34,0,0-1.18-.29-1.29.56-.11.86,5.84,3.68,6.04,3.96,0,0-2.99-2.29-3.84-1.56-.85.73,1.24,2.04,2.88,3.13,1.64,1.08,3.72,1.71,5.71,1.47,1.99-.24,5.46.41,6.69-1.56,1.23-1.97,1.76-3.64,1.76-3.64Z"/>
        <g class="cls-16">
          <path d="m291.33,219.75c1.99.58,3.95,1.23,5.88,1.95-.17.51-.3,1.03-.4,1.57-.04.27.37.23.42-.03.29-1.61.96-3.16,1.96-4.59.16-.23-.18-.4-.34-.17-.25.36-.47.71-.68,1.08-.01-.04-.04-.06-.08-.07-1.46-.67-3.01-1.17-4.64-1.48-.25-.04-.4.35-.14.4,1.59.31,3.11.79,4.53,1.45.06.02-.21.6-.16.58-.26.48-.16.38-.35.87-1.93-.72-3.88-1.37-5.88-1.95-.24-.07-.38.32-.14.39Z"/>
        </g>
        <g class="cls-16">
          <path d="m299.66,221.16c2.4-.55,4.56.33,5.62,2.23.12.22.5,0,.38-.22-1.14-2.07-3.48-2.98-6.06-2.4-.27.07-.19.44.07.38Z"/>
        </g>
      </g>
      <path class="cls-21" d="m342.69,196.9c-.42,0-.85.09-1.22.3-3.48,1.92-5.09,5.08-6.2,8.92-2.38,8.23-4.77,18.32-4.77,18.32,0,0-16.4-3.77-20.17-4.32l-3.13,8.74s21.65,10.11,23.78,10.68c6.28,1.67,9.51-9.19,9.51-9.19l2.2-33.46h0Z"/>
      <path class="cls-11" d="m335.48,238.54l-1.99-17.81v18.98s1.28-.66,1.99-1.17Z"/>
    </g>
    <g>
      <path class="cls-26" d="m376.12,189.72c.77-7.21-4.48-5.44-3.8-14.66.76-10.16-8.9-12.7-8.9-12.7,0,0-3.34-4.46-7.97-5.71-5.93-1.6-21.07,2.31-17.6,15.14,2.07,7.65.8,7.34-.35,10.54-1.63,4.53,2.29,10.74-2.03,13.49,0,0,16.57-.34,34.28.68,0,0,5.87-2.38,6.35-6.78Z"/>
      <path class="cls-22" d="m362.87,196.16s-2.96,1.45-6.6,4.59c-.76.65-1.59,1.22-2.48,1.69-2.39,1.27-4.56,1.99-5.15.84-.13-.25-.23-.53-.31-.81-.5-1.93-.3-4.64,1.26-5.88,1.76-1.4,2.6-2.6,2.29-4.49-.17-1.07-.55-2.18-1.01-3.26l2.03-1.22,7.23-7.3c-.83,4.47-1.07,13.18,2.74,15.83Z"/>
      <path class="cls-16" d="m351.94,192.52c1.99-1.18,4.17-3.23,3.91-5.57-.12-.99-.33-1.92-.56-2.52l-4.04,5.35c.33.86.45,1.43.7,2.74Z"/>
      <path class="cls-22" d="m361.54,172.11c-.68,7.43-.81,10.58-4.65,14.48-5.77,5.86-14.64,3.89-16.17-3.48-1.37-6.63-.03-17.67,7.26-20.79,7.19-3.08,14.23,2.36,13.55,9.79Z"/>
      <path class="cls-26" d="m353.46,171.79c-.09.01-.19-.02-.26-.08-1.14-1.06-2.43-.69-2.45-.68-.19.06-.38-.05-.43-.25-.04-.19.08-.4.27-.46.07-.02,1.69-.49,3.11.83.14.13.14.36,0,.52-.07.07-.15.12-.24.13Z"/>
      <path class="cls-26" d="m342.12,170.77c-.07-.03-.14-.08-.17-.16-.07-.17.01-.38.18-.48,1.7-.95,2.96-.23,3.01-.2.15.09.19.3.08.47-.1.17-.31.24-.46.15-.05-.03-1.03-.58-2.39.18-.09.05-.18.06-.26.03Z"/>
      <path class="cls-9" d="m346.58,174.14s-1.16,2.78-2.47,4.52c-.23.3-.09.75.27.88.92.34,1.99.03,1.99.03l.21-5.42Z"/>
      <g>
        <path class="cls-26" d="m350.73,174.75c-.04.79-.46,1.43-.95,1.44-.49.01-.85-.62-.82-1.41.04-.79.46-1.43.95-1.44.49-.01.85.62.82,1.41Z"/>
        <path class="cls-26" d="m350.13,173.38l-1.71-.4s.93,1.27,1.71.4Z"/>
      </g>
      <g>
        <path class="cls-26" d="m343.81,174.72c-.04.76-.46,1.39-.95,1.4-.49.01-.85-.6-.82-1.36.04-.76.46-1.39.95-1.4s.85.6.82,1.36Z"/>
        <path class="cls-26" d="m343.17,173.38l-1.71-.4s.93,1.27,1.71.4Z"/>
      </g>
      <path class="cls-26" d="m358.96,174.67s-3.83-5.77-3.64-10.44c0,0-7.34-1.91-13.19,5.9-.93,1.24-1.49,3.32-2.32,5.11,0,0-1.4-14.14,11.15-15.3,12.53-1.16,14.99,16.45,8.88,22.38,0,0,1.5-4.04-.88-7.66Z"/>
      <g>
        <path class="cls-22" d="m363.78,178.16c-.88,1.52-2.3,2.48-3.61,2.81-1.97.49-2.98-2.67-2.31-4.64.6-1.77,2.54-2.95,4.45-2.56,1.89.38,2.47,2.65,1.47,4.39Z"/>
        <path class="cls-17" d="m359.63,177.77c.05-.7.38-1.38.91-1.85.53-.47,1.25-.71,1.95-.66"/>
      </g>
      <g>
        <path class="cls-26" d="m347.66,181.17c.69-.31,2.03-1.21,2.99-1.45.56-.14,1.08.37,1.09.94h0c0,.07,0,.13-.01.2-.16.88-.84,1.86-2.77,2.64-.15.06-.29.12-.44.17,0,0-.88-1.48-1.53-2.21,0,0,.27-.1.68-.28Z"/>
        <path class="cls-2" d="m347,181.44l.47.64c1.88-.76,3.1-1.55,3.46-2.35-.24-.26-2.48,1.04-2.48,1.04-.32.2-.46.24-1.44.68Z"/>
        <path class="cls-25" d="m348.96,183.5c2-.8,2.66-1.83,2.78-2.73-.67.3-1.44.74-2.04,1.33-.46.45-.66.95-.74,1.4Z"/>
      </g>
    </g>
    <g>
      <path class="cls-2" d="m367.85,245.26c.67-7.64,3.38-21.63,8.05-36.33,1.52-4.78-3.55-10.57-3.55-10.57,0,0-3.86.23-4.51.16-.7-.08-1.43-.15-2.15-.22-5.45-.45-9.92-.78-14.78-.5-1.22.07-2.48.17-3.71.28-.4.04-2.98.08-3.37.12,0,0-6.99,8.18-7.37,13.96-.2,3.23-1.76,4.62-1.59,12.33.03,5.24,3.83,12.88,4.18,20.25l28.79.52Z"/>
      <path class="cls-2" d="m348.14,198.38l3.61-4.96,1.72,2.95,6.69-4.51,1.33,1.99-2.53,7.43s-6.33,2.59-6.66,2.59-4.15-5.49-4.15-5.49Z"/>
      <polygon class="cls-11" points="347.97 198.61 349.45 202.27 353.13 198.61 355.63 202.9 359.36 201.08 355.38 204.23 353.08 199.52 348.86 203.49 347.97 198.61"/>
    </g>
    <g>
      <path class="cls-21" d="m375.76,397.23l-.82,1.14-1.62-.7-1.01,5-6.84,9.55s-2.6.42-.55-5.01c.09-.25.17-.52.22-.82.61-3.25-.73-9.47-.73-9.47l3.75-5.24s.39,0,1.06.12c1.55.26,4.66,1.02,6.54,5.44Z"/>
      <path class="cls-16" d="m375.76,397.23l-.82,1.14-1.62-.7-1.01,5-6.84,9.55s-2.6.42-.55-5.01c.09-.25.17-.52.22-.82.61-3.25-.73-9.47-.73-9.47l3.75-5.24s.39,0,1.06.12c1.55.26,4.66,1.02,6.54,5.44Z"/>
      <path class="cls-9" d="m369.22,391.79s.02.01.02.01c-1.26.14-.15,5.73-.66,8.87-.46,2.8-1.66,5.44-3.43,5.72.61-3.25-1.59-10.65-1.59-10.65l3.02-4.21s1.98.15,2.65.26Z"/>
    </g>
    <g>
      <path class="cls-21" d="m367.23,411.79h-1.39s-.39-1.74-.39-1.74l-4.61,2.1h-11.69s-1.86-1.88,3.71-3.38c.25-.07.52-.17.79-.3,2.97-1.4,7.19-6.14,7.19-6.14h6.41s.22.32.53.93c.7,1.42,1.91,4.41-.55,8.53Z"/>
      <path class="cls-22" d="m367.77,403.26v.02c-.85-.95-4.7,3.23-7.52,4.65-2.52,1.27-5.35,1.82-6.61.54,2.97-1.4,7.68-7.84,7.68-7.84l5.15.16s.99,1.87,1.3,2.48Z"/>
    </g>
    <g>
      <path class="cls-26" d="m354.67,346.86c-3.18-8.77-7.07-17.39-11.75-24.37,19.12-54.86,18.53-79.4,18.53-79.4l-23.03-.02-2.45,9.17s-5.75,22.84-7.43,35.95l-4.81,29.15v.08c-.33,6.05,1.01,12.07,3.87,17.39,3.13,5.82,8.66,12.72,11.7,18.99,4,8.27,7.77,16.57,10.99,23.99,3.39,7.82,6.16,14.66,7.88,19.4,1.63.19,6.55-2.77,7.97-5.46,0,0-3.49-22.88-11.47-44.88Z"/>
      <path class="cls-16" d="m348.24,306.18c2.81-9.32,5.95-14.64,7.37-21.56.01-1.62-5.36-8.54-8.1-11.32,0,0-3.29,13.23.72,32.89Z"/>
      <path class="cls-16" d="m350.29,377.8c3.39,7.82,6.16,14.66,7.88,19.4,1.63.18,6.55-2.78,7.97-5.46,0,0-3.49-22.88-11.47-44.88-1.62,9.08-3.44,20.56-4.38,30.93Z"/>
    </g>
    <path class="cls-26" d="m344.23,243.59s8.77,60.6,9.79,74.24c0,0,5.41,66.18,4.44,82.82l12.08.59s8.12-50.13,4.02-82.29c-.36-4.19,3.38-31.54,3.98-42.44,1.42-26.21-9.21-33.41-9.21-33.41l-25.08.5Z"/>
    <polygon class="cls-16" points="359.52 244.5 361.44 274.6 378.66 272.55 378.66 269.46 359.52 244.5"/>
    <g>
      <path class="cls-21" d="m372.79,236.91l5.12-24.8c1.14-4.56-.58-3.7-.52-4.93.2-3.85-4.47-9.97-4.47-9.97l-11.86-1.46s-2.27,8.19-2.75,23.84c-.48,15.64,4.09,52.56,4.09,52.56l22.15-2.31-11.77-32.93Z"/>
      <g>
        <path class="cls-21" d="m361.37,194.03s-4.58,9.05-2.85,31.81l7.62-16.37-2.76-4.47,3.66-7.31s-3.91-2.52-5.56-3.85l-.11.18Z"/>
        <g class="cls-16">
          <path d="m361.37,194.03s-4.58,9.05-2.85,31.81l7.62-16.37-2.76-4.47,3.66-7.31s-3.91-2.52-5.56-3.85l-.11.18Z"/>
        </g>
      </g>
    </g>
    <g>
      <path class="cls-21" d="m350.71,194.85s-10.19,12.3-12.69,21.17c-1.65,5.83,1.6,22.65,1.22,27.09-.62,7.33-3.86,16.3-8.06,29.44l-2.78-.39,7.65-29.08s-3.54-21.91-2.6-27.4c.94-5.48,9.11-18.78,9.11-18.78l3.73-.26,4.41-1.79Z"/>
      <g>
        <path class="cls-21" d="m337.9,225.98s-1.71-5.02-1.39-9.65c.31-4.63.38-8.09.38-8.09l5.26-3.89-.69-4.74s2.53-1.56,4.89-3.15c1.61-1.09,4.77-2.74,5.18-2.61,0,0-13.43,16.99-13.49,23.94-.07,6.7-.13,8.19-.13,8.19Z"/>
        <path class="cls-11" d="m337.9,225.98s-1.71-5.02-1.39-9.65c.31-4.63.38-8.09.38-8.09l5.26-3.89-.69-4.74s2.53-1.56,4.89-3.15c1.61-1.09,4.77-2.74,5.18-2.61,0,0-13.43,16.99-13.49,23.94-.07,6.7-.13,8.19-.13,8.19Z"/>
      </g>
    </g>
    <path class="cls-11" d="m324.95,229.93s25.16,10.55,32.3,9.52c7.13-1.02,18.74-25.42,18.74-25.42l-22.63,20.97-29.06-5.27"/>
    <g>
      <path class="cls-22" d="m320.18,218.79s-4.86-15.85-5.93-15.06c-1.07.79,0,17.4,0,17.4.33.63.75,1.63,2.34,2.12,1.52.47,8.84,2.43,8.84,2.43l1.14-6.28-6.4-.61Z"/>
      <path class="cls-21" d="m372.92,197.22s9.02,1.4,5.73,12.63c-1.96,6.69-18.95,27.76-23.13,27.93s-35.35-9.27-35.35-9.27l2.36-11.01,26.95,5.95,17.15-23.36,6.28-2.87Z"/>
    </g>
  </g>
  <g>
    <g>
      <polygon class="cls-21" points="248.53 106.78 245.95 106.78 229.1 106.78 229.1 183.5 245.95 183.5 248.53 183.5 322.68 183.5 322.68 106.78 248.53 106.78"/>
      <rect class="cls-3" x="229.1" y="106.78" width="93.57" height="76.73"/>
      <rect class="cls-11" x="229.1" y="106.78" width="16.25" height="76.73"/>
      <path class="cls-2" d="m295.6,163.13l-8.24-11.73c-.76.05-1.58.11-2.4.11h-9.44v11.63h-5.46v-38.21h14.9c9.93,0,15.94,5.02,15.94,13.32,0,5.89-3.06,10.15-8.41,12.06l9.06,12.83h-5.95Zm-.16-24.89c0-5.46-3.66-8.57-10.64-8.57h-9.28v17.19h9.28c6.99,0,10.64-3.17,10.64-8.62Z"/>
    </g>
    <path class="cls-11" d="m229.1,131.06s26.08,1.03,26.08,0-1.03-24.29,0-24.29-26.08,0-26.08,0v24.29Z"/>
  </g>
  <g>
    <polygon class="cls-26" points="240.04 183.5 237.46 183.5 220.61 183.5 220.61 260.23 237.46 260.23 240.04 260.23 314.18 260.23 314.18 183.5 240.04 183.5"/>
    <rect class="cls-3" x="220.61" y="183.5" width="93.57" height="76.73"/>
    <rect class="cls-11" x="220.61" y="183.5" width="16.25" height="76.73"/>
    <path class="cls-2" d="m285.9,230.31h-20.3l-4.2,9.55h-5.62l17.3-38.21h5.4l17.36,38.21h-5.73l-4.2-9.55Zm-1.91-4.37l-8.24-18.72-8.24,18.72h16.48Z"/>
  </g>
  <g>
    <polygon class="cls-26" points="241.86 259.52 239.28 259.52 222.43 259.52 222.43 336.24 239.28 336.24 241.86 336.24 316 336.24 316 259.52 241.86 259.52"/>
    <rect class="cls-11" x="222.43" y="259.52" width="16.25" height="76.73"/>
    <path class="cls-2" d="m296.24,277.67v38.21h-4.48l-22.92-28.49v28.49h-5.46v-38.21h4.48l22.92,28.49v-28.49h5.46Z"/>
  </g>
  <g>
    <polygon class="cls-21" points="248.95 336.24 246.37 336.24 229.52 336.24 229.52 412.97 246.37 412.97 248.95 412.97 323.09 412.97 323.09 336.24 248.95 336.24"/>
    <rect class="cls-11" x="229.52" y="336.24" width="16.25" height="76.73"/>
    <path class="cls-2" d="m270.47,354.39h16.1c12.28,0,20.63,7.75,20.63,19.1s-8.35,19.1-20.63,19.1h-16.1v-38.21Zm15.77,33.46c9.44,0,15.5-5.79,15.5-14.36s-6.06-14.35-15.5-14.35h-10.32v28.71h10.32Z"/>
  </g>
  <g>
    <g>
      <g>
        <path class="cls-23" d="m220.92,91.47c.2-2.38-6.67-1.08-7.54-1.4,0,0,4.19-.29,6.17-.53,2.73-.77-.53-1.88-1.05-1.69,3.27-2.3-9.27-1.85-9.49-2.46-.8-.47.07-1.53.84-2.47,3.34-4.96-2.49-.58-4.63.51-1.18.55-1.97,1.65-2.42,2.46l-4.83.1-.44,7.67,6.66-.4v-.1c2.54,1.53,6.88,1.34,10.34,1.27,7.65.05,2.26-2.41-.46-1.74.27-.2,6.71-.4,6.85-1.24Z"/>
        <path class="cls-12" d="m218.27,87.85c-1.54-.02-3.09.04-4.63.16"/>
        <path class="cls-12" d="m212.66,92.9c.54-1.92.51-4-.1-5.9"/>
        <path class="cls-12" d="m208.43,86.24c-.24,1.63-1.73,2.94-3.38,2.96"/>
      </g>
      <path class="cls-21" d="m141.17,57.2c9.56,2.73,32.06,26.04,32.06,26.04l27.74,2.03,1.05,9.09s-28.37,1.66-32.86.97-25.03-18.7-25.03-18.7l-2.95-19.43Z"/>
      <path class="cls-5" d="m141.17,57.2c9.56,2.73,32.06,26.04,32.06,26.04l27.74,2.03,1.05,9.09s-28.37,1.66-32.86.97-25.03-18.7-25.03-18.7l-2.95-19.43Z"/>
      <path class="cls-15" d="m154.86,85.67c-2.9-2.33-5.65-4.65-7.66-6.35-.67-2.5-.68-4.84-1.07-7.66,0,0,7.75,6.18,8.73,14.01Z"/>
    </g>
    <path class="cls-21" d="m141.17,57.2s10.36,23.08,13.7,64.27l-43.89,3.22c-.8-6.1.7-36.23-7.49-64.55,4.34-1.2,8.75-2.12,13.21-2.75,5.61-.76,11.26-1.2,16.92-1.32,3.89.07,3.72.45,7.56,1.12Z"/>
    <path class="cls-5" d="m141.17,57.2s10.36,23.08,13.7,64.27l-43.89,3.22c-.8-6.1.7-36.23-7.49-64.55,4.34-1.2,8.75-2.12,13.21-2.75,5.61-.76,11.26-1.2,16.92-1.32,3.89.07,3.72.45,7.56,1.12Z"/>
    <g>
      <g>
        <polygon class="cls-26" points="83.52 415.82 73.75 415.84 102.15 293.97 111.42 296.12 83.52 415.82"/>
        <polygon class="cls-4" points="83.52 415.82 73.75 415.84 102.15 293.97 111.42 296.12 83.52 415.82"/>
      </g>
      <g>
        <rect class="cls-26" x="189.07" y="294.01" width="9.52" height="121.82"/>
        <rect class="cls-4" x="189.07" y="294.01" width="9.52" height="121.82"/>
      </g>
      <g>
        <rect class="cls-26" x="148.62" y="294.01" width="9.52" height="121.82"/>
        <rect class="cls-7" x="148.62" y="294.01" width="9.52" height="121.82"/>
      </g>
      <g>
        <rect class="cls-26" x="97.53" y="294.01" width="103.52" height="8.29"/>
        <rect class="cls-6" x="97.53" y="294.01" width="103.52" height="8.29"/>
        <rect class="cls-3" x="97.97" y="294.01" width="56.34" height="8.29"/>
      </g>
      <g>
        <rect class="cls-26" x="84.9" y="336.04" width="85.51" height="8.29"/>
        <rect class="cls-6" x="84.9" y="336.04" width="85.51" height="8.29"/>
        <polyline class="cls-3" points="84.9 344.32 84.9 336.04 133.3 336.04 133.3 344.32"/>
      </g>
      <g>
        <rect class="cls-26" x="73.75" y="379.92" width="88.58" height="8.29"/>
        <rect class="cls-6" x="73.75" y="379.92" width="88.58" height="8.29"/>
        <rect class="cls-3" x="73.75" y="379.92" width="45.58" height="8.29"/>
      </g>
      <g>
        <polygon class="cls-26" points="135.92 415.82 126.14 415.84 154.54 293.97 163.82 296.12 135.92 415.82"/>
        <polygon class="cls-4" points="135.92 415.82 126.14 415.84 154.54 293.97 163.82 296.12 135.92 415.82"/>
      </g>
    </g>
    <g>
      <g>
        <g>
          <polygon class="cls-21" points="104.83 282.81 107.63 260.32 121.89 263.32 113.45 288.49 104.83 282.81"/>
          <polygon class="cls-8" points="104.83 282.81 107.63 260.32 121.89 263.32 113.45 288.49 104.83 282.81"/>
        </g>
        <g>
          <path class="cls-26" d="m103.49,293.74l7.66.34s1.19-.59,1.88-.51c.69.08,3.11.52,3.11.52l15.31.1c-.12-.61-.28-1.16-.45-1.64-.21-.59-.46-1.09-.74-1.51-.97-1.48-2.01-2.09-3.44-2.18-2.18-.13-9.05-4.44-9.05-4.44,0,0-1.69-.69-1.47-3.18.08-.86.6-1.66-.95-2.15-1.37-.43-3.58.5-3.78,1.83-.36.64-.18,1.33.03,2.04l-4.63-.96s-3.35-1.59-3.19-.05c.09.88-1.13,4.46-.78,7.56.08.72.16,1.41.23,2.01h0c.15,1.33.26,2.25.26,2.25Z"/>
          <path class="cls-8" d="m131.46,294.18l-15.31-.1s-2.42-.44-3.11-.52c-.7-.08-1.88.51-1.88.51l-7.66-.34s-.11-.92-.26-2.25l27.77,1.04c.18.48.33,1.03.45,1.64Z"/>
          <path class="cls-2" d="m121.2,286c-.07-.07-.18-.07-.27-.02-.39.24-.71.58-.93,1.01-.12.22.23.44.35.22.2-.38.48-.68.82-.89.11-.07.13-.22.03-.31,0,0,0,0,0,0Z"/>
          <path class="cls-2" d="m119.96,285.31c-.07-.07-.18-.07-.27-.02-.39.24-.71.58-.93,1.01-.12.22.23.44.35.22.2-.38.48-.68.82-.89.11-.07.13-.22.03-.31,0,0,0,0,0,0Z"/>
          <path class="cls-2" d="m118.68,284.67c-.07-.07-.18-.07-.27-.02-.39.24-.71.58-.93,1.01-.12.22.23.44.35.22.2-.38.48-.68.82-.89.11-.07.13-.22.03-.31,0,0,0,0,0,0Z"/>
        </g>
      </g>
      <g>
        <g>
          <polygon class="cls-21" points="177.49 283.96 175.9 261.35 190.48 261.55 187.05 287.87 177.49 283.96"/>
          <polygon class="cls-8" points="177.49 283.96 175.9 261.35 190.48 261.55 187.05 287.87 177.49 283.96"/>
        </g>
        <g>
          <path class="cls-26" d="m176.2,293.98l7.66.2s1.18-.61,1.87-.54c.7.07,3.12.46,3.12.46l15.31-.17c-.14-.61-.3-1.15-.48-1.64-.22-.59-.48-1.08-.76-1.5-.99-1.46-2.04-2.06-3.48-2.12-2.18-.09-9.13-4.28-9.13-4.28,0,0-1.7-.66-1.53-3.15.06-.86.57-1.67-.98-2.13-1.38-.41-3.57.56-3.75,1.9-.35.64-.16,1.34.06,2.03l-4.65-.88s-3.38-1.53-3.19,0c.11.88-1.05,4.48-.64,7.57.1.72.18,1.4.26,2h0c.17,1.33.3,2.24.3,2.24Z"/>
          <path class="cls-8" d="m204.17,293.93l-15.31.17s-2.42-.39-3.12-.46c-.7-.07-1.87.54-1.87.54l-7.66-.2s-.12-.91-.3-2.24l27.78.55c.18.48.35,1.03.48,1.64Z"/>
          <path class="cls-2" d="m193.76,285.93c-.07-.07-.19-.07-.27-.02-.38.25-.7.59-.91,1.02-.11.23.24.44.35.21.19-.38.47-.69.8-.9.11-.07.13-.22.03-.31,0,0,0,0,0,0Z"/>
          <path class="cls-2" d="m192.51,285.26c-.07-.07-.18-.07-.27-.02-.38.25-.7.59-.91,1.02-.11.23.24.44.35.21.19-.38.47-.69.8-.9.11-.07.13-.22.03-.31,0,0,0,0,0,0Z"/>
          <path class="cls-2" d="m191.22,284.65c-.07-.07-.19-.07-.27-.02-.38.25-.7.59-.91,1.02-.11.23.24.44.35.21.19-.38.47-.69.8-.9.11-.07.13-.22.03-.31,0,0,0,0,0,0Z"/>
        </g>
      </g>
      <path class="cls-26" d="m103.24,275.27l16.79,3.62s16.61-56.21,18.89-70.24,1.16-48.03,1.16-48.03h0v.06c.52.79,5.09,8.1,10.35,16.56,6.87,11.1,14.92,24.22,16.59,27.41,4.91,9.4,7.7,73.83,7.7,73.83l18.84.13s1.12-56.1-4.47-76.41c-5.6-20.32-33.88-75.26-33.88-75.26l-.32-5.46-43.94,3.16s.11,6.72-.18,12.57c-1.11,21.96,4.75,52.07,4.95,60.08.41,15.29-12.45,77.99-12.45,77.99Z"/>
    </g>
    <path class="cls-14" d="m140.07,160.65h0v.06c.52.79,5.09,8.1,10.35,16.56,1.69-8.96-2.73-21.4-10.35-26.4v9.78Z"/>
    <g>
      <path class="cls-23" d="m116.85,39.27c1.66,5.31,3.82,15.14.43,19.19,5.45,1.63,9.36,2.71,14.22,6.19,1.2-3.51,1.37-8.29,1.37-8.29-4.73-.59-5.27-5.05-4.68-9.36l-11.34-7.73Z"/>
      <path class="cls-14" d="m121.47,42.41l6.66,4.55c-.15,1.01-.21,2.03-.18,3.05-2.31-.07-5.81-2.26-6.32-4.66-.23-.96-.29-1.96-.16-2.94Z"/>
      <path class="cls-26" d="m131.78,21.71c1.92,1.63,2.25,5.47,2.62,7.84.35,2.22.95,5.09-2.2,2.29s-7.26-15.18-.42-10.12Z"/>
      <path class="cls-14" d="m119.18,47.73s3.1,5.33,9.19,4.74c-.67-2.41-.24-4.55.07-5.88-.47-.14.08-.85.08-.85l-9.34,2Z"/>
      <path class="cls-23" d="m119.2,48.12c3.96,2.6,8.28,3.01,11.74.83,2.23-1.4,3.98-3.65,4.7-6.42.1-.36.17-.74.24-1.12,1.05-7.03-.97-18.32-8.74-20.73-5.53-1.75-11.45,1.31-13.2,6.85-.51,1.57-.62,3.25-.36,4.88,1.11,7.61.99,12.68,5.62,15.71Z"/>
      <path class="cls-26" d="m125.38,33.98c.01.8.54,1.42,1.08,1.37.53-.05.89-.74.83-1.54-.06-.8-.56-1.42-1.08-1.37-.52.05-.89.73-.83,1.54Z"/>
      <path class="cls-26" d="m132.4,33.5c.01.8.56,1.42,1.08,1.37.52-.05.89-.74.83-1.54-.06-.8-.56-1.42-1.08-1.37-.52.05-.89.78-.83,1.54Z"/>
      <path class="cls-13" d="m130.23,33.44c.91,1.84,2.07,3.55,3.44,5.08-.81.7-1.89.99-2.95.82l-.49-5.9Z"/>
      <path class="cls-26" d="m134.8,29.7c-.11.08-.26.09-.38.03-.82-.44-1.81-.47-2.65-.08-.17.1-.4.04-.5-.13-.1-.17-.04-.4.13-.5,0,0,0,0,0,0,1.06-.52,2.31-.5,3.35.06.18.09.26.3.17.49,0,0,0,0,0,0-.03.05-.07.1-.12.13Z"/>
      <path class="cls-26" d="m123.75,30.85c-.07,0-.15-.02-.21-.05-.15-.14-.15-.37-.01-.52,0,0,0,0,0,0,.81-.86,2-1.28,3.17-1.11.2.04.33.23.28.43h0c-.05.2-.24.32-.43.29h0c-.93-.11-1.86.23-2.5.92-.09.06-.2.08-.31.05Z"/>
      <g>
        <path class="cls-26" d="m127.97,40.61c-1.48-.32-2.88-.94-4.09-1.84-.11.24-.19.49-.23.74-.08.46-.05.93.09,1.37.29.9,1.14,1.85,3.33,2.33.16.04.32.08.49.11.34-.87.74-1.72,1.21-2.53,0,0-.3-.05-.79-.18Z"/>
        <path class="cls-2" d="m123.91,38.77c-.11.24-.19.49-.23.74.5.77,1.89,1.37,3.95,1.84l.37-.74c-1.48-.32-2.88-.94-4.09-1.84Z"/>
        <path class="cls-25" d="m126.06,41.9c-.71-.47-1.5-.82-2.33-1.02.29.9,1.14,1.85,3.33,2.33-.19-.53-.54-.99-1-1.32Z"/>
      </g>
      <path class="cls-26" d="m129.54,16.84c-5.42-1.36-18.46,1.95-19.77,4.61-.64,1.12-.73,2.47-.26,3.65-2.86,2.78.78,14.27,6.91,13.49,3.91-.49,3.21-2.01,2.96-2.36-1.17-1.51-.26-3.98.68-7.16.37-1.25-.42-2.46-1.77-3.37,1.79-2.22,4.96-2.92,7.57-1.52,0,0,4.41,2.3,6.45-2.86.08-.23.14-.46.17-.7.24-1.86-1.07-3.56-2.93-3.8Z"/>
      <g>
        <path class="cls-23" d="m110.77,38.98c1,1.66,2.62,2.86,4.5,3.33,2.49.6,3.65-1.65,2.89-3.96-.7-2.05-2.83-4.9-5.3-4.45-2.47.45-3.29,3.03-2.09,5.09Z"/>
        <path class="cls-18" d="m116.56,39c-.32-1.27-1.23-2.38-2.41-2.95-.5-.24-1.17-.36-1.57.04"/>
      </g>
    </g>
    <path class="cls-15" d="m118.67,124.07l-7.7.61c-.47-3.73-.1-16.49-1.63-32.34,3.14-7.07,4.97-16.78,4.97-16.78,4.88,6.96,10.35,16.66,13.86,23.49,4.24,8.18-1.11,19.84-9.5,25.02Z"/>
    <g>
      <g>
        <polygon class="cls-21" points="177.69 49.19 175.1 49.19 158.26 49.19 158.26 125.91 175.1 125.91 177.69 125.91 251.83 125.91 251.83 49.19 177.69 49.19"/>
        <path class="cls-2" d="m233.58,95.23c0,6.55-4.97,10.32-14.63,10.32h-18.23v-38.21h17.14c8.79,0,13.7,3.71,13.7,9.88,0,4.15-2.13,7.04-5.13,8.51,4.31,1.2,7.15,4.42,7.15,9.5Zm-27.4-23.47v12.23h11.19c5.57,0,8.73-2.07,8.73-6.11s-3.17-6.11-8.73-6.11h-11.19Zm21.89,23.03c0-4.42-3.27-6.39-9.33-6.39h-12.55v12.72h12.55c6.06,0,9.33-1.91,9.33-6.33Z"/>
      </g>
      <rect class="cls-11" x="158.26" y="49.19" width="19.43" height="76.73"/>
    </g>
    <g>
      <path class="cls-21" d="m115.28,58.52s3.17-6.03,3.58-6c.42.03,9.26,4.04,9.26,4.04l.63-3.65,4.63,3.55-1.56,9.87-16.53-7.82Z"/>
      <path class="cls-5" d="m115.28,58.52s3.17-6.03,3.58-6c.42.03,9.26,4.04,9.26,4.04l.63-3.65,4.63,3.55-1.56,9.87-16.53-7.82Z"/>
      <path class="cls-15" d="m115.81,57.52s9.51,5.75,9.56,5.77c.05.02,1.98-4.41,1.98-4.41l-1.17,5.78-10.37-7.13Z"/>
    </g>
    <path class="cls-21" d="m127.42,58.94l-.84,2.99,1.68,2.63c1.7.13,11.03,42.84,7.28,58.84l8.87,5.56,2.65-6.14c.76-13.6-10.72-53.04-16.57-58.85l.79-3.8h0l-2.33-1.7-1.54.47Z"/>
    <g>
      <g>
        <path class="cls-21" d="m103.48,60.14c-10.74,5.83,4.55,40.52,7.55,45.75,3,5.23,46.69,5.71,46.69,5.71l-.38-10.09-35.3-4.77-8.89-26.75c-3.56-8.54-9.66-9.85-9.66-9.85Z"/>
        <path class="cls-5" d="m103.48,60.14c-10.74,5.83,4.55,40.52,7.55,45.75,3,5.23,46.69,5.71,46.69,5.71l-.38-10.09-35.3-4.77-8.89-26.75c-3.56-8.54-9.66-9.85-9.66-9.85Z"/>
      </g>
      <g>
        <path class="cls-23" d="m160.25,102.12s7.21,1.06,8.06,2.58c.85,1.52-1.63,1.58-1.63,1.58,0,0,2.73.09,2.85,1.26.14,1.4-2.46,1.46-2.46,1.46,0,0,2.23.17,2.26,1.21.04,1.08-2.89,1.36-2.89,1.36,0,0,1.55.42,1.16,1.16-.39.74-6.58,1.42-8.51.41-1.93-1-2.73-7.91-2.16-10.46.39-1.74,1.61-3.84,3.32-4.16v3.6h0Z"/>
        <path class="cls-16" d="m167.08,106.22s0,0-.01,0l-4.76-.39c-.06,0-.11-.07-.11-.14,0-.07.06-.13.12-.12l4.76.39c.06,0,.11.07.11.14,0,.07-.05.12-.11.12Z"/>
        <path class="cls-16" d="m167.33,108.94s0,0,0,0h-4.6c-.06-.01-.12-.07-.12-.15,0-.07.04-.12.12-.13h4.6c.06.01.12.07.12.15,0,.07-.05.13-.11.13Z"/>
        <path class="cls-16" d="m166.68,111.51l-3.42.09c-.06,0-.12-.06-.12-.13,0-.07.05-.13.11-.13l3.42-.09c.06,0,.12.06.12.13,0,.07-.05.13-.11.13Z"/>
      </g>
    </g>
  </g>
</svg>