<?xml version="1.0" encoding="UTF-8"?>
<svg xmlns="http://www.w3.org/2000/svg" viewBox="0 0 413.03 423.42">
  <defs>
    <style>
      .cls-1 {
        fill: #a7a7a7;
      }

      .cls-2, .cls-3 {
        fill: #552624;
      }

      .cls-4 {
        fill: #e9e9e9;
      }

      .cls-5, .cls-6, .cls-3, .cls-7, .cls-8, .cls-9, .cls-10, .cls-11 {
        mix-blend-mode: multiply;
      }

      .cls-5, .cls-12, .cls-13 {
        fill: #b1b1b1;
      }

      .cls-14 {
        opacity: .75;
      }

      .cls-14, .cls-15, .cls-16, .cls-17 {
        fill: #fff;
      }

      .cls-14, .cls-17, .cls-18 {
        mix-blend-mode: overlay;
      }

      .cls-19, .cls-20, .cls-21, .cls-22, .cls-23, .cls-24, .cls-25, .cls-26, .cls-27, .cls-28, .cls-29 {
        fill: none;
        stroke-miterlimit: 10;
      }

      .cls-19, .cls-21 {
        stroke: #050a00;
      }

      .cls-19, .cls-27 {
        opacity: .57;
      }

      .cls-6, .cls-7, .cls-30 {
        fill: #00c4e8;
      }

      .cls-31 {
        fill: #8c8c8d;
      }

      .cls-3 {
        opacity: .28;
      }

      .cls-32 {
        fill: #9f9f9f;
      }

      .cls-33 {
        isolation: isolate;
      }

      .cls-7, .cls-9 {
        opacity: .67;
      }

      .cls-16 {
        opacity: .42;
      }

      .cls-34 {
        fill: #e34e4e;
      }

      .cls-35, .cls-11 {
        fill: #2b2b32;
      }

      .cls-20 {
        stroke: #666;
        stroke-width: 2px;
      }

      .cls-36 {
        fill: #00d6ff;
      }

      .cls-37 {
        fill: #d4d4d4;
      }

      .cls-22 {
        stroke: #552624;
      }

      .cls-22, .cls-23, .cls-24, .cls-28, .cls-29 {
        stroke-linecap: round;
      }

      .cls-22, .cls-29 {
        stroke-width: 1.34px;
      }

      .cls-8 {
        opacity: .87;
      }

      .cls-8, .cls-38 {
        fill: #505059;
      }

      .cls-23 {
        stroke-width: 2.67px;
      }

      .cls-23, .cls-24, .cls-29 {
        stroke: #2b2b32;
      }

      .cls-24 {
        stroke-width: .82px;
      }

      .cls-39 {
        fill: #a04040;
      }

      .cls-40 {
        fill: #933b3b;
      }

      .cls-17 {
        opacity: .54;
      }

      .cls-13 {
        opacity: .41;
      }

      .cls-41, .cls-18 {
        fill: #fff6e7;
      }

      .cls-25 {
        stroke-dasharray: 0 0 3.85 3.85;
        stroke-width: 1.95px;
      }

      .cls-25, .cls-27 {
        stroke: #fff;
      }

      .cls-26 {
        stroke: #8d3935;
        stroke-width: 1.14px;
      }

      .cls-42 {
        fill: #ff7f6e;
      }

      .cls-10 {
        fill: #9a5331;
      }

      .cls-27 {
        stroke-width: 1.11px;
      }

      .cls-28 {
        stroke: #fefefe;
        stroke-width: 2.24px;
      }

      .cls-18 {
        opacity: .52;
      }

      .cls-43 {
        fill: #cdcdcd;
      }

      .cls-44 {
        fill: #666;
      }

      .cls-11 {
        opacity: .68;
      }

      .cls-45 {
        fill: #5a5a63;
      }

      .cls-46 {
        fill: #fefefe;
      }

      .cls-47 {
        fill: #ededed;
      }
    </style>
  </defs>
  <g class="cls-33">
    <g id="Layer_1" data-name="Layer 1">
      <g>
        <g>
          <path class="cls-13" d="m152.77,295.99c-4.07-.02-8.14-.18-12.22-.51-44.67-3.66-96.42-24.99-118.67-63.83C2.44,197.69-5.19,153.73,3.66,115.87,11.99,80.27,37.79,51.44,73.92,40.49c40.64-12.31,85.55,2.65,125.53-14.17,58.2-24.47,131.35-5.04,172.14,41.53,36.16,41.29,44.92,107.86,33.56,159.44-5.74,26.07-20.83,51.18-44.85,64.3-19.11,10.44-42.22,12.5-64.08,9.78-17.57-2.19-33.75-7.92-50.66-12.64-13.55-3.78-24.67-1.81-38.54.93-17.85,3.53-36,6.4-54.26,6.32Z"/>
          <path class="cls-25" d="m162.74,271.08c-3.29-.01-6.59-.15-9.88-.42-36.15-2.96-78.02-20.22-96.02-51.65-15.73-27.47-21.91-63.04-14.75-93.69,6.73-28.8,27.61-52.13,56.85-60.99,32.88-9.96,69.22,2.14,101.58-11.46,47.09-19.8,106.28-4.08,139.29,33.6,29.26,33.41,36.34,87.28,27.16,129.02-4.64,21.09-16.85,41.41-36.29,52.03-15.47,8.45-34.16,10.12-51.85,7.91-14.22-1.77-27.31-6.41-40.99-10.23-10.97-3.06-19.96-1.47-31.19.75-14.44,2.86-29.13,5.18-43.91,5.12Z"/>
        </g>
        <g>
          <ellipse class="cls-8" cx="373.91" cy="409.06" rx="17.59" ry="1.34"/>
          <g>
            <path class="cls-12" d="m376.14,358.48s-15.06-10.23-5.39-25.11c9.67-14.87,7.26-20.04,3.87-24.23,8.22,9.36,6.42,20.02,1.52,26.78-4.9,6.76-5.68,15.97,0,22.56Z"/>
            <g>
              <polygon class="cls-46" points="388.43 371.18 359.39 371.18 362.22 407.95 385.6 407.95 388.43 371.18"/>
              <rect class="cls-31" x="356.32" y="369.3" width="35.18" height="4.31"/>
              <path class="cls-45" d="m384.59,365.42h-21.37c-2.12,0-3.84,1.72-3.84,3.84v.04h29.04v-.04c0-2.12-1.72-3.84-3.84-3.84Z"/>
              <polygon class="cls-36" points="386.82 392.12 387.5 383.22 360.32 383.22 361 392.12 386.82 392.12"/>
            </g>
            <path class="cls-5" d="m388.43,369.3v-.04c0-2.12-1.72-3.84-3.84-3.84h-10.58c2.12,0,3.84,1.72,3.84,3.84v.04h3.07v4.31h-3.26l-2.65,34.34h10.58l2.65-34.34h3.26v-4.31h-3.07Z"/>
          </g>
        </g>
        <g>
          <path class="cls-35" d="m232.5,140.65s6.09-19.09-2.81-24.63c-5.65-2.91-8.74.71-8.74.71,0,0-2.66-13.5-20.97-9.04-11.86,2.89-15.61-3.23-15.61-3.23,0,0-.11,16.92,8.06,21.95,5.92,5.07,3.65,18.79,3.65,18.79l36.42-4.55Z"/>
          <path class="cls-8" d="m286.46,390.1s32.98.99,42.18,9.49c9.68,8.93,19.83,22.89-21.83,22.62-41.67-.27-78.6-11.74-113.55-8.1-34.95,3.64-63.62,9.91-71.98,8.52-8.35-1.39,51.19-29.92,51.19-29.92l110.55,4.06,3.44-6.67Z"/>
          <path class="cls-30" d="m255.62,315.93l-41.57-4.18-41.57,4.18s-2.47,19.64-10.5,30.12l52.07,18.7,52.07-18.7c-8.03-10.48-10.5-30.12-10.5-30.12Z"/>
          <path class="cls-6" d="m212.41,364.16q1.64.59,1.64.59s0,0,1.64-.59c9.58-22.04,7.29-46.76,6.72-51.57l-8.36-.84-10.7,1.07c-.21,5.28-.57,29.44,9.06,51.33Z"/>
          <path class="cls-10" d="m172.24,317.53s43.74,19.29,85.99,10.91c-1.9-6.86-2.61-12.51-2.61-12.51l-41.57-4.18-33.39,3.35-8.41,2.42h0Z"/>
          <path class="cls-38" d="m192.43,126.41c5.92,5.07,3.65,18.79,3.65,18.79l7.74-.97c7.95-7.07,16.92-16.03,15.62-19.4-2.28-5.91-8.88-11.81-21.04-12.49-12.16-.67-14.03-7.88-14.03-7.88,0,0-.11,16.92,8.06,21.95Z"/>
          <path class="cls-15" d="m212.54,174.32l-34.37,12.53-5.69,129.08s12.15,5.69,41.57,5.69v-145.3l-1.51-2Z"/>
          <path class="cls-15" d="m215.56,174.32l34.37,12.53,5.69,129.08s-12.15,5.69-41.57,5.69v-145.3l1.51-2Z"/>
          <path class="cls-42" d="m178.17,186.84l-.16.06c-10.04,3.59-18.06,11.3-22.03,21.19l-36.89,89.29,31.37,3.74,26.56-65.08,1.16-49.19Z"/>
          <path class="cls-42" d="m249.93,186.84l.16.06c10.04,3.59,18.06,11.3,22.03,21.19l36.89,89.29-31.37,3.74-26.56-65.08-1.16-49.19Z"/>
          <path class="cls-4" d="m286.44,242.77l-14.32-34.67c-3.97-9.89-11.99-17.61-22.03-21.19l-.16-.06,1.16,49.19,7.52,18.44c10.04-8.41,20.12-11.14,27.84-11.71Z"/>
          <path class="cls-4" d="m141.65,242.77l14.32-34.67c3.97-9.89,11.99-17.61,22.03-21.19l.16-.06-1.16,49.19-7.52,18.44c-10.04-8.41-20.12-11.14-27.84-11.71Z"/>
          <path class="cls-37" d="m252.17,237.74s-.93-1.3-2.24-3.75l1.16,2.05s-13.08,72.58-48.03,85.3h0c3.36.18,7.01.29,10.99.29,29.42,0,41.57-5.69,41.57-5.69l-3.45-78.19Z"/>
          <path class="cls-18" d="m161.98,228.23c8.87-24.87,9.36-24.68,28.72-29.23,19.36-4.56,15.56-22.39,15.56-22.39l-18.05,6.58-2.79,1.02-7.24,2.64-.16.06c-10.04,3.59-18.06,11.3-22.03,21.19l-35.36,85.59c14.93-10.99,33.81-44.28,41.36-65.46Z"/>
          <path class="cls-3" d="m266.12,228.23c-8.87-24.87-9.36-24.68-28.72-29.23-19.36-4.56-15.56-22.39-15.56-22.39l18.05,6.58,2.79,1.02,7.24,2.64.16.06c10.04,3.59,18.06,11.3,22.03,21.19l35.36,85.59c-14.93-10.99-33.81-44.28-41.36-65.46Z"/>
          <path class="cls-42" d="m214.14,190.24h-.19c-5.08,0-9.2-4.12-9.2-9.2v-21.96h18.58v21.96c0,5.08-4.12,9.2-9.2,9.2Z"/>
          <path class="cls-2" d="m223.19,176.02c.05,0,.1,0,.15,0v-16.93h-8.67l-9.91,3.58s3.69,13.36,18.43,13.36Z"/>
          <path class="cls-34" d="m235.66,145.88c0,3.3-2.67,5.97-5.97,5.97s-5.97-2.67-5.97-5.97,2.67-5.97,5.97-5.97,5.97,2.67,5.97,5.97Z"/>
          <path class="cls-40" d="m230.86,151.73c.86-3.46,1.37-7.88,1.64-11.09-.84-.45-1.79-.73-2.81-.73-3.3,0-5.97,2.67-5.97,5.97s2.67,5.97,5.97,5.97c.4,0,.79-.04,1.16-.12Z"/>
          <path class="cls-34" d="m192.43,145.88c0,3.3,2.67,5.97,5.97,5.97s5.97-2.67,5.97-5.97-2.67-5.97-5.97-5.97-5.97,2.67-5.97,5.97Z"/>
          <path class="cls-40" d="m197.24,151.73c-.86-3.46-1.37-7.88-1.64-11.09.84-.45,1.79-.73,2.81-.73,3.3,0,5.97,2.67,5.97,5.97s-2.67,5.97-5.97,5.97c-.4,0-.79-.04-1.16-.12Z"/>
          <path class="cls-42" d="m224.55,125.02h-21l-5.2,11.36.87,11.24c.47,6,4.34,16.35,9.79,18.9,1.62.76,3.34,1.26,5.03,1.26s3.41-.5,5.03-1.26c5.45-2.54,9.33-12.9,9.79-18.9l.87-11.24-5.2-11.36Z"/>
          <path class="cls-29" d="m219.44,139.27s3.52.99,7.51,0"/>
          <path class="cls-23" d="m218.3,132.81s5.15-.86,8.24.93"/>
          <path class="cls-29" d="m208.66,139.27s-3.52.99-7.51,0"/>
          <path class="cls-23" d="m209.8,132.81s-5.15-.86-8.24.93"/>
          <path class="cls-18" d="m205.68,149.07c-.69-11.36-2.13-24.05-2.13-24.05l-5.2,11.36.28,3.57c-.08,0-.15-.02-.23-.02-3.3,0-5.97,2.67-5.97,5.97s2.67,5.97,5.97,5.97c.52,0,1.02-.09,1.5-.21,1.41,5.8,4.75,12.84,9.11,14.87,1.62.76,3.34,1.26,5.03,1.26,0,0-7.68-7.35-8.37-18.71Z"/>
          <g>
            <path class="cls-39" d="m249.93,366.42l-118.77-36.03c-15.77-4.78-32.36,4.5-36.52,20.44l-.16.6c-4.29,16.43,6.36,33.02,23.08,35.95,43.91,7.68,123.51,20.73,165.4,22.33l17.66,11.77c2.67,1.78,6.21,1.48,8.54-.71l.09-.09c2.78-2.6,2.92-6.97.32-9.75l-2.75-2.94s-2.45-11.96-14.58-17.08c-12.12-5.13-13.26-17.65-16.11-24.49-2.85-6.83-21.07-10.25-26.2,0Z"/>
            <path class="cls-36" d="m94.63,350.83c4.17-15.94,20.75-25.23,36.52-20.44l40.28,12.22c-6.07,7.57-14.07,22.93-14.31,51.45-14.71-2.39-28.31-4.71-39.56-6.68-16.72-2.92-27.38-19.52-23.08-35.95l.16-.6Z"/>
            <path class="cls-7" d="m132.1,375.88c0,4.84-1.16,9.41-3.21,13.46-3.98-.68-7.78-1.34-11.33-1.96-16.72-2.92-27.38-19.52-23.08-35.95l.16-.6c.37-1.43.85-2.81,1.42-4.13,2.01-.43,4.08-.65,6.22-.65,16.48,0,29.83,13.36,29.83,29.83Z"/>
            <path class="cls-26" d="m255.62,382.94s-1.71,9.95-18.22,6.4"/>
            <path class="cls-3" d="m266.12,378.38s-25.3-1.14-78.84-10.69c-43.37-7.74-56.09-29.93-59.36-38.08,1.08.2,2.16.45,3.23.78l118.77,36.03c5.13-10.25,23.35-6.83,26.2,0,2.85,6.83,3.99,19.36,16.11,24.49,12.12,5.13,14.58,17.08,14.58,17.08,0,0-12.47-7.97-20.35-9.68s-20.35-19.93-20.35-19.93Z"/>
          </g>
          <path class="cls-35" d="m271.6,409.06s21.81,20.87,40.4,12.28c3.09-1.43,4.06-5.38,2.04-8.12-15.66-21.27-35.41-44.44-42.94-53.15-1.88-2.18-4.87-3.06-7.63-2.26l-21.42,6.22,29.54,45.03Z"/>
          <polygon class="cls-1" points="242.05 364.03 221.54 357.81 237.08 405.63 271.6 409.06 242.05 364.03"/>
          <path class="cls-42" d="m178.17,366.42l118.77-36.03c15.77-4.78,32.36,4.5,36.52,20.44l.16.6c4.29,16.43-6.36,33.02-23.08,35.95-43.91,7.68-123.51,20.73-165.4,22.33l-17.66,11.77c-2.67,1.78-6.21,1.48-8.54-.71l-.09-.09c-2.78-2.6-2.92-6.97-.32-9.75l2.75-2.94s2.45-11.96,14.58-17.08c12.12-5.13,13.26-17.65,16.11-24.49,2.85-6.83,21.07-10.25,26.2,0Z"/>
          <path class="cls-36" d="m333.46,350.83c-4.17-15.94-20.75-25.23-36.52-20.44l-40.28,12.22c6.07,7.57,14.07,22.93,14.31,51.45,14.71-2.39,28.31-4.71,39.56-6.68,16.73-2.92,27.38-19.52,23.08-35.95l-.16-.6Z"/>
          <path class="cls-7" d="m296,375.88c0,4.84,1.16,9.41,3.21,13.46,3.98-.68,7.78-1.34,11.33-1.96,16.73-2.92,27.38-19.52,23.08-35.95l-.16-.6c-.37-1.43-.85-2.81-1.42-4.13-2.01-.43-4.08-.65-6.22-.65-16.48,0-29.83,13.36-29.83,29.83Z"/>
          <path class="cls-3" d="m161.98,378.38s25.3-1.14,78.83-10.69c43.37-7.74,56.09-29.93,59.36-38.08-1.08.2-2.16.45-3.23.78l-118.77,36.03c-5.13-10.25-23.35-6.83-26.2,0-2.85,6.83-3.99,19.36-16.11,24.49-12.12,5.13-14.58,17.08-14.58,17.08,0,0,12.47-7.97,20.35-9.68,7.88-1.71,20.35-19.93,20.35-19.93Z"/>
          <path class="cls-27" d="m135.86,390.91l-17.8-3.3c-16.11-2.57-27.03-17.81-24.28-33.89l.11-.63c3-17.54,20.8-28.38,37.76-23.01l33.62,10.66"/>
          <path class="cls-15" d="m207.94,148.88c-.64,0-1.02.74-.62,1.25,1.78,2.29,4.14,3.69,6.74,3.69s4.96-1.4,6.74-3.69c.39-.5.02-1.25-.62-1.25h-12.23Z"/>
          <path class="cls-24" d="m215.81,139.02v6.18s-1.42-.8-3.4,0"/>
          <rect class="cls-42" x="219.44" y="116.73" width="1.52" height="9.67"/>
          <g>
            <path class="cls-42" d="m309.01,297.38l.06.17c3.56,9.86-.7,20.83-9.99,25.69l-63.42,33.25-.31-.81c-5.59-14.44.26-30.78,13.73-38.41l28.56-16.16,31.37-3.74Z"/>
            <path class="cls-3" d="m295.62,317.75c0,2.34.58,4.54,1.61,6.48l1.86-.98c7.32-3.84,11.5-11.47,11.2-19.36-.26-.01-.51-.04-.77-.04-7.68,0-13.9,6.22-13.9,13.9Z"/>
            <line class="cls-22" x1="277.64" y1="301.12" x2="295.62" y2="290.93"/>
          </g>
          <g>
            <path class="cls-42" d="m119.27,297.38l-.06.17c-3.56,9.86.7,20.83,9.99,25.69l63.42,33.25.31-.81c5.59-14.44-.26-30.78-13.73-38.41l-28.56-16.16-31.37-3.74Z"/>
            <path class="cls-3" d="m132.66,317.75c0,2.34-.58,4.54-1.61,6.48l-1.86-.98c-7.32-3.84-11.5-11.47-11.2-19.36.26-.01.51-.04.77-.04,7.68,0,13.9,6.22,13.9,13.9Z"/>
            <line class="cls-22" x1="150.64" y1="301.12" x2="132.66" y2="290.93"/>
          </g>
          <path class="cls-22" d="m185.58,352.81s3.2-17.56-7.22-23.2"/>
          <path class="cls-22" d="m242.52,352.81s-3.2-17.56,7.22-23.2"/>
          <path class="cls-35" d="m156.5,409.06s-21.81,20.87-40.4,12.28c-3.09-1.43-4.06-5.38-2.04-8.12,15.66-21.27,35.41-44.44,42.94-53.15,1.88-2.18,4.87-3.06,7.63-2.26l21.42,6.22-29.54,45.03Z"/>
          <polygon class="cls-47" points="186.04 364.03 206.56 357.81 191.02 405.63 156.5 409.06 186.04 364.03"/>
          <path class="cls-3" d="m177.51,377.04c6.09-.65,13.99-1.6,23.77-2.98l5.28-16.25-20.51,6.22-8.53,13Z"/>
          <path class="cls-41" d="m163.04,394.54l-11.9,18.14c-.74,1.13-2.06,1.73-3.4,1.55h-.08c-2.58-.36-3.89-3.3-2.43-5.45l12.17-17.97c.78-1.15,2.19-1.7,3.54-1.38l.07.02c2.26.53,3.31,3.15,2.04,5.1Z"/>
          <g>
            <g>
              <polygon class="cls-12" points="212.41 289.71 139.58 289.71 157.54 353.67 212.41 353.67 267.29 353.67 285.25 289.71 212.41 289.71"/>
              <rect class="cls-31" x="157.54" y="353.67" width="109.75" height="9.32"/>
              <ellipse class="cls-45" cx="212.54" cy="326.73" rx="17.81" ry="9.12"/>
              <rect class="cls-45" x="139.58" y="285.46" width="145.66" height="4.24"/>
              <rect class="cls-45" x="163.62" y="356.34" width="10.99" height="3.75"/>
              <rect class="cls-45" x="179.48" y="356.34" width="10.99" height="3.75"/>
              <line class="cls-21" x1="267.29" y1="358.33" x2="200.49" y2="358.33"/>
              <path class="cls-17" d="m139.58,289.71l17.96,63.96h39.09c23.21-26.91,37.31-63.96,37.31-63.96l-.05-4.24h-94.31v4.24Z"/>
            </g>
            <line class="cls-19" x1="139.58" y1="289.71" x2="285.25" y2="289.71"/>
          </g>
        </g>
        <g>
          <ellipse class="cls-8" cx="63.91" cy="409.06" rx="26.41" ry="1.34"/>
          <g>
            <g>
              <path class="cls-45" d="m67.77,395.91l1.73-1.89-.87.94.87-.94c-.21-.2-21.06-21.34,4.12-116.56l-2.48-.65c-25.7,97.22-4.31,118.25-3.38,119.09Z"/>
              <g>
                <path class="cls-45" d="m60.01,279.11c9.54,8.67,7.86,18.91,7.86,18.91,0,0-9.55-4.07-11.77-16.77-.39-2.23,2.23-3.67,3.9-2.15Z"/>
                <path class="cls-45" d="m83.87,285.23c-12.53,3.01-15.99,12.79-15.99,12.79,0,0,10.33,1.02,18.38-9.04,1.41-1.76-.19-4.29-2.39-3.76Z"/>
              </g>
              <g>
                <path class="cls-45" d="m53.48,304.01c10.36,7.66,9.73,18.03,9.73,18.03,0,0-9.91-3.09-13.39-15.5-.61-2.18,1.85-3.87,3.66-2.53Z"/>
                <path class="cls-45" d="m77.83,307.7c-12.16,4.25-14.63,14.34-14.63,14.34,0,0,10.38-.02,17.38-10.84,1.23-1.9-.62-4.24-2.75-3.5Z"/>
              </g>
              <g>
                <path class="cls-45" d="m49.33,325.85c10.9,6.88,11.03,17.26,11.03,17.26,0,0-10.11-2.35-14.5-14.47-.77-2.12,1.56-4,3.47-2.79Z"/>
                <path class="cls-45" d="m73.89,327.73c-11.82,5.14-13.53,15.38-13.53,15.38,0,0,10.35-.79,16.53-12.09,1.08-1.98-.93-4.19-3-3.29Z"/>
              </g>
              <path class="cls-45" d="m80.44,260.03c.22,12.88-8.4,18.68-8.4,18.68,0,0-3.57-9.75,4.16-20.06,1.36-1.81,4.2-.89,4.23,1.37Z"/>
            </g>
            <rect class="cls-36" x="49.07" y="353.69" width="27.69" height="54.78"/>
            <rect class="cls-7" x="65.69" y="353.69" width="11.06" height="54.78"/>
          </g>
        </g>
        <g>
          <g>
            <path class="cls-30" d="m88.91,92.44l-9.96,2.48c-1.45.36-2.91-.52-3.27-1.97l-.96-3.86,15.2-3.78.96,3.86c.36,1.45-.52,2.91-1.97,3.27Z"/>
            <rect class="cls-30" x="28" y="27.82" width="94.26" height="64.39" rx="2.79" ry="2.79" transform="translate(-12.26 19.91) rotate(-13.97)"/>
            <polygon class="cls-36" points="123.38 70.69 120.99 77.59 44.62 96.58 37.84 91.97 23.78 35.42 109.32 14.14 123.38 70.69"/>
            <rect class="cls-15" x="30.17" y="29.37" width="42.95" height="58.27" transform="translate(-12.59 14.19) rotate(-13.97)"/>
            <rect class="cls-12" x="28.36" y="34.12" width="35.29" height="2.04" transform="translate(-7.12 12.14) rotate(-13.97)"/>
            <rect class="cls-12" x="29.93" y="40.45" width="35.29" height="2.04" transform="translate(-8.6 12.71) rotate(-13.97)"/>
            <rect class="cls-12" x="31.51" y="46.77" width="35.29" height="2.04" transform="translate(-10.08 13.27) rotate(-13.97)"/>
            <rect class="cls-12" x="33.08" y="53.1" width="35.29" height="2.04" transform="translate(-11.56 13.84) rotate(-13.97)"/>
            <rect class="cls-12" x="34.65" y="59.43" width="35.29" height="2.04" transform="translate(-13.04 14.41) rotate(-13.97)"/>
            <rect class="cls-12" x="36.23" y="65.76" width="35.29" height="2.04" transform="translate(-14.52 14.98) rotate(-13.97)"/>
            <rect class="cls-12" x="37.8" y="72.08" width="35.29" height="2.04" transform="translate(-16 15.54) rotate(-13.97)"/>
            <rect class="cls-12" x="39.37" y="78.41" width="35.29" height="2.04" transform="translate(-17.48 16.11) rotate(-13.97)"/>
            <rect class="cls-15" x="74.04" y="18.46" width="42.95" height="58.27" transform="translate(-8.66 24.46) rotate(-13.97)"/>
            <rect class="cls-12" x="71.91" y="23.29" width="35.29" height="2.04" transform="translate(-3.22 22.33) rotate(-13.97)"/>
            <rect class="cls-12" x="73.48" y="29.62" width="35.29" height="2.04" transform="translate(-4.7 22.9) rotate(-13.97)"/>
            <rect class="cls-12" x="75.06" y="35.94" width="35.29" height="2.04" transform="translate(-6.18 23.47) rotate(-13.97)"/>
            <rect class="cls-12" x="76.63" y="42.27" width="35.29" height="2.04" transform="translate(-7.66 24.03) rotate(-13.97)"/>
            <rect class="cls-12" x="78.21" y="48.6" width="35.29" height="2.04" transform="translate(-9.14 24.6) rotate(-13.97)"/>
            <rect class="cls-12" x="79.78" y="54.92" width="35.29" height="2.04" transform="translate(-10.62 25.17) rotate(-13.97)"/>
            <rect class="cls-12" x="81.35" y="61.25" width="35.29" height="2.04" transform="translate(-12.1 25.73) rotate(-13.97)"/>
            <rect class="cls-12" x="82.93" y="67.58" width="35.29" height="2.04" transform="translate(-13.58 26.3) rotate(-13.97)"/>
            <path class="cls-36" d="m86.3,89.13l-6.59,1.64c-1.44.36-2.91-.52-3.27-1.97l-.6-2.42,11.83-2.94.6,2.42c.36,1.44-.52,2.91-1.97,3.27Z"/>
          </g>
          <g>
            <path class="cls-36" d="m232.66,7.82c-3.42-3.25-7.74-5.47-12.19-6.95-.03-.01-.1-.03-.2-.06-4.03-1.08-8.28-1.08-12.31,0-.1.03-.17.05-.2.06-4.45,1.48-8.77,3.7-12.19,6.95-10.18,9.68-8.53,27.25,1.39,36.52,2.78,2.6,4,5.96,4.85,9.66.26,1.11,1.73,12.74,1.22,12.74h22.17c-.51,0,.96-11.63,1.22-12.74.85-3.7,2.07-7.06,4.85-9.66,9.91-9.27,11.57-26.84,1.39-36.52Z"/>
            <path class="cls-18" d="m210.13,53.99c-.85-3.7-2.07-7.06-4.85-9.66-9.91-9.27-11.57-26.84-1.39-36.52,3.42-3.25,7.74-5.47,12.19-6.95.03-.01.1-.03.2-.06.66-.18,1.33-.31,2-.43-3.42-.61-6.94-.47-10.31.43-.1.03-.17.05-.2.06-4.45,1.48-8.77,3.7-12.19,6.95-10.18,9.68-8.53,27.25,1.39,36.52,2.78,2.6,4,5.96,4.85,9.66.26,1.11,1.73,12.74,1.22,12.74h8.32c.51,0-.96-11.63-1.22-12.74Z"/>
            <path class="cls-28" d="m214.11,66.73v-27.11l4.77-2.75c1.58-.91,1.26-3.27-.5-3.74l-8.68-2.29c-1.48-.39-1.65-2.43-.25-3.05l4.66-2.1v-9.2"/>
            <path class="cls-35" d="m227.4,70.46c0,.82-.67,1.49-1.49,1.49h-24.38c-.82,0-1.49-.67-1.49-1.49h0c0-.82.67-1.49,1.49-1.49h24.38c.82,0,1.49.67,1.49,1.49h0Z"/>
            <path class="cls-35" d="m227.4,74.94c0,.82-.67,1.49-1.49,1.49h-24.38c-.82,0-1.49-.67-1.49-1.49h0c0-.82.67-1.49,1.49-1.49h24.38c.82,0,1.49.67,1.49,1.49h0Z"/>
            <path class="cls-35" d="m227.4,79.42c0,.82-.67,1.49-1.49,1.49h-24.38c-.82,0-1.49-.67-1.49-1.49h0c0-.82.67-1.49,1.49-1.49h24.38c.82,0,1.49.67,1.49,1.49h0Z"/>
            <path class="cls-35" d="m213.72,91.36c4.81,0,8.71-3.9,8.71-8.71h-17.41c0,4.81,3.9,8.71,8.71,8.71Z"/>
          </g>
          <g>
            <path class="cls-44" d="m316.86,97.08v-7.01h-3.1c-.59-3.33-1.95-6.38-3.89-8.98l2.46-2.46-4.96-4.96-2.55,2.55c-2.61-1.78-5.64-2.98-8.91-3.45v-3.66h-7.01v3.8c-3.13.59-6.01,1.87-8.5,3.68l-2.48-2.48-4.96,4.96,2.51,2.51c-1.84,2.61-3.09,5.65-3.59,8.95h-3.48v7.01h3.56c.57,3.21,1.87,6.17,3.71,8.7l-2.74,2.74,4.96,4.96,2.77-2.77c2.54,1.79,5.49,3.02,8.69,3.55v3.78h7.01v-3.78c3.18-.53,6.12-1.75,8.66-3.53l2.32,2.32,4.96-4.96-2.28-2.28c1.94-2.66,3.27-5.78,3.8-9.18h3.04Zm-24,8.62c-6.58,0-11.92-5.34-11.92-11.92s5.34-11.92,11.92-11.92,11.92,5.34,11.92,11.92-5.34,11.92-11.92,11.92Z"/>
            <path class="cls-32" d="m344.8,123.66v-4.04h-1.79c-.34-1.92-1.12-3.68-2.24-5.18l1.42-1.42-2.86-2.86-1.47,1.47c-1.51-1.03-3.25-1.72-5.14-1.99v-2.11h-4.04v2.19c-1.81.34-3.47,1.08-4.9,2.12l-1.43-1.43-2.86,2.86,1.45,1.45c-1.06,1.51-1.78,3.26-2.07,5.16h-2.01v4.04h2.05c.33,1.85,1.08,3.56,2.14,5.02l-1.58,1.58,2.86,2.86,1.6-1.6c1.47,1.03,3.17,1.74,5.01,2.05v2.18h4.04v-2.18c1.84-.31,3.53-1.01,5-2.04l1.34,1.34,2.86-2.86-1.31-1.31c1.12-1.54,1.89-3.34,2.19-5.3h1.75Zm-13.84,4.97c-3.8,0-6.88-3.08-6.88-6.88s3.08-6.88,6.88-6.88,6.88,3.08,6.88,6.88-3.08,6.88-6.88,6.88Z"/>
            <g>
              <path class="cls-31" d="m408.5,71.3v-14.39h-6.36c-1.2-6.84-4-13.11-7.99-18.45l5.05-5.05-10.18-10.18-5.23,5.23c-5.36-3.66-11.59-6.11-18.3-7.08v-7.52h-14.39v7.8c-6.43,1.21-12.35,3.85-17.45,7.55l-5.09-5.09-10.18,10.18,5.16,5.16c-3.77,5.36-6.34,11.61-7.38,18.37h-7.15v14.39h7.3c1.18,6.6,3.84,12.66,7.62,17.87l-5.62,5.62,10.18,10.18,5.69-5.69c5.22,3.67,11.28,6.2,17.84,7.29v7.77h14.39v-7.77c6.53-1.09,12.58-3.6,17.78-7.25l4.76,4.76,10.18-10.18-4.68-4.68c3.98-5.47,6.71-11.88,7.8-18.85h6.24Zm-49.28,17.7c-13.52,0-24.48-10.96-24.48-24.48s10.96-24.48,24.48-24.48,24.48,10.96,24.48,24.48-10.96,24.48-24.48,24.48Z"/>
              <circle class="cls-44" cx="358.76" cy="64.57" r="14.37"/>
            </g>
          </g>
          <g>
            <path class="cls-45" d="m78.91,138.06c-30.87,1.87-54.87,20.37-53.59,41.32,1.27,20.95,27.33,36.41,58.2,34.54h.07c3.04-.19,5.16-3.13,4.41-6.08-.37-1.43-.57-2.94-.59-4.49-.16-9.99,7.57-18.56,17.51-19.46,7.22-.65,13.81,2.74,17.62,8.26,1.88,2.72,5.87,2.92,7.9.3,4.64-5.97,7.11-12.77,6.68-19.86-1.27-20.95-27.33-36.41-58.2-34.54Z"/>
            <g>
              <path class="cls-31" d="m78.7,134.67c-30.87,1.87-54.87,20.37-53.6,41.32,1.27,20.95,27.33,36.41,58.2,34.54.02,0,.05,0,.07,0,3.04-.19,5.16-3.12,4.41-6.07-.37-1.43-.57-2.94-.59-4.49-.16-9.99,7.57-18.56,17.51-19.46,7.22-.65,13.81,2.74,17.62,8.26,1.88,2.72,5.87,2.92,7.9.3,4.64-5.97,7.11-12.77,6.68-19.86-1.27-20.95-27.33-36.41-58.2-34.54Z"/>
              <path class="cls-36" d="m67.8,194.06c.23,3.72-2.61,6.92-6.33,7.15-3.72.23-6.92-2.61-7.15-6.33-.23-3.72,2.61-6.92,6.33-7.15s6.92,2.61,7.15,6.33Z"/>
              <path class="cls-36" d="m49.41,181.28c.23,3.72-2.61,6.92-6.33,7.15-3.72.23-6.92-2.61-7.15-6.33-.23-3.72,2.61-6.92,6.33-7.15,3.72-.23,6.92,2.61,7.15,6.33Z"/>
              <path class="cls-36" d="m54.81,158.93c.23,3.72-2.61,6.92-6.33,7.15-3.72.23-6.92-2.61-7.15-6.33-.23-3.72,2.61-6.92,6.33-7.15s6.92,2.61,7.15,6.33Z"/>
              <path class="cls-36" d="m77.61,146.86c.23,3.72-2.61,6.92-6.33,7.15-3.72.23-6.92-2.61-7.15-6.33-.23-3.72,2.61-6.92,6.33-7.15,3.72-.23,6.92,2.61,7.15,6.33Z"/>
              <path class="cls-36" d="m103.28,147.19c.23,3.72-2.61,6.92-6.33,7.15-3.72.23-6.92-2.61-7.15-6.33s2.61-6.92,6.33-7.15c3.72-.23,6.92,2.61,7.15,6.33Z"/>
              <path class="cls-36" d="m124.94,159.4c.23,3.72-2.61,6.92-6.33,7.15-3.72.23-6.92-2.61-7.15-6.33-.23-3.72,2.61-6.92,6.33-7.15,3.72-.23,6.92,2.61,7.15,6.33Z"/>
            </g>
            <path class="cls-11" d="m108.75,138.67l-6.36,13.3c-.84-.04-1.65.44-1.98,1.26l-.02.04c-.42,1.04.08,2.23,1.12,2.65l.6.24c-.12-.04-.72-.11-2,1.75h0s0,0,0,0c-.08.11-.16.23-.24.36,0,.01-.02.03-.02.04-.08.12-.16.25-.24.38-.02.03-.03.05-.05.08-.08.12-.15.26-.23.39-.02.04-.05.08-.07.12-.07.13-.15.27-.23.41-.03.06-.06.11-.09.17-.07.14-.15.28-.23.43-.04.07-.08.15-.12.22-.07.14-.15.29-.23.44-.05.09-.09.18-.14.28-.07.15-.15.3-.22.46-.05.11-.11.22-.16.33-.07.16-.15.31-.23.48-.06.12-.12.25-.18.38-.07.16-.15.33-.23.5-.07.15-.13.3-.2.45-.07.17-.15.34-.22.51-.07.17-.15.35-.22.52-.07.18-.15.35-.22.53-.08.19-.16.39-.24.59-.07.18-.15.36-.22.55-.09.22-.18.45-.27.68-.07.19-.15.37-.22.56-.1.26-.2.53-.31.8-.07.18-.13.34-.2.52-.12.32-.25.66-.38,1-.05.14-.1.28-.16.43-.18.49-.37,1-.56,1.53-.51,1.42-1.1,3.09-1.76,4.94-.08.21-.15.42-.23.64-.1.28-.2.57-.3.86-.08.24-.17.47-.25.72-.13.38-.27.77-.41,1.16-.06.18-.12.35-.19.53-.14.39-.28.79-.42,1.18-.07.2-.14.4-.21.61-.13.37-.27.76-.4,1.14-.08.24-.16.47-.25.71-.16.44-.31.89-.47,1.35-.06.17-.12.34-.18.51-.16.46-.33.93-.49,1.4-.07.2-.14.4-.21.6-.15.44-.31.88-.46,1.33-.08.23-.16.45-.24.68-.16.47-.33.95-.5,1.43-.07.21-.14.41-.21.62-.16.47-.33.95-.49,1.42-.08.24-.16.47-.25.71-.15.43-.3.86-.45,1.29-.11.31-.21.61-.32.92-.13.37-.26.74-.39,1.12-.12.35-.24.71-.37,1.06-.14.4-.27.8-.41,1.2-.07.21-.14.42-.22.63h0s0,0,0,0c-1.12,3.26-2.25,6.56-3.36,9.84.98-.02,1.97-.07,2.96-.13.02,0,.05,0,.07,0,3.04-.19,5.16-3.12,4.41-6.07-.37-1.43-.57-2.94-.59-4.49-.14-8.74,5.76-16.4,13.9-18.78.9-1.95,1.7-3.7,2.38-5.17,7.16-15.68,5.38-17.09,5.16-17.2l.6.24c1.04.42,2.23-.08,2.65-1.12l.02-.04c.4-.97-.02-2.07-.93-2.55l4.76-13.69c-2.2-1.11-4.53-2.11-6.98-2.99Zm-6.62,17.5h0s.17.07.17.07l-.17-.07Z"/>
            <path class="cls-16" d="m53.65,157.9c.09,1.56-1.09,2.89-2.65,2.99-1.56.09-2.89-1.09-2.99-2.65-.09-1.56,1.09-2.89,2.65-2.99,1.56-.09,2.89,1.09,2.99,2.65Z"/>
            <path class="cls-16" d="m76.45,146.07c.09,1.56-1.09,2.89-2.65,2.99-1.56.09-2.89-1.09-2.99-2.65s1.09-2.89,2.65-2.99,2.89,1.09,2.99,2.65Z"/>
            <path class="cls-16" d="m100.6,145.46c.09,1.56-1.09,2.89-2.65,2.99s-2.89-1.09-2.99-2.65,1.09-2.89,2.65-2.99c1.56-.09,2.89,1.09,2.99,2.65Z"/>
            <path class="cls-16" d="m46.56,179.29c.09,1.56-1.09,2.89-2.65,2.99-1.56.09-2.89-1.09-2.99-2.65s1.09-2.89,2.65-2.99c1.56-.09,2.89,1.09,2.99,2.65Z"/>
            <path class="cls-16" d="m66.57,192.1c.09,1.56-1.09,2.89-2.65,2.99-1.56.09-2.89-1.09-2.99-2.65s1.09-2.89,2.65-2.99c1.56-.09,2.89,1.09,2.99,2.65Z"/>
            <g>
              <path class="cls-36" d="m133.43,134.65s9.21-5.03,9.8-12.81c-.04-4.6-2.03-8.37-2.03-8.37l-1.26,4.74s-.69-7.44-6.01-11.04c-5.31-3.6-4.01-2.59-4.01-2.59,0,0,4.46,5.92-.49,15.74-4.95,9.82,1.3,13.23,1.3,13.23l2.7,1.1Z"/>
              <path class="cls-30" d="m132.86,131.46s-1.67-8.54,2.14-13.13c-4.95,6.27-5.97,11.31-4.73,15.39l2.59-2.26Z"/>
              <path class="cls-15" d="m128.41,133.15c.81-1.64,2.75-2.38,4.45-1.69h.03s.03.02.03.02c1.7.69,2.57,2.57,2,4.32l-6.06,18.61-4.56-1.86-4.56-1.86,8.66-17.54Z"/>
              <path class="cls-43" d="m119.04,154.85l7.71,3.14c1.04.42,2.23-.08,2.65-1.12l.02-.04c.42-1.04-.08-2.23-1.12-2.65l-7.71-3.14c-1.04-.42-2.23.08-2.65,1.12l-.02.04c-.42,1.04.08,2.23,1.12,2.65Z"/>
              <path class="cls-35" d="m119.66,155.11l3.24,1.32,3.24,1.32s2.46.58-5.13,17.21c-5.64,12.36-20.16,43.35-28.52,59.91-.78,1.55-3.13.59-2.61-1.06,5.58-17.69,16.85-50.01,21.44-62.8,6.18-17.2,8.35-15.9,8.35-15.9Z"/>
              <path class="cls-15" d="m102.38,214.62c-3.61,7.54-7.1,14.7-9.9,20.24-.78,1.55-3.13.59-2.61-1.06,1.87-5.92,4.37-13.49,7.05-21.41l5.46,2.22Z"/>
              <path class="cls-14" d="m101.24,199.76h0c11.9-14.73,16.37-42.79,16.39-42.91-1.32,1.92-3.36,5.91-6.32,14.16-2.24,6.25-6.08,17.16-10.07,28.75Z"/>
            </g>
          </g>
          <g>
            <polygon class="cls-32" points="331.63 165.22 333.74 169.49 338.46 170.17 335.05 173.5 335.85 178.19 331.63 175.98 327.42 178.19 328.22 173.5 324.81 170.17 329.53 169.49 331.63 165.22"/>
            <polygon class="cls-44" points="392.33 159.25 395.28 165.21 401.86 166.17 397.1 170.81 398.22 177.37 392.33 174.27 386.44 177.37 387.57 170.81 382.81 166.17 389.39 165.21 392.33 159.25"/>
            <polygon class="cls-32" points="373.91 248.64 375.55 251.97 379.23 252.5 376.57 255.09 377.2 258.75 373.91 257.03 370.62 258.75 371.25 255.09 368.59 252.5 372.27 251.97 373.91 248.64"/>
            <polygon class="cls-44" points="315.29 226.08 318.23 232.05 324.81 233.01 320.05 237.65 321.17 244.21 315.29 241.11 309.4 244.21 310.52 237.65 305.76 233.01 312.34 232.05 315.29 226.08"/>
            <g>
              <circle class="cls-36" cx="359.5" cy="209.7" r="32.83" transform="translate(-52.22 148.87) rotate(-21.85)"/>
              <g class="cls-9">
                <path class="cls-30" d="m350.67,241.32c11.6,3.24,23.47-.18,31.57-7.96-5.49,1.47-11.42,1.54-17.29-.09-17.46-4.87-27.67-22.98-22.8-40.44,1.64-5.87,4.77-10.91,8.87-14.84-10.84,2.91-19.92,11.3-23.15,22.89-4.87,17.46,5.33,35.57,22.8,40.44Z"/>
              </g>
              <path class="cls-18" d="m368.32,178.08c-1.64-.46-3.28-.78-4.91-.98-.86,3.07-1.32,6.3-1.32,9.64,0,17.09,11.96,31.37,27.97,34.96.4-1.03.76-2.09,1.06-3.18,4.87-17.46-5.33-35.57-22.8-40.44Z"/>
              <path class="cls-20" d="m326.78,207c-12.74-4.96-20.66-9.45-19.99-11.84,1.11-3.97,25.55-.61,54.61,7.49,29.05,8.11,51.7,17.89,50.6,21.86-.66,2.38-9.71,2.13-23.1-.2"/>
            </g>
          </g>
        </g>
      </g>
    </g>
  </g>
</svg>