<?xml version="1.0" encoding="UTF-8"?><svg id="Layer_1" xmlns="http://www.w3.org/2000/svg" xmlns:xlink="http://www.w3.org/1999/xlink" viewBox="0 0 288.72 360.64"><defs><style>.cls-1{font-family:LeagueSpartan-Bold, 'LeagueSpartan Bold';font-size:24.14px;font-weight:700;}.cls-2{fill:url(#Degradado_sin_nombre_12-4);}.cls-3{fill:url(#Degradado_sin_nombre_12-2);}.cls-4{letter-spacing:.26em;}.cls-5{fill:url(#Degradado_sin_nombre_12-6);}.cls-6{letter-spacing:0em;}.cls-7{letter-spacing:.3em;}.cls-8{fill:url(#Degradado_sin_nombre_12-7);}.cls-9{fill:url(#Degradado_sin_nombre_12-5);}.cls-10{letter-spacing:.3em;}.cls-11{fill:url(#Degradado_sin_nombre_12-8);}.cls-12{letter-spacing:0em;}.cls-13{font-family:BebasNeueBook, BebasNeueBook;font-size:11.05px;}.cls-14{fill:#5300ff;}.cls-15{fill:url(#Degradado_sin_nombre_12-3);}.cls-16{fill:url(#Degradado_sin_nombre_12);}</style><linearGradient id="Degradado_sin_nombre_12" x1="37.36" y1="51.67" x2="110.64" y2="51.67" gradientUnits="userSpaceOnUse"><stop offset="0" stop-color="#00c9ff"/><stop offset="1" stop-color="#5300ff"/></linearGradient><linearGradient id="Degradado_sin_nombre_12-2" x1="169.19" x2="287.71" xlink:href="#Degradado_sin_nombre_12"/><linearGradient id="Degradado_sin_nombre_12-3" x1="43.52" y1="230.9" x2="104.37" y2="230.9" xlink:href="#Degradado_sin_nombre_12"/><linearGradient id="Degradado_sin_nombre_12-4" x1="16.77" y1="279.13" x2="127.95" y2="279.13" xlink:href="#Degradado_sin_nombre_12"/><linearGradient id="Degradado_sin_nombre_12-5" x1="16.89" y1="235.56" x2="131.23" y2="235.56" xlink:href="#Degradado_sin_nombre_12"/><linearGradient id="Degradado_sin_nombre_12-6" x1="174.17" y1="231.68" x2="270.35" y2="231.68" xlink:href="#Degradado_sin_nombre_12"/><linearGradient id="Degradado_sin_nombre_12-7" x1="174.17" y1="285.9" x2="270.35" y2="285.9" xlink:href="#Degradado_sin_nombre_12"/><linearGradient id="Degradado_sin_nombre_12-8" x1="186.55" y1="258.79" x2="282.73" y2="258.79" xlink:href="#Degradado_sin_nombre_12"/></defs><g><g><text class="cls-1" transform="translate(0 143.72)"><tspan x="0" y="0">b</tspan><tspan class="cls-6" x="13.73" y="0">r</tspan><tspan x="21.5" y="0">and</tspan><tspan class="cls-14" x="60.15" y="0">name</tspan></text><text class="cls-13" transform="translate(35.77 157.55)"><tspan class="cls-7" x="0" y="0">S</tspan><tspan class="cls-4" x="8.76" y="0">L</tspan><tspan class="cls-10" x="16.86" y="0">OGAN HER</tspan><tspan class="cls-12" x="93.07" y="0">E</tspan></text></g><path class="cls-16" d="m107.91,51.67c0,4.75-3.85,8.61-8.61,8.61s-8.61-3.85-8.61-8.61,3.85-8.61,8.61-8.61,8.61,3.85,8.61,8.61Zm-39.25,10.93h9c5.46,0,10.02-4.53,9.64-9.98-.02-.31-.03-.63-.03-.95s.01-.64.03-.95c.38-5.45-4.18-9.98-9.64-9.98h-9c-5.21,0-9.44-4.23-9.44-9.44h0c0-5.21,4.23-9.44,9.44-9.44h32.54c5.21,0,9.44-4.23,9.44-9.44v-2.98c0-5.21-4.23-9.44-9.44-9.44h-54.4c-5.21,0-9.44,4.23-9.44,9.44v84.46c0,5.21,4.23,9.44,9.44,9.44h54.4c5.21,0,9.44-4.23,9.44-9.44v-2.98c0-5.21-4.23-9.44-9.44-9.44h-32.54c-5.21,0-9.44-4.23-9.44-9.44h0c0-5.21,4.23-9.44,9.44-9.44Z"/></g><g><g><text class="cls-1" transform="translate(154.45 143.72)"><tspan x="0" y="0">b</tspan><tspan class="cls-6" x="13.73" y="0">r</tspan><tspan x="21.5" y="0">and</tspan><tspan class="cls-14" x="60.15" y="0">name</tspan></text><text class="cls-13" transform="translate(190.22 157.55)"><tspan class="cls-7" x="0" y="0">S</tspan><tspan class="cls-4" x="8.76" y="0">L</tspan><tspan class="cls-10" x="16.86" y="0">OGAN HER</tspan><tspan class="cls-12" x="93.07" y="0">E</tspan></text></g><polygon class="cls-3" points="212.57 81.6 203.92 66.61 279.08 66.61 287.71 51.67 279.08 36.72 203.92 36.72 212.57 21.73 270.42 21.73 258.08 .35 198.82 .35 169.19 51.67 198.82 102.99 258.08 102.99 270.42 81.6 212.57 81.6"/></g><g><g><text class="cls-1" transform="translate(0 344.05)"><tspan x="0" y="0">b</tspan><tspan class="cls-6" x="13.73" y="0">r</tspan><tspan x="21.5" y="0">and</tspan><tspan class="cls-14" x="60.15" y="0">name</tspan></text><text class="cls-13" transform="translate(35.77 357.88)"><tspan class="cls-7" x="0" y="0">S</tspan><tspan class="cls-4" x="8.76" y="0">L</tspan><tspan class="cls-10" x="16.86" y="0">OGAN HER</tspan><tspan class="cls-12" x="93.07" y="0">E</tspan></text></g><g><path class="cls-15" d="m73.95,217.96c-15.32,0-28.05,11.23-30.43,25.89h60.85c-2.37-14.66-15.11-25.89-30.42-25.89Z"/><g><path class="cls-2" d="m73.95,287.18c-20.03,0-36.51-15.42-38.23-35h-18.94c1.75,30.06,26.68,53.89,57.17,53.89,24.94,0,46.14-15.94,54.01-38.18h-20.73c-6.63,11.51-19.06,19.28-33.28,19.28Z"/><path class="cls-9" d="m73.95,191.51c-29.97,0-54.55,23.02-57.06,52.34h19c2.43-18.84,18.57-33.45,38.06-33.45s36.22,15.14,38.19,34.47c.13,1.29.2,2.6.2,3.92,0,1.17-.06,2.33-.17,3.48H43.32c1.74,15.37,14.81,27.35,30.63,27.35,13.22,0,24.52-8.36,28.89-20.07h7.95s0,0,0,.01h19.41c.66-3.49,1.03-7.09,1.03-10.77,0-31.64-25.65-57.28-57.28-57.28Z"/></g></g></g><g><g><text class="cls-1" transform="translate(154.45 344.05)"><tspan x="0" y="0">b</tspan><tspan class="cls-6" x="13.73" y="0">r</tspan><tspan x="21.5" y="0">and</tspan><tspan class="cls-14" x="60.15" y="0">name</tspan></text><text class="cls-13" transform="translate(190.22 357.88)"><tspan class="cls-7" x="0" y="0">S</tspan><tspan class="cls-4" x="8.76" y="0">L</tspan><tspan class="cls-10" x="16.86" y="0">OGAN HER</tspan><tspan class="cls-12" x="93.07" y="0">E</tspan></text></g><g><path class="cls-5" d="m181.68,239.19h88.68l-8.92-15.02h-79.76c-4.15,0-7.51,3.36-7.51,7.51h0c0,4.15,3.36,7.51,7.51,7.51Z"/><path class="cls-8" d="m181.68,293.41h88.68l-8.92-15.02h-79.76c-4.15,0-7.51,3.36-7.51,7.51h0c0,4.15,3.36,7.51,7.51,7.51Z"/><path class="cls-11" d="m194.05,266.3h88.68l-8.92-15.02h-79.76c-4.15,0-7.51,3.36-7.51,7.51h0c0,4.15,3.36,7.51,7.51,7.51Z"/></g></g></svg>