<?xml version="1.0" encoding="UTF-8"?>
<svg id="Layer_1" data-name="Layer 1" xmlns="http://www.w3.org/2000/svg" viewBox="0 0 382.1 392.88">
  <defs>
    <style>
      .cls-1 {
        fill: #0d0d0d;
      }

      .cls-1, .cls-2, .cls-3, .cls-4, .cls-5, .cls-6, .cls-7 {
        fill-rule: evenodd;
      }

      .cls-2 {
        fill: #fff;
      }

      .cls-3 {
        fill: #121212;
      }

      .cls-4 {
        fill: #04bdc7;
      }

      .cls-5 {
        fill: #666;
      }

      .cls-6 {
        fill: #0a0a0a;
      }
    </style>
  </defs>
  <path class="cls-6" d="m134.38,6.44s-6.69,3.05-16.82,7.67c-10.13,4.62-29.22,11.9-37.87,16.63-8.66,4.72-12,6.49-16.72,12.2-4.72,5.71-44.66,75.36-51.55,83.82-6.89,8.46-11.41,16.53-11.41,16.53,0,0,10.62,14.36,27.74,22.82,17.12,8.46,16.92,10.23,24.79,17.12,7.87,6.89,10.62,10.43,10.62,10.43l18.89-15.45s-3.93,91.79-5.12,127.99c-1.18,36.2-6.3,79.88-5.9,82.24.39,2.36,35.42-.39,55.09-1.18,19.68-.79,29.51,1.57,42.89,1.18,13.38-.39,12.99-5.9,54.3,0,41.32,5.9,51.55,4.72,66.21,3.25,14.66-1.48,18.59-.89,18.59-.89,0,0-6.69-81.55-6.69-118.54s-.39-90.7-.39-90.7c0,0,6.3,9.05,7.77,11.02,1.48,1.97,2.95,1.77,2.95,1.77,0,0,9.35-12.49,24.99-18.1,15.64-5.61,22.63-8.85,24.2-9.84s21.15-13.97,21.15-13.97c0,0-44.86-73.98-51.94-87.56-7.08-13.58-13.77-22.04-18.69-27.15-4.92-5.12-24.79-14.36-36.99-19.08-12.2-4.72-28.92-10.82-28.92-10.82,0,0-8.12,13.63-23.95,25.92-15.84,12.3-59.81,18.4-86.42-23.46l-.79-3.84h0Z"/>
  <path class="cls-3" d="m206.95,386.45c4.6.43,9.98,1.07,16.37,1.98h.02c-5.73-29.18-5.73-114.47-5.73-114.47,0,0-3.25,29.83-7.97,74.42-2.1,19.83-2.68,31.37-2.68,38.07h0Zm111.4-199.03c4.29-3.83,10.55-8.37,18.39-11.19.74-.27,1.46-.53,2.16-.78-.96-3.28-3.26-9.3-8.34-20.36-11.81-25.69-23.33-55.82-23.33-55.82,0,0,10.01,52.16,11.06,74.66.24,5.14.22,9.62.06,13.49h0Zm37.19-18.44l.71-.31c-.24.1-.48.2-.71.31h0Zm2.08-.92c1.75-.79,2.82-1.35,3.33-1.66,1.57-.98,21.15-13.97,21.15-13.97,0,0-44.86-73.98-51.94-87.56-7.08-13.58-13.77-22.04-18.69-27.15-4.92-5.12-24.79-14.36-36.99-19.08-12.2-4.72-28.92-10.82-28.92-10.82,0,0-2.2,3.7-6.55,8.98,9.3,2.96,24.11,7.91,42.54,14.85,32.19,12.11,32.78,18.31,45.78,38.1,12.99,19.79,35.11,71.8,37.64,78.87,2.41,6.74,1.46,15.15-7.34,19.45h0Zm-307.58,12.91c.75.69,1.57,1.43,2.5,2.25,7.87,6.89,10.62,10.43,10.62,10.43l10.61-8.68c4.1-42.41-2.51-109.33-2.51-109.33,0,0-3.25,59.36-12.4,85.06-3.36,9.44-6.37,15.88-8.82,20.27h0Zm-28.27-18.2c1.89,1.17,3.89,2.3,5.98,3.33,9.65,4.77,13.8,7.41,16.99,10.05,1.65-4.41.88-11.11-1.53-22.24-3.54-16.39,6.05-30.42,4.13-33.37-1.92-2.95-7.38,6.79-14.79,25.44-3.82,9.61-7.81,14.41-10.79,16.79h0ZM134.38,6.44s-6.69,3.05-16.82,7.67c-10.13,4.62-29.22,11.9-37.87,16.63s-12,6.49-16.72,12.2c-4.72,5.71-44.66,75.36-51.55,83.82-6.89,8.46-11.41,16.53-11.41,16.53,0,0,.92,1.24,2.65,3.21,1.96-3.04,4.74-7.06,8.66-12.36,15.95-21.56,24.81-37.8,33.08-51.39,8.27-13.59,9.6-20.67,11.37-13.73,1.77,6.94-4.58,19.34-4.58,19.34,0,0,5.17-5.46,12.7-28.2,7.53-22.74,15.65-23.92,32.93-30.72,17.28-6.79,20.15-10.35,32.93-9.89,5.37.19,7.01-3.14,6.84-7.12-.47-.7-.94-1.41-1.41-2.14l-.79-3.84h0Zm146.3,386.06c2.96-.22,5.81-.51,8.83-.82,14.66-1.48,18.59-.89,18.59-.89,0,0-.28-3.42-.73-9.18-7.85-5.03-17.01-11.91-26.58-21.41-27.01-26.79-42.23-81.51-42.23-81.51,0,0,12.11,70.29,18.61,85.94,3.42,8.24,14.13,19.27,23.51,27.87h0Z"/>
  <path class="cls-7" d="m134.38,6.44s-6.26,2.86-15.85,7.23c2.82.79,5.76,1.99,8.72,3.74,14.95,8.85,18.49,15.15,36.2,22.43,17.71,7.28,26.17,8.66,42.7,6.69,16.53-1.97,28.53-23.81,39.74-25.77,11.21-1.97,18.4-5.38,32.32-.62-1.3-.53-2.56-1.03-3.74-1.49-12.2-4.72-28.92-10.82-28.92-10.82,0,0-8.12,13.63-23.95,25.92-15.84,12.3-59.81,18.4-86.42-23.46l-.79-3.84h0Z"/>
  <path class="cls-7" d="m73.72,185.01l8.33-6.81s-3.93,91.79-5.12,127.99c-1.18,36.2-6.3,79.88-5.9,82.24.2,1.19,9.22,1.08,20.64.58-22.2-15.8,2.52-29.06-2.99-67.62-5.51-38.56,10.62-101.92,1.18-137.33-9.44-35.42-5.26-59.81-5.26-59.81l-10.89,60.77h0Z"/>
  <path class="cls-7" d="m301.09,189.66c-.03-5.09-.06-8.11-.06-8.11,0,0,6.3,9.05,7.77,11.02,1.48,1.97,2.95,1.77,2.95,1.77,0,0,.31-.41.9-1.12-8.47-8.36-7.29-24.86-10.1-56.58-2.82-31.72-4.92-71.22-7.08-83.42-2.16-12.2,1.77,64.34,1.57,85.98-.2,21.64,4.04,50.44,4.04,50.47h0ZM3.07,146.97c3.95,4.42,11.55,11.95,21.78,17.62,2.19-4.97,5.05-11.62,7.17-17.13,3.94-10.23,8.85-41.71,8.85-41.71,0,0-6.69,11.81-18.49,27.15-7.01,9.11-14.43,12.67-19.31,14.07h0Zm34.28,24.2c7.44,4.29,9.02,6.56,14.24,11.23.7-3.98,1.64-10.39,2.46-19.78,1.57-17.9,1.97-41.71,1.97-41.71,0,0-4.13,31.1-12.4,44.07-1.88,2.95-4.05,4.92-6.27,6.19h0Zm24.19,20.65c1.13,1.22,1.61,1.84,1.61,1.84l18.78-15.36c2.7-23.75,3.55-61.32,1.64-81.4-2.56-26.76-12.49-45.94-12.49-45.94,0,0,5.51,27.74,4.72,45.84-.79,18.1.39,38.96-6.3,69.26-2.34,10.61-5.22,19.14-7.96,25.76h0Zm245.07,198.89c1.08.03,1.5.1,1.5.1,0,0-2.23-27.2-4.12-57.3-5-9.24-9.46-19.12-12.26-28.83-10.23-35.42-20.46-110.97-23.41-136.74-2.95-25.77-6.69-42.5-6.69-42.5,0,0-14.2,153.65,44.98,265.27h0Zm-73.72-.95c33.45,4.39,43.18,3.29,56.64,1.93,1.88-.19,3.59-.35,5.14-.47-5.96-3.55-12.58-9.18-19.25-18.07-21.25-28.33-34.63-96.41-36.6-132.61-1.97-36.2-1.97-57.45-1.97-57.45,0,0-14.07,155.44-3.96,206.68h0Zm-156.26-75.79c-.78,16.99-2.24,34.83-3.48,48.8,6.54-11.12,15.2-28.91,21.64-53.37,11.81-44.86,30.22-196.76,24.4-177.86-5.83,18.9-20.65,100.97-29.59,133.26-8.94,32.28-7.71,40.31-12.97,49.18h0Zm-1.7,75.33c9.72.5,35.4-1.4,51.19-2.03,19.68-.79,29.51,1.57,42.89,1.18,11.13-.33,12.73-4.19,36.74-2.09-23.2-65.59-31.09-192.26-31.09-192.26,0,0,1.57,128.68-6.69,157.8-8.26,29.12-25.18,26.36-51.55,28.73-26.37,2.36-9.84-61.78-9.84-61.78,0,0-11.41,31.48-21.25,54.7-3.26,7.68-6.94,12.61-10.42,15.76h0Zm268.15-215.37c10.34-3.86,15.64-6.28,17.47-7.29-2.17-1.94-4.57-4.18-7.23-6.78-18.3-17.9-41.32-87.56-40.92-85.98.39,1.57,13.38,45.45,24.99,79.68,3.2,9.43,4.9,15.91,5.69,20.36h0Z"/>
  <path class="cls-1" d="m135.17,10.27l-.79-3.84s4.63-3.34,6.4-4.52c1.77-1.18,4.43-1.77,4.43-1.77,0,0,11.51,25.18,31.97,28.73,20.46,3.54,33.64-3.35,41.91-9.05,8.26-5.71,15.84-17.71,15.84-17.71,0,0,4.72,1.33,6.98,3.1,2.26,1.77,3.64,2.61,3.64,2.61,0,0-8.12,13.63-23.95,25.92-15.84,12.3-59.81,18.4-86.42-23.46h0Z"/>
  <path d="m135.05,10.3l-.79-3.84-.02-.08.06-.05s4.63-3.35,6.4-4.53c1.79-1.19,4.46-1.79,4.47-1.79l.1-.02.04.09c.03.07,11.48,25.13,31.88,28.66,10.21,1.77,18.6.93,25.47-1.05,6.87-1.99,12.22-5.13,16.34-7.98,8.24-5.69,15.78-17.64,15.8-17.67l.05-.08.09.03s4.74,1.33,7.03,3.12c2.25,1.76,3.62,2.6,3.63,2.6l.1.06-.06.11s-8.13,13.64-23.98,25.96c-.73.56-1.51,1.12-2.35,1.65-8.24,5.24-21.75,8.84-36.4,7.02-14.64-1.83-30.42-9.08-43.2-25.54-1.6-2.06-3.15-4.26-4.65-6.62l-.02-.04h0Zm-.53-3.81l.77,3.74c1.49,2.34,3.03,4.53,4.62,6.58,12.74,16.41,28.46,23.63,43.04,25.45,14.58,1.82,28.03-1.77,36.24-6.98.84-.53,1.61-1.08,2.33-1.64,15.04-11.68,23.09-24.52,23.86-25.78-.36-.23-1.64-1.06-3.55-2.55-2.06-1.62-6.2-2.86-6.86-3.05-.66,1.03-7.91,12.2-15.82,17.67-4.14,2.86-9.51,6.01-16.42,8.01-6.9,2-15.33,2.84-25.58,1.06-19.84-3.43-31.25-27.07-32.02-28.7-.49.12-2.73.69-4.29,1.73-1.65,1.1-5.77,4.07-6.33,4.48h0Z"/>
  <path class="cls-7" d="m228.44,10.87c.35-.42.69-.83,1.02-1.23,2.95,2.36,7.02,6.03,8.99,7.83-.57.69-1.18,1.4-1.83,2.13-2.32-3.4-5.51-6.46-8.17-8.72h0Zm2.62-3.28c.31-.41.61-.81.89-1.19,2.6,1.68,6.5,5.33,9.08,7.84-.32.41-.65.84-1,1.27-2.36-3.37-5.91-6.05-8.97-7.93h0Zm2.1-2.87c1.12-1.59,1.77-2.61,1.77-2.61h.04c2.06,1.98,5.85,6.75,8.03,9.51-.19.26-.39.54-.6.82-2.71-3.01-6.66-5.94-9.23-7.72h0Zm6.61-.79c.8.39,1.55.82,2.14,1.28,1.68,1.31,2.87,2.11,3.37,2.44l.23.22c-.11.19-.54.88-1.28,1.97-1.41-2-3.02-4.09-4.47-5.91h0Zm-9.53,22.32c-.09.08-.18.17-.26.25-.18-.11-.28-.18-.28-.18l.54-.07h0Z"/>
  <path d="m228.34,10.8c.18-.22.35-.42.51-.61.17-.2.33-.41.51-.62l.08-.1.1.08c1.48,1.18,3.23,2.69,4.87,4.13,1.63,1.43,3.14,2.8,4.13,3.7l.09.08-.08.09c-.28.34-.58.69-.89,1.05-.31.36-.63.72-.94,1.08l-.1.12-.09-.13c-1.03-1.51-2.24-2.96-3.49-4.3-1.56-1.66-3.19-3.15-4.66-4.4l-.09-.08.08-.09h0Zm.7-.46c-.15.18-.29.35-.43.52,1.45,1.23,3.06,2.71,4.59,4.34,1.23,1.31,2.41,2.72,3.43,4.2.29-.33.57-.65.83-.96.27-.32.54-.64.81-.96-.98-.89-2.45-2.22-4.04-3.62-1.6-1.41-3.31-2.88-4.76-4.05-.14.17-.28.35-.43.53h0Zm1.92-2.82c.17-.22.31-.41.45-.59.14-.19.29-.39.44-.59l.07-.09.1.06c1.11.72,2.45,1.79,3.83,2.98,1.86,1.61,3.79,3.43,5.27,4.88l.08.08-.07.09c-.17.22-.33.43-.5.64-.16.2-.33.42-.51.64l-.1.13-.09-.13c-1.17-1.68-2.64-3.18-4.2-4.5-1.56-1.32-3.21-2.46-4.73-3.39l-.12-.07.08-.11h0Zm.64-.44c-.13.17-.25.33-.37.48,1.5.93,3.12,2.05,4.65,3.34,1.53,1.3,2.98,2.77,4.15,4.42.13-.17.27-.34.4-.51.15-.19.29-.37.43-.55-1.47-1.43-3.36-3.21-5.18-4.79-1.33-1.15-2.63-2.19-3.71-2.9-.11.15-.24.32-.37.5h0Zm1.46-2.42c1.12-1.59,1.76-2.6,1.76-2.61l.05-.08.09.02h.04s.05.04.05.04c1.03.99,2.5,2.68,3.98,4.46,1.47,1.77,2.97,3.66,4.06,5.05l.06.07-.05.07c-.09.12-.18.26-.29.4h0c-.09.13-.2.27-.31.42l-.09.12-.1-.11c-1.15-1.27-2.51-2.53-3.91-3.69-1.89-1.58-3.83-2.98-5.31-4l-.1-.07.07-.1h0Zm1.9-2.37c-.19.3-.76,1.17-1.63,2.41,1.47,1.02,3.37,2.4,5.22,3.95,1.36,1.14,2.7,2.36,3.83,3.61l.22-.3h0c.08-.1.16-.21.24-.33-1.08-1.36-2.54-3.2-4-4.97-1.44-1.74-2.86-3.38-3.88-4.37h0Zm4.87,1.53c.4.19.79.4,1.16.62.36.22.71.44,1.01.68.67.53,1.27.97,1.77,1.33.75.54,1.29.9,1.59,1.1h.02s.23.24.23.24l.07.07-.05.08c-.06.1-.2.33-.41.65-.21.33-.5.77-.88,1.33l-.1.15-.1-.14c-.71-1-1.46-2.02-2.21-3.02-.75-.99-1.52-1.97-2.25-2.89l.15-.19h0Zm1.03.83c-.21-.12-.42-.24-.64-.36.62.78,1.26,1.61,1.9,2.46.73.96,1.45,1.93,2.12,2.88.32-.47.58-.87.77-1.18.17-.26.28-.45.35-.56l-.15-.15c-.3-.2-.85-.56-1.59-1.1-.51-.37-1.1-.81-1.78-1.34-.29-.23-.62-.45-.98-.66h0Zm-10.53,21.69l-.17.16h0l-.09.09-.07.07-.08-.05c-.19-.12-.28-.18-.28-.18l.05-.22.54-.07.1.21h0Z"/>
  <path class="cls-7" d="m213.91,23.07c.47-.27.93-.54,1.38-.8,2.43,3.87,5.74,10.01,6.46,11.35-.05.04-.11.08-.16.12-.77.59-1.6,1.17-2.49,1.74-.92-4.45-3.19-9.01-5.2-12.4h0Zm3.61-2.2c.42-.28.83-.55,1.23-.82,2.03,2.66,4.69,7.78,6.25,10.93-.47.4-.96.8-1.45,1.2-.95-4.28-3.59-8.31-6.03-11.31h0Zm2.91-2.04c.82-.64,1.64-1.33,2.43-2.06,1.34,2.57,3.49,8.74,4.64,12.03-.25.23-.51.46-.77.69-1.52-3.8-4.37-8.02-6.3-10.66h0Zm4.48-4.05l.11-.11c1.12,2.14,4.06,7.37,5.9,10.92-.57.56-1.15,1.12-1.75,1.68-1.38-4.82-3.44-10.3-4.25-12.49h0Zm2.34-2.53c.08-.09.16-.18.24-.27,1.87,2.17,4.82,5.7,7.48,9.43-.53.57-1.08,1.16-1.64,1.75-1.72-4.08-4.36-8.33-6.07-10.91h0Zm-14.28,26.35c-.61.25-1.24.5-1.88.74-.66-.78-1.08-1.34-1.08-1.34,0,0,1.14.24,2.96.6h0Z"/>
  <path d="m213.85,22.96c.24-.14.47-.27.7-.4.24-.14.46-.27.68-.4l.1-.06.06.1c.89,1.43,1.91,3.16,2.86,4.84,1.65,2.9,3.15,5.67,3.6,6.52l.05.09-.08.06-.07.06h0l-.09.07h0c-.39.3-.79.59-1.2.88-.42.29-.85.58-1.3.86l-.15.09-.04-.17c-.46-2.22-1.25-4.46-2.18-6.57-.93-2.11-2-4.1-3-5.79l-.06-.11.11-.06h0Zm.82-.19c-.2.12-.4.23-.59.34.98,1.67,2.03,3.63,2.95,5.71.91,2.07,1.7,4.27,2.16,6.45.39-.25.77-.5,1.14-.76.41-.29.81-.58,1.19-.87h0l.08-.06c-.51-.94-1.96-3.62-3.55-6.42-.94-1.64-1.92-3.33-2.79-4.73-.2.12-.39.23-.58.34h0Zm2.78-2c.23-.15.43-.29.62-.41.2-.13.4-.27.6-.41l.1-.07.07.09c1.02,1.33,2.19,3.28,3.31,5.3,1.12,2.01,2.17,4.08,2.95,5.66l.04.09-.07.06c-.23.19-.47.39-.72.6h0c-.23.19-.47.39-.73.6l-.15.13-.04-.19c-.42-1.9-1.18-3.75-2.1-5.48-1.15-2.15-2.56-4.13-3.91-5.78l-.09-.11.11-.07h0Zm.76-.21c-.18.12-.35.23-.51.34,1.33,1.64,2.71,3.59,3.85,5.72.9,1.69,1.64,3.49,2.08,5.35.18-.15.38-.31.58-.47h0c.21-.17.42-.35.64-.54-.78-1.56-1.81-3.59-2.9-5.56-1.09-1.96-2.23-3.85-3.22-5.17-.16.11-.33.23-.51.34h0Zm2.14-1.82c.4-.31.81-.64,1.21-.98.41-.35.82-.71,1.22-1.08l.12-.11.07.14c.67,1.29,1.55,3.48,2.4,5.76.85,2.28,1.67,4.64,2.25,6.28l.03.08-.06.05c-.13.12-.26.23-.38.34-.09.08-.22.2-.39.34l-.13.12-.06-.16c-.64-1.6-1.52-3.29-2.47-4.89-1.29-2.18-2.71-4.22-3.81-5.74l-.07-.1.09-.07h0Zm1.36-.79c-.37.31-.74.62-1.12.91,1.1,1.51,2.49,3.52,3.76,5.66.92,1.56,1.78,3.2,2.42,4.77l.26-.23.32-.29c-.57-1.64-1.38-3.97-2.22-6.2-.82-2.19-1.66-4.29-2.31-5.59-.37.34-.74.66-1.11.97h0Zm3.11-3.24l.11-.11.12-.12.08.15c.46.87,1.23,2.28,2.1,3.87,1.25,2.28,2.71,4.95,3.8,7.05l.04.08-.06.06c-.29.28-.57.56-.87.84h0c-.29.28-.59.56-.89.84l-.15.14-.06-.19c-1.26-4.42-3.11-9.39-4.03-11.87l-.22-.61-.03-.07.05-.06h0Zm2.19,3.91c-.67-1.22-1.27-2.32-1.73-3.18.92,2.48,2.69,7.29,3.94,11.61.25-.24.5-.47.74-.7h0c.27-.26.54-.52.8-.77-1.08-2.08-2.52-4.71-3.75-6.96h0Zm.15-6.44l.12-.13.12-.13.09-.11.09.11c.94,1.08,2.14,2.51,3.45,4.13,1.3,1.62,2.71,3.44,4.04,5.31l.06.08-.07.07c-.26.29-.54.58-.82.88-.27.29-.55.58-.83.87l-.13.13-.07-.17c-.73-1.72-1.62-3.48-2.53-5.12-1.25-2.24-2.54-4.28-3.53-5.77l-.05-.08.06-.07h0Zm.3.03l-.06.06c.98,1.48,2.26,3.49,3.49,5.7.89,1.6,1.76,3.3,2.47,4.97.24-.25.47-.49.7-.74.25-.27.5-.53.75-.8-1.31-1.83-2.69-3.62-3.98-5.21-1.26-1.57-2.43-2.95-3.35-4.02l-.02.03h0Zm-14.45,26.51c-.31.13-.62.25-.93.38-.31.12-.63.24-.95.36l-.08.03-.06-.07c-.67-.78-1.09-1.35-1.09-1.35l.12-.19s1.12.23,2.96.61l.02.23h0Zm-1.02.15c.19-.07.37-.15.55-.22-1.04-.21-1.83-.37-2.24-.46.18.22.46.58.82,1.01.29-.11.58-.22.87-.33h0Z"/>
  <path class="cls-7" d="m195.12,29.39c.53-.07,1.05-.15,1.57-.23,1.32,3.59,3.13,10.19,3.86,12.91-.91.15-1.83.27-2.77.38-.17-4.7-1.51-9.63-2.66-13.06h0Zm4.05-.69c.5-.11,1-.22,1.49-.34,1.47,2.81,3.07,9.19,3.92,12.92-.56.13-1.13.25-1.7.37-.03-4.67-1.92-9.47-3.7-12.95h0Zm3.54-.89c1.05-.3,2.07-.64,3.05-.99.77,3.01,1.5,10.52,1.82,13.68-.3.09-.61.17-.92.26-.52-4.4-2.63-9.86-3.95-12.95h0Zm5.57-1.97l.19-.08c.77,2.97,2.71,9.76,3.49,13.26-.79.31-1.61.6-2.45.88-.13-5-.9-11.28-1.23-14.06h0Zm3.13-1.44c.14-.07.28-.14.42-.21,1.35,2.64,3.22,6.49,4.79,10.41.27.68.5,1.33.69,1.94-.81.45-1.66.87-2.54,1.29-.41-4.51-2.11-9.92-3.36-13.42h0Z"/>
  <path d="m195.1,29.27c.26-.03.52-.07.79-.11.27-.04.53-.08.78-.12l.1-.02.03.1c.52,1.41,1.11,3.29,1.69,5.22.89,2.97,1.73,6.05,2.17,7.7l.04.13-.13.02c-.46.07-.92.14-1.38.21-.47.06-.93.12-1.39.18l-.13.02v-.13c-.08-2.04-.37-4.13-.78-6.11-.52-2.57-1.23-4.98-1.88-6.92l-.05-.14.15-.02h0Zm.82.13c-.21.03-.42.06-.64.09.64,1.92,1.33,4.28,1.84,6.81.4,1.95.69,4,.77,6.02.43-.05.85-.1,1.26-.16.42-.06.83-.12,1.24-.18-.45-1.68-1.27-4.68-2.13-7.57-.56-1.88-1.14-3.71-1.65-5.11-.23.04-.46.07-.68.1h0Zm3.22-.82c.26-.06.51-.11.75-.16.25-.06.49-.11.74-.17l.09-.02.04.08c.61,1.17,1.24,2.94,1.83,4.89.84,2.76,1.6,5.87,2.1,8.06l.03.12-.12.03c-.29.07-.57.13-.85.19-.27.06-.55.12-.86.18l-.15.03v-.15c-.01-2.04-.39-4.11-.95-6.09-.72-2.51-1.75-4.87-2.74-6.81l-.07-.14.16-.03h0Zm.8.07c-.2.05-.4.09-.59.13.98,1.93,1.98,4.25,2.69,6.72.56,1.94.93,3.98.96,6,.23-.05.46-.1.71-.15.25-.05.49-.11.72-.16-.5-2.18-1.24-5.22-2.07-7.93-.57-1.89-1.18-3.61-1.77-4.76-.21.05-.43.1-.65.15h0Zm2.74-.96c.52-.15,1.04-.31,1.55-.48.51-.17,1.01-.34,1.49-.51l.13-.05.03.13c.72,2.79,1.39,9.43,1.74,12.91l.08.79v.1s-.09.03-.09.03c-.15.04-.31.09-.46.13-.13.04-.29.08-.46.13l-.14.04-.02-.14c-.22-1.82-.7-3.83-1.3-5.77-.83-2.73-1.87-5.34-2.65-7.15l-.05-.13.13-.04h0Zm1.62-.24c-.46.15-.94.3-1.42.44.77,1.8,1.78,4.36,2.6,7.04.58,1.9,1.06,3.87,1.29,5.67l.32-.09c.12-.03.24-.07.36-.1l-.07-.68c-.35-3.42-1-9.9-1.7-12.74-.45.16-.91.32-1.37.47h0Zm3.93-1.72l.18-.08.13-.06.04.14c.25.97.63,2.33,1.04,3.86.87,3.18,1.93,7.04,2.45,9.4l.02.1-.1.04c-.39.15-.79.3-1.21.45-.41.15-.82.29-1.25.43l-.16.05v-.17c-.13-4.85-.86-10.92-1.21-13.81l-.03-.24v-.09s.07-.04.07-.04h0Zm1.16,3.92c-.37-1.34-.7-2.57-.95-3.49.35,2.89,1.05,8.78,1.19,13.57.36-.12.73-.25,1.08-.38.37-.13.74-.27,1.1-.41-.53-2.36-1.57-6.16-2.43-9.29h0Zm1.97-5.36l.21-.11h0s.21-.11.21-.11l.11-.06.06.11c.67,1.31,1.47,2.94,2.31,4.73.83,1.79,1.7,3.73,2.48,5.69.14.34.26.68.38,1,.11.32.22.64.31.95l.03.1-.09.05c-.4.22-.81.44-1.24.65-.43.22-.87.43-1.31.64l-.16.07-.02-.17c-.18-1.91-.58-3.99-1.09-6.02-.68-2.73-1.54-5.36-2.26-7.37l-.04-.1.1-.05h0Zm.32.11l-.11.06c.71,2,1.56,4.6,2.23,7.29.49,1.97.89,4,1.08,5.88.39-.19.78-.37,1.15-.56.39-.2.77-.4,1.14-.6-.09-.27-.18-.55-.28-.84-.11-.32-.24-.65-.37-.99-.79-1.96-1.65-3.9-2.48-5.68-.81-1.72-1.59-3.31-2.25-4.61l-.1.05h0Z"/>
  <path class="cls-7" d="m176.97,28.83c.07.01.14.03.21.04.26.04.52.09.78.13-1.18,3.78-2.33,8.39-2.32,12.02-1.01-.25-2.02-.53-3.03-.84.21-1.24.61-2.69,1.28-4.35.98-2.45,2.08-4.88,3.1-7h0Zm4.4.63c.19.02.37.04.56.06-.4,3.46-.93,8.57-.96,12.58-.9-.14-1.8-.31-2.7-.49.33-2.14,2-8.12,3.1-12.15h0Zm3.02.26c1.04.06,2.07.1,3.07.11-1.37,3.3-3.29,8.51-3.67,12.65-.31-.03-.62-.07-.93-.11.24-2.26.84-8.79,1.53-12.64h0Zm5.35.09c.57-.02,1.14-.04,1.7-.08-1.79,3.48-3.74,8.32-3.8,13.05-.58-.03-1.16-.06-1.74-.11.82-3.61,2.38-9.91,3.84-12.86h0Zm4.42-.31c.57-.06,1.13-.14,1.69-.21-1.16,3.23-2.75,8.45-3.08,13.54-.89.03-1.78.04-2.69.03.87-3.23,2.81-10.25,4.08-13.35h0Z"/>
  <path d="m176.99,28.71c.06.01.07.01.1.02.04,0,.08.02.11.02.15.03.27.05.39.07l.39.06.14.02-.04.13c-.65,2.09-1.3,4.43-1.74,6.72-.36,1.84-.58,3.65-.58,5.26v.16s-.15-.04-.15-.04c-.51-.13-1.02-.26-1.53-.4-.5-.14-1.01-.29-1.52-.44l-.1-.03.02-.11c.11-.62.26-1.3.47-2.03.21-.73.48-1.51.81-2.34.49-1.23,1.01-2.45,1.54-3.63.52-1.18,1.05-2.31,1.56-3.38l.04-.08.09.02h0Zm.05.26h0c-.49,1.03-1.01,2.14-1.52,3.28-.52,1.18-1.04,2.39-1.54,3.62-.33.83-.6,1.6-.8,2.32-.2.68-.34,1.31-.45,1.9.47.14.94.28,1.41.41.46.13.91.25,1.37.36.01-1.59.24-3.35.58-5.15.44-2.25,1.06-4.55,1.7-6.62l-.25-.04c-.14-.02-.28-.05-.39-.07-.04,0-.08-.01-.12-.02h0Zm4.34.37h.07s0,0,0,0c.17.02.34.04.49.05h.12s-.01.14-.01.14c-.2,1.73-.43,3.87-.62,6.08-.19,2.21-.32,4.49-.34,6.49v.14s-.14-.02-.14-.02c-.45-.07-.9-.15-1.35-.23-.45-.08-.9-.17-1.35-.26l-.12-.02.02-.12c.3-1.91,1.66-6.87,2.73-10.79l.38-1.38.03-.1h.1Zm.41.3c-.12-.01-.22-.02-.33-.04l-.35,1.28c-1.05,3.83-2.37,8.67-2.7,10.64.41.08.82.16,1.23.24.4.07.8.14,1.21.21.02-1.98.16-4.21.34-6.36.18-2.16.41-4.26.6-5.97h0Zm2.6-.03c.52.03,1.04.06,1.55.08.51.02,1.02.03,1.51.04h.18s-.07.17-.07.17c-.79,1.9-1.76,4.43-2.51,7.03-.55,1.9-.99,3.84-1.15,5.58v.12s-.14-.01-.14-.01c-.16-.02-.32-.04-.47-.05-.09-.01-.27-.03-.47-.06l-.12-.02v-.12c.05-.39.1-.86.16-1.42.29-2.9.81-8,1.39-11.24l.02-.11h.11Zm1.54.33c-.48-.02-.96-.04-1.44-.07-.57,3.23-1.08,8.24-1.37,11.11-.05.51-.1.96-.13,1.3l.35.04c.12.01.23.03.34.04.17-1.73.6-3.63,1.14-5.51.73-2.53,1.67-5,2.45-6.88-.44,0-.89-.02-1.34-.03h0Zm3.8-.23c.28,0,.57-.02.85-.03.28-.01.56-.03.84-.04h.22s-.1.18-.1.18c-1,1.94-2.06,4.32-2.8,6.86-.58,1.98-.97,4.07-.99,6.13v.13s-.13,0-.13,0c-.29-.01-.58-.03-.87-.05-.3-.02-.59-.04-.87-.06h-.14s.03-.15.03-.15c.41-1.81,1.01-4.29,1.68-6.68.68-2.4,1.44-4.72,2.17-6.21l.03-.07h.07Zm.86.21c-.26.01-.52.02-.78.03-.72,1.47-1.46,3.74-2.12,6.1-.66,2.33-1.24,4.74-1.65,6.53.25.02.49.03.73.05.25.02.5.03.74.04.04-2.04.43-4.11,1-6.07.72-2.48,1.74-4.79,2.72-6.71-.21.01-.42.02-.63.03h0Zm3.55-.52c.3-.03.58-.07.85-.1.27-.03.55-.07.84-.11l.2-.03-.07.19c-.66,1.85-1.47,4.36-2.1,7.13-.46,2.04-.83,4.22-.97,6.37v.11s-.12,0-.12,0c-.45.01-.89.02-1.35.03h0c-.45,0-.89,0-1.35,0h-.16s.04-.15.04-.15c.43-1.61,1.14-4.17,1.89-6.72.75-2.55,1.56-5.09,2.19-6.64l.03-.07h.07Zm.88.13c-.27.03-.53.06-.78.09-.63,1.55-1.42,4.05-2.16,6.55-.73,2.46-1.41,4.95-1.85,6.57.4,0,.79,0,1.18,0,.41,0,.82-.01,1.23-.03.15-2.13.51-4.28.97-6.3.61-2.68,1.39-5.13,2.04-6.96-.21.03-.42.06-.64.09h0Z"/>
  <path class="cls-7" d="m159.13,19.23c.28.26.56.52.85.78-3.14,2.69-6.56,6.05-8.22,9.1-.84-.67-1.68-1.38-2.51-2.12.91-1.21,2.29-2.62,4.36-4.09,1.84-1.31,3.75-2.56,5.51-3.66h0Zm3.54,2.99c.19.14.37.28.56.42-2.22,2.73-5.18,6.48-7.2,9.61-.75-.51-1.5-1.04-2.25-1.6.49-.9,5.36-5.27,8.88-8.43h0Zm2.56,1.81c.83.54,1.68,1.04,2.55,1.52-2.9,2.04-6.95,5.16-9.37,8.23-.27-.16-.54-.33-.8-.49,1.31-1.63,4.96-6.29,7.62-9.25h0Zm4.68,2.57c.56.25,1.12.49,1.7.71-3.23,1.87-7.24,4.7-9.84,8.38-.49-.26-.98-.53-1.47-.81,2.59-2.52,6.86-6.53,9.61-8.28h0Zm4.6,1.66c.62.17,1.24.32,1.88.45-2.44,1.82-6.62,5.2-9.86,9.25-.78-.33-1.56-.68-2.34-1.05,2.84-2.56,7.93-7.06,10.3-8.62l.03-.02h0Z"/>
  <path d="m159.21,19.14c.15.14.3.27.42.39.13.11.27.24.43.38l.1.09-.11.09c-1.57,1.34-3.2,2.85-4.66,4.4-1.45,1.55-2.71,3.14-3.54,4.66l-.07.13-.11-.09c-.42-.34-.84-.68-1.26-1.04-.42-.35-.83-.71-1.25-1.08l-.08-.08.07-.09c.46-.61,1.04-1.27,1.76-1.96.72-.69,1.59-1.41,2.63-2.16.87-.62,1.75-1.22,2.63-1.8.98-.65,1.95-1.27,2.89-1.86l.08-.05.07.06h0Zm.26.57c-.13-.12-.25-.23-.35-.33-.9.57-1.85,1.17-2.81,1.81-.87.58-1.75,1.18-2.62,1.8-1.03.73-1.89,1.45-2.6,2.13-.68.65-1.22,1.27-1.67,1.84.38.34.77.67,1.16,1,.38.32.76.63,1.14.94.84-1.5,2.08-3.06,3.5-4.58,1.43-1.53,3.03-3.01,4.57-4.33-.1-.09-.21-.19-.32-.29h0Zm3.27,2.41c.08.06.18.14.28.21.11.08.2.15.28.21l.1.08-.08.1c-1.11,1.36-2.41,2.98-3.67,4.65-1.27,1.67-2.51,3.38-3.52,4.95l-.07.11-.1-.07c-.37-.25-.75-.51-1.13-.78-.37-.26-.75-.54-1.12-.82l-.09-.06.05-.09c.49-.89,5.05-4.99,8.53-8.13l.38-.34.08-.07.08.06h0Zm.13.41c-.06-.05-.13-.1-.2-.15l-.3.27c-3.37,3.03-7.73,6.95-8.43,7.97.34.25.68.5,1.03.75.34.24.68.48,1.02.71,1-1.54,2.22-3.22,3.46-4.85,1.24-1.63,2.5-3.22,3.6-4.56l-.18-.13h0Zm2.42,1.39c.41.27.83.53,1.26.78.43.25.85.5,1.29.73l.17.09-.16.11c-1.65,1.16-3.67,2.67-5.55,4.32-1.42,1.24-2.76,2.57-3.79,3.88l-.07.09-.09-.06-.21-.13c-.2-.12-.39-.24-.59-.36l-.12-.07.09-.11c.23-.29.55-.68.92-1.15,1.68-2.11,4.53-5.68,6.71-8.11l.07-.08.09.06h0Zm1.13.99c-.4-.24-.79-.48-1.18-.73-2.17,2.42-4.97,5.94-6.63,8.02-.32.41-.6.76-.83,1.04.16.1.31.19.47.29l.12.07c1.04-1.3,2.36-2.6,3.75-3.83,1.83-1.61,3.79-3.08,5.41-4.23-.38-.21-.75-.42-1.12-.64h0Zm3.53,1.57c.28.13.56.25.84.36.29.12.57.23.85.34l.24.09-.22.13c-1.8,1.04-3.84,2.38-5.75,4-1.5,1.28-2.91,2.73-4.06,4.34l-.06.09-.1-.05c-.22-.12-.47-.25-.74-.4-.25-.14-.5-.27-.74-.41l-.14-.08.12-.11c1.51-1.47,3.59-3.44,5.61-5.18,1.45-1.25,2.87-2.38,4.03-3.12l.06-.04.06.03h0Zm.74.59c-.26-.11-.52-.22-.78-.34-1.13.73-2.52,1.84-3.94,3.06-1.96,1.69-3.98,3.6-5.48,5.06.2.11.4.22.59.33.2.11.41.22.64.34,1.14-1.59,2.55-3.03,4.04-4.29,1.84-1.57,3.81-2.87,5.56-3.9-.21-.08-.42-.17-.62-.25h0Zm3.84,1.07c.3.08.61.16.92.24.32.08.63.15.94.21l.27.05-.22.16c-1.42,1.06-3.43,2.65-5.5,4.59-1.48,1.39-2.99,2.96-4.34,4.64l-.06.07-.09-.04c-.39-.17-.79-.34-1.17-.51-.39-.17-.78-.36-1.17-.54l-.17-.08.14-.12c1.42-1.28,3.4-3.04,5.33-4.68,1.93-1.64,3.8-3.16,4.98-3.95h0s.03-.02.03-.02l.05-.03h.05Zm.87.49c-.29-.07-.58-.14-.88-.22-1.18.78-3.03,2.29-4.94,3.92-1.86,1.58-3.78,3.29-5.19,4.56.33.16.67.31,1,.46.36.16.72.32,1.08.48,1.34-1.66,2.84-3.21,4.31-4.59,1.97-1.85,3.89-3.38,5.3-4.44-.23-.05-.46-.1-.69-.15h0Z"/>
  <path class="cls-7" d="m135.17,10.27l-.27-1.34c.82-.61,1.81-1.24,2.98-1.86,3.04-1.61,6.21-3.06,8.76-4.16.11.2.22.4.34.61-3.49,2.11-8.05,5.19-10.8,8.29-.34-.51-.67-1.02-1.01-1.54h0Zm13.52-3.89c.07.11.14.22.21.33-2.46,2.29-6.63,6.23-9.53,9.58-.54-.71-1.08-1.44-1.61-2.18,2.07-1.69,7.72-5.5,10.93-7.72h0Zm1.61,2.45c.55.8,1.13,1.62,1.76,2.46-3.18,1.63-7.96,4.35-10.91,7.25-.2-.24-.4-.48-.59-.73,1.78-1.7,6.79-6.62,9.74-8.98h0Zm3.06,4.13c.31.39.64.79.97,1.18-3.54,1.55-7.78,3.94-10.63,7.34-.4-.44-.79-.88-1.19-1.34,2.78-2.09,7.73-5.68,10.85-7.19h0Zm2.7,3.16c.36.39.73.79,1.11,1.17-3.02,1.86-6.91,4.6-9.9,7.86-.66-.63-1.32-1.3-1.97-1.97,2.18-1.51,7.39-5.08,10.77-7.07h0Z"/>
  <path d="m135.05,10.3l-.27-1.34-.02-.08.06-.05c.41-.31.87-.62,1.37-.93.5-.31,1.04-.63,1.63-.94,1.52-.8,3.08-1.57,4.57-2.27,1.5-.71,2.93-1.34,4.2-1.89l.1-.04.05.1c.05.09.1.19.17.3h0c.05.1.11.2.18.31l.06.1-.1.06c-1.97,1.19-4.27,2.69-6.4,4.32-1.64,1.26-3.18,2.6-4.37,3.94l-.11.12-.09-.13c-.18-.27-.35-.53-.51-.77-.17-.26-.34-.52-.5-.78l-.02-.04h0Zm-.02-1.31l.25,1.24c.16.26.33.51.49.76.15.23.29.43.42.63,1.19-1.32,2.7-2.63,4.3-3.86,2.1-1.61,4.37-3.09,6.32-4.27l-.12-.21h0l-.11-.2c-1.25.54-2.65,1.16-4.09,1.84-1.49.7-3.04,1.46-4.56,2.27-.59.31-1.12.62-1.61.93-.47.29-.9.59-1.29.88h0Zm13.76-2.67l.02.03h0c.07.11.14.22.19.3l.05.09-.07.07c-1.23,1.15-2.89,2.71-4.6,4.39-1.71,1.69-3.47,3.51-4.92,5.18l-.1.11-.09-.12c-.27-.35-.54-.71-.81-1.08-.27-.37-.54-.74-.8-1.11l-.07-.09.09-.07c1.66-1.36,5.62-4.07,8.78-6.24.8-.55,1.55-1.06,2.16-1.49l.11-.07.07.11h0Zm-.05.38l-.09-.14c-.64.44-1.33.91-2.06,1.41-3.1,2.13-6.97,4.78-8.67,6.16.25.34.49.68.73,1.01.24.32.48.64.72.96,1.43-1.64,3.16-3.42,4.83-5.08,1.68-1.66,3.3-3.19,4.53-4.33h0Zm1.66,2.07c.27.39.55.8.85,1.21.3.42.61.84.91,1.25l.09.12-.13.07c-1.83.94-4.18,2.24-6.42,3.72-1.64,1.09-3.22,2.28-4.46,3.5l-.1.09-.08-.1-.13-.16c-.15-.18-.3-.37-.47-.57l-.07-.09.08-.08c.21-.2.56-.54.97-.94,2.23-2.15,6.25-6.03,8.77-8.05l.1-.08.07.11h0Zm.65,1.35c-.26-.37-.52-.74-.78-1.11-2.52,2.03-6.46,5.83-8.65,7.95-.32.31-.61.59-.89.86.12.15.26.32.4.48l.04.05c1.24-1.2,2.79-2.37,4.4-3.44,2.19-1.45,4.5-2.73,6.31-3.67-.29-.39-.57-.77-.83-1.13h0Zm2.4,2.76c.14.17.3.37.48.59.16.2.33.4.49.59l.11.13-.15.07c-1.96.86-4.13,1.97-6.17,3.38-1.62,1.12-3.16,2.43-4.42,3.93l-.09.11-.09-.1c-.19-.21-.39-.43-.6-.67-.2-.23-.4-.45-.59-.68l-.09-.1.11-.08c1.39-1.05,3.33-2.47,5.3-3.82,1.98-1.35,4-2.63,5.57-3.38l.09-.04.06.08h0Zm.29.75c-.13-.15-.27-.33-.42-.52-1.54.75-3.52,2-5.45,3.32-1.93,1.31-3.81,2.7-5.19,3.73.17.2.34.39.5.57.16.18.33.37.5.56,1.26-1.47,2.77-2.76,4.38-3.87,2-1.38,4.13-2.48,6.06-3.34-.13-.16-.26-.31-.39-.47h0Zm2.41,2.41c.17.19.35.38.55.59.19.2.37.39.56.58l.11.11-.13.08c-1.68,1.04-3.64,2.35-5.56,3.88-1.51,1.2-3,2.53-4.31,3.96l-.08.09-.09-.09c-.33-.32-.66-.64-.99-.97-.33-.33-.66-.66-.98-1l-.1-.1.12-.08c1.32-.92,3.76-2.59,6.21-4.2,1.6-1.05,3.22-2.08,4.56-2.87l.09-.05.07.07h0Zm.37.75c-.16-.16-.32-.34-.48-.52-1.31.77-2.9,1.78-4.47,2.81-2.39,1.57-4.75,3.19-6.09,4.12.29.3.59.6.88.9.3.3.6.59.9.88,1.3-1.41,2.77-2.71,4.26-3.9,1.88-1.49,3.79-2.78,5.45-3.82-.15-.16-.31-.32-.46-.48h0Z"/>
  <path class="cls-1" d="m145.21.14s17.27,12.84,46.19,11.17c28.92-1.67,43.53-9.2,43.53-9.2,0,0-6.65,10.54-14.29,16.56-6.94,1.76-20.12,4.34-36.72,3.95-11-.26-18.77-1.44-24.02-2.68C150.36,11.41,145.21.14,145.21.14h0Z"/>
  <path d="m145.28.04c.05.04,17.23,12.81,46.11,11.14,28.9-1.67,43.44-9.16,43.48-9.19l.16.18s-6.66,10.56-14.32,16.59l-.05.02c-3.47.88-8.51,1.97-14.76,2.79-6.24.82-13.69,1.36-21.99,1.17-5.51-.13-10.2-.49-14.18-.98-3.98-.48-7.24-1.09-9.87-1.71l-.05-.03C150.26,11.49,145.11.23,145.09.19l.18-.15h0Zm46.12,11.39c-26.51,1.53-43.2-9.08-45.88-10.92,1.03,2.11,6.01,11.77,14.44,19.31,2.61.62,5.86,1.22,9.81,1.7,3.97.48,8.66.84,14.15.97,8.29.2,15.73-.35,21.96-1.16,6.21-.81,11.23-1.89,14.7-2.77,6.78-5.35,12.76-14.24,14.01-16.15-2.51,1.19-16.95,7.5-43.18,9.02h0Z"/>
  <path class="cls-7" d="m145.92.63c.3.2.7.46,1.2.76-.22.39-.44.79-.67,1.19-.32-.59-.58-1.08-.77-1.47.08-.16.16-.32.24-.48h0Zm3.92,2.3c.49.26,1.01.53,1.57.8-.6,1.27-1.22,2.63-1.82,4.05-.43-.65-.83-1.29-1.2-1.88.49-1.01.98-2.01,1.46-2.97h0Zm3.52,1.72c.48.22.99.44,1.51.66-.56,2.55-1.06,5.2-1.42,7.78-.72-.89-1.39-1.78-2.02-2.64l.07-.23c.6-1.89,1.23-3.77,1.85-5.56h0Zm4.96,2.02c.34.12.69.25,1.04.37-.39,3.6-.78,7.66-1.04,11.43-.73-.71-1.43-1.43-2.1-2.15.57-2.79,1.35-6.32,2.09-9.64h0Zm3.35,1.13c.75.24,1.53.47,2.34.69-1.05,3.59-2.12,7.8-2.75,11.75-.34-.07-.67-.15-1-.22.35-3.24.86-8.02,1.41-12.22h0Zm4.57,1.27c.47.12.95.23,1.43.34-1.13,3.44-2.16,7.4-2.68,11.55-.48-.08-.95-.16-1.41-.25.74-3.65,1.69-8.07,2.65-11.64h0Zm4.43.96c.56.11,1.13.21,1.71.3-.81,3.33-1.62,7.27-2.17,11.37-.78-.09-1.54-.19-2.27-.29.79-3.47,1.8-7.8,2.73-11.38h0Zm3.45.57c.58.08,1.17.16,1.76.23-.34,3.84-.52,7.83-.34,11.38-1.08-.08-2.11-.17-3.11-.27.06-1.97.28-4.26.78-6.89.28-1.5.59-2.99.9-4.44h0Zm5.4.59c.37.03.75.06,1.13.08.04,3.57.13,7.56.31,11.25-.85-.03-1.68-.07-2.48-.12.2-2.88.62-7.16,1.04-11.21h0Zm3.51.2c.81.03,1.63.05,2.47.06-.58,3.41-1.13,7.38-1.35,11.17h-.22c-.29-.01-.58-.02-.87-.03-.03-3.19-.07-7.43-.03-11.2h0Zm4.79.04c.51,0,1.03-.02,1.55-.04-.73,3.36-1.33,7.23-1.47,11.26-.44,0-.89,0-1.34,0,.32-3.67.74-7.87,1.26-11.22h0Zm4.59-.2c.59-.04,1.17-.08,1.74-.12-.43,3.27-.84,7.24-.97,11.41-.71.03-1.43.05-2.16.07.4-3.69.9-7.99,1.39-11.37h0Zm3.8-.28c.64-.05,1.27-.11,1.89-.17,0,3.9.2,7.92.73,11.4-1.03.08-2.08.16-3.16.22-.18-2.15-.19-4.76.13-7.84.12-1.21.26-2.42.41-3.61h0Zm5.54-.55c.38-.04.77-.09,1.14-.14.35,3.63.79,7.68,1.3,11.39-.82.1-1.66.19-2.52.28-.06-2.83,0-7.29.07-11.53h0Zm3.51-.45c.85-.12,1.69-.24,2.51-.37-.31,3.54-.54,7.72-.42,11.66-.35.05-.71.1-1.08.15-.31-3.23-.72-7.59-1.01-11.44h0Zm4.83-.75c.54-.09,1.07-.18,1.59-.28-.48,3.48-.79,7.54-.6,11.74-.43.07-.87.15-1.32.22,0-3.85.08-8.26.34-11.68h0Zm4.57-.86c.59-.12,1.16-.24,1.72-.36-.18,3.29-.27,7.37-.07,11.68-.67.14-1.37.29-2.1.43.09-3.89.23-8.38.45-11.75h0Zm4.17-.92c.64-.15,1.27-.31,1.87-.46.34,3.54.83,7.15,1.57,10.34-.53.47-1.08.93-1.62,1.36-.39.1-.81.2-1.24.31-.4-2.17-.68-4.85-.65-8.08.01-1.16.03-2.32.07-3.46h0Zm5.45-1.44c.37-.11.74-.22,1.09-.32.43,2.26.91,4.69,1.43,7.1-.58.65-1.18,1.29-1.8,1.93-.24-2.59-.49-5.71-.71-8.71h0Zm3.38-1.05c.94-.31,1.78-.6,2.54-.88,0,1.42.02,2.95.08,4.54-.51.65-1.05,1.32-1.62,2.01-.35-1.9-.69-3.85-.99-5.67h0Zm4.81-1.76c.69-.28,1.23-.52,1.63-.7-.02.31-.04.63-.05.95-.4.58-.91,1.33-1.53,2.19-.03-.86-.05-1.68-.05-2.44h0Z"/>
  <path d="m145.99.53c.16.11.36.23.57.37h0c.19.12.4.25.62.39l.1.06-.06.1c-.11.2-.22.39-.33.59-.12.21-.23.42-.33.6l-.11.2-.11-.2c-.15-.28-.29-.53-.4-.75-.14-.27-.26-.51-.37-.72l-.03-.05.03-.06.12-.24h0s.12-.24.12-.24l.06-.12.11.08h0Zm.44.58c-.17-.11-.33-.21-.46-.3l-.06.11h0l-.09.18c.1.19.21.42.34.66.09.18.19.36.29.55.08-.14.15-.28.22-.4.09-.17.18-.33.27-.49-.2-.12-.37-.23-.52-.33h0Zm3.47,1.72c.24.13.5.26.77.4.26.13.53.27.79.4l.11.05-.05.11c-.31.65-.62,1.33-.94,2.03-.3.66-.59,1.33-.88,2.01l-.09.21-.13-.19c-.21-.31-.41-.63-.61-.94-.21-.32-.4-.64-.59-.94l-.04-.06.03-.06c.24-.49.49-1.01.75-1.53.26-.53.5-1.01.71-1.43l.06-.11.11.06h0Zm.66.62c-.22-.11-.45-.23-.67-.35-.23.47-.45.91-.65,1.32-.23.47-.47.96-.72,1.47.18.29.36.58.56.88.15.24.32.49.48.75.26-.62.53-1.22.79-1.81.3-.66.59-1.3.89-1.93-.24-.12-.47-.23-.69-.34h0Zm2.85,1.1c.25.11.49.22.74.33.26.11.52.22.77.33l.09.04-.02.1c-.28,1.28-.54,2.58-.78,3.87-.24,1.3-.45,2.61-.63,3.89l-.04.28-.18-.22c-.35-.44-.69-.87-1.02-1.3-.35-.45-.68-.9-1-1.34l-.04-.05.02-.06.07-.23h0c.29-.93.6-1.88.92-2.82.31-.93.63-1.85.94-2.75l.04-.13.12.06h0Zm.64.55c-.21-.09-.42-.18-.62-.27-.3.86-.6,1.73-.89,2.62-.31.91-.61,1.85-.91,2.82h0l-.05.17c.31.42.63.85.96,1.29.27.36.55.72.84,1.08.17-1.2.37-2.41.6-3.62.24-1.28.49-2.54.76-3.78-.24-.1-.46-.2-.68-.29h0Zm4.31,1.46c.16.06.33.12.52.19.19.07.36.13.53.18l.09.03v.1c-.2,1.81-.4,3.72-.58,5.65-.18,1.93-.34,3.88-.47,5.77l-.02.26-.19-.18c-.36-.35-.71-.7-1.06-1.06-.36-.37-.7-.73-1.04-1.1l-.04-.05v-.06c.3-1.41.64-2.99.99-4.62.35-1.58.73-3.32,1.11-5.02l.03-.14.13.05h0Zm.43.42c-.12-.04-.25-.09-.39-.14-.35,1.58-.72,3.22-1.08,4.89-.36,1.63-.69,3.2-.97,4.56.33.35.66.7,1,1.05.28.29.57.58.86.87.13-1.8.28-3.66.45-5.51.18-1.91.37-3.79.56-5.55-.16-.05-.3-.11-.43-.15h0Zm2.91.71c.38.12.76.24,1.15.35.39.12.79.23,1.18.34l.12.03-.03.12c-.52,1.79-1.06,3.74-1.53,5.73-.48,1.99-.9,4.03-1.21,6l-.02.13-.13-.03c-.14-.03-.31-.07-.51-.11-.18-.04-.35-.08-.49-.11l-.11-.02v-.11c.19-1.62.4-3.63.64-5.75.24-2.12.5-4.36.78-6.47l.02-.15.14.04h0Zm1.08.58c-.35-.1-.68-.2-1.01-.31-.26,2.05-.52,4.24-.76,6.32-.24,2.09-.45,4.05-.62,5.64.14.03.27.06.38.09.11.02.23.05.38.08.31-1.94.73-3.94,1.19-5.89.47-1.95.99-3.86,1.5-5.63-.36-.1-.72-.2-1.07-.31h0Zm3.48.69c.22.05.45.11.71.17.26.06.5.12.72.17l.13.03-.04.13c-.6,1.83-1.18,3.81-1.66,5.89-.42,1.81-.77,3.7-1.01,5.63l-.02.13-.13-.02c-.25-.04-.49-.08-.71-.12-.21-.04-.44-.08-.69-.13l-.12-.02.02-.12c.37-1.83.79-3.85,1.24-5.85.45-2.01.93-4.01,1.41-5.79l.03-.12.12.03h0Zm.65.41c-.19-.04-.38-.09-.59-.14-.47,1.76-.94,3.71-1.38,5.67-.44,1.96-.86,3.93-1.22,5.72.17.03.36.07.57.1.2.04.4.07.59.1.24-1.89.59-3.75,1-5.53.47-2.04,1.03-3.98,1.62-5.78-.21-.05-.41-.09-.59-.14h0Zm3.77.55c.27.05.55.1.85.15.3.05.59.1.86.15l.13.02-.03.13c-.43,1.79-.87,3.75-1.26,5.82-.34,1.78-.65,3.64-.9,5.53l-.02.12h-.12c-.37-.06-.75-.1-1.15-.16-.4-.05-.77-.1-1.13-.15l-.13-.02.03-.13c.44-1.92.94-4.11,1.47-6.29.42-1.75.85-3.5,1.26-5.09l.03-.11.11.02h0Zm.81.4c-.24-.04-.49-.09-.74-.13-.41,1.57-.82,3.27-1.23,4.97-.51,2.12-1,4.26-1.44,6.16.33.05.67.09.99.13.32.04.66.08,1.03.13.25-1.86.55-3.68.89-5.42.39-2.02.81-3.95,1.24-5.71-.26-.04-.5-.08-.73-.13h0Zm2.64.17c.3.04.59.08.87.12.27.04.57.07.89.11h.12s-.01.13-.01.13c-.17,1.92-.3,3.87-.37,5.79-.06,1.92-.06,3.8.03,5.57v.14s-.13-.01-.13-.01c-.54-.04-1.06-.08-1.57-.13-.51-.04-1.02-.09-1.54-.14h-.11s0-.13,0-.13c.03-.99.1-2.06.22-3.21.13-1.15.31-2.39.56-3.7.14-.75.29-1.49.44-2.24.15-.75.31-1.49.46-2.21l.02-.11.11.02h0Zm.84.36c-.26-.03-.52-.07-.76-.1-.15.7-.3,1.4-.44,2.09-.15.74-.3,1.48-.44,2.24-.25,1.31-.43,2.54-.55,3.69-.12,1.1-.19,2.13-.22,3.07.45.04.93.09,1.42.13.47.04.95.08,1.43.12-.09-1.73-.09-3.57-.02-5.45.06-1.88.19-3.8.36-5.69-.24-.03-.5-.06-.77-.1h0Zm4.55.23c.19.01.38.03.56.04.2.01.39.03.57.04h.11s0,.12,0,.12c.02,1.78.05,3.67.1,5.58.05,1.9.12,3.82.21,5.67v.13s-.13,0-.13,0c-.43-.02-.85-.04-1.26-.06-.42-.02-.83-.04-1.23-.06h-.12s0-.13,0-.13c.1-1.44.26-3.23.44-5.17.18-1.94.39-4.02.6-6.04v-.12s.13,0,.13,0h0Zm.54.29c-.15-.01-.3-.02-.44-.03-.2,1.99-.41,4.03-.59,5.92-.18,1.88-.33,3.62-.43,5.04.37.02.73.04,1.1.06.37.02.75.03,1.12.05-.09-1.8-.16-3.68-.21-5.54-.05-1.86-.08-3.71-.1-5.47-.16-.01-.31-.02-.46-.03h0Zm2.96-.09c.41.02.82.03,1.23.04.41,0,.82.02,1.24.02h.14s-.02.14-.02.14c-.31,1.84-.62,3.85-.87,5.91-.21,1.74-.38,3.52-.48,5.25v.12s-.12,0-.12,0h-.22s0,0,0,0h-.43s0-.01,0-.01h-.43s-.12-.01-.12-.01v-.12c-.02-1.6-.04-3.45-.04-5.38,0-1.93,0-3.93.01-5.82v-.13s.13,0,.13,0h0Zm1.22.28c-.37,0-.74-.02-1.11-.03-.02,1.85-.02,3.8-.01,5.69,0,1.88.02,3.69.04,5.26h.31s.43.02.43.02h.1c.1-1.7.27-3.44.48-5.14.24-2.01.54-3.97.85-5.78-.37,0-.73,0-1.1-.02h0Zm3.56-.24c.25,0,.51-.01.77-.02.26,0,.51-.02.78-.02h.16s-.03.15-.03.15c-.39,1.79-.74,3.73-1.01,5.75-.23,1.77-.4,3.61-.46,5.48v.12s-.12,0-.12,0c-.22,0-.44,0-.67,0-.22,0-.45,0-.67,0h-.13s.01-.13.01-.13c.17-2,.38-4.17.61-6.27.19-1.74.41-3.43.65-4.96l.02-.1h.1Zm.78.23c-.22,0-.45.01-.67.02-.23,1.49-.44,3.14-.63,4.85-.23,2.04-.43,4.16-.6,6.13.18,0,.36,0,.54,0,.18,0,.37,0,.55,0,.07-1.84.23-3.65.46-5.39.26-1.98.6-3.87.98-5.62-.21,0-.41.01-.62.02h0Zm3.81-.42c.29-.02.58-.04.88-.06.29-.02.58-.04.87-.06h.15s-.02.14-.02.14c-.22,1.64-.43,3.45-.6,5.36-.17,1.92-.31,3.95-.37,6.04v.11s-.12,0-.12,0c-.35.01-.72.03-1.08.04-.36.01-.72.02-1.08.03h-.14s.02-.14.02-.14c.22-2.03.47-4.25.73-6.38.21-1.75.44-3.47.66-5v-.1s.11,0,.11,0h0Zm.89.19c-.25.02-.51.03-.78.05-.21,1.49-.43,3.17-.64,4.89-.26,2.1-.5,4.26-.72,6.23.31,0,.63-.02.94-.03.32-.01.64-.02.96-.04.07-2.05.2-4.05.37-5.94.17-1.87.37-3.63.58-5.22-.24.02-.48.03-.72.05h0Zm2.9-.47c.38-.03.69-.06.95-.08.3-.03.62-.06.94-.09h.13s0,.12,0,.12c0,1.95.05,3.92.17,5.85.12,1.92.3,3.79.56,5.53l.02.13h-.13c-.51.05-1.03.09-1.56.13-.52.04-1.05.07-1.6.1h-.12s0-.11,0-.11c-.09-1.08-.14-2.27-.12-3.58.01-1.31.09-2.74.25-4.28.06-.6.13-1.2.19-1.78.07-.63.14-1.24.22-1.84v-.1s.11,0,.11,0h0Zm.97.16c-.33.03-.61.05-.85.07-.07.58-.14,1.16-.2,1.73-.07.6-.13,1.19-.19,1.78-.16,1.54-.23,2.96-.25,4.26-.01,1.25.03,2.4.11,3.44.49-.03.98-.06,1.47-.09.47-.03.95-.07,1.43-.11-.26-1.71-.43-3.54-.55-5.42-.11-1.88-.16-3.82-.17-5.73-.26.02-.53.05-.8.07h0Zm4.56-.72c.18-.02.37-.04.57-.07.18-.02.37-.04.57-.07l.12-.02v.13c.19,1.81.39,3.72.6,5.66.22,1.93.46,3.87.71,5.73l.02.12h-.12c-.4.06-.81.11-1.25.16-.41.05-.84.09-1.27.13h-.13s0-.12,0-.12c-.03-1.42-.03-3.24-.01-5.24.02-2,.05-4.18.08-6.29v-.11s.11-.01.11-.01h0Zm.6.18l-.47.06c-.03,2.09-.06,4.22-.08,6.18-.01,1.94-.02,3.71.01,5.1.38-.04.76-.08,1.14-.12.37-.04.74-.08,1.12-.13-.25-1.82-.48-3.72-.7-5.61-.21-1.88-.41-3.76-.58-5.54-.14.02-.29.04-.45.05h0Zm2.9-.62c.42-.06.84-.12,1.27-.18.45-.07.86-.13,1.24-.19l.15-.02v.16c-.18,1.93-.33,4.04-.4,6.19-.07,1.81-.09,3.66-.03,5.46v.11s-.11.02-.11.02c-.17.02-.34.05-.53.07-.17.02-.35.05-.54.07l-.13.02v-.13c-.17-1.61-.35-3.5-.53-5.49-.18-1.99-.35-4.04-.49-5.96v-.11s.11-.02.11-.02h0Zm1.3.06c-.37.05-.76.11-1.15.16.14,1.91.31,3.91.48,5.84.17,1.91.35,3.77.5,5.36l.42-.06.42-.06c-.05-1.77-.03-3.58.04-5.36.08-2.11.22-4.17.38-6.05-.38.06-.74.11-1.09.16h0Zm3.52-.81c.26-.04.52-.09.8-.14.31-.05.57-.1.79-.14l.17-.03-.02.17c-.24,1.74-.44,3.62-.55,5.59-.11,1.97-.14,4.03-.05,6.12v.11s-.1.02-.1.02c-.21.04-.42.07-.66.11-.21.03-.43.07-.67.11l-.14.02v-.14c0-1.93.02-3.99.07-6,.05-2.02.13-3.98.26-5.68v-.1s.1-.02.1-.02h0Zm.84.1c-.23.04-.46.08-.7.12-.12,1.69-.21,3.61-.26,5.58-.05,1.96-.07,3.97-.07,5.85.17-.03.35-.06.53-.09.18-.03.36-.06.55-.09-.09-2.07-.06-4.1.05-6.04.11-1.92.3-3.75.53-5.45-.23.04-.44.08-.62.11h0Zm3.73-.96c.28-.06.57-.12.87-.18.27-.06.55-.12.85-.18l.16-.03v.16c-.1,1.64-.16,3.49-.19,5.45-.02,1.97,0,4.06.1,6.22v.1s-.1.02-.1.02c-.32.07-.66.14-1.03.21-.36.07-.72.15-1.08.21l-.15.03v-.15c.05-1.95.11-4.04.18-6.07.07-2.03.16-4,.27-5.68v-.09s.1-.02.1-.02h0Zm.92.06c-.25.05-.51.11-.78.16-.11,1.67-.19,3.59-.27,5.58-.07,1.98-.13,4.02-.18,5.92.32-.06.63-.13.92-.18.3-.06.61-.13.93-.19-.09-2.12-.12-4.18-.1-6.13.02-1.91.08-3.7.17-5.3-.22.05-.45.1-.7.15h0Zm3.25-.98c.34-.08.66-.16.95-.23.29-.07.6-.15.92-.23l.14-.04v.14c.19,1.86.41,3.74.69,5.58.25,1.64.54,3.24.89,4.74l.02.07-.05.05c-.27.24-.54.47-.81.7-.27.23-.54.45-.82.67l-.05.02c-.19.05-.39.1-.61.15-.18.04-.39.1-.63.15l-.13.03-.02-.13c-.2-1.09-.37-2.31-.49-3.66-.12-1.35-.18-2.83-.16-4.45,0-.57.01-1.14.03-1.71.01-.59.03-1.17.04-1.75v-.09s.09-.02.09-.02h0Zm1.01,0c-.3.07-.59.14-.86.21-.02.55-.03,1.1-.04,1.66h0c-.01.57-.02,1.14-.03,1.7-.02,1.61.05,3.08.16,4.43.11,1.29.27,2.46.46,3.5.15-.04.32-.08.5-.12.19-.05.39-.1.59-.15.26-.21.53-.42.79-.64.26-.21.51-.43.75-.64-.34-1.49-.63-3.07-.87-4.69-.27-1.79-.49-3.62-.66-5.45-.24.06-.51.13-.78.2h0Zm4.44-1.44c.17-.05.35-.1.55-.16.17-.05.35-.1.54-.16l.13-.04.03.13c.21,1.12.44,2.29.68,3.49.24,1.2.49,2.41.74,3.61v.06s-.03.05-.03.05c-.3.33-.6.66-.91.99-.29.31-.59.63-.9.94l-.19.19-.02-.26c-.12-1.32-.24-2.74-.36-4.2-.12-1.47-.24-3-.35-4.51v-.1s.09-.03.09-.03h0Zm.62.07c-.14.04-.29.09-.46.13.11,1.46.23,2.96.35,4.41.11,1.39.23,2.73.34,3.93.24-.25.48-.5.71-.75.29-.31.58-.62.86-.94-.25-1.2-.5-2.38-.73-3.55-.23-1.13-.45-2.26-.66-3.36-.13.04-.26.08-.41.12h0Zm2.76-1.12c.47-.15.9-.3,1.29-.44.43-.15.85-.3,1.24-.44l.16-.06v.18c0,.74,0,1.51.02,2.3.01.72.03,1.47.06,2.23l-.03.08c-.27.34-.54.68-.81,1.02-.26.32-.53.65-.81.99l-.17.2-.05-.26c-.18-.97-.35-1.94-.51-2.86-.16-.94-.33-1.88-.48-2.81l-.02-.1.1-.03h0Zm1.37-.2c-.39.14-.79.27-1.19.4.14.86.3,1.77.46,2.7.16.89.31,1.76.47,2.6.21-.26.43-.52.64-.79.27-.34.53-.67.78-.98-.03-.74-.04-1.48-.06-2.19-.01-.73-.02-1.45-.02-2.13-.34.12-.7.25-1.08.38h0Zm3.43-1.55c.34-.14.65-.27.92-.39.28-.12.51-.22.71-.31l.19-.08v.2c-.02.16-.03.32-.04.47,0,.16-.02.32-.02.47l-.02.06c-.22.32-.47.68-.75,1.09-.24.34-.5.71-.79,1.11l-.22-.07c-.01-.43-.03-.85-.03-1.26,0-.41-.01-.8-.01-1.18v-.08l.08-.03h0Zm1.02-.16c-.25.11-.53.23-.85.36,0,.35,0,.72.01,1.09,0,.29.01.59.02.9.2-.29.4-.56.57-.81.28-.39.52-.75.73-1.06,0-.15.02-.3.02-.44,0-.09.01-.18.02-.27-.16.07-.33.15-.53.23h0Z"/>
  <path class="cls-7" d="m149.68,158.09s-5.12,66.11-16.13,101.52c-11.02,35.42-14.56,40.53-14.56,40.53,0,0,35.42-24,30.69-142.06h0Z"/>
  <path d="m7.49,134.7l-.46.47-.02-.02-.03-.03-.03-.03-.03-.03-.03-.03-.03-.03-.03-.03-.03-.03-.03-.03-.03-.03-.03-.03-.03-.03-.03-.03-.03-.03-.03-.03-.03-.03-.03-.03-.03-.03-.03-.03-.03-.03-.03-.03-.03-.03-.03-.03-.03-.03-.03-.03-.03-.03-.03-.03-.03-.03-.03-.03-.03-.03-.03-.03.47-.46.03.03.03.03.03.03.03.03.03.03.03.03.03.03.03.03.03.03.03.03.03.03.03.03.03.03.03.03.03.03.03.03.03.03.03.03.03.03.03.03.03.03.03.03.03.03.03.03.03.03.03.03.03.03.03.03.03.03.03.03.02.02h0Zm366.99,8.23l.38.54.03-.02.04-.03.04-.03.04-.03.04-.03.04-.03.04-.03.04-.03.04-.03.04-.03.04-.03.04-.03.04-.03.04-.03.03-.03.04-.03.03-.02.03-.02.03-.02.03-.02.03-.02.03-.02.03-.02.03-.02.03-.02.03-.02.03-.02.03-.02.03-.02.03-.02.03-.02-.39-.53-.03.02-.03.02-.03.02-.03.02-.03.02-.03.02-.03.02-.03.02-.03.02-.03.02-.03.02-.03.02-.03.02-.03.02-.03.02-.03.02-.03.03-.04.02-.04.03-.04.03-.04.03-.04.03-.04.03-.04.03-.04.03-.04.03-.04.03-.04.03-.04.03-.04.03-.03.02h0Zm-69.61,43.35l.52.4h0s0,0,0,0h0s0,0,0,0h0s0-.01,0-.01h0s0-.01,0-.01h0s0-.02,0-.02h0s0-.02,0-.02h0s.01-.03.01-.03h.01s.01-.03.01-.03v-.02s.03-.02.03-.02l.02-.02.02-.02.02-.02.02-.02.02-.02.02-.02.02-.02.02-.02.02-.03.02-.03.02-.03.02-.03.02-.03.03-.03.03-.03.03-.03.03-.03.03-.03.03-.04.03-.04.03-.04.03-.04.03-.04.03-.04.03-.04.03-.04.03-.04-.51-.42-.03.04-.03.04-.03.04-.03.04-.03.04-.03.04-.03.04-.03.04-.03.04-.03.03-.03.03-.03.03-.03.03-.03.03-.03.03-.02.03-.02.03-.02.03-.02.03-.02.03-.02.03-.02.02-.02.02-.02.02-.02.02-.02.02-.02.02v.02s-.03.02-.03.02v.02s-.03.02-.03.02h-.01s-.01.03-.01.03h-.01s0,.02,0,.02h0s0,.02,0,.02h0s0,.02,0,.02h0s0,.01,0,.01h0s0,0,0,0h0s0,0,0,0h0Zm1.24-1.52l.5.42h0s.04-.06.04-.06l.04-.05.04-.05.04-.05.05-.05.05-.05.05-.05.05-.06.05-.06.05-.06.05-.06.05-.06.05-.06.05-.06.05-.06.05-.06.05-.06.03-.03-.49-.43-.03.04-.05.06-.05.06-.05.06-.05.06-.05.06-.05.06-.05.06-.05.06-.05.06-.05.06-.05.05-.05.05-.05.05-.05.05-.04.05-.04.05-.04.05h0Zm1.29-1.49l.49.43.04-.05.06-.07.06-.07.06-.07.06-.07.06-.07.06-.07.06-.07.06-.07.06-.07.06-.07.06-.07.06-.07.07-.07.03-.03-.48-.44-.03.03-.07.07-.07.07-.06.07-.06.07-.06.07-.06.07-.06.07-.06.07-.06.07-.06.07-.06.07-.06.07-.06.07-.04.05h0Zm1.32-1.47l.48.44h0s.07-.08.07-.08l.07-.08.07-.08.07-.08.07-.08.07-.08.07-.08.07-.08.07-.08.07-.08.07-.08.07-.08.03-.03-.47-.45-.03.03-.08.08-.07.08-.07.08-.07.08-.07.08-.07.08-.07.08-.07.08-.07.08-.07.08-.07.08-.07.08h0Zm1.36-1.43l.47.46.05-.05.08-.08.08-.08.08-.08.08-.08.08-.08.08-.08.08-.08.08-.08.08-.08.08-.08.07-.07-.46-.46-.07.07-.08.08-.08.08-.08.08-.08.08-.08.08-.08.08-.08.08-.08.08-.08.08-.08.08-.05.05h0Zm1.39-1.4l.46.47.05-.05.08-.08.08-.08.09-.08.09-.08.09-.08.09-.08.09-.08.09-.08.09-.08.09-.08.02-.02-.45-.48-.02.02-.09.08-.09.08-.09.08-.09.08-.09.08-.09.08-.09.08-.09.08-.09.08-.09.08-.05.05h0Zm1.43-1.37l.45.48.04-.03.09-.08.09-.08.09-.08.09-.08.09-.08.09-.08.09-.08.09-.08.09-.08.09-.08h.01s-.44-.5-.44-.5h-.01s-.09.1-.09.1l-.09.08-.09.08-.09.08-.09.08-.09.08-.09.08-.09.08-.09.08-.09.08-.03.03h0Zm1.46-1.33l.43.49.06-.05.09-.08.09-.08.1-.08.1-.08.1-.08.1-.08.1-.08.1-.08.1-.08.07-.06-.42-.5-.07.06-.1.08-.1.08-.1.08-.1.08-.1.08-.1.08-.1.08-.1.08-.1.08-.06.05h0Zm1.51-1.28l.42.51h.01s.1-.09.1-.09l.1-.08.1-.08.1-.08.1-.08.1-.08.1-.08.1-.08.1-.08.1-.08h.02s-.4-.53-.4-.53l-.02.02-.1.08-.1.08-.1.08-.1.08-.1.08-.1.08-.1.08-.1.08-.1.08-.1.08h-.01Zm1.56-1.21l.39.52.06-.05.1-.08.1-.07.1-.07.1-.07.1-.07.1-.07.1-.07.1-.07.1-.07.08-.06-.38-.54-.08.06-.1.07-.1.07-.1.07-.1.07-.1.07-.1.08-.1.08-.1.08-.1.08-.06.05h0Zm1.61-1.15l.37.54.1-.07.1-.07.1-.07.1-.07.1-.07.1-.07.1-.07.1-.07.1-.07.1-.06.07-.04-.35-.56-.07.04-.11.07-.11.07-.1.07-.1.07-.1.07-.1.07-.1.07-.1.07-.1.07-.1.07h0Zm1.68-1.07l.33.57.1-.06.1-.06.1-.06.1-.06.1-.06.1-.06.1-.06.1-.06.1-.06.1-.06.1-.05h0s-.3-.58-.3-.58h0s-.11.06-.11.06l-.11.06-.11.06-.11.06-.11.06-.11.06-.11.06-.11.06-.11.06-.11.06-.1.06h0Zm1.75-.95l.29.59.04-.02.1-.05.1-.05.1-.05.1-.05.1-.05.1-.05.1-.05.1-.05.1-.05.1-.05.1-.05h.01s-.27-.6-.27-.6h-.01s-.1.05-.1.05l-.1.05-.1.05-.1.05-.11.05-.11.05-.11.05-.11.05-.11.05-.11.05-.11.05-.04.02h0Zm1.79-.82l.28.59.08-.04.1-.05.1-.05.1-.04.09-.04.09-.04.09-.04.09-.04.09-.04.09-.04.09-.04.09-.04.08-.04-.29-.59-.08.04-.09.04-.09.04-.09.04-.09.04-.09.04-.09.04-.09.04-.09.04-.09.04-.09.04-.1.04-.08.04h0Zm1.76-.85l.3.58.03-.02.09-.04.09-.04.08-.04.08-.04.08-.04.08-.04.08-.04.08-.04.08-.04.08-.04.08-.04.08-.04.08-.04.05-.03-.31-.58-.05.03-.08.04-.08.04-.08.04-.08.04-.08.04-.08.04-.08.04-.08.04-.08.04-.08.04-.08.04-.08.04-.08.04-.03.02h0Zm1.73-.92l.32.57h0s.08-.05.08-.05l.08-.04.08-.04.08-.04.08-.04.08-.04.08-.04.08-.04.08-.04.08-.04.08-.04.08-.04.08-.04.08-.04.06-.04-.33-.57-.06.04-.07.04-.08.04-.08.04-.08.04-.08.04-.08.04-.08.04-.08.04-.08.04-.08.04-.08.04-.08.04-.08.04-.08.04h0Zm1.69-.98l.34.56.05-.03.07-.05.07-.05.07-.04.07-.04.07-.05.07-.05.07-.05.07-.05.08-.05.08-.05.07-.05.08-.05.08-.05.08-.05.03-.02-.34-.56-.03.02-.07.05-.07.05-.07.05-.07.05-.07.05-.07.05-.07.04-.07.05-.07.05-.07.05-.07.04-.07.04-.07.04-.07.04-.05.03h0Zm1.68-1.02l.34.56h.02s.08-.06.08-.06l.08-.05.08-.05.08-.05.08-.05.08-.05.08-.05.08-.05.08-.05.08-.05.08-.05.08-.05.08-.05.08-.05h0s-.35-.56-.35-.56h0s-.08.05-.08.05l-.08.05-.08.05-.08.05-.08.05-.08.05-.08.05-.08.05-.08.05-.08.05-.08.05-.08.05-.08.05-.08.05h-.02Zm1.67-1.02l.34.56h0s.08-.06.08-.06l.08-.05.08-.05.08-.05.08-.05.08-.05.08-.05.09-.05.09-.05.09-.05.09-.05.09-.05.09-.05h0s-.34-.56-.34-.56h0s-.09.05-.09.05l-.09.05-.09.05-.09.05-.09.05-.09.05-.09.05-.09.05-.08.05-.08.05-.08.05-.08.05-.08.05h0Zm1.68-1.02l.34.56.07-.04.09-.06.09-.06.09-.06.09-.06.1-.06.1-.06.1-.06.1-.06.1-.06.1-.06.1-.06h0s-.33-.57-.33-.57h0s-.1.06-.1.06l-.1.06-.1.06-.1.06-.1.06-.1.06-.1.06-.09.06-.09.06-.09.06-.09.06-.07.04h0Zm1.7-1l.33.57.04-.02.1-.06.11-.06.11-.06.11-.06.11-.06.11-.06.11-.06.11-.06.11-.06.11-.06h.02s-.32-.58-.32-.58h-.02s-.11.07-.11.07l-.11.06-.11.06-.11.06-.11.06-.11.06-.11.06-.11.06-.11.06-.1.06-.04.02h0Zm1.71-.98l.32.57.1-.06.12-.07.12-.07.12-.07.12-.07.12-.07.12-.07.12-.07.12-.07.08-.04-.31-.58-.08.04-.13.07-.12.07-.12.07-.12.07-.12.07-.12.07-.12.07-.12.07-.1.06h0Zm1.73-.95l.31.58.11-.06.13-.07.13-.07.13-.07.13-.07.14-.07.14-.07.14-.07.1-.05-.31-.58-.1.05-.14.07-.14.07-.14.07-.14.07-.13.07-.13.07-.13.07-.11.06h0Zm1.74-.93l.3.58.03-.02.15-.08.15-.08.15-.08.15-.08.15-.08.15-.08.15-.08.09-.05-.3-.58-.09.05-.15.08-.15.08-.15.08-.15.08-.15.08-.15.08-.15.08-.03.02h0Zm1.75-.9l.3.58.11-.05.16-.08.16-.08.16-.08.16-.08.16-.08.17-.08.08-.04-.29-.59-.08.04-.17.08-.17.08-.16.08-.16.08-.16.08-.16.08-.11.05h0Zm1.76-.88l.29.59h.01s.17-.09.17-.09l.18-.09.18-.09.18-.09.18-.09.18-.09.1-.05-.29-.59-.1.05-.18.09-.18.09-.18.09-.18.09-.18.09-.17.09h-.01Zm1.77-.86l.29.59.05-.02.19-.09.19-.09.19-.09.19-.09.19-.09.18-.08-.28-.59-.18.08-.19.09-.19.09-.19.09-.19.09-.19.09-.05.02h0Zm1.78-.85l.28.59h.02s.2-.11.2-.11l.2-.1.2-.1.21-.1.21-.1.14-.06-.28-.59-.14.06-.21.1-.21.1-.21.1-.2.1-.2.1h-.02Zm1.78-.83l.28.6.12-.06.22-.1.22-.1.22-.1.22-.1.19-.09-.27-.6-.19.09-.22.1-.22.1-.22.1-.22.1-.12.06h0Zm1.79-.82l.27.6.12-.05.23-.11.23-.11.17-.08.17-.08.17-.08.09-.04-.27-.6-.09.04-.17.08-.17.08-.17.08-.23.11-.23.11-.12.05h0Zm1.79-.82l.27.6.16-.07.17-.08.17-.08.17-.08.16-.08.16-.08.16-.08.04-.02-.28-.59-.04.02-.16.08-.16.08-.16.08-.16.08-.17.08-.17.08-.16.07h0Zm1.78-.83l.28.59h0s.16-.08.16-.08l.16-.07.16-.07.16-.07.16-.07.15-.07.15-.07.09-.04-.28-.59-.08.04-.15.07-.15.07-.16.07-.16.07-.16.07-.16.07-.16.07h0Zm1.78-.84l.28.59.08-.04.15-.07.15-.07.15-.07.15-.07.15-.07.15-.07.15-.07.07-.04-.29-.59-.07.03-.14.07-.14.07-.15.07-.15.07-.15.07-.15.07-.15.07-.08.04h0Zm1.77-.85l.29.59.05-.02.14-.07.14-.07.14-.07.14-.07.14-.07.14-.07.14-.07.13-.07h.03s-.29-.6-.29-.6h-.03s-.13.08-.13.08l-.14.07-.14.07-.14.07-.14.07-.14.07-.14.07-.14.07-.05.02h0Zm1.76-.87l.29.59.05-.02.13-.07.13-.06.13-.07.13-.06.13-.06.13-.06.13-.06.13-.06.1-.05-.3-.59-.1.05-.13.06-.13.06-.13.06-.13.06-.13.06-.13.06-.13.06-.13.07-.05.02h0Zm1.75-.88l.3.58.05-.03.12-.06.12-.06.12-.06.12-.06.12-.06.12-.06.12-.06.12-.06.12-.06.05-.03-.3-.58-.05.03-.12.06-.12.06-.12.06-.12.06-.12.06-.12.06-.12.06-.12.06-.12.06-.05.03h0Zm1.74-.9l.3.58.04-.02.11-.06.11-.06.11-.06.11-.06.11-.06.11-.06.11-.06.11-.06.11-.06.11-.06.04-.02-.31-.58-.04.02-.1.06-.1.06-.11.06-.11.06-.11.06-.11.06-.11.06-.11.06-.11.06-.11.06-.04.02h0Zm1.73-.92l.31.58.09-.05.1-.05.1-.05.1-.05.1-.05.1-.05.1-.05.1-.05.1-.05.1-.05.09-.05.09-.05-.32-.57-.09.05-.09.05-.09.05-.09.05-.1.05-.1.05-.1.05-.1.05-.1.05-.1.05-.1.05-.09.05h0Zm1.72-.95l.32.57.07-.04.09-.05.09-.05.09-.05.09-.05.09-.05.09-.05.09-.05.08-.05.08-.05.08-.05.08-.05.08-.05.05-.03-.33-.57-.04.03-.08.05-.08.05-.08.05-.08.05-.08.05-.08.05-.09.05-.09.05-.09.05-.09.05-.09.05-.09.05-.07.04h0Zm1.7-.98l.33.57.03-.02.08-.05.08-.05.08-.05.08-.05.08-.04.08-.04.07-.04.07-.04.07-.04.07-.04.07-.04.07-.04.07-.04.07-.04.06-.04-.34-.56-.06.04-.07.04-.07.04-.07.04-.07.04-.07.04-.07.04-.07.04-.07.04-.07.04-.07.04-.08.04-.08.05-.08.04-.08.05-.03.02h0Zm1.68-1.01l.34.56.06-.04.07-.04.06-.04.06-.04.06-.04.06-.04.06-.04.06-.04.06-.04.06-.04.06-.04.06-.04.06-.04.06-.04.06-.04.06-.04.06-.04.06-.04h0s-.35-.56-.35-.56h0s-.06.04-.06.04l-.06.04-.06.04-.06.04-.06.04-.06.04-.06.04-.06.04-.06.04-.06.04-.06.04-.06.04-.06.04-.06.04-.06.04-.06.04-.06.04-.06.04h0Zm1.65-1.05l.36.55.05-.03.05-.03.05-.03.05-.03.05-.03.05-.03.05-.03.05-.03.05-.03.05-.03.05-.03.05-.03.05-.03.05-.03.05-.03.05-.03.05-.03.05-.03.05-.03.05-.03.05-.03.04-.03.02-.02-.37-.54h-.02s-.04.04-.04.04l-.05.03-.05.03-.05.03-.05.03-.05.03-.05.03-.05.03-.05.03-.05.03-.05.03-.05.03-.05.03-.05.03-.05.03-.05.03-.05.03-.05.03-.05.03-.05.03-.05.03-.05.03h0Zm-303.94,45l-.58.31h0s0,0,0,0h0s0,0,0,0h0s0-.01,0-.01h0s0-.02,0-.02h0s0-.02,0-.02h0s0-.03,0-.03h0s0-.03,0-.03v-.02s-.02-.02-.02-.02v-.02s-.02-.02-.02-.02v-.02s-.02-.02-.02-.02v-.02s-.03-.02-.03-.02v-.03s-.03-.03-.03-.03l-.02-.03-.02-.03-.02-.03-.02-.03-.02-.03-.02-.03-.02-.03-.02-.03-.02-.04-.02-.04-.02-.04-.02-.04-.02-.04-.02-.04-.02-.04-.02-.04-.02-.04-.03-.04-.03-.05-.03-.05-.03-.05.57-.33.03.05.03.05.03.05.03.04.03.04.02.04.02.04.02.04.02.04.02.04.02.04.02.04.02.04.02.04.02.03.02.03.02.03.02.03.02.03.02.03.02.03.02.03v.03s.03.02.03.02v.02s.03.02.03.02v.02s.02.02.02.02v.02s.02.02.02.02v.02s.02.01.02.01v.02s.02.01.02.01h0s0,.02,0,.02h0s0,.02,0,.02h0s0,.02,0,.02h0s0,0,0,0h0s0,0,0,0h0Zm-.97-1.7l-.56.33h0s-.03-.07-.03-.07l-.03-.06-.03-.06-.04-.06-.04-.06-.04-.06-.04-.06-.04-.06-.04-.06-.04-.06-.04-.06-.04-.07-.04-.07-.04-.07-.04-.07-.04-.07-.04-.07-.02-.04.56-.34.02.04.04.07.04.07.04.07.04.07.04.07.04.07.04.06.04.06.04.06.04.06.04.06.04.06.04.06.04.06.03.06.03.06.03.06h0Zm-1.02-1.68l-.56.35-.03-.05-.05-.08-.05-.08-.05-.08-.05-.08-.05-.08-.05-.08-.05-.08-.05-.08-.05-.08-.05-.08-.05-.08-.05-.08-.05-.08-.02-.03.55-.35.02.03.05.08.05.08.05.08.05.08.05.08.05.08.05.08.05.08.05.08.05.08.05.08.05.08.05.08.03.05h0Zm-1.06-1.67l-.55.36h0s-.06-.09-.06-.09l-.06-.09-.06-.09-.06-.09-.06-.09-.06-.09-.06-.09-.06-.09-.06-.09-.06-.09-.06-.09-.06-.09-.03-.04.54-.37.03.04.06.09.06.09.06.09.06.09.06.09.06.09.06.09.06.09.06.09.06.09.06.09.06.09h0Zm-1.1-1.64l-.54.37-.04-.06-.06-.09-.06-.09-.06-.09-.06-.09-.07-.09-.07-.09-.07-.09-.07-.09-.07-.09-.07-.09-.06-.08.54-.38.06.08.07.1.07.1.07.09.07.09.07.09.07.09.07.09.06.09.06.09.06.09.04.06h0Zm-1.14-1.62l-.53.38-.04-.06-.07-.1-.07-.1-.07-.1-.07-.1-.07-.1-.07-.1-.07-.1-.07-.1-.07-.1-.07-.1-.02-.03.52-.39.02.03.07.1.07.1.07.1.07.1.07.1.07.1.07.1.07.1.07.1.07.1.04.06h0Zm-1.18-1.59l-.52.4-.03-.04-.08-.1-.07-.1-.08-.1-.08-.1-.08-.1-.08-.1-.08-.1-.08-.1-.08-.1-.08-.1h-.01s.51-.42.51-.42h.01s.08.11.08.11l.08.1.08.1.08.1.08.1.08.1.08.1.08.1.08.1.08.1.03.04h0Zm-1.22-1.55l-.51.41-.05-.06-.08-.1-.08-.1-.08-.1-.08-.1-.08-.1-.08-.1-.08-.1-.08-.1-.08-.1-.06-.07.5-.43.06.07.08.1.08.1.08.1.08.1.08.1.08.1.08.1.08.1.08.1.05.06h0Zm-1.27-1.51l-.49.43h-.01s-.08-.11-.08-.11l-.08-.1-.08-.09-.08-.09-.08-.09-.08-.09-.08-.09-.08-.09-.09-.09-.09-.09-.02-.02.48-.45.02.02.09.09.09.09.09.09.09.09.09.1.09.1.08.1.08.1.08.1.08.1h.01Zm-1.33-1.46l-.47.45-.05-.06-.09-.09-.09-.09-.09-.09-.09-.09-.09-.09-.09-.09-.09-.09-.09-.09-.09-.09-.07-.07.46-.47.07.07.09.09.09.09.09.09.09.09.09.09.09.09.09.09.09.09.09.09.05.06h0Zm-1.4-1.41l-.45.48-.09-.08-.09-.08-.09-.08-.09-.08-.09-.08-.09-.08-.09-.08-.09-.08-.09-.08-.09-.08-.06-.05.43-.49.06.05.09.08.09.08.09.08.09.08.09.08.09.08.09.09.09.09.09.09.09.08h0Zm-1.48-1.33l-.42.5-.09-.07-.09-.08-.09-.08-.09-.08-.09-.07-.09-.07-.09-.07-.09-.07-.09-.07-.09-.07-.09-.07h0l.4-.52h0s.09.07.09.07l.1.07.09.07.09.08.09.07.09.08.09.08.09.08.09.08.09.08.09.07h0Zm-1.57-1.23l-.38.53-.04-.03-.09-.07-.09-.07-.09-.06-.09-.06-.09-.06-.09-.06-.09-.06-.1-.06-.09-.06-.09-.06-.09-.06h-.01s.37-.55.37-.55h.01s.09.07.09.07l.09.06.09.06.09.06.1.06.1.06.1.07.1.07.1.07.1.07.1.07.04.03h0Zm-1.63-1.11l-.37.54-.07-.05-.09-.06-.09-.06-.09-.06-.09-.06-.09-.06-.08-.06-.08-.06-.08-.06-.08-.06-.08-.06-.08-.06-.07-.05.38-.53.07.05.08.06.08.06.08.06.08.06.08.06.08.06.08.06.09.06.09.06.09.06.09.06.08.05h0Zm-1.59-1.13l-.39.53-.03-.02-.08-.06-.08-.06-.08-.06-.08-.06-.08-.06-.08-.06-.07-.06-.07-.06-.07-.06-.07-.06-.07-.06-.07-.06-.07-.06-.05-.04.4-.52.04.03.07.06.07.06.07.06.07.06.07.06.07.06.07.06.07.06.07.06.07.06.08.06.08.06.08.06.03.02h0Zm-1.55-1.19l-.41.51h0s-.07-.06-.07-.06l-.07-.06-.07-.06-.07-.06-.07-.06-.07-.06-.07-.06-.07-.06-.07-.06-.07-.06-.07-.06-.07-.06-.07-.06-.07-.06-.05-.05.42-.5.05.05.07.06.07.06.07.06.07.06.07.06.07.06.07.06.07.06.07.06.07.06.07.06.07.06.07.06.07.06h0Zm-1.51-1.24l-.43.5-.04-.04-.07-.06-.07-.06-.07-.06-.07-.06-.07-.06-.07-.06-.07-.06-.07-.06-.07-.06-.07-.06-.07-.06-.07-.06-.07-.06-.07-.06-.02-.02.43-.49.02.02.07.06.07.06.07.06.07.06.07.06.07.06.07.06.07.06.07.06.07.06.07.06.07.06.07.06.07.06.04.04h0Zm-1.48-1.29l-.43.49-.02-.02-.07-.06-.07-.06-.07-.06-.07-.06-.07-.06-.07-.06-.07-.06-.07-.06-.07-.06-.07-.06-.07-.06-.07-.06-.07-.06-.07-.06h0s.43-.49.43-.49h0s.07.06.07.06l.07.06.07.06.07.06.07.06.07.06.07.06.07.06.07.06.07.06.07.06.07.06.07.06.07.06.02.02h0Zm-1.48-1.3l-.43.49h0s-.07-.07-.07-.07l-.07-.06-.07-.06-.07-.06-.07-.06-.07-.07-.08-.07-.08-.07-.08-.07-.08-.07-.08-.07-.08-.07-.08-.07h0s.43-.5.43-.5h0s.08.07.08.07l.08.07.08.07.08.07.08.07.08.07.08.07.07.07.07.07.07.07.07.06.07.06.07.06h0Zm-1.49-1.29l-.43.5-.06-.05-.08-.07-.08-.07-.08-.07-.08-.07-.08-.07-.08-.07-.09-.07-.09-.07-.09-.07-.09-.07-.09-.07h0s.42-.5.42-.5h0s.09.08.09.08l.09.07.09.07.09.07.09.07.08.07.08.07.08.07.08.07.08.07.08.07.06.05h0Zm-1.51-1.27l-.42.5-.04-.03-.09-.08-.09-.08-.09-.08-.09-.08-.1-.08-.1-.08-.1-.08-.1-.08-.1-.08-.1-.08h-.02s.41-.52.41-.52h.02s.1.09.1.09l.1.08.1.08.1.08.1.08.1.08.1.08.09.08.09.08.09.08.04.03h0Zm-1.53-1.25l-.41.51-.09-.07-.1-.08-.11-.08-.11-.09-.11-.09-.11-.09-.11-.09-.11-.09-.11-.09-.07-.06.41-.52.07.06.11.09.11.09.11.09.11.09.11.09.11.09.11.09.11.08.09.07h0Zm-1.55-1.22l-.4.52-.1-.08-.12-.09-.12-.09-.12-.09-.12-.09-.12-.09-.12-.09-.12-.1-.09-.07.4-.52.09.07.12.1.12.09.12.09.12.09.12.09.12.09.12.09.1.08h0Zm-1.56-1.2l-.4.52-.03-.02-.13-.1-.13-.1-.13-.1-.13-.1-.13-.1-.14-.1-.14-.1-.08-.06.39-.53.08.06.14.1.14.1.14.1.13.1.13.1.13.1.13.1.03.02h0Zm-1.58-1.18l-.39.53-.1-.07-.14-.11-.15-.11-.15-.11-.15-.11-.15-.11-.15-.11-.07-.05.39-.53.07.05.15.11.15.11.15.11.15.11.15.11.14.11.1.07h0Zm-1.59-1.16l-.38.53h-.01s-.16-.12-.16-.12l-.16-.11-.16-.11-.16-.12-.16-.12-.16-.12-.09-.06.38-.53.09.07.16.12.16.12.16.12.16.12.16.11.16.11h.01Zm-1.6-1.14l-.38.54-.04-.03-.17-.12-.17-.12-.17-.12-.17-.12-.18-.12-.16-.11.38-.54.16.11.18.12.18.12.17.12.17.12.17.12.04.03h0Zm-1.61-1.13l-.38.54h-.02s-.18-.14-.18-.14l-.18-.13-.19-.13-.19-.13-.19-.13-.12-.09.37-.54.12.09.19.13.19.13.19.13.19.13.18.13h.02Zm-1.62-1.11l-.37.54-.11-.08-.2-.14-.2-.14-.2-.14-.2-.14-.17-.12.37-.54.17.12.2.14.2.14.2.14.2.13.11.08h0Zm-1.63-1.11l-.37.54-.11-.07-.21-.14-.21-.14-.16-.11-.16-.11-.16-.11-.09-.06.37-.54.08.06.16.11.16.11.16.11.21.14.21.14.11.07h0Zm-1.63-1.1l-.37.54-.14-.1-.15-.1-.15-.1-.15-.1-.15-.1-.15-.1-.15-.1-.04-.03.37-.54.04.03.15.1.15.1.15.1.15.1.15.1.15.1.14.1h0Zm-1.62-1.11l-.37.54h0s-.14-.1-.14-.1l-.14-.1-.14-.1-.14-.1-.14-.1-.14-.1-.14-.1-.08-.05.38-.54.08.05.14.1.14.1.14.1.14.1.14.1.14.1.14.1h0Zm-1.61-1.12l-.38.54-.07-.05-.14-.1-.14-.09-.13-.09-.13-.09-.13-.09-.13-.09-.13-.09-.07-.05.38-.53.07.05.13.09.13.09.13.09.13.09.13.09.13.09.14.1.07.05h0Zm-1.6-1.13l-.38.53-.04-.03-.13-.09-.13-.09-.13-.09-.12-.09-.12-.09-.12-.09-.12-.09-.12-.09-.03-.02.38-.53.03.02.12.09.12.09.12.09.12.09.12.09.13.09.13.09.13.09.04.03h0Zm-1.59-1.15l-.39.53-.04-.03-.12-.09-.12-.09-.12-.09-.12-.08-.12-.08-.11-.08-.11-.08-.11-.08-.09-.07.39-.53.09.07.11.08.11.08.11.08.12.08.12.08.12.08.12.09.12.09.04.03h0Zm-1.58-1.16l-.39.53-.05-.03-.11-.08-.11-.08-.11-.08-.11-.08-.11-.08-.11-.08-.1-.08-.1-.08-.1-.08-.05-.04.4-.52.05.04.1.08.1.08.1.08.11.08.11.08.11.08.11.08.11.08.11.08.05.03h0Zm-1.57-1.18l-.4.52-.04-.03-.1-.08-.1-.08-.1-.08-.1-.07-.1-.07-.1-.07-.1-.07-.1-.07-.09-.07-.09-.07-.04-.03.4-.52.04.03.09.07.09.07.09.07.1.07.1.07.1.07.1.07.1.07.1.08.1.08.04.03h0Zm-1.55-1.2l-.4.52-.08-.07-.09-.07-.09-.07-.09-.07-.09-.07-.09-.07-.09-.07-.09-.07-.09-.07-.09-.07-.08-.07-.08-.06.41-.51.08.06.08.07.08.07.08.07.09.07.09.07.09.07.09.07.09.07.09.07.09.07.08.07h0Zm-1.54-1.22l-.41.51-.06-.05-.08-.06-.08-.06-.08-.06-.08-.06-.08-.06-.08-.06-.08-.06-.08-.06-.07-.06-.07-.06-.07-.06-.07-.06-.04-.03.42-.5.04.03.07.06.07.06.07.06.07.06.08.06.08.06.08.06.08.06.08.06.08.06.08.06.08.06.06.05h0Zm-1.52-1.25l-.42.5-.02-.02-.07-.06-.07-.06-.07-.06-.07-.06-.07-.06-.07-.06-.07-.06-.07-.06-.07-.06-.07-.05-.06-.06-.06-.05-.06-.05-.06-.05-.06-.05.43-.5.06.05.06.05.06.05.06.05.06.05.06.05.06.05.07.06.07.06.07.06.07.06.07.06.07.06.07.06.07.06.02.02h0Zm-1.49-1.27l-.43.49-.05-.04-.06-.05-.06-.05-.06-.05-.06-.05-.06-.05-.06-.05-.06-.05-.05-.05-.05-.05-.05-.05-.05-.05-.05-.05-.05-.05-.05-.05-.05-.05-.05-.05-.05-.05h0s.44-.49.44-.49h0s.05.05.05.05l.05.05.05.05.05.05.05.05.05.05.05.05.05.05.05.05.05.05.05.05.06.05.06.05.06.05.06.05.06.05.06.05.05.04h0Zm-1.46-1.31l-.45.48-.04-.04-.05-.04-.05-.04-.05-.04-.05-.04-.04-.04-.04-.04-.04-.04-.04-.04-.04-.04-.04-.04-.04-.04-.04-.04-.04-.04-.04-.04-.04-.04-.04-.04-.04-.04-.04-.04-.04-.04-.04-.04-.04-.04-.02-.02.46-.47.02.02.04.04.04.04.04.04.04.04.04.04.04.04.04.04.04.04.04.04.04.04.04.04.04.04.04.04.04.04.04.04.04.04.04.04.04.04.04.04.05.04.05.04.04.04h0Z"/>
  <path class="cls-5" d="m220.63,18.67c-6.94,1.76-20.12,4.34-36.72,3.95-11-.26-18.77-1.44-24.02-2.68l-.03-.02c4.72,4.23,10.52,7.78,17.31,8.95,20.46,3.54,33.64-3.35,41.91-9.05.52-.36,1.03-.74,1.55-1.15h0Z"/>
  <path class="cls-2" d="m200.21,90.75c-.27-.03-.6.24-1.01.79-.4.55-.82,1.23-1.25,2.05-.43.82-.84,1.72-1.23,2.68-.39.97-.7,1.85-.94,2.64-.24.79-.36,1.43-.38,1.9-.02.48.13.65.44.53.41-.16.83-.52,1.25-1.1.42-.57.84-1.25,1.23-2.02.4-.77.76-1.6,1.09-2.46.33-.87.59-1.66.78-2.39.19-.73.3-1.34.32-1.83.02-.5-.09-.76-.31-.79h0Zm10,2.21c-.17.37-.34.75-.49,1.13-.16.38-.3.76-.44,1.12.3-.53.64-1.15,1.04-1.84.39-.69.81-1.4,1.25-2.13.44-.73.88-1.44,1.33-2.13.44-.69.86-1.31,1.27-1.86.4-.55.77-.99,1.09-1.32.33-.33.58-.5.77-.51.11,0,.35.04.7.12.35.08.69.18,1.03.31.34.13.61.29.82.47.21.19.24.39.09.62-.1.14-.27.4-.5.79-.23.39-.48.85-.74,1.37-.26.52-.51,1.07-.75,1.66-.24.59-.43,1.16-.56,1.71-.13.55-.17,1.06-.11,1.51.05.46.23.8.55,1.02.09.07.1.17.04.3-.06.13-.18.27-.34.42-.16.15-.37.3-.61.47-.25.17-.5.32-.76.46-.43.24-.85.43-1.24.57-.39.14-.65.16-.78.07-.48-.33-.75-.76-.8-1.31-.05-.55-.01-1.1.12-1.65.14-.55.31-1.05.53-1.48.22-.43.36-.7.45-.82-.41.41-.85.89-1.34,1.45-.49.56-.97,1.18-1.44,1.86-.47.68-.91,1.39-1.33,2.14-.42.75-.74,1.5-.97,2.25-.24,1.27-.38,2.29-.42,3.07-.03.78-.06,1.18-.08,1.2-.06.09-.2.16-.41.21-.21.05-.45.07-.72.05-.27-.01-.53-.06-.8-.14-.26-.08-.48-.2-.64-.36-.2-.2-.35-.64-.44-1.33-.05-.4-.08-.85-.08-1.35-.54.79-1.11,1.49-1.71,2.12-.61.64-1.24,1.15-1.88,1.52-.64.38-1.26.49-1.84.34-.34-.08-.61-.22-.81-.43-.2-.21-.35-.43-.47-.66-.11-.23-.18-.46-.22-.68-.04-.22-.06-.38-.07-.48-.02-.28.04-.68.18-1.2-.72,1.31-1.44,2.37-2.14,3.16-.71.8-1.43,1.15-2.17,1.07-.72-.09-1.26-.27-1.61-.54-.35-.27-.58-.59-.71-.97-.12-.37-.17-.78-.13-1.22.03-.44.08-.85.14-1.25.08-.81.25-1.75.5-2.8.25-1.05.57-2.11.97-3.17.39-1.06.85-2.09,1.38-3.09.52-1,1.11-1.86,1.77-2.59.65-.73,1.37-1.28,2.15-1.65.78-.37,1.61-.48,2.5-.31.43.11.73.32.88.64.15.32.24.68.25,1.09l.66-1.94c.03-.13.16-.21.4-.24.24-.03.52-.03.85,0,.32.04.66.12,1,.25.35.13.64.3.89.53.25.22.4.49.47.8.07.31,0,.66-.22,1.06-.64,1.2-1.25,2.46-1.83,3.77-.58,1.31-1.07,2.51-1.48,3.58-.41,1.07-.7,1.95-.9,2.64-.19.68-.23,1.01-.11.97.2-.07.46-.29.8-.68.34-.39.69-.84,1.07-1.37.37-.52.76-1.09,1.16-1.69.3-.45.58-.87.84-1.27.25-1.1.6-2.2,1.05-3.3.46-1.11.88-2.25,1.25-3.4.37-1.15.59-2.24.64-3.25.02-.29.09-.48.23-.56.14-.08.32-.11.55-.08.09.03.3.08.62.16.32.08.65.22.98.42.33.2.63.47.89.82.26.35.37.79.34,1.33-.02.41-.15.97-.37,1.66-.22.69-.56,1.59-1.03,2.7h0Zm15.65-5.72c-.27-.03-.61.24-1.02.79-.41.55-.83,1.23-1.25,2.05-.42.82-.83,1.71-1.23,2.68-.4.97-.71,1.85-.94,2.64-.23.79-.35,1.43-.38,1.9-.03.48.12.65.43.53.41-.16.83-.53,1.27-1.1.43-.57.85-1.25,1.25-2.02.4-.78.76-1.6,1.09-2.46.33-.87.58-1.66.77-2.39.18-.73.29-1.34.3-1.83.02-.5-.08-.76-.29-.79h0Zm.14-2.46c.26.07.48.18.64.34.16.16.29.35.37.57.15-1.23.24-2.36.29-3.39.05-1.03.07-1.9.08-2.62,0-.72,0-1.29,0-1.7,0-.41.05-.62.15-.64.04,0,.24,0,.62,0,.37,0,.78.05,1.23.14.44.09.86.25,1.25.46.39.21.62.52.69.92.25,1.28.29,2.72.1,4.31-.19,1.59-.5,3.2-.95,4.84-.45,1.63-.98,3.24-1.61,4.8-.62,1.57-1.24,2.98-1.85,4.23l-.13.23c-.14.49-.16.71-.04.65.19-.07.46-.29.8-.68.34-.39.69-.84,1.07-1.37.37-.52.76-1.09,1.16-1.69.4-.6.76-1.15,1.1-1.65.33-.5.62-.91.84-1.24.23-.33.37-.5.43-.51.08-.01.2,0,.36.01.16.02.31.07.45.15.14.08.24.21.29.38.06.17.04.39-.05.67-.07.19-.24.58-.53,1.17-.28.58-.64,1.26-1.09,2.02-.45.76-.94,1.54-1.5,2.35-.55.81-1.13,1.53-1.74,2.17-.61.64-1.24,1.15-1.88,1.52-.64.38-1.26.49-1.84.34-.34-.08-.61-.22-.81-.43-.2-.21-.35-.43-.47-.66-.11-.23-.18-.46-.22-.68-.03-.22-.06-.38-.07-.48-.02-.29.04-.69.18-1.2-.72,1.31-1.44,2.37-2.14,3.16-.71.8-1.43,1.15-2.17,1.07-.72-.09-1.26-.27-1.61-.54-.35-.27-.58-.59-.71-.97-.12-.37-.17-.78-.13-1.22.03-.44.08-.86.14-1.25.08-.81.25-1.75.5-2.8.25-1.05.57-2.11.97-3.17.39-1.06.86-2.09,1.38-3.09.52-1,1.11-1.86,1.77-2.59.65-.73,1.37-1.28,2.15-1.65.78-.37,1.61-.48,2.5-.31h0Zm-61.6,14.98c.25-.29.81-.75,1.69-1.38.88-.63,1.95-1.34,3.23-2.11.86-1.65,1.79-3.27,2.78-4.84.99-1.58,1.99-3.1,2.99-4.58,1-1.48,1.96-2.9,2.87-4.27.92-1.37,1.73-2.69,2.44-3.96-1.78,2.44-3.56,4.65-5.35,6.64-.77.86-1.59,1.7-2.44,2.53-.85.83-1.72,1.59-2.6,2.28-.88.69-1.76,1.29-2.64,1.78-.88.5-1.73.83-2.55.98-1.12.22-2.02.21-2.71-.04-.69-.25-1.23-.6-1.63-1.07-.4-.46-.68-.97-.84-1.52-.16-.55-.27-1.02-.34-1.4-.06-.38-.04-.7.07-.95.11-.26.26-.45.45-.58.19-.13.39-.2.6-.2.21,0,.38.04.5.14.06.04.16.08.3.11.14.04.34.06.6.05.27,0,.61-.03,1.04-.07.43-.05.97-.14,1.61-.27.52-.09,1.18-.38,1.98-.87.8-.49,1.69-1.1,2.66-1.82.97-.73,1.99-1.54,3.07-2.43,1.08-.89,2.15-1.8,3.2-2.72,1.05-.92,2.07-1.82,3.04-2.7.98-.88,1.84-1.65,2.61-2.33.76-.68,1.4-1.23,1.91-1.65.51-.42.82-.64.93-.66.24-.03.63,0,1.19.11.56.11,1.1.28,1.63.52.53.24.95.54,1.26.91.31.37.33.8.07,1.3-.05.05-.37.55-.98,1.51-.61.95-1.39,2.21-2.34,3.79-.95,1.57-2.02,3.39-3.2,5.45-1.18,2.06-2.36,4.24-3.53,6.52,1.39-.56,2.77-1.02,4.13-1.41,1.36-.38,2.65-.6,3.87-.65,1.09-2.37,2.28-4.72,3.56-7.06,1.28-2.34,2.6-4.45,3.97-6.34,1.36-1.89,2.74-3.47,4.15-4.74,1.4-1.27,2.75-2.02,4.04-2.27.73-.12,1.32-.15,1.76-.09.44.06.79.19,1.03.37.24.18.42.42.53.72.11.29.22.58.33.86.13.3.06.62-.23.94-.28.33-.57.62-.86.89-.56.49-1.26,1.22-2.09,2.21-.83.98-1.73,2.15-2.7,3.49-.97,1.35-1.98,2.85-3.03,4.5-1.05,1.65-2.07,3.4-3.07,5.23-1,1.83-1.94,3.72-2.82,5.66-.89,1.94-1.66,3.88-2.31,5.81-.65,1.93-1.16,3.83-1.52,5.68-.36,1.86-.5,3.62-.43,5.28.01.16,0,.36-.07.59-.06.24-.16.47-.33.7-.16.23-.39.43-.69.61-.3.18-.67.28-1.12.29-.73.05-1.38-.15-1.96-.61-.58-.46-1.04-1.08-1.38-1.85-.34-.78-.53-1.66-.57-2.64-.04-.98.13-1.97.5-2.99.22-1.34.65-3,1.29-4.98.63-1.99,1.42-4.14,2.36-6.47-.82.27-1.77.61-2.83,1.02-1.07.41-2.19.88-3.38,1.42-1.19.54-2.4,1.13-3.64,1.77-1.24.64-2.45,1.31-3.64,2.02.74-.21,1.36-.42,1.89-.6.52-.19.94-.32,1.25-.41.31-.09.52-.11.63-.07.1.04.1.18-.02.4-1.17,2.63-2.13,5.07-2.87,7.33-.74,2.25-1.17,4.33-1.28,6.22-.03.46-.24.8-.63,1.01-.39.21-.85.33-1.36.36-.26.04-.6,0-1.03-.13-.43-.12-.84-.4-1.23-.83-.39-.43-.7-1.04-.92-1.83-.22-.79-.24-1.84-.06-3.15.11-.89.28-1.77.48-2.64.21-.88.46-1.74.74-2.61-.29.22-.56.45-.82.7-.26.24-.51.47-.76.69-.09.08-.23.2-.42.37-.19.16-.38.31-.58.44-.2.13-.38.2-.55.21-.17.01-.28-.09-.33-.31-.21-.89-.26-1.65-.16-2.28.1-.63.26-1.16.47-1.59.22-.43.44-.76.68-.99.24-.23.39-.38.46-.46h0Z"/>
  <path class="cls-4" d="m206.74,115.9c-.3.05-.69.07-1.16.06-3.88-.02-7.43,4.69-10.14,8.49,4.54.12,8.65-.79,11.49-3.44,1.18-1.1,2.17-2.89.91-4.34-.28-.32-.65-.59-1.09-.77h0Zm-90.08,100.92c.15-1.97.67-3.95,1.56-5.94.89-1.99,2.02-3.94,3.39-5.83,1.37-1.9,2.92-3.7,4.65-5.41,1.72-1.71,3.52-3.29,5.37-4.72,1.85-1.44,3.71-2.7,5.56-3.8,1.85-1.09,3.6-1.96,5.23-2.6,2.15-.84,4.3-1.49,6.45-1.96,2.15-.47,4.32-.89,6.51-1.25,2.19-.36,4.44-.72,6.76-1.09,2.32-.37,4.74-.87,7.26-1.5,2.52-.64,5.16-1.45,7.9-2.43,2.75-.99,5.66-2.28,8.74-3.89.71-.36,1.16-.48,1.36-.36.2.12.27.38.19.77-.07.4-.25.87-.53,1.42-.28.55-.55,1.05-.81,1.51-1.45,2.62-2.93,4.79-4.45,6.52-1.52,1.73-3.02,3.15-4.51,4.26-1.48,1.11-2.93,2-4.34,2.65-1.41.65-2.73,1.19-3.95,1.62-.82.3-1.91.54-3.28.72-1.37.18-2.93.37-4.67.57-1.74.2-3.61.41-5.59.62-1.98.21-3.98.5-5.98.86-2,.36-3.96.8-5.87,1.32-1.91.52-3.66,1.18-5.26,1.97-3.3,1.65-5.89,3.25-7.76,4.79-1.87,1.54-3.26,2.96-4.17,4.25-.91,1.29-1.48,2.38-1.72,3.29-.24.9-.38,1.52-.42,1.85-.15.68-.07,1.21.22,1.59.3.38.65.68,1.06.92.45.18.62.45.53.79-.09.34-.29.73-.58,1.16-.44.62-.94,1.11-1.47,1.47-.54.36-1.09.63-1.64.81-.56.18-1.08.29-1.56.31-.48.03-.89.01-1.22-.03-.41-.07-.8-.27-1.17-.59-.37-.32-.7-.72-.97-1.21-.28-.48-.49-1.02-.64-1.62-.15-.59-.2-1.2-.17-1.81h0Zm20.89-11.65c.42-.2.95-.4,1.6-.6.65-.2,1.31-.36,1.99-.47.68-.11,1.36-.15,2.03-.11.67.03,1.24.19,1.72.47.37.23.72.46,1.06.7.34.23.61.58.83,1.02.22.45.38,1.03.49,1.76.11.72.13,1.66.05,2.8-.09,1.69-.45,3.39-1.06,5.08-.62,1.7-1.37,3.38-2.27,5.06-.9,1.68-1.86,3.35-2.88,5.02-1.03,1.67-2.01,3.3-2.96,4.91-.95,1.61-1.79,3.19-2.52,4.77-.74,1.57-1.25,3.11-1.55,4.61-.08.46-.18.96-.3,1.5-.13.54-.19,1.07-.2,1.6,0,.53.06,1.04.21,1.51.15.48.46.87.93,1.18.07.05.07.21.02.48-.05.27-.19.55-.41.86-.22.31-.51.6-.87.87-.37.27-.84.42-1.43.45-1.73.12-3.07-.16-4.02-.84-.95-.68-1.62-1.52-2.02-2.52-.4-1-.62-2.02-.65-3.06-.03-1.04,0-1.88.07-2.5.14-1.34.54-2.89,1.2-4.65.66-1.75,1.44-3.57,2.32-5.46.89-1.89,1.84-3.8,2.85-5.74,1.02-1.94,1.94-3.76,2.77-5.46.83-1.7,1.52-3.23,2.06-4.59.55-1.36.81-2.43.77-3.2-.02-.58-.08-1.04-.16-1.4-.08-.36-.18-.66-.28-.92-.11-.26-.22-.47-.35-.64-.12-.17-.24-.35-.34-.52-.21-.38-.16-.75.15-1.09.31-.34.69-.63,1.14-.86h0Zm22.68,8.84c-.46-.02-1.01.45-1.65,1.42-.64.97-1.29,2.18-1.94,3.61-.66,1.44-1.27,3-1.84,4.69-.57,1.69-1.02,3.22-1.35,4.6-.33,1.38-.48,2.48-.47,3.29.02.82.29,1.11.81.87.69-.3,1.37-.96,2.04-1.97.67-1.01,1.31-2.2,1.92-3.55.61-1.36,1.15-2.79,1.62-4.3.47-1.51.84-2.9,1.11-4.16s.38-2.32.37-3.17c-.02-.85-.22-1.3-.61-1.33h0Zm27.07-20.35c-.39.04-.86.47-1.4,1.3-.54.83-1.11,1.93-1.7,3.3-.59,1.37-1.21,2.92-1.87,4.64-.65,1.72-1.29,3.48-1.92,5.27,1.02-1.18,2-2.59,2.95-4.22.95-1.63,1.77-3.2,2.46-4.7.69-1.5,1.19-2.79,1.5-3.88.31-1.09.3-1.66-.02-1.71h0Zm4.17,24.84c4.52,0,6.27-4.72,7.65-8.74.31-.91.5-1.66.57-2.24.07-.58-.07-.84-.39-.78-.52.09-1.11.52-1.74,1.28-.64.76-1.29,1.7-1.97,2.84-1.46,2.47-3.08,4.94-4.11,7.65h0Zm17.35-18.57c0-.5.11-.82.34-.97.23-.15.54-.2.93-.17.16.04.52.11,1.06.21.54.1,1.1.29,1.67.58.57.29,1.06.72,1.47,1.28.41.57.56,1.32.47,2.27-.13,1.13-.53,2.68-1.2,4.66-.67,1.98-1.43,4.11-2.28,6.4.82-1.54,1.76-3.27,2.83-5.19,1.06-1.92,2.13-3.75,3.19-5.5,1.06-1.74,2.06-3.25,2.97-4.52.92-1.27,1.62-2.02,2.11-2.25.69-.34,1.35-.38,1.99-.12.64.26,1.18.63,1.62,1.12.44.49.75,1.02.93,1.6.18.57.17,1.04-.02,1.39-.43.72-.97,1.77-1.62,3.15-.65,1.38-1.34,2.99-2.06,4.81-.72,1.82-1.41,3.79-2.06,5.91-.66,2.11-1.19,4.26-1.6,6.44-.41,2.18-.65,4.31-.71,6.41-.07,2.1.15,4.03.64,5.79.1.27.09.59-.02.97-.11.38-.56.62-1.35.73-.29.02-.72,0-1.28-.06-.56-.06-1.12-.29-1.7-.68-.57-.4-1.11-1.01-1.6-1.85-.49-.84-.82-1.99-.98-3.46-.1-.73-.09-1.87.02-3.43.11-1.55.36-3.3.74-5.24.38-1.94.89-3.98,1.55-6.11.65-2.13,1.47-4.14,2.46-6.03.16-.28.29-.6.37-.95.08-.35.09-.52.02-.51-.13-.05-.44.33-.93,1.13-.49.8-1.09,1.84-1.79,3.11-.7,1.27-1.47,2.68-2.29,4.24-.82,1.56-1.6,3.08-2.36,4.57-.75,1.49-1.44,2.85-2.06,4.09-.62,1.24-1.08,2.15-1.38,2.74-.26.97-.46,1.83-.59,2.57-.13.74-.15,1.31-.05,1.72.07.31.04.53-.07.65-.11.13-.27.21-.47.24-.2.04-.39.04-.57.02-.18-.02-.32-.04-.42-.06-.1-.02-.29-.07-.56-.17-.28-.09-.58-.2-.91-.32-.33-.12-.66-.27-.98-.44-.33-.17-.56-.37-.69-.6-.56-.79-.76-1.83-.61-3.12.03-.27.07-.54.12-.82-.63.73-1.29,1.43-1.98,2.12-1.2,1.2-2.47,2.26-3.83,3.18-3.96,2.69-10.84,2.71-12.11-3.58-.91,1.14-1.83,2.22-2.76,3.22-1.34,1.46-2.65,2.65-3.93,3.6-1.28.94-2.42,1.4-3.44,1.37-.92-.12-1.65-.59-2.19-1.42-.54-.83-.93-1.88-1.15-3.16-.09-.51-.16-1.04-.21-1.6-.29.5-.58,1-.89,1.5-.87,1.42-1.79,2.7-2.78,3.84-.98,1.14-2.01,2.06-3.07,2.75-1.06.69-2.1.93-3.12.72-.59-.11-1.06-.33-1.42-.68-.36-.34-.65-.71-.86-1.1-.21-.39-.36-.77-.44-1.15-.08-.38-.14-.65-.17-.82-.07-.49,0-1.18.2-2.07-1.11,2.3-2.24,4.16-3.37,5.58-1.13,1.42-2.33,2.08-3.61,1.99-1.25-.1-2.18-.36-2.8-.8-.62-.44-1.06-.98-1.3-1.61-.25-.63-.36-1.33-.34-2.08.02-.75.06-1.47.12-2.16.07-1.4.26-3.01.59-4.84.33-1.82.78-3.66,1.35-5.51.57-1.85,1.26-3.65,2.06-5.4.8-1.75,1.73-3.27,2.78-4.57,1.05-1.29,2.22-2.29,3.51-2.99,1.29-.7,2.71-.94,4.25-.71.75.15,1.28.49,1.57,1.03.29.53.48,1.15.54,1.85l.93-3.38c.03-.22.25-.37.66-.44.41-.07.89-.09,1.45-.05.56.04,1.14.16,1.74.35.61.19,1.13.47,1.57.84.44.37.74.81.88,1.34.15.53.06,1.14-.27,1.84-.98,2.1-1.91,4.3-2.78,6.6-.87,2.3-1.6,4.38-2.19,6.25-.59,1.87-1.02,3.4-1.28,4.59-.26,1.19-.3,1.75-.1,1.68.33-.13.76-.54,1.3-1.23.54-.69,1.11-1.49,1.7-2.42.59-.93,1.2-1.92,1.82-2.98.62-1.06,1.2-2.03,1.72-2.9.12-.2.23-.39.34-.57.19-1.44.45-2.84.76-4.2.34-1.47.71-2.76,1.11-3.86-.1-.23-.21-.62-.34-1.17-.16-.83-.13-1.69.1-2.58.23-.9.52-1.68.86-2.35.34-.67.68-1.14,1.01-1.41.33-.27.51-.2.54.22v.37c.85-2.15,1.81-4.36,2.87-6.64,1.06-2.28,2.15-4.39,3.24-6.33,1.1-1.95,2.17-3.63,3.22-5.05,1.05-1.42,1.98-2.35,2.8-2.78.43-.22,1.02-.31,1.79-.27.77.04,1.5.3,2.19.78.69.48,1.21,1.22,1.57,2.23.36,1,.38,2.34.05,4-.65,3.15-1.69,6.04-3.1,8.69-1.41,2.64-2.94,4.94-4.59,6.9-1.65,1.96-3.31,3.51-4.96,4.67-1.65,1.15-3.02,1.78-4.1,1.86l-.54.1c.39.11.88.14,1.45.11.57-.03,1.27-.16,2.09-.38-.49,1.44-.91,2.7-1.25,3.76-.34,1.06-.63,2-.86,2.83-.23.83-.38,1.58-.47,2.25-.08.67-.11,1.38-.07,2.13.03.67.13,1.24.29,1.71.16.47.67.64,1.52.53.36-.07.88-.44,1.57-1.11.69-.68,1.45-1.51,2.29-2.5.84-.99,1.69-2.05,2.56-3.19.14-.18.28-.36.41-.54.08-.32.16-.64.25-.97.56-2.04,1.32-4.16,2.29-6.35.97-2.19,2.11-4.17,3.44-5.94,1.33-1.77,2.81-3.22,4.45-4.33,1.64-1.12,3.39-1.63,5.26-1.54,1.21.07,2.12.33,2.73.79.61.46,1.01,1,1.2,1.63.2.62.26,1.27.2,1.94-.07.67-.13,1.24-.2,1.72-.2,1.18-.51,2.36-.98,3.52-4.2,10.25-9.56,9.48-12.04,9.58v-.05c-1.26,1.49-1.95,9.83,3.51,6.29.8-.52,1.67-1.19,2.6-2.02,2.75-2.44,5.52-5.43,7.68-8.5.7-1.72,1.38-3.46,2.02-5.23.72-1.97,1.33-3.94,1.84-5.92.51-1.98.76-3.86.76-5.65h0Zm36.02,18.41c.16-1.17.16-2.11,0-2.83-.16-.72-.44-1.33-.84-1.83-.85,1.01-1.61,2.08-2.28,3.22-.67,1.14-1.24,2.32-1.7,3.54-.49,1.41-.55,2.31-.17,2.7.38.4.9.43,1.57.12.67-.32,1.36-.92,2.06-1.82.7-.89,1.15-1.93,1.35-3.11h0Zm4.91-27.46c.62-.11,1.29-.15,2.02-.1.72.05,1.38.24,1.99.58.61.34,1.08.87,1.42,1.61,1.43,3.08-1.21,9.25-4.36,9.82-.65.12-1.24.09-1.74-.09-.51-.18-.86-.48-1.06-.91-.44-.97,1.17-2.56,1.64-3.45.2-.37.31-.65.34-.84.1-.62-.16-.9-.76-.82-.61.07-1.29.38-2.06.93-.77.55-1.47,1.3-2.11,2.25-.64.95-.96,2-.96,3.14.03.53.39,1.08,1.06,1.65.67.57,1.43,1.23,2.28,1.97,5.94-4.52,13.27-7.7,17.3-4.48,1.93,1.54,3.1,4.54,3,9.55-2.22,12.15-12.41,23.4-22.67,27.86-25.98,11.3-69.47,1.17-103.45,28.18l-9.3-11.46c33.77-25.83,82.54-8.04,110.98-20.18,30.69-13.09,26.21-47.57,2.97-24.82,1.21-.71,2.64-1.33,3.87-1.99.65.74.92,1.25,1.25,2.06.33.81.44,1.8.34,2.96-.2,2.1-.59,3.93-1.18,5.48-.59,1.55-1.28,2.89-2.06,4.01-.79,1.12-1.63,2.04-2.53,2.76-.9.72-1.74,1.29-2.53,1.71-.79.43-1.48.74-2.09.94-.61.2-1.01.32-1.2.35-1.21.25-2.19.21-2.92-.14-.74-.35-1.3-.84-1.7-1.48-.39-.64-.62-1.36-.69-2.15-.07-.79-.05-1.5.05-2.12.39-2.25,1.2-4.36,2.41-6.34,1.21-1.98,2.65-3.84,4.32-5.57-.49-.27-.97-.57-1.42-.92-.2-.15-.4-.32-.58-.5-.22.6-.47,1.25-.75,1.96-.59,1.48-1.29,3.09-2.11,4.81-.82,1.72-1.74,3.3-2.78,4.73-1.03,1.44-2.16,2.64-3.39,3.6-1.23.96-2.53,1.42-3.91,1.38-.85-.03-1.51-.28-1.97-.76-.39-.34-.65-1.21-.76-2.59-.11-1.39-.09-3.07.07-5.04.16-1.97.48-4.12.96-6.44.48-2.32,1.12-4.62,1.94-6.91l5.36-14.68c-1.21.31-2.4.79-3.56,1.43-1.16.64-2.3,1.62-3.42,2.94-.2.23-.37.38-.52.47-.15.09-.27.12-.37.1-.1-.02-.17-.05-.22-.1-.05-.05-.07-.07-.07-.07-.46-.37-.7-.99-.71-1.86-.02-.87.17-1.75.57-2.62.39-.88.97-1.65,1.74-2.34.77-.68,1.73-1.04,2.87-1.07.79,0,1.57.01,2.36.03.79.02,1.59.05,2.41.08.95-2.62,1.69-4.77,2.24-6.46.54-1.68.84-2.91.91-3.69.03-.35.36-.55.98-.62.62-.06,1.26.11,1.92.52.66.41,1.19,1.1,1.6,2.09.41.99.43,2.33.07,4.04-.2.95-.36,1.7-.49,2.24-.13.54-.29,1.09-.49,1.66,2.06-.21,4.09-.69,6.09-1.43,2-.75,3.91-2,5.75-3.77.33-.29.57-.42.71-.39.15.03.23.16.25.38.02.23,0,.49-.07.79-.07.3-.15.55-.25.76-1.08,2.11-2.26,3.63-3.54,4.57-1.28.93-2.62,1.54-4.03,1.83-1.41.29-2.87.38-4.4.28-1.52-.11-3.05-.16-4.59-.17.46.1.99.2,1.6.29.61.09,1.01.16,1.2.2-.82,1.99-1.74,4.32-2.75,7.01-1.02,2.69-2.05,5.43-3.1,8.22-.29.86-.65,1.97-1.06,3.34-.41,1.37-.78,2.76-1.11,4.15-.33,1.4-.58,2.66-.76,3.8-.18,1.14-.19,1.9-.02,2.29.33.85.76,1.09,1.3.72.54-.37,1.14-1.1,1.79-2.17.66-1.08,1.31-2.36,1.97-3.83.66-1.48,1.28-2.89,1.87-4.24.43-.98.81-1.86,1.14-2.63-.08-.61-.08-1.3-.01-2.08.13-1.98.66-3.82,1.6-5.5.93-1.68,2.01-3.14,3.24-4.38,1.23-1.24,2.47-2.23,3.73-2.98,1.26-.75,2.3-1.19,3.12-1.34h0Zm-91.08-91.11c.15-.2.21-.4.2-.6-.01-.2-.07-.39-.17-.57-.1-.18-.22-.33-.36-.45-.14-.12-.24-.2-.32-.23-.18-.06-.38-.12-.59-.18-.21-.06-.43-.12-.64-.18-.22-.07-.43-.14-.64-.22-.21-.08-.41-.17-.59-.26-.57-.3-1.23-.67-1.96-1.11-.74-.45-1.53-.93-2.37-1.43-.85-.51-1.73-1.02-2.66-1.52-.93-.51-1.87-.97-2.84-1.37-.96-.4-1.93-.73-2.9-.97-.97-.24-1.92-.35-2.85-.33-.93.02-1.83.21-2.69.56-.86.35-1.67.91-2.41,1.68-.08.09-.18.22-.31.4-.12.18-.24.4-.34.65-.11.26-.19.55-.24.86-.06.32-.05.66,0,1.03.06.37.18.75.38,1.16.2.41.49.82.9,1.24.09.1.27.23.54.41.27.17.59.32.95.43.36.12.74.16,1.13.14.39-.02.76-.17,1.1-.44.08-.07.17-.19.29-.37.12-.18.22-.39.3-.63.08-.24.13-.5.15-.77.02-.28-.03-.54-.13-.79-.07-.18-.16-.28-.26-.3-.1-.01-.2.01-.29.08-.12.09-.29.13-.49.14-.2,0-.41-.02-.62-.08-.21-.06-.42-.14-.6-.24-.19-.1-.33-.21-.42-.32-.18-.21-.3-.43-.34-.64-.05-.21-.05-.41,0-.6.04-.19.12-.36.23-.51.11-.16.23-.28.37-.36.56-.35,1.25-.49,2.07-.43.82.06,1.73.25,2.71.58.98.33,2,.75,3.07,1.27,3.48,1.69,5.75,3.11,9.5,4.38-.15.25-1.32.45-1.73.44-1.37-.04-2.75-.16-4.12-.36-.71-.11-1.37-.24-2-.4-.63-.16-1.19-.35-1.68-.58-.49-.22-.88-.48-1.15-.78-.08-.08-.15-.19-.21-.31-.07-.13-.11-.26-.13-.4-.02-.14,0-.27.04-.41.05-.14.15-.25.32-.35.17-.09.19-.22.05-.39-.14-.17-.39-.28-.75-.33-.19-.03-.4.01-.64.11-.24.1-.47.24-.69.44-.22.19-.41.42-.57.7-.16.27-.26.56-.29.88-.03.32.02.65.15,1,.13.35.38.69.74,1.03.35.34.86.62,1.51.84.66.22,1.4.39,2.23.52.83.13,1.72.21,2.67.25.95.04,1.89.05,2.84.03.94-.02,1.86-.06,2.73-.12.88-.07,1.67-.15,2.36-.25.44-.06,2.26-.32,2.51-.65h0Zm77.03-6.07c-.15-.2-.21-.4-.2-.6.01-.2.07-.39.17-.57.1-.18.22-.33.36-.45.14-.12.24-.2.32-.23.18-.06.38-.12.59-.18.21-.06.43-.12.64-.18.22-.07.43-.14.65-.22.21-.08.41-.17.59-.26.57-.29,1.23-.67,1.96-1.11.74-.45,1.53-.93,2.37-1.43.85-.51,1.73-1.02,2.66-1.52.93-.51,1.87-.97,2.84-1.37.96-.4,1.93-.73,2.9-.97.97-.24,1.92-.35,2.85-.33.93.02,1.83.21,2.69.56.86.35,1.67.91,2.41,1.68.08.09.18.22.31.4.12.18.24.4.34.65.11.26.19.55.24.87.06.32.05.66,0,1.03-.06.37-.18.75-.38,1.16-.2.41-.49.82-.9,1.24-.09.1-.27.23-.54.41-.27.17-.59.32-.95.44-.36.12-.74.16-1.13.14-.39-.02-.76-.17-1.09-.44-.08-.07-.17-.19-.29-.37-.12-.18-.22-.39-.3-.63-.08-.24-.13-.5-.15-.77-.02-.28.03-.54.13-.79.07-.18.16-.28.26-.3.1-.01.2.01.29.08.12.09.29.13.49.14.2,0,.41-.02.62-.08.21-.06.42-.14.6-.24.19-.1.33-.21.42-.32.18-.21.3-.43.34-.64.05-.21.05-.41,0-.6-.04-.19-.12-.36-.23-.51-.11-.15-.24-.28-.37-.36-.56-.35-1.25-.49-2.07-.43-.82.06-1.73.25-2.71.58-.98.33-2,.75-3.07,1.27-3.48,1.69-5.75,3.11-9.5,4.38.15.25,1.32.45,1.73.44,1.37-.04,2.75-.16,4.12-.36.71-.11,1.37-.24,2-.4.63-.16,1.19-.35,1.68-.58s.88-.48,1.15-.78c.08-.08.15-.19.21-.31.07-.13.11-.26.13-.39.02-.14,0-.27-.04-.41-.05-.13-.15-.25-.32-.35-.17-.09-.19-.22-.05-.39.14-.17.39-.28.75-.33.19-.02.4.01.64.11.24.1.47.24.69.44.22.19.41.42.57.69.16.27.26.56.29.88.03.32-.02.65-.15,1-.13.35-.38.69-.75,1.03-.35.34-.86.62-1.51.84-.66.22-1.4.39-2.23.52-.83.13-1.72.21-2.67.25-.95.04-1.89.05-2.84.03-.95-.02-1.86-.06-2.73-.12-.88-.07-1.67-.15-2.36-.25-.44-.06-2.26-.32-2.51-.65h0Zm-76.33,88.74c-1.84,0-3.28-.7-4.32-2.08-1.04-1.38-1.8-3.13-2.28-5.27-.48-2.13-.73-4.49-.77-7.06-.03-2.57.03-5.04.2-7.41-.44.81-1.11,2.01-1.99,3.6-.89,1.59-1.94,3.34-3.15,5.25s-2.56,3.89-4.04,5.92c-1.48,2.03-3.03,3.9-4.65,5.6-1.62,1.7-3.27,3.14-4.96,4.31-1.69,1.17-3.35,1.85-4.99,2.03-1.13.14-2.21.01-3.25-.38-1.04-.39-1.96-.99-2.76-1.79-.8-.8-1.43-1.81-1.89-3.02-.46-1.21-.67-2.56-.64-4.05.1-2.76.6-5.45,1.48-8.05.89-2.61,2.03-5.28,3.43-8.02,3.09-6.06,18.62-31.6,18.62-32.42-4.44,7.69-12.12,17.9-18.54,23.73-1.48,1.35-2.96,2.44-4.42,3.28-1.47.84-2.97,1.38-4.5,1.62-.92.14-1.74.06-2.46-.26-.72-.31-1.3-.74-1.76-1.28-.46-.54-.78-1.1-.97-1.69-.19-.58-.25-1.08-.18-1.5.03-.15.03-.27,0-.33-.03-.07.02-.15.15-.25.14-.1.41-.25.82-.46.41-.21,1.06-.54,1.94-.97,2.46-1.24,4.84-2.88,7.16-4.94,6.89-6.1,11.84-13.05,17.37-20.48,1.48-2,2.78-3.65,3.89-4.95,1.11-1.31,2-2.01,2.69-2.12,1.36-.21,2.5-.11,3.4.3.9.42,1.62.97,2.15,1.67.53.7.9,1.43,1.1,2.19.2.77.31,1.39.31,1.87,0,1.48-.28,3.18-.84,5.09-.56,1.91-1.3,3.93-2.2,6.08-.9,2.15-1.95,4.37-3.15,6.67-2.4,4.63-4.91,9.2-7.44,13.75-1.66,2.97-3.25,5.92-4.68,9.03-.48,1.04-.94,2.1-1.38,3.19-.44,1.09-.84,2.18-1.18,3.27-.34,1.09-.59,2.07-.74,2.93-.15.86-.16,1.57-.03,2.15.14.57.46.89.97.96,1.4-.03,2.83-.55,4.3-1.54,1.47-.99,2.94-2.34,4.43-4.06,1.48-1.72,2.94-3.75,4.37-6.09,1.43-2.34,2.84-4.86,4.22-7.56,1.38-2.7,2.71-5.54,3.99-8.5,1.28-2.97,2.48-5.95,3.61-8.94.99-4.05,1.74-7.01,2.25-8.87.51-1.86.96-2.86,1.33-2.99.58-.2,1.23-.25,1.94-.14.72.11,1.44.32,2.17.63.73.31,1.43.69,2.1,1.15.66.45,1.24.92,1.71,1.4.48.48.82.94,1.02,1.37.2.43.22.79.05,1.08-.07.12-.26.78-.59,1.99-.32,1.2-.7,2.73-1.13,4.57-.43,1.85-.89,3.92-1.38,6.23-.49,2.3-.96,4.64-1.41,7.01-.44,2.37-.83,4.67-1.15,6.89-.32,2.22-.53,4.17-.61,5.83-.08,1.66-.03,2.97.15,3.9.19.94.57,1.3,1.15,1.1,1.26-.46,2.48-1.7,3.66-3.72,7.07-12.15,9.39-27.97,16.67-41.55-5.76-1.34-11.17-3.34-15.01-5.06-13.62-6.13-28.18-13.38-50.96,7.09l-7.84-9.7c22.72-20.42,41.46-11.04,58.97-2.85,4.11,1.92,10.62,4.67,17.31,6.29,1.38-2.15,2.84-4.07,4.37-5.77,2.17-2.4,4.53-4.1,7.08-5.09,1.81-.7,6.77-1.51,7.97-1.11h0c.88.04,1.7.22,2.45.51,1.08.43,2.01,1.09,2.74,1.91.75.86,1.29,1.9,1.55,3.05.57,2.5-.15,5.4-2.76,7.83-4.15,3.88-10.53,4.83-17.23,4.29-8.26,12.39-11.54,24.88-17.93,38.12-1.48,3.07-3.02,5.76-4.6,8.07-1.59,2.31-3.25,4.14-4.99,5.49-1.74,1.35-3.56,2.02-5.47,2.03h0Zm39.16-33.58c-.03.78.34,1.26,1.13,1.44.27-.67.49-1.26.64-1.77.15-.51.25-.87.28-1.1.1-.91.05-1.43-.15-1.56-.2-.13-.44-.05-.72.25-.27.3-.54.72-.79,1.27s-.38,1.03-.38,1.48h0Zm-4.19,2.22c-.14-.8-.15-1.68-.05-2.66-.17.4-.31.85-.41,1.37-.1.52-.2,1.03-.28,1.55-.09.51-.17.98-.26,1.4-.09.42-.16.73-.23.93-.72,1.78-1.3,3.53-1.76,5.23-.46,1.71-.77,3.21-.92,4.51-.15,1.3-.17,2.35-.05,3.13.12.78.38,1.16.79,1.13.2,0,.55-.39,1.02-1.19.48-.8,1.03-1.82,1.66-3.07.63-1.25,1.3-2.63,2-4.15.7-1.52,1.36-3,1.97-4.43-.75-.11-1.46-.42-2.12-.95-.67-.53-1.12-1.46-1.36-2.79h0Zm21.89-2.99c-.27.67-.53,1.35-.77,2.04-.24.69-.46,1.36-.67,2.02.48-.97,1.03-2.07,1.66-3.32.63-1.25,1.3-2.53,2.02-3.85.72-1.32,1.43-2.6,2.15-3.84.72-1.24,1.41-2.36,2.07-3.36.66-.99,1.27-1.79,1.82-2.4.55-.6.99-.92,1.33-.93.2,0,.62.07,1.25.19.63.12,1.25.3,1.87.51.61.22,1.12.49,1.51.82.39.33.47.7.23,1.11-.17.25-.44.73-.82,1.44-.38.71-.77,1.53-1.18,2.47-.41.94-.8,1.93-1.18,3-.38,1.06-.65,2.09-.82,3.08-.17.99-.19,1.89-.05,2.71.14.81.49,1.42,1.07,1.81.17.12.2.3.1.54-.1.24-.29.49-.56.76s-.62.55-1.05.86c-.43.31-.86.59-1.3.84-.75.45-1.47.81-2.15,1.06-.68.26-1.14.31-1.38.16-.89-.57-1.41-1.34-1.56-2.32-.15-.98-.14-1.96.05-2.96.19-.99.45-1.88.79-2.66.34-.78.58-1.27.72-1.48-.68.74-1.43,1.62-2.25,2.64-.82,1.02-1.61,2.15-2.38,3.38-.77,1.23-1.48,2.52-2.15,3.87-.66,1.35-1.17,2.7-1.51,4.05-.31,2.28-.45,4.11-.43,5.5.02,1.39,0,2.1-.03,2.15-.1.16-.34.3-.72.39-.38.1-.8.13-1.28.12-.48-.02-.95-.09-1.43-.22-.48-.13-.87-.34-1.18-.62-.38-.35-.68-1.14-.92-2.36-.24-1.22-.35-2.72-.33-4.48.02-1.77.19-3.71.51-5.84.16-1.04.37-2.08.63-3.11-.93.51-1.95,1-3.08,1.47-1.35.56-2.74.98-4.17,1.24-.17.06-.38.12-.64.18-.26.06-.57.1-.95.12.31.03.68.02,1.12,0,.44-.03.89-.05,1.33-.04.44,0,.84.05,1.18.15.34.09.55.29.61.57-.61,2.06-1.35,4.05-2.2,5.97-.85,1.91-1.86,3.63-3.02,5.15-1.16,1.52-2.49,2.75-3.99,3.69-1.5.94-3.21,1.47-5.12,1.58-.27,0-.68-.02-1.23-.09-.55-.06-1.12-.25-1.71-.57-.6-.31-1.14-.82-1.64-1.52-.49-.7-.81-1.67-.95-2.91-.24-2.19-.15-4.43.26-6.72.41-2.29,1.01-4.52,1.82-6.69.8-2.17,1.71-4.21,2.74-6.13,1.02-1.92,2.02-3.61,2.99-5.06.97-1.45,1.85-2.59,2.63-3.42.78-.83,1.33-1.25,1.64-1.26.2,0,.46.09.77.24.31.16.64.35,1,.57.36.22.72.49,1.07.81.36.32.69.63,1,.96.51-.3,1.04-.56,1.59-.78.55-.22,1.13-.35,1.74-.41.38-.02.77.07,1.18.29.41.21.77.54,1.07.97.31.43.55.96.74,1.58.19.62.23,1.33.13,2.12-.1,1.43-.36,3.14-.77,5.13.85-.36,1.69-.73,2.51-1.12.67-.32,1.29-.62,1.87-.89.5-1.49.95-3.01,1.35-4.54.55-2.07.82-4.02.82-5.83,0-.52.12-.85.36-1,.24-.15.56-.2.97-.15.17.05.55.14,1.13.27.58.13,1.18.37,1.79.72.61.35,1.17.83,1.66,1.44.49.61.74,1.4.74,2.36,0,.74-.16,1.73-.49,2.97-.32,1.24-.84,2.86-1.56,4.86h0Zm31.2-17.02c.21,0,.62.07,1.25.19.63.12,1.25.29,1.87.51.61.22,1.12.49,1.51.82.39.33.47.7.23,1.11-.17.25-.44.73-.82,1.44-.38.71-.77,1.53-1.18,2.47-.41.94-.8,1.93-1.18,3-.37,1.06-.65,2.09-.82,3.08-.17.99-.19,1.89-.05,2.71.14.81.49,1.42,1.07,1.81.31.21.21.59-.28,1.13-.49.54-1.13,1.08-1.92,1.61-.78.53-1.59.96-2.4,1.3-.82.33-1.4.4-1.74.19-.89-.57-1.41-1.34-1.56-2.32-.15-.98-.14-1.96.05-2.96.19-.99.45-1.88.79-2.66.34-.78.58-1.27.72-1.48-.55.57-1.13,1.25-1.77,2.06-.63.8-1.29,1.67-1.97,2.59,0,.07,0,.4-.03.98s-.02,1.27,0,2.09c.02.81.07,1.69.15,2.62.09.93.21,1.78.38,2.53.17.75.39,1.36.66,1.82.27.46.63.62,1.07.47,12.1-3.45,36.07-44.44,10.81-46.82-14.01-1.32-28.38,17.08-28.45,17.15l-9.08-8.49c.07-.07,23.02-18.37,40.49-15.13,29.12,5.4-.94,55.47-13.76,59.03-.89.25-1.7.27-2.43.05-.73-.22-1.4-.58-1.99-1.08-.6-.5-1.11-1.09-1.53-1.76-.43-.68-.79-1.36-1.1-2.05-.17,1.7-.24,3.03-.2,4.01.03.98.03,1.49,0,1.53-.1.16-.34.29-.72.39-.38.1-.8.14-1.28.12-.48-.02-.95-.09-1.43-.22-.48-.13-.87-.34-1.18-.62-.41-.34-.67-1.19-.79-2.55-.12-1.35-.09-2.99.08-4.91.17-1.92.5-4,1-6.25.49-2.25,1.17-4.48,2.02-6.69,2.97-7.52,5.33-13.54,7.08-18.06,1.76-4.52,2.72-7.47,2.89-8.83.03-.34.37-.53,1.02-.58.65-.05,1.31.14,1.99.55.68.41,1.24,1.11,1.66,2.08.43.97.45,2.28.08,3.94-.41,1.88-.93,3.64-1.56,5.28-.63,1.64-1.33,3.3-2.1,4.98-.77,1.68-1.59,3.44-2.48,5.29-.89,1.85-1.79,3.92-2.71,6.21l-.2.48c.78-1.46,1.65-3.01,2.61-4.67.96-1.65,1.89-3.17,2.81-4.56.92-1.39,1.77-2.54,2.56-3.46.78-.92,1.4-1.4,1.84-1.43h0Z"/>
  <path class="cls-2" d="m205.25,168.51c1.26.07,2.28.28,3.06.64.78.36,1.38.8,1.8,1.33.42.53.7,1.12.83,1.76.13.64.19,1.28.16,1.92-.03.5-.08.98-.17,1.45s-.18.88-.28,1.23c-.16.59-.38,1.18-.65,1.76-.27.59-.57,1.16-.9,1.71-.33.55-.68,1.09-1.05,1.6-.37.52-.74.99-1.09,1.44-.85,1.05-1.75,2.04-2.71,2.96.34-.04.65-.02.93.07.24.07.46.2.65.39.2.19.31.49.33.88-.01.22-.07.52-.16.89-.09.37-.24.78-.44,1.22-.2.44-.45.89-.76,1.37-.31.47-.68.92-1.13,1.35-.44.43-.96.81-1.54,1.15-.59.34-1.25.6-2,.78-.08.02-.16.04-.26.06-.1.02-.19.04-.27.04-.38.04-.78.01-1.19-.06-.42-.08-.81-.22-1.17-.42-.37-.2-.68-.47-.95-.81-.27-.34-.44-.76-.53-1.24-.03-.27-.03-.55,0-.84.03-.54.12-1.12.27-1.72.16-.61.36-1.23.59-1.86.24-.63.5-1.27.8-1.92.3-.65.59-1.28.88-1.9.45-.96.85-1.85,1.2-2.67.35-.82.53-1.48.56-2,.01-.39-.09-.66-.3-.81-.19-.16-.2-.32-.04-.48.16-.16.44-.28.81-.37.21-.05.45-.08.72-.08.27,0,.52.03.78.1.25.07.49.18.71.33.22.15.4.36.54.61l.06.13c.06.09.11.19.13.28.02.09.03.2.02.32-.01.15-.06.36-.13.63-.08.27-.21.64-.42,1.13l-.97,2.13c-.33.72-.68,1.52-1.07,2.38-.39.86-.75,1.69-1.09,2.49-.34.8-.62,1.51-.85,2.13-.23.62-.35,1.05-.36,1.29-.03.45.08.79.32,1.04.24.24.55.29.92.13.48-.24.94-.54,1.37-.9.43-.36.81-.74,1.14-1.13.33-.39.59-.76.78-1.12.19-.36.28-.66.28-.89,0-.18-.09-.3-.28-.36-.19-.06-.39-.07-.61-.02-.25.06-.51.19-.77.4-.26.21-.52.34-.79.4-.16.04-.27,0-.32-.14-.05-.13-.06-.31-.03-.54.03-.23.09-.48.19-.77.09-.28.21-.55.33-.81.13-.26.26-.49.42-.69.15-.2.3-.34.44-.41.83-.42,1.57-1.06,2.21-1.93.64-.87,1.18-1.83,1.62-2.88.44-1.05.79-2.13,1.04-3.23.25-1.1.4-2.08.44-2.96.04-.67-.02-1.22-.17-1.67-.06-.22-.14-.43-.22-.63-.08-.2-.2-.37-.34-.51-.14-.14-.33-.23-.55-.28-.22-.05-.5-.03-.84.05-.54.13-1.09.46-1.64.98-.55.52-1.09,1.15-1.64,1.88-.54.73-1.07,1.52-1.58,2.38-.51.86-1,1.69-1.47,2.5-.32.54-.62,1.06-.91,1.55-.29.49-.57.93-.83,1.33-.26.4-.51.74-.75,1.01-.23.28-.45.47-.65.59-.4.21-.77.35-1.1.43-.56.13-1.02.12-1.4-.02-.38-.15-.64-.37-.78-.65-.15-.32-.2-.57-.15-.75.05-.18.16-.3.34-.37.19-.06.39-.21.61-.46.22-.25.45-.56.7-.93.25-.37.5-.8.77-1.29.26-.48.54-.99.83-1.51.5-.92,1.05-1.89,1.64-2.91.59-1.02,1.23-1.98,1.92-2.87s1.44-1.67,2.22-2.34c.79-.66,1.63-1.1,2.53-1.32.47-.11.93-.16,1.38-.15h.02Zm5.6,15.59c1.18.33,2.75-1.19,3.09-4.25.03-.23-.03-.32-.15-.29-.2.05-.43.23-.67.53-.25.31-.5.69-.76,1.14-.56.98-1.11,1.8-1.51,2.88h0Zm10.28-6.23c-.18,0-.39.2-.63.58-.25.39-.5.87-.75,1.44-.25.57-.49,1.18-.71,1.85-.22.66-.39,1.27-.52,1.8-.13.54-.19.96-.18,1.28,0,.31.11.42.31.32.26-.13.53-.4.79-.81.26-.41.51-.88.74-1.41.23-.54.44-1.1.62-1.69.18-.59.32-1.13.43-1.63.1-.49.15-.9.14-1.23,0-.33-.08-.49-.24-.5h0Zm5.15-5.81c.3-.02.61-.03.91-.04.3-.01.61-.02.93-.03.37-.97.65-1.76.86-2.38.21-.62.32-1.07.35-1.35.01-.13.14-.21.38-.25.24-.04.49.01.74.14.25.13.46.37.62.72.16.35.17.83.03,1.46-.08.35-.14.62-.19.82-.05.2-.11.4-.19.61.79-.12,1.58-.34,2.35-.66.77-.31,1.51-.81,2.21-1.49.13-.11.22-.17.27-.16.06,0,.09.05.09.13,0,.08,0,.18-.03.28-.03.11-.06.2-.09.28-.42.79-.87,1.36-1.36,1.73-.49.37-1.01.62-1.55.75-.54.14-1.11.2-1.69.2-.59,0-1.18.01-1.77.04.18.03.38.05.61.07.23.02.39.03.46.04-.32.73-.67,1.6-1.06,2.59-.39.99-.79,2.01-1.19,3.04-.11.32-.25.73-.41,1.23-.16.5-.3,1.01-.43,1.52-.13.51-.22.97-.29,1.39-.07.41-.07.69,0,.83.13.3.29.38.5.23.21-.15.44-.42.69-.82.25-.4.5-.88.76-1.43.25-.55.49-1.07.72-1.57.23-.5.42-.93.58-1.28.16-.35.26-.53.31-.53.18,0,.31.03.4.1.09.07.15.14.17.23.03.08.03.16.03.24,0,.08,0,.12,0,.12-.01.02-.08.22-.21.6-.13.38-.3.84-.53,1.39-.23.55-.5,1.14-.81,1.78-.32.64-.67,1.23-1.07,1.77-.4.54-.83,1-1.31,1.37-.47.37-.97.57-1.5.59-.33,0-.58-.07-.76-.23-.15-.12-.25-.42-.29-.92-.03-.3-.03-.65-.02-1.03-.04.06-.07.13-.11.19-.33.57-.69,1.08-1.07,1.54-.38.46-.77.84-1.18,1.13-.41.29-.81.41-1.2.35-.23-.03-.41-.1-.55-.23-.14-.12-.25-.26-.33-.4-.08-.15-.14-.29-.17-.43-.03-.14-.05-.25-.07-.31-.03-.19,0-.45.08-.8-.43.91-.86,1.66-1.3,2.23-.44.57-.9.85-1.39.85-.48,0-.84-.09-1.08-.25-.24-.16-.41-.35-.5-.59-.09-.24-.14-.5-.13-.79,0-.29.02-.57.05-.83,0-.07,0-.13.01-.2-.16.23-.33.46-.51.7-.4.53-.83,1.04-1.29,1.52-.46.49-.95.93-1.48,1.31-.52.39-1.06.67-1.62.86-.14.05-.32.07-.53.07-2.73-.04-2.75-2.97-2.18-5.09.21-.8.51-1.63.88-2.5.37-.87.81-1.65,1.32-2.37.51-.71,1.08-1.3,1.71-1.77.63-.47,1.31-.7,2.03-.71.47,0,.82.08,1.05.24.23.16.39.36.46.6.08.24.1.48.08.74-.03.26-.05.48-.08.67-.63,3.79-2.29,5.6-5.02,5.34v-.02c-.52.64-.97,4.65,2.36,1.5.36-.34.73-.72,1.11-1.13.75-.82,1.58-1.81,2.15-2.79.08-.34.18-.68.28-1.02.22-.73.49-1.43.79-2.13.31-.69.67-1.3,1.07-1.82.4-.52.86-.93,1.35-1.23.5-.3,1.04-.42,1.64-.37.29.04.49.16.61.36.11.2.18.43.21.7l.36-1.32c.01-.09.1-.15.26-.18.16-.04.34-.06.56-.05.21,0,.44.04.67.1.23.06.44.16.61.29.17.13.28.3.34.5.06.2.02.44-.1.72-.38.83-.74,1.7-1.07,2.6-.33.9-.61,1.72-.84,2.46-.23.73-.39,1.33-.49,1.8-.1.46-.11.68-.04.65.13-.06.29-.22.5-.5.21-.28.43-.6.65-.97.23-.37.46-.77.7-1.19.24-.42.46-.81.66-1.16.13-.22.24-.42.34-.59.16-.64.36-1.28.6-1.92l2.06-5.42c-.47.14-.92.34-1.37.6-.45.26-.89.64-1.32,1.14-.08.09-.14.15-.2.18-.06.03-.1.05-.14.04-.04,0-.07-.02-.09-.03-.02-.02-.03-.02-.03-.02-.18-.12-.27-.34-.27-.65,0-.31.07-.63.22-.96.15-.33.38-.62.67-.88.3-.26.67-.41,1.11-.45h0Z"/>
</svg>