<?xml version="1.0" encoding="UTF-8"?><svg id="Layer_1" xmlns="http://www.w3.org/2000/svg" viewBox="0 0 427.88 350.33"><defs><style>.cls-1{fill:#f0f0f0;}.cls-2{opacity:.6;}.cls-2,.cls-3{fill:#007cff;}.cls-4,.cls-5,.cls-6{opacity:.2;}.cls-4,.cls-7{stroke:#000;}.cls-4,.cls-7,.cls-8,.cls-9,.cls-10{fill:none;}.cls-4,.cls-7,.cls-9{stroke-linecap:round;stroke-linejoin:round;}.cls-4,.cls-8{stroke-width:.75px;}.cls-11,.cls-12,.cls-13,.cls-14,.cls-15{fill:#fff;}.cls-16{fill:#fc5652;}.cls-17{fill:#ff8a7d;}.cls-12,.cls-18{opacity:.4;}.cls-19{fill:#f5f5f5;}.cls-13,.cls-20{opacity:.3;}.cls-14{opacity:.5;}.cls-15{opacity:.8;}.cls-7,.cls-9,.cls-10{stroke-width:.5px;}.cls-8{stroke:#007cff;}.cls-8,.cls-10{stroke-miterlimit:10;}.cls-21{fill:#e1e1e1;}.cls-22{fill:#e7e7e7;}.cls-23{fill:#fdc2bc;}.cls-18,.cls-6{isolation:isolate;}.cls-24{fill:#cd7a63;}.cls-25{fill:#ececec;}.cls-26{fill:#1a2e35;}.cls-9,.cls-10{stroke:#1a2e35;}</style></defs><g><g><path class="cls-21" d="m77.29,268.58c-.01-.4-1.35-39.73-7.74-45.95-6.22-6.05-13.37-.22-13.67.03l-.64-.77c.08-.07,8.14-6.65,15.01.03,6.69,6.5,7.99,45,8.05,46.64l-1,.03Z"/><path class="cls-21" d="m77.84,276.31c-.05-.47-4.37-47.22,12.7-66.82l.75.66c-16.79,19.27-12.5,65.6-12.46,66.06l-1,.1Z"/><path class="cls-21" d="m77.21,271.36l-1-.07c.04-.53,3.34-53.15-9.18-64.67l.68-.74c12.88,11.84,9.65,63.29,9.5,65.47Z"/><path class="cls-21" d="m78.84,271.33h-1c.01-1.46.41-35.55,10.1-41.1,2.15-1.24,4.26-1.44,6.27-.61,5.86,2.42,8.76,12.84,8.88,13.29l-.97.26c-.03-.1-2.89-10.39-8.3-12.63-1.7-.7-3.51-.52-5.38.55-9.19,5.27-9.59,39.88-9.59,40.23Z"/><path class="cls-21" d="m75.06,271.36l-1-.06c.02-.27,1.46-26.94-5.74-36.34-1.74-2.28-3.64-3.36-5.64-3.22-4.72.33-8.67,7.23-8.71,7.3l-.87-.49c.17-.3,4.26-7.44,9.51-7.81,2.35-.17,4.54,1.05,6.5,3.61,7.42,9.69,6.01,35.9,5.94,37.01Z"/><path class="cls-21" d="m76.64,274.99c-.2-2.59-4.71-63.49,3.23-74.22l.8.59c-7.72,10.44-3.08,72.92-3.04,73.55l-1,.08Z"/></g><path class="cls-25" d="m96.36,235.8s-4.76,1.75-3.35,5.9c1.42,4.14,16.47,10.96,16.47,10.96,0,0,6.3-5.78.51-15.18-5.79-9.4-13.51-4.65-13.64-1.68Z"/><path class="cls-25" d="m75.66,227.91s5.07-.21,5.36,4.16c.29,4.37-10.98,16.45-10.98,16.45,0,0-8.04-2.91-6.31-13.81,1.73-10.9,10.68-9.49,11.94-6.8Z"/><path class="cls-25" d="m71.37,207s3.38-.36,3.11-2.42c-.27-2.06-13.14-7.36-20.73,1.21,0,0,4.86,8.35,11.89,8.46,7.03.11,5.73-7.25,5.73-7.25Z"/><path class="cls-25" d="m77.67,202s-3.06,1.48-3.92-.41c-.86-1.89,7.26-13.19,18.23-9.94,0,0,.29,9.66-5.61,13.46-5.91,3.81-8.7-3.12-8.7-3.12Z"/><path class="cls-25" d="m61.67,234.13s2.33-1.88-.18-2.8c-2.52-.92-14.87-.66-15,11.58,0,0,14.38,2.39,16.17-2.27,1.78-4.66-.98-6.5-.98-6.5Z"/><path class="cls-25" d="m91,206.69s-2.33-1.88.18-2.8c2.52-.92,14.87-.66,15,11.58,0,0-14.38,2.39-16.17-2.27-1.78-4.66.98-6.5.98-6.5Z"/><path class="cls-25" d="m83.4,216.55s-.21-2.29,1.64-1.39c1.85.9,8.29,7.84,1.61,14.44,0,0-8.98-6.65-7.36-10.12,1.62-3.47,4.11-2.92,4.11-2.92Z"/><path class="cls-25" d="m59.58,219.81s1.39-1.83-.65-2.05c-2.04-.23-11.19,2.22-9.06,11.35,0,0,11.15-.84,11.63-4.63.48-3.79-1.92-4.67-1.92-4.67Z"/><polygon class="cls-1" points="88.21 288.98 65.72 288.98 59.74 261.39 93.62 261.39 88.21 288.98"/><rect class="cls-22" x="57.7" y="260.99" width="37.87" height="7.93"/></g><g><g><g><path class="cls-21" d="m379.89,235.33h-154.68c-2.77,0-5.02-2.25-5.02-5.02V5.02c0-2.77,2.25-5.02,5.02-5.02h154.68c2.77,0,5.02,2.25,5.02,5.02v225.3c0,2.77-2.25,5.02-5.02,5.02ZM225.22.21c-2.65,0-4.8,2.15-4.8,4.8v225.3c0,2.65,2.15,4.8,4.8,4.8h154.68c2.65,0,4.8-2.15,4.8-4.8V5.02c0-2.65-2.15-4.8-4.8-4.8h-154.68Z"/><path class="cls-21" d="m201.53,235.33H46.85c-2.77,0-5.02-2.25-5.02-5.02V5.02c0-2.77,2.25-5.02,5.02-5.02h154.68c2.77,0,5.02,2.25,5.02,5.02v225.3c0,2.77-2.25,5.02-5.02,5.02ZM46.85.21c-2.65,0-4.8,2.15-4.8,4.8v225.3c0,2.65,2.15,4.8,4.8,4.8h154.68c2.65,0,4.8-2.15,4.8-4.8V5.02c0-2.65-2.15-4.8-4.8-4.8H46.85Z"/></g><rect class="cls-21" y="287.6" width="427.88" height=".21"/></g><rect class="cls-21" x="44.22" y="299.8" width="13.74" height=".21"/><rect class="cls-21" x="145.78" y="297.48" width="45.81" height=".21"/><rect class="cls-21" x="58.82" y="307.75" width="31.02" height=".21"/><rect class="cls-21" x="323.78" y="297.37" width="36.96" height=".21"/><rect class="cls-21" x="368.37" y="297.37" width="5.42" height=".21"/><rect class="cls-21" x="270.6" y="302.7" width="46.12" height=".21"/></g><path class="cls-25" d="m63.92,125.46c-.3-1.46-.88-2.82-1.67-4.02l1.44-1.74-3.08-3.08-1.74,1.44c-1.21-.79-2.56-1.37-4.02-1.67l-.21-2.24h-4.36l-.21,2.24c-1.46.3-2.82.88-4.02,1.67l-1.74-1.44-3.08,3.08,1.44,1.74c-.79,1.21-1.37,2.56-1.67,4.02l-2.24.21v4.36l2.24.21c.3,1.46.88,2.82,1.67,4.02l-1.44,1.74,3.08,3.08,1.74-1.44c1.21.79,2.56,1.37,4.02,1.67l.21,2.24h4.36l.21-2.24c1.46-.3,2.82-.88,4.02-1.67l1.74,1.44,3.08-3.08-1.44-1.74c.79-1.21,1.37-2.56,1.67-4.02l2.24-.21v-4.36l-2.24-.21Zm-5.57,2.39c0,3.26-2.64,5.9-5.9,5.9s-5.9-2.64-5.9-5.9,2.64-5.9,5.9-5.9,5.9,2.64,5.9,5.9Z"/><path class="cls-25" d="m292.91,116.52c-.3-1.46-.88-2.82-1.67-4.02l1.44-1.74-3.08-3.08-1.74,1.44c-1.21-.79-2.56-1.37-4.02-1.67l-.21-2.24h-4.36l-.21,2.24c-1.46.3-2.82.88-4.02,1.67l-1.74-1.44-3.08,3.08,1.44,1.74c-.79,1.21-1.37,2.56-1.67,4.02l-2.24.21v4.36l2.24.21c.3,1.46.88,2.82,1.67,4.02l-1.44,1.74,3.08,3.08,1.74-1.44c1.21.79,2.56,1.37,4.02,1.67l.21,2.24h4.36l.21-2.24c1.46-.3,2.82-.88,4.02-1.67l1.74,1.44,3.08-3.08-1.44-1.74c.79-1.21,1.37-2.56,1.67-4.02l2.24-.21v-4.36l-2.24-.21Zm-5.57,2.39c0,3.26-2.64,5.9-5.9,5.9s-5.9-2.64-5.9-5.9,2.64-5.9,5.9-5.9,5.9,2.64,5.9,5.9Z"/><path class="cls-25" d="m301.55,211.3c-.3-1.46-.88-2.82-1.67-4.02l1.44-1.74-3.08-3.08-1.74,1.44c-1.21-.79-2.56-1.37-4.02-1.67l-.21-2.24h-4.36l-.21,2.24c-1.46.3-2.82.88-4.02,1.67l-1.74-1.44-3.08,3.08,1.44,1.74c-.79,1.21-1.37,2.56-1.67,4.02l-2.24.21v4.36l2.24.21c.3,1.46.88,2.82,1.67,4.02l-1.44,1.74,3.08,3.08,1.74-1.44c1.21.79,2.56,1.37,4.02,1.67l.21,2.24h4.36l.21-2.24c1.46-.3,2.82-.88,4.02-1.67l1.74,1.44,3.08-3.08-1.44-1.74c.79-1.21,1.37-2.56,1.67-4.02l2.24-.21v-4.36l-2.24-.21Zm-5.57,2.39c0,3.26-2.64,5.9-5.9,5.9s-5.9-2.64-5.9-5.9,2.64-5.9,5.9-5.9,5.9,2.64,5.9,5.9Z"/><path class="cls-25" d="m199.66,37.04c-.28-1.37-.83-2.65-1.57-3.78l1.35-1.63-2.89-2.89-1.63,1.35c-1.13-.74-2.41-1.29-3.78-1.57l-.2-2.11h-4.09l-.2,2.11c-1.37.28-2.65.83-3.78,1.57l-1.63-1.35-2.89,2.89,1.35,1.63c-.74,1.13-1.29,2.41-1.57,3.78l-2.11.2v4.09l2.11.2c.28,1.37.83,2.64,1.57,3.78l-1.35,1.63,2.89,2.89,1.63-1.35c1.13.74,2.41,1.29,3.78,1.57l.2,2.11h4.09l.2-2.11c1.37-.28,2.65-.83,3.78-1.57l1.63,1.35,2.89-2.89-1.35-1.63c.74-1.13,1.29-2.41,1.57-3.78l2.11-.2v-4.09l-2.11-.2Zm-5.23,2.24c0,3.06-2.48,5.54-5.54,5.54s-5.54-2.48-5.54-5.54,2.48-5.54,5.54-5.54,5.54,2.48,5.54,5.54Z"/><path class="cls-25" d="m394.72,144.81c2.36-1.37,3.94-3.92,3.94-6.84,0-4.37-3.54-7.91-7.91-7.91s-7.91,3.54-7.91,7.91c0,2.92,1.59,5.47,3.95,6.84-9.71,2.33-10.31,13.07-10.31,13.07l28.53-.16s-.6-10.6-10.3-12.91Z"/><g><path class="cls-19" d="m303.83,53.96s30.24-30.84,60.47.31c0,0-28.34,37.29-60.47-.31Z"/><circle class="cls-25" cx="334.07" cy="55.55" r="10.96"/><circle class="cls-21" cx="334.07" cy="55.55" r="4.38"/></g><g><path class="cls-22" d="m166.37,250.25c-1.1,0-2.06-.37-2.88-1.11-.82-.74-1.23-1.78-1.23-3.12,0-1.19.4-2.18,1.19-2.99.79-.81,1.77-1.21,2.92-1.21s2.09.4,2.87,1.21c.78.81,1.16,1.81,1.16,2.99,0,1.32-.41,2.35-1.22,3.1-.81.75-1.75,1.13-2.81,1.13Z"/><path class="cls-22" d="m153.7,220.41c0-1.74.54-3.5,1.61-5.29,1.07-1.79,2.63-3.27,4.69-4.44,2.06-1.17,4.45-1.76,7.19-1.76,2.55,0,4.8.49,6.74,1.47,1.95.98,3.46,2.31,4.52,4,1.06,1.69,1.59,3.52,1.59,5.5,0,1.56-.3,2.92-.91,4.09-.61,1.17-1.33,2.18-2.16,3.04-.83.85-2.33,2.29-4.49,4.3-.6.57-1.08,1.07-1.44,1.5-.36.43-.63.82-.8,1.18-.18.36-.31.71-.41,1.07-.1.36-.24.99-.43,1.88-.33,1.91-1.38,2.86-3.14,2.86-.91,0-1.68-.31-2.31-.93-.62-.62-.94-1.55-.94-2.78,0-1.54.23-2.87.68-4,.46-1.13,1.06-2.12,1.82-2.97.76-.85,1.77-1.86,3.06-3.04,1.12-1.03,1.94-1.8,2.44-2.32.5-.52.92-1.1,1.26-1.75.34-.64.51-1.34.51-2.09,0-1.47-.52-2.7-1.57-3.71-1.05-1.01-2.39-1.51-4.04-1.51-1.93,0-3.35.51-4.27,1.53-.91,1.02-1.69,2.51-2.32,4.49-.6,2.07-1.73,3.11-3.4,3.11-.98,0-1.81-.36-2.49-1.09-.68-.72-1.01-1.51-1.01-2.35Z"/></g><path class="cls-25" d="m163.12,178.71h-14.5c-3.27,0-5.92-2.65-5.92-5.92h0c0-3.27,2.65-5.92,5.92-5.92h14.5c3.27,0,5.92,2.65,5.92,5.92h0c0,3.27-2.65,5.92-5.92,5.92Z"/><circle class="cls-21" cx="162.88" cy="172.79" r="6.16"/><g><path class="cls-22" d="m58.67,35.07c-.77,0-1.43-.26-2.01-.78-.57-.52-.86-1.24-.86-2.17,0-.82.28-1.52.83-2.08.55-.56,1.23-.84,2.03-.84s1.46.28,2,.84c.54.56.81,1.26.81,2.08,0,.92-.28,1.64-.85,2.16-.56.52-1.22.79-1.96.79Z"/><path class="cls-22" d="m49.85,14.3c0-1.21.37-2.44,1.12-3.68.75-1.24,1.83-2.27,3.26-3.09,1.43-.82,3.1-1.22,5.01-1.22,1.77,0,3.34.34,4.69,1.02,1.36.68,2.41,1.61,3.15,2.78.74,1.17,1.11,2.45,1.11,3.83,0,1.08-.21,2.03-.63,2.85-.42.82-.92,1.52-1.5,2.11-.58.59-1.62,1.59-3.13,2.99-.42.4-.75.74-1,1.04-.25.3-.44.57-.56.82-.12.25-.22.5-.28.75-.07.25-.17.69-.3,1.31-.23,1.33-.96,1.99-2.18,1.99-.64,0-1.17-.22-1.6-.65-.43-.43-.65-1.08-.65-1.93,0-1.07.16-2,.48-2.78.32-.78.74-1.47,1.27-2.07s1.23-1.3,2.13-2.11c.78-.71,1.35-1.25,1.7-1.62.35-.36.64-.77.88-1.21.24-.45.36-.93.36-1.45,0-1.02-.36-1.88-1.09-2.58-.73-.7-1.67-1.05-2.81-1.05-1.34,0-2.34.35-2.97,1.06s-1.17,1.75-1.61,3.13c-.42,1.44-1.2,2.16-2.37,2.16-.68,0-1.26-.25-1.73-.76-.47-.5-.71-1.05-.71-1.64Z"/></g><ellipse class="cls-19" cx="212.24" cy="340.78" rx="123.47" ry="9.55"/><g><rect class="cls-26" x="252.09" y="128.89" width="124.4" height="80.77" rx="17.81" ry="17.81"/><g><path class="cls-11" d="m282.05,172.62v-23.04h14.13v22.63c0,6.4,2.45,8.8,6.4,8.8s6.4-2.39,6.4-8.8v-22.63h13.89v23.04c0,12.57-7.54,19.81-20.41,19.81s-20.41-7.24-20.41-19.81Z"/><path class="cls-11" d="m329.33,149.58h14.13v41.9h-14.13v-41.9Z"/></g></g><g><path class="cls-3" d="m318.08,219.14h22.7c4.41,0,7.99,3.58,7.99,7.99v22.7c0,4.41-3.58,7.99-7.99,7.99h-22.7c-4.41,0-7.99-3.58-7.99-7.99v-22.7c0-4.41,3.58-7.99,7.99-7.99Z"/><polygon class="cls-15" points="339.91 238.49 331.97 243.07 324.04 247.65 324.04 238.49 324.04 229.32 331.97 233.9 339.91 238.49"/></g><g><rect class="cls-3" x="359.27" y="190.93" width="45.8" height="39.94" rx="3.42" ry="3.42"/><rect class="cls-15" x="359.27" y="190.93" width="45.8" height="39.94" rx="3.42" ry="3.42"/><path class="cls-3" d="m359.27,224.44l13.71-13.47,11.71,6.1,11-11.94,9.38,7.98v16.24c0,.83-.77,1.51-1.73,1.51h-41.14c-3.79,0-3.1-5.41-2.93-6.43Z"/><path class="cls-3" d="m387.69,202.27c0,2.73-2.16,4.95-4.84,4.95s-4.84-2.22-4.84-4.95,2.16-4.95,4.84-4.95,4.84,2.22,4.84,4.95Z"/></g><g><rect class="cls-3" x="341.94" y="75.41" width="55.51" height="38.76" rx="7.45" ry="7.45"/><rect class="cls-12" x="341.94" y="75.41" width="55.51" height="38.76" rx="7.45" ry="7.45"/><g><path class="cls-11" d="m363.67,91.46l-8.66,3.34,8.66,3.34v2.02l-10.92-4.32v-2.1l10.92-4.32v2.02Z"/><path class="cls-11" d="m372.66,82.8h2.12l-8.05,22.96h-2.12l8.05-22.96Z"/><path class="cls-11" d="m386.43,93.75v2.1l-10.92,4.32v-2.02l8.68-3.34-8.68-3.34v-2.02l10.92,4.32Z"/></g></g><g><g><polyline class="cls-8" points="329.85 112.89 329.85 118.89 323.85 118.89"/><polyline class="cls-8" points="308.62 118.89 302.62 118.89 302.62 112.89"/><polyline class="cls-8" points="302.62 97.65 302.62 91.65 308.62 91.65"/><polyline class="cls-8" points="323.85 91.65 329.85 91.65 329.85 97.65"/></g><path class="cls-3" d="m308.73,112.5c.54-.04.97-.28,1.29-.73.21-.28.51-.91.9-1.87l4.95-12.19h.62l4.97,11.7c.56,1.31.97,2.16,1.25,2.54.27.38.67.56,1.17.55v.57h-7.21v-.57c.72-.03,1.2-.09,1.43-.18.23-.09.34-.33.34-.72,0-.17-.06-.44-.17-.79-.07-.21-.17-.46-.29-.76l-.57-1.35h-5c-.33.88-.54,1.46-.63,1.73-.2.57-.29.99-.29,1.25,0,.32.21.55.64.7.25.08.63.12,1.14.13v.57h-4.54v-.57Zm8.36-4.68l-2.14-5.15h-.19l-2.01,5.15h4.34Z"/><rect class="cls-3" x="300.19" y="89.72" width="3.58" height="3.58"/><rect class="cls-3" x="327.85" y="89.72" width="3.58" height="3.58"/><rect class="cls-3" x="300.19" y="117.1" width="3.58" height="3.58"/><rect class="cls-3" x="327.85" y="117.1" width="3.58" height="3.58"/></g><g><path class="cls-3" d="m67.18,40.02c-.46-2.21-1.33-4.26-2.53-6.08l2.18-2.63-4.66-4.66-2.63,2.18c-1.82-1.2-3.87-2.07-6.08-2.53l-.32-3.39h-6.58l-.32,3.39c-2.21.46-4.26,1.33-6.08,2.53l-2.63-2.18-4.66,4.66,2.18,2.63c-1.2,1.82-2.07,3.87-2.53,6.08l-3.39.32v6.58l3.39.32c.46,2.21,1.33,4.26,2.53,6.08l-2.18,2.63,4.66,4.66,2.63-2.18c1.82,1.2,3.87,2.07,6.08,2.53l.32,3.39h6.58l.32-3.39c2.21-.46,4.26-1.33,6.08-2.53l2.63,2.18,4.66-4.66-2.18-2.63c1.2-1.82,2.07-3.87,2.53-6.08l3.39-.32v-6.58l-3.39-.32Zm-8.42,3.61c0,4.92-3.99,8.91-8.91,8.91s-8.91-3.99-8.91-8.91,3.99-8.91,8.91-8.91,8.91,3.99,8.91,8.91Z"/><path class="cls-2" d="m67.18,40.02c-.46-2.21-1.33-4.26-2.53-6.08l2.18-2.63-4.66-4.66-2.63,2.18c-1.82-1.2-3.87-2.07-6.08-2.53l-.32-3.39h-6.58l-.32,3.39c-2.21.46-4.26,1.33-6.08,2.53l-2.63-2.18-4.66,4.66,2.18,2.63c-1.2,1.82-2.07,3.87-2.53,6.08l-3.39.32v6.58l3.39.32c.46,2.21,1.33,4.26,2.53,6.08l-2.18,2.63,4.66,4.66,2.63-2.18c1.82,1.2,3.87,2.07,6.08,2.53l.32,3.39h6.58l.32-3.39c2.21-.46,4.26-1.33,6.08-2.53l2.63,2.18,4.66-4.66-2.18-2.63c1.2-1.82,2.07-3.87,2.53-6.08l3.39-.32v-6.58l-3.39-.32Zm-8.42,3.61c0,4.92-3.99,8.91-8.91,8.91s-8.91-3.99-8.91-8.91,3.99-8.91,8.91-8.91,8.91,3.99,8.91,8.91Z"/></g><g><path class="cls-3" d="m89.12,159.02c-.31-1.5-.9-2.89-1.72-4.13l1.48-1.79-3.16-3.16-1.79,1.48c-1.24-.81-2.63-1.41-4.13-1.72l-.22-2.3h-4.47l-.22,2.3c-1.5.31-2.89.9-4.13,1.72l-1.79-1.48-3.16,3.16,1.48,1.79c-.81,1.24-1.41,2.63-1.72,4.13l-2.3.22v4.47l2.3.22c.31,1.5.9,2.89,1.72,4.13l-1.48,1.79,3.16,3.16,1.79-1.48c1.24.81,2.63,1.41,4.13,1.72l.22,2.3h4.47l.22-2.3c1.5-.31,2.89-.9,4.13-1.72l1.79,1.48,3.16-3.16-1.48-1.79c.81-1.24,1.41-2.63,1.72-4.13l2.3-.22v-4.47l-2.3-.22Zm-5.72,2.45c0,3.34-2.71,6.05-6.05,6.05s-6.05-2.71-6.05-6.05,2.71-6.05,6.05-6.05,6.05,2.71,6.05,6.05Z"/><path class="cls-2" d="m89.12,159.02c-.31-1.5-.9-2.89-1.72-4.13l1.48-1.79-3.16-3.16-1.79,1.48c-1.24-.81-2.63-1.41-4.13-1.72l-.22-2.3h-4.47l-.22,2.3c-1.5.31-2.89.9-4.13,1.72l-1.79-1.48-3.16,3.16,1.48,1.79c-.81,1.24-1.41,2.63-1.72,4.13l-2.3.22v4.47l2.3.22c.31,1.5.9,2.89,1.72,4.13l-1.48,1.79,3.16,3.16,1.79-1.48c1.24.81,2.63,1.41,4.13,1.72l.22,2.3h4.47l.22-2.3c1.5-.31,2.89-.9,4.13-1.72l1.79,1.48,3.16-3.16-1.48-1.79c.81-1.24,1.41-2.63,1.72-4.13l2.3-.22v-4.47l-2.3-.22Zm-5.72,2.45c0,3.34-2.71,6.05-6.05,6.05s-6.05-2.71-6.05-6.05,2.71-6.05,6.05-6.05,6.05,2.71,6.05,6.05Z"/></g><g><g><path class="cls-3" d="m118.92,199.43c-1.49-6.37,1.75-12.57,7.23-13.86,5.48-1.28,11.14,2.84,12.63,9.21,1.49,6.37-1.75,12.57-7.23,13.86-5.48,1.28-11.14-2.84-12.63-9.21Z"/><path class="cls-18" d="m118.92,199.43c-1.49-6.37,1.75-12.57,7.23-13.86,5.48-1.28,11.14,2.84,12.63,9.21,1.49,6.37-1.75,12.57-7.23,13.86-5.48,1.28-11.14-2.84-12.63-9.21Z"/></g><polygon class="cls-3" points="78.07 24.85 82.55 2.29 97.91 20.21 138.56 193.98 118.71 198.63 78.07 24.85"/><path class="cls-24" d="m86.62,7.02c-1.44,1.76-3.18,2.19-5.25,1.24l-3.3,16.59s2.76,4.07,4.97-.85c0,0,3.47,3.53,5.66-1.32,0,0,3.19,2.71,4.94-1.15,0,0,2.73,2.11,4.28-1.32l-11.3-13.19Z"/><path class="cls-13" d="m88.77,22.69l41.76,173.42,4.62-1.08c.68-.39-41.44-173.5-41.44-173.5-1.74,3.87-4.94,1.15-4.94,1.15Z"/><path class="cls-13" d="m83.07,24.06c-1.22,2.71-2.61,2.69-3.6,2.12l41.47,172.21,4.62-1.08c.65-.37-37.51-157.32-41.16-172.34-.78-.37-1.32-.91-1.32-.91Z"/><rect class="cls-26" x="118.02" y="195.02" width="21.59" height="3.48" transform="translate(299.06 359.01) rotate(166.84)"/></g><g><rect class="cls-10" x="113.27" y="15.88" width="58.85" height="58.85"/><rect class="cls-10" x="116.1" y="18.66" width="53.04" height="53.04"/><line class="cls-10" x1="116.1" y1="71.47" x2="169.14" y2="18.44"/><line class="cls-10" x1="169.14" y1="71.47" x2="116.1" y2="18.44"/></g><g><rect class="cls-3" x="58.17" y="61.3" width="124.4" height="80.77" rx="17.81" ry="17.81"/><g><path class="cls-11" d="m76.75,105.03v-23.05h14.13v22.63c0,6.4,2.45,8.8,6.4,8.8s6.4-2.39,6.4-8.8v-22.63h13.89v23.05c0,12.57-7.54,19.81-20.41,19.81s-20.41-7.24-20.41-19.81Z"/><path class="cls-11" d="m149.95,123.89l-7.24-11.19-7.06,11.19h-16.1l15.14-21.13-14.61-20.77h15.86l7.12,10.53,6.94-10.53h15.2l-14.55,20.23,15.44,21.67h-16.16Z"/></g></g><rect class="cls-3" x="140.9" y="150.4" width="29.01" height="11.85" rx="5.92" ry="5.92"/><path class="cls-26" d="m153.23,156.32c0,3.4-2.76,6.16-6.16,6.16s-6.16-2.76-6.16-6.16,2.76-6.16,6.16-6.16,6.16,2.76,6.16,6.16Z"/><g><g><path class="cls-26" d="m247,79.54c-2.66-1.47-4.95-3.83-5.49-6.71-.42-2.27.12-4.97-1.6-6.59-1.2-1.12-3.1-1.27-4.43-2.24-2.37-1.74-1.23-8.64-1.49-11.47-.35-3.91-3.15-4.14-6.29-6.69l-15.43-7.04c-6.53.71-12.45,10.27-12.85,16.94-.23,3.72.58,7.58-.72,11.1-.83,2.25-2.46,4.15-3.5,6.31-1.69,3.52-1.75,7.59-.94,11.38.82,3.79,2.46,7.37,4.09,10.92.62,1.35,1.31,2.77,2.6,3.58,1.02.63,2.27.8,3.49.92,11.01,1.08,22.26-.09,32.76-3.42,4.14-1.31,8.59-3.36,10.05-7.27-2.57-2.31-4.63-5.13-6-8.23,1.88.65,3.43,1.91,5.07,2.99,1.64,1.08,3.52,2.04,5.52,1.93s4.01-1.67,3.86-3.56c-2.99-.68-6.04-1.38-8.7-2.84Z"/><path class="cls-26" d="m215.47,31.59c-.96-.8-2.19-1.2-3.43-1.35-1.45-.18-2.98-.03-4.28.65-1.3.68-2.34,1.92-2.56,3.37-.24,1.55.5,3.16,1.74,4.12,1.23.96,2.9,1.28,4.44,1.03l1.95-.57c.82-.44,1.63-.92,2.3-1.56.67-.65,1.19-1.48,1.29-2.4.14-1.24-.49-2.48-1.44-3.28Z"/><g><path class="cls-23" d="m209.26,61.73l8.78,8.86,2.46,1.48c-.55,1.31-1.02,2.65-1.22,3.96-.38,2.3.44,3.1,2.51,4.88.88.76-.72,22.12-1.33,24.46l-14.52-24.42c4.63-3.21,4.33-13.79,3.32-19.22Z"/><path class="cls-5" d="m219.21,76.53c-2.42-1.43-5.06-3.92-4.75-6.76.14-1.2.4-2.33.69-3.06l4.91,6.49c-.4,1.05-.55,1.74-.84,3.32Z"/><path class="cls-23" d="m207.56,51.74c.83,9.02.99,12.85,5.64,17.58,7,7.12,17.78,4.72,19.63-4.22,1.67-8.05.04-21.45-8.82-25.24-8.73-3.74-17.28,2.86-16.45,11.88Z"/><path class="cls-26" d="m219.24,54.67c.04.95.56,1.74,1.15,1.75.59.01,1.04-.75.99-1.71-.04-.95-.56-1.74-1.15-1.75-.59-.01-1.04.75-.99,1.71Z"/><path class="cls-26" d="m228.14,54.65c.04.92.56,1.69,1.15,1.7.59.01,1.03-.73.99-1.65-.05-.92-.56-1.68-1.15-1.7-.59-.01-1.03.73-.99,1.65Z"/><path class="cls-26" d="m217.36,51.35c.12.01.23-.02.32-.1,1.39-1.29,2.96-.84,2.97-.83.23.07.47-.06.52-.3.05-.24-.09-.48-.33-.56-.08-.02-2.05-.59-3.77,1-.17.16-.18.44,0,.63.08.09.19.14.29.15Z"/><path class="cls-26" d="m231.13,50.12c.09-.03.17-.1.21-.2.08-.2-.02-.46-.22-.58-2.06-1.16-3.59-.28-3.66-.24-.18.11-.23.36-.1.57.13.21.38.29.56.18.06-.04,1.26-.7,2.9.22.11.06.22.07.32.04Z"/><path class="cls-17" d="m225.72,54.21s1.41,3.38,3,5.48c.28.37.11.9-.33,1.06-1.11.41-2.42.04-2.42.04l-.26-6.59Z"/><path class="cls-26" d="m219.9,53.01l2.07-.49s-1.13,1.54-2.07.49Z"/><path class="cls-26" d="m228.92,53.01l2.07-.49s-1.13,1.54-2.07.49Z"/><path class="cls-26" d="m210.69,54.85s7.57-.86,4.41-12.68c0,0,8.91-2.32,16.01,7.17,1.13,1.51,1.81,4.03,2.82,6.21,0,0,1.7-17.17-13.53-18.57-15.21-1.41-18.2,19.98-10.78,27.17,0,0-1.82-4.91,1.06-9.3Z"/><g><path class="cls-26" d="m225.72,63.11c-.69,1.13-1.54,3.31-1.54,3.31-.19-.04-.38-.08-.57-.13-2.57-.59-3.53-1.81-3.83-2.98-.16-.64-.11-1.27,0-1.77.11-.58.31-.97.31-.97,1.15,1.22,3.49,1.97,4.76,2.32.53.15.87.22.87.22Z"/><path class="cls-11" d="m225.17,62.9l-.5,1.02c-2.56-.6-4.26-1.4-4.86-2.44.12-.61.33-1.03.33-1.03,1.21,1.29,3.69,2.09,5.04,2.45Z"/><path class="cls-16" d="m223.86,66.5c-2.71-.63-3.74-1.91-4.05-3.15.92.25,1.99.67,2.86,1.36.67.52,1.01,1.17,1.19,1.79Z"/></g><g><path class="cls-23" d="m204.83,59.09c1.07,1.85,2.8,3.01,4.38,3.41,2.39.6,3.62-3.24,2.81-5.63-.73-2.15-3.08-3.58-5.4-3.11-2.29.46-3.01,3.22-1.79,5.33Z"/><path class="cls-4" d="m209.88,58.61c-.06-.85-.46-1.68-1.11-2.25-.64-.56-1.52-.86-2.37-.81"/></g></g></g><path class="cls-23" d="m232.54,81.75s5.69-.62,10.52,5.75c4.83,6.38,13.46,17.2,13.46,17.2l11.7-17.2,16.42-1.74s.62,2.03-2.67,3.43c-3.28,1.4-9.44,3-9.44,3,0,0-7.92,24.46-13.91,26.52-6,2.05-19.67-12.91-19.67-12.91l-6.41-24.06Z"/><g><path class="cls-23" d="m250.74,187.12s12.83,47.67,9.92,63.03c-2.91,15.36-59.17,72.19-59.17,72.19l-7.42-4.54s17.3-34.37,27.05-46.06c9.74-11.69,14-14.66,16.16-23.62,2.16-8.96-11.4-50.86-11.4-50.86l24.87-10.14Z"/><path class="cls-6" d="m222.65,300.07c-7.41,9.32-14.2,14.41-19.5,20.57-.76-3.79-2.12-10.13-2.73-15.02,6.12-9.83,13.88-22.64,20.69-33.88.2,4.74,1.54,28.34,1.54,28.34Z"/><path class="cls-23" d="m190.89,198.98s6.78,48.18,8.3,56.78,2.49,20.2,4.62,43.39c2.13,23.19,7.72,38.21,7.72,38.21l8.51.28,1.99-145.63-31.15,6.97Z"/><g><path class="cls-3" d="m203.68,321.55l-1.86-2.97c-.42-.67-1.15-1.08-1.94-1.14-3.41-.24-3.34-2.08-2.31-5.33-.61-1.27-2.16-.74-2.59-.6l-9.47,2.85c-.8.23-1.25,1.06-1.02,1.86.04.14.1.28.18.4,2.26,3.6,3.34,5.31,6.15,9.8l8.62,13.72c2.35,3.74,6.61,2.15,5.99.39-2.82-7.89-3.86-14.08-3.19-17.48.1-.62.62-.38,1.45-1.5Z"/><path class="cls-5" d="m203.68,321.55l-1.86-2.97c-.42-.67-1.15-1.08-1.94-1.14-3.41-.24-3.34-2.08-2.31-5.33-.61-1.27-2.16-.74-2.59-.6l-9.47,2.85c-.8.23-1.25,1.06-1.02,1.86.04.14.1.28.18.4,2.26,3.6,3.34,5.31,6.15,9.8l8.62,13.72c2.35,3.74,6.61,2.15,5.99.39-2.82-7.89-3.86-14.08-3.19-17.48.1-.62.62-.38,1.45-1.5Z"/><path class="cls-26" d="m207.43,326.97c.44-.12.79-.45.95-.87.11-.22.09-.48-.06-.68-.76-1.11-5.58-.69-6.13-.63-.06,0-.11.03-.15.07-.07.08-.06.21.02.27.92.61,1.91,1.12,2.94,1.53.75.36,1.6.47,2.42.31Zm.52-1.33c.06.08.07.2.02.29-.13.3-.38.53-.7.64-1.19.36-3.34-.77-4.47-1.44,1.98-.13,4.72-.09,5.15.52Z"/><path class="cls-26" d="m202.19,325.22c1.42-.06,4.76-1.15,5.01-2.27.06-.23,0-.56-.53-.84-2.16-1.08-4.61,2.61-4.67,2.79-.05.06-.05.14-.02.21.04.03.08.04.13.05l.08.07Zm4.28-2.81c.4.2.35.35.33.4-.12.7-2.62,1.7-4.22,1.92.63-.84,2.32-2.91,3.75-2.38l.15.07Z"/><path class="cls-7" d="m202.69,325.05c-.78-.93-1.99-1.5-3.21-1.5"/><path class="cls-7" d="m202.46,327.77c-.78-.93-1.99-1.5-3.21-1.5"/><path class="cls-7" d="m202.73,330.8c-.78-.93-1.99-1.5-3.21-1.5"/></g><path class="cls-5" d="m191.9,206.09l29.97-1.23.03-1.99-30.53-.57s.44,3.08.54,3.79Z"/><polygon class="cls-5" points="228.07 204.34 253.06 196.3 252.62 194.47 227.5 202.45 228.07 204.34"/><g><path class="cls-3" d="m221.31,332.11h-3.32c-.75,0-1.44.38-1.89.99-1.91,2.61-3.35,1.62-5.43-.83-1.32-.15-1.68,1.36-1.79,1.77l-2.48,9.02c-.22.75.22,1.54.97,1.75.13.04.27.06.41.05h26.28c4.18,0,5.05-4.21,3.32-4.6-7.74-1.71-13.22-3.99-15.62-6.24-.44-.39.01-.69-.47-1.91Z"/><path class="cls-26" d="m227.53,331.84c.12-.41.04-.86-.22-1.2-.12-.2-.34-.32-.57-.3-1.27.05-3.36,4.13-3.59,4.59-.03.05-.04.1-.02.16.03.1.14.15.23.12.95-.43,1.86-.97,2.7-1.59.67-.42,1.18-1.05,1.47-1.78Zm-.8-1.09c.1-.01.19.04.24.13.18.26.23.58.16.88-.31,1.13-2.3,2.29-3.4,2.86.9-1.65,2.31-3.83,3.01-3.86Z"/><path class="cls-26" d="m223.5,335.16c.67-1.17,1.48-4.39.7-5.16-.16-.17-.45-.28-.94,0-1.96,1.19-.23,5.01-.12,5.15.02.07.09.12.16.12.04-.02.08-.04.1-.08l.1-.03Zm-.1-4.84c.36-.22.45-.1.49-.06.5.45.04,2.95-.59,4.35-.36-.93-1.16-3.32-.02-4.2l.13-.08Z"/><path class="cls-9" d="m223.61,334.67c-1.14.16-2.2.84-2.82,1.81"/><path class="cls-9" d="m225.68,336.23c-1.14.16-2.2.84-2.82,1.81"/><path class="cls-9" d="m228.24,337.53c-1.14.16-2.2.84-2.82,1.81"/></g></g><g><g><path class="cls-3" d="m253.83,185.81l-10.96-27.72-7.3-15.95.15-7.17-37.12-.37c-.3.71-.6,1.42-.89,2.14-1.03,2.56-.48,2.75-1.3,5.37,0,0-3.15,8.87-4.82,21.51-2.02,15.29-2.96,30.27-2.63,35.85.1,1.79.21,2.79.21,2.79l34.76.65.28-4.21.49-4.65.88,3.33,1.13,5.33,30.03-9.54-2.9-7.35Z"/><path class="cls-14" d="m253.83,185.81l-10.96-27.72-7.3-15.95.15-7.17-37.12-.37c-.3.71-.6,1.42-.89,2.14-1.03,2.56-.48,2.75-1.3,5.37,0,0-3.15,8.87-4.82,21.51-2.02,15.29-2.96,30.27-2.63,35.85.1,1.79.21,2.79.21,2.79l34.76.65.28-4.21.49-4.65.88,3.33,1.13,5.33,30.03-9.54-2.9-7.35Z"/><polygon class="cls-5" points="224.7 194.05 224.7 175.78 229.37 160.06 225.98 175.78 224.7 194.05"/></g><circle class="cls-3" cx="225.75" cy="139.13" r="2.12"/><path class="cls-5" d="m197.8,149.84s6.84-.13,11.15-7.02c-3.72,3.44-7.43,5.78-11.15,7.02Z"/></g><path class="cls-3" d="m235.72,134.97l-37.12-.37s.52-11.98-3.12-30.21c-.64-3.2-1.4-6.62-2.33-10.19-.81-3.12.19-7.2-.87-10.55,0,0,.03-.31,3.94-1.38.02-.01.04-.01.06-.02,3.93-1.08,9.79-2.1,17.85-2.39,8.44-.31,13.18,1.99,17.36,1.61l3.83.49s4.17,10.88,3.78,22.51c-.3,9.12-3.02,15.12-3.37,30.52Z"/><path class="cls-23" d="m231.48,81.45c-.16,2.01-.75,8.73-14.02,8.63-16.2-.12-18.26-8.54-18.26-8.54,3.06-.85-.02.01,0,0,3.93-1.08,6.69-2.03,14.74-2.32,8.44-.31,10.79,1.23,17.53,2.23Z"/><g><path class="cls-23" d="m193.71,82.99s-2.48.37-6.45,5.29c-3.56,4.41-19.67,22.61-19.12,28.75.5,5.49,22.75,23.11,22.75,23.11l4.14-5.09-13.92-17.9,13.68-16.82-1.09-17.33Z"/><path class="cls-23" d="m194.03,135.77s3.32-4.68,4.74-4.98c1.41-.31,7.87.49,8,1.41.12.92-.86,1.04-.86,1.04l1.6,1.85s0,.55-.74.68c0,0-.06,1.35-.8,1.41-.74.06-3.63-.92-3.63-.92l2.4,1.66s.37.62-1.48.43c-1.85-.18-2.49-1.11-2.49-1.11,0,0-4.51,4-6.6,4s-3.27-1.11-3.27-1.11l3.14-4.37Z"/><path class="cls-20" d="m181.11,117.15s-1.87-1.41-4.6-1.05c0,0,2.5-1.96,5.52.05l-.91,1Z"/><polygon class="cls-20" points="194.8 134.73 192.72 137.6 193.66 133.28 194.8 134.73"/></g></g><g><path class="cls-3" d="m269.84,72.47c-1.23,0-2.3-.41-3.21-1.24-.91-.83-1.37-1.99-1.37-3.47,0-1.32.44-2.43,1.33-3.33.88-.9,1.97-1.35,3.26-1.35s2.33.45,3.2,1.35c.86.9,1.3,2.01,1.3,3.33,0,1.47-.45,2.62-1.36,3.46-.9.84-1.95,1.26-3.13,1.26Z"/><path class="cls-3" d="m255.72,39.22c0-1.94.6-3.9,1.79-5.89,1.19-1.99,2.94-3.64,5.23-4.95,2.29-1.31,4.96-1.96,8.01-1.96,2.84,0,5.34.55,7.52,1.64,2.17,1.09,3.85,2.58,5.03,4.46,1.18,1.88,1.78,3.92,1.78,6.12,0,1.74-.34,3.26-1.01,4.56-.68,1.31-1.48,2.43-2.41,3.38-.93.95-2.6,2.55-5.01,4.79-.67.63-1.2,1.19-1.6,1.67-.4.48-.7.92-.9,1.32s-.35.8-.46,1.19-.27,1.1-.48,2.1c-.37,2.12-1.54,3.18-3.49,3.18-1.02,0-1.87-.35-2.57-1.04-.69-.69-1.04-1.73-1.04-3.09,0-1.71.25-3.2.76-4.46.51-1.26,1.18-2.36,2.03-3.31.84-.95,1.98-2.08,3.41-3.38,1.25-1.14,2.16-2.01,2.72-2.59.56-.58,1.03-1.23,1.41-1.94.38-.71.57-1.49.57-2.33,0-1.63-.58-3.01-1.75-4.13-1.16-1.12-2.67-1.68-4.51-1.68-2.15,0-3.74.57-4.76,1.7-1.02,1.13-1.88,2.8-2.58,5.01-.67,2.31-1.93,3.46-3.79,3.46-1.1,0-2.02-.4-2.77-1.21-.75-.81-1.13-1.68-1.13-2.62Z"/></g></svg>