<?xml version="1.0" encoding="UTF-8"?><svg id="Layer_1" xmlns="http://www.w3.org/2000/svg" viewBox="0 0 331.05 333.65"><defs><style>.cls-1,.cls-2{fill:#fff;}.cls-3{fill:#fafafa;}.cls-4{opacity:.5;}.cls-5,.cls-2{opacity:.6;}.cls-6{fill:#f5f5f5;}.cls-7{fill:#c78976;}.cls-8{fill:#bf654e;}.cls-9{opacity:.8;}.cls-10{fill:#e1e1e1;}.cls-11{opacity:.3;}.cls-12{fill:#375a64;}.cls-13{fill:none;}.cls-14{fill:#00ccf9;}.cls-15{fill:#ececec;}.cls-16{fill:#1a2e35;}</style></defs><g><path class="cls-10" d="m47.84,272.41v-24.69c13.54,0,24.69,11.14,24.69,24.69s-11.14,24.69-24.69,24.69-24.37-10.79-24.68-24.12l24.68-.57Z"/><path class="cls-6" d="m41.82,265.76l-24.69.56c0-6.43,2.51-13.17,6.99-17.77,4.48-4.61,10.88-7.29,17.31-7.46l.38,24.68Z"/></g><g><path class="cls-6" d="m306.3,32.1l18.5-2.83c1.55,10.15-5.53,19.78-15.68,21.33-10.15,1.55-19.78-5.53-21.33-15.68-1.55-10.15,5.53-19.78,15.68-21.33,1.62-.25,3.26-.28,4.88-.1l-2.06,18.61Z"/><path class="cls-10" d="m312.31,13.55l-2.25,14.34,14.08-2.64s-2.07-8.04-11.83-11.7Z"/></g><g><rect class="cls-10" x="22.5" y="21.66" width="10.25" height="40.95"/><rect class="cls-10" x="37.58" y="30.59" width="10.25" height="32.02"/><rect class="cls-10" x="52.88" y="37.9" width="10.25" height="24.7"/><rect class="cls-10" x="67.05" y="47.94" width="10.25" height="14.67"/></g><g><path class="cls-6" d="m199.89,170.84c-.2-12.63,9.86-23.07,22.43-23.27,12.57-.2,22.96,9.91,23.16,22.53.2,12.63-9.86,23.07-22.43,23.27-12.57.2-22.96-9.91-23.16-22.53Zm33.7-.54c-.1-6.04-5.06-10.87-11.07-10.77-6.01.1-10.82,5.09-10.72,11.13.1,6.04,5.06,10.87,11.08,10.77,6.01-.1,10.82-5.09,10.72-11.13Z"/><path class="cls-10" d="m199.89,170.84c-.2-12.63,9.86-23.07,22.43-23.27l.19,11.95c-6.01.1-10.82,5.09-10.72,11.13.1,6.04,5.06,10.87,11.08,10.77l.19,11.95c-12.57.2-22.96-9.91-23.16-22.53Z"/><path class="cls-15" d="m220.27,145.73c14.71-.24,26.44,11.18,26.67,25.95l-13.92.22c-.11-7.06-5.49-11.51-12.52-11.4l-.24-14.78Z"/></g><path class="cls-16" d="m322.04,321.66c0,.11-68.61.19-153.22.19s-153.24-.09-153.24-.19,68.59-.19,153.24-.19,153.22.09,153.22.19Z"/><g><g><path class="cls-7" d="m195.45,135.82l-3.23,4.6-.88,3.68,3.28,4.71,6.24-3.83,5.43-5.34c.35-.34.4-.9.1-1.29l-.89-1.2.11-.25c.32-.72.09-1.56-.55-2.02l-.79-.55,2.96-3.77c.42-.53.44-1.28.05-1.83h0l-7.57,5.69-3.24-.07-1.04,1.48Z"/><path class="cls-8" d="m205.64,137.01s-.34.4-1.03.88c-.35.23-.75.52-1.28.75-.27.11-.61.18-.95.1-.33-.07-.69-.36-.76-.75-.08-.38.05-.74.22-1.02.17-.28.38-.49.56-.69.34-.37.67-.72.99-1.07.57-.6.95-.95.99-.92.04.03-.26.45-.79,1.1-.3.36-.61.73-.93,1.12-.35.41-.78.87-.67,1.4.05.24.24.41.48.47.24.07.5.02.73-.06.47-.19.91-.46,1.26-.65.71-.41,1.14-.7,1.17-.65Z"/><path class="cls-8" d="m206.48,139.26s-.33.41-.96.97c-.32.28-.67.63-1.19.91-.48.29-1.42.37-1.84-.4-.18-.38-.04-.79.12-1.06.17-.29.36-.51.54-.72.37-.43.75-.77,1.09-1.02.68-.52,1.17-.72,1.19-.68.03.05-.41.33-1.02.88-.31.28-.65.62-1,1.04-.17.21-.35.44-.49.68-.13.24-.2.51-.1.72.1.21.35.35.6.39.25.04.5-.03.74-.14.46-.23.85-.56,1.18-.81.66-.51,1.09-.8,1.13-.76Z"/><path class="cls-8" d="m197.58,141.97s.53-.4.98-1.33c.23-.46.34-1.06.33-1.76-.02-.68-.11-1.49-.58-2.1l-.29-.38.46.08c.4.06.83.06,1.26-.01.61-.1,1.18-.33,1.62-.67.45-.34.72-.81.78-1.27l.16.18c-1.11-.04-2.03-.08-2.68-.12s-1.01-.08-1.01-.11c0-.04.37-.06,1.02-.08.65-.02,1.57-.02,2.67-.02h.18s-.02.18-.02.18c-.05.56-.38,1.14-.88,1.53-.5.39-1.12.65-1.79.76-.47.08-.94.08-1.38,0l.18-.3c.56.76.62,1.62.62,2.34,0,.73-.17,1.39-.44,1.87-.26.48-.57.8-.8.98-.23.19-.38.25-.39.24Z"/></g><g><g><path class="cls-16" d="m165.49,109.19s-.2-.34-.13-.98c.04-.32.15-.7.39-1.08.23-.39.59-.77,1-1.2.41-.42.86-.92,1.19-1.56.33-.63.56-1.38.62-2.18.06-.8-.06-1.67-.38-2.48-.31-.82-.79-1.58-1.25-2.34-.47-.77-.9-1.52-1.16-2.3-.27-.78-.33-1.58-.18-2.31.32-1.48,1.12-2.69,1.5-3.82.42-1.13.41-2.16.2-2.8-.1-.32-.22-.56-.33-.7-.1-.15-.17-.21-.18-.2-.03.02.21.31.35.94.15.63.12,1.59-.32,2.67-.39,1.09-1.23,2.26-1.59,3.85-.18.79-.12,1.68.17,2.51.27.83.72,1.62,1.19,2.39.47.77.92,1.51,1.23,2.28.31.77.43,1.56.38,2.31-.05.75-.25,1.46-.55,2.06-.3.61-.71,1.08-1.11,1.52-.4.44-.76.85-.99,1.28-.23.43-.34.84-.35,1.18-.01.34.06.61.14.77.07.16.14.23.15.23Z"/><path class="cls-16" d="m144.66,103.25c-.43,1.31-1.75,2.24-3.12,2.32-1.37.08-2.74-.63-3.57-1.73-.83-1.1-1.14-2.55-.97-3.91.08-.62.25-1.24.14-1.86-.15-.87-.83-1.56-1.1-2.4-.48-1.52.55-3.21,1.98-3.9,1.43-.7,3.12-.6,4.68-.26"/><path class="cls-16" d="m165.96,84.19c1.49,1.34,1.06,3.23.47,4.53-.59,1.3-1.31,2.62-1.24,4.04.07,1.46.94,2.73,1.42,4.11.6,1.74.56,3.69-.12,5.39-.51,1.29-1.36,2.42-1.87,3.7-.52,1.28-.65,2.87.22,3.95-.77-.08-1.44-.62-1.82-1.3-.38-.67-.51-1.46-.54-2.23-.1-2.93,1.14-5.86.62-8.75-.3-1.68-1.18-3.26-1.17-4.96.02-1.71.93-3.26,1.57-4.85.64-1.59.96-3.54-.09-4.9"/><path class="cls-16" d="m162.18,78.83c1.74.13,3.51.93,4.43,2.42.92,1.48.76,3.66-.62,4.74-1.29,1.02-3.22.81-4.65,0-1.06-.6-1.96-1.51-2.4-2.65-.44-1.13-.35-2.49.34-3.48.7-1,2.04-1.54,3.2-1.18"/><path class="cls-16" d="m163.58,78.57c-.88-2.06-2.84-3.54-4.99-4.18s-4.47-.49-6.64.05c-2.18.54-4.24,1.45-6.28,2.36-1.49.66-3.01,1.35-4.19,2.47-1.17,1.12-1.92,2.6-2.39,4.15-.89,2.9-.81,4.98.57,7.68.6,1.18.24,2.55.79,3.75.55,1.2,2.85,2.54,2.22,3.7"/><g><g><path class="cls-7" d="m158.89,114.96c.08-5.91.08-8.13.08-8.09,0,0,5.08-.85,6.12-7.48.52-3.3.34-8.7.05-13.12-.26-3.98-2.9-8.85-6.87-8.42l-12.36,3.15c-1.2.13-2.11,1.16-2.08,2.37h0v31.59"/><g><path class="cls-16" d="m163.65,90.79c.02.45-.35.83-.82.86-.47.03-.86-.32-.88-.76-.02-.45.35-.83.82-.86.47-.03.86.32.88.76Z"/><path class="cls-16" d="m163.97,88.65c-.1.11-.75-.36-1.66-.36-.91,0-1.58.46-1.68.35-.05-.05.06-.25.35-.46.29-.21.78-.42,1.35-.42.57,0,1.05.21,1.33.42.28.22.38.42.33.47Z"/></g><g><path class="cls-16" d="m154.99,90.79c.02.45-.35.83-.82.86-.47.03-.86-.32-.88-.76-.02-.45.35-.83.82-.86.47-.03.86.32.88.76Z"/><path class="cls-16" d="m154.98,89.27c-.11.11-.75-.36-1.67-.36-.91,0-1.58.46-1.68.35-.05-.05.06-.25.35-.46.29-.21.78-.42,1.35-.42.57,0,1.05.21,1.33.42.28.22.38.42.33.47Z"/></g><path class="cls-16" d="m158.31,96.04c0-.05.56-.15,1.48-.27.23-.02.45-.07.49-.23.05-.17-.04-.42-.16-.69-.22-.56-.45-1.16-.69-1.78-.96-2.53-1.66-4.61-1.56-4.65.1-.04.97,1.98,1.93,4.51.23.62.45,1.22.67,1.79.09.27.24.57.12.92-.06.17-.23.3-.38.34-.15.05-.28.05-.4.06-.93.05-1.5.06-1.51,0Z"/><path class="cls-8" d="m158.97,106.86s-4.46.3-8.88-2.35c0,0,2.25,4.55,8.88,3.92v-1.57Z"/></g><path class="cls-16" d="m155.38,86.59c-.09.25-1,.13-2.08.26-1.08.11-1.94.43-2.08.2-.06-.11.09-.34.44-.58.35-.24.9-.47,1.54-.54.64-.07,1.23.03,1.63.19.39.16.59.35.55.47Z"/><path class="cls-16" d="m163.63,86.43c-.16.21-.79,0-1.55-.01-.76-.04-1.4.14-1.55-.07-.06-.11.04-.31.32-.51.28-.2.74-.36,1.26-.34.52.02.97.2,1.24.41.27.21.36.43.29.53Z"/></g><g><path class="cls-8" d="m157.93,98.15c-.31-.4-.85-.63-1.38-.57-.37.04-.74.22-.97.52-.22.3-.27.73-.07,1.02.23.32.71.4,1.12.28.41-.12.76-.39,1.09-.65.09-.07.19-.15.24-.25.06-.1.07-.23,0-.32"/><path class="cls-16" d="m155.77,96.68c.14,0,.14.92.94,1.57.79.66,1.78.55,1.79.68.01.06-.22.18-.64.19-.41.01-1.01-.11-1.49-.52-.48-.4-.69-.94-.73-1.32-.04-.39.07-.62.13-.61Z"/></g><path class="cls-16" d="m163.8,80.34c-.32,2.1-3.63,2.44-5.71,2.04-1.37,1.79-3.7,2.79-5.94,2.56-.3-.03-.63-.08-.91.04-.3.13-.49.42-.68.68-.87,1.16-2.18,1.98-3.61,2.25-.28,2.09-1.97,3.93-4.03,4.38,0,0-.68-.34-.44-3.02.24-2.68-.05-8.25-.05-8.25l7.26-3.3,8.68-1.62s5.98.69,5.44,4.24Z"/><path class="cls-12" d="m139.78,91.41c.06,0-.03-.73.45-1.86.24-.56.64-1.2,1.29-1.74.64-.54,1.53-.98,2.56-1.08h.12s.03-.13.03-.13c.26-1.05.76-2.21,1.72-3.04.92-.81,2.41-1.22,3.63-.61l.2.1.08-.22c.03-.08.06-.16.08-.24.69-1.91,2.55-3.14,4.27-3.31.44-.04.85-.02,1.28.04.43.05.88.09,1.31-.06.43-.15.73-.47.98-.75.25-.29.48-.54.74-.73,1.08-.78,2.29-.75,2.99-.58.73.18,1.07.47,1.09.43,0-.01-.07-.08-.24-.2-.17-.1-.43-.27-.81-.38-.72-.23-1.99-.32-3.2.5-.61.39-.98,1.16-1.67,1.39-.69.22-1.58-.14-2.52-.03-1.86.17-3.85,1.46-4.6,3.53-.03.09-.06.18-.09.26l.28-.12c-1.41-.7-3.05-.22-4.05.68-1.03.92-1.53,2.14-1.79,3.25l.14-.13c-1.11.13-2.04.62-2.7,1.21-.67.59-1.07,1.28-1.29,1.87-.23.59-.29,1.09-.3,1.42-.01.34.02.51.03.51Z"/><path class="cls-12" d="m151.23,84.41s.18.1.55.18c.36.08.9.14,1.57.09,1.31-.08,3.23-.76,4.52-2.43l-.24.06c.07.03.14.06.22.1,1,.42,2.06.47,2.97.28.91-.2,1.65-.64,2.17-1.11.52-.47.83-.94,1.01-1.28.18-.34.23-.55.2-.56-.06-.04-.36.79-1.39,1.63-.51.41-1.21.8-2.06.96-.84.16-1.83.1-2.74-.28-.07-.03-.14-.06-.2-.09l-.15-.07-.09.12c-1.2,1.57-2.98,2.25-4.24,2.4-1.28.17-2.07-.07-2.09,0Z"/><path class="cls-12" d="m154.96,80.49c.02.11.97.03,2.1.3,1.13.25,1.96.74,2.02.65.07-.08-.72-.75-1.93-1.03-1.21-.28-2.22-.01-2.19.08Z"/><path class="cls-12" d="m157.47,80.27c.09.07.42-.21.85-.52.43-.31.8-.55.76-.65-.04-.1-.51-.01-.99.33-.47.34-.71.77-.62.84Z"/><path class="cls-12" d="m147.17,84.12c.04.11.88-.16,1.94-.13,1.06.02,1.88.34,1.93.23.06-.09-.76-.6-1.92-.62-1.15-.04-2,.43-1.95.52Z"/><path class="cls-12" d="m145.34,87.67c0,.1,1.25.15,2.69-.36,1.44-.5,2.39-1.33,2.32-1.4-.07-.1-1.07.56-2.45,1.03-1.37.49-2.57.61-2.56.73Z"/><path class="cls-12" d="m140.81,90.21c.09.08.7-.61,1.73-.97,1.02-.38,1.93-.23,1.95-.34.05-.09-.93-.44-2.08-.03-1.15.4-1.69,1.29-1.6,1.34Z"/><path class="cls-12" d="m140.94,80.69s.11-.22.34-.57c.24-.35.67-.8,1.34-1.17,1.32-.74,3.45-1.27,5.78-1.3,2.35-.03,4.46.42,5.96.79,1.5.38,2.42.66,2.44.61,0-.02-.21-.13-.62-.28-.41-.16-1-.37-1.75-.59-1.49-.44-3.63-.94-6.03-.91-2.4.03-4.56.61-5.92,1.45-.68.42-1.12.93-1.32,1.33-.21.4-.23.65-.21.65Z"/><path class="cls-12" d="m140.4,84.28c.07.03.23-.81,1.02-1.87.77-1.05,2.25-2.23,4.18-2.78,1.93-.55,3.79-.48,5.11-.39,1.33.1,2.15.21,2.16.15,0-.05-.8-.26-2.13-.43-1.32-.16-3.23-.28-5.25.29-2.02.58-3.55,1.85-4.29,2.99-.38.57-.6,1.08-.7,1.45-.1.37-.12.58-.1.58Z"/><path class="cls-12" d="m165.23,87.05s.6-.16,1.23-.92c.61-.72,1.18-2.1.8-3.58-.41-1.48-1.6-2.38-2.49-2.69-.91-.34-1.53-.21-1.52-.18,0,.07.59.05,1.41.43.81.36,1.85,1.22,2.22,2.54.35,1.32-.12,2.59-.64,3.31-.52.74-1.05,1.02-1.01,1.08Z"/><path class="cls-16" d="m138.18,97.46c.03-.06-.66-.38-1.64-1.03-.48-.34-1.03-.8-1.42-1.45-.4-.64-.56-1.51-.24-2.32.3-.81.93-1.44,1.61-1.75.69-.31,1.41-.33,1.98-.24,1.16.19,1.75.71,1.79.65.01-.02-.11-.16-.4-.36-.28-.19-.73-.43-1.34-.56-.6-.13-1.39-.14-2.17.18-.78.33-1.5,1.02-1.83,1.94-.36.92-.15,1.95.31,2.64.45.71,1.05,1.17,1.57,1.49.52.32.98.51,1.29.64.31.13.49.18.5.16Z"/><path class="cls-16" d="m137.88,97.51s-.12.2-.27.59c-.15.39-.35.96-.53,1.68-.17.72-.33,1.62-.27,2.62.06.99.35,2.12,1.07,3.07.72.94,1.8,1.51,2.84,1.58,1.05.1,1.96-.4,2.45-.99.51-.59.68-1.23.68-1.65,0-.43-.1-.65-.12-.64-.04,0,.02.23-.03.63-.04.39-.24.97-.74,1.48-.48.52-1.29.92-2.22.82-.92-.08-1.9-.61-2.55-1.46-.66-.86-.94-1.91-1.02-2.85-.08-.95.04-1.82.18-2.54.3-1.44.59-2.31.53-2.33Z"/></g><g><path class="cls-16" d="m147.05,87.93c.89,1.55.39,3.52-.34,5.15-.73,1.63-1.69,3.26-1.66,5.05.05,3,2.87,5.49,2.67,8.48-.12,1.78-1.45,3.41-3.16,3.9,1.36-1.03,1.37-3.12.74-4.71-.63-1.59-3.49-5.7-3.96-7.34-1.59-5.51-1.08-6.19.76-8.26"/><path class="cls-12" d="m141.89,92.21s.4.11,1.04-.01c.63-.12,1.5-.49,2.2-1.22.7-.73,1.04-1.6,1.15-2.24.11-.64.03-1.04-.02-1.04-.06,0-.08.39-.25.98-.16.58-.52,1.37-1.16,2.03-.64.66-1.41,1.04-1.99,1.22-.58.19-.97.22-.97.28Z"/><path class="cls-12" d="m145.15,108.7s.07-.04.19-.14c.12-.1.27-.27.44-.51.33-.48.7-1.32.62-2.4-.03-.53-.19-1.12-.53-1.67-.34-.54-.83-1-1.33-1.47-.5-.46-.98-.97-1.3-1.61-.33-.64-.51-1.37-.52-2.13,0-.76.17-1.49.49-2.14.32-.65.75-1.22,1.15-1.77.84-1.08,1.49-2.18,1.85-3.16.37-.99.48-1.85.47-2.43,0-.59-.1-.9-.12-.9-.08,0,.19,1.33-.61,3.23-.39.95-1.03,1.98-1.88,3.05-.41.55-.86,1.13-1.21,1.82-.35.68-.55,1.49-.54,2.31,0,.82.21,1.62.57,2.3.35.7.89,1.24,1.4,1.7.51.46.98.89,1.3,1.38.31.49.48,1.02.53,1.52.1,1-.2,1.81-.48,2.29-.29.49-.53.71-.5.73Z"/><path class="cls-12" d="m141.22,92.04s-.17.1-.39.37c-.23.26-.5.69-.73,1.27-.47,1.15-.6,2.98.06,4.78.67,1.79,1.81,3.12,2.65,4,.86.88,1.45,1.35,1.48,1.31.04-.04-.48-.58-1.28-1.5-.78-.91-1.84-2.24-2.48-3.95-.63-1.71-.55-3.43-.17-4.55.37-1.14.92-1.69.86-1.74Z"/></g></g><g><path class="cls-14" d="m191.45,140.5l-5.55,2.63-7,3.77c-2.9-8.5-2.78-17.56-3.81-20.99-3.26-10.8-9.31-11.74-9.31-11.74v.09c-.18-.12-.37-.23-.58-.29l-5.1-1.59-.16-2.77-17.24.4-.14,3.48-5.43.91c-3.39.57-6.42,2.63-7.93,5.71-.11.22-.21.44-.3.67-3.55,8.72-11.33,27.88-11.93,29.91-2.09,7.09,5.44,13.32,12.03,11.87.46-.1,1.9-.66,3.81-1.45,0,1.74.66,3.44,1.99,4.64.63.56,1.29.93,1.88.93l31.61.18c.85.01,1.75-.72,2.48-1.52,1.28.63,2.91.67,4.59.33,0,0,0,0,0,0,0,0,.01,0,.02,0,2.73-.56,5.58-2.1,6.25-2.76l16.03-15.08-6.2-7.33Zm-55.4,4.82l-.29,1.38-1.76.12,2.08-6.97v5.04c.01.14,0,.29-.03.43Z"/><path class="cls-16" d="m144.23,146.14c-.22.02-.45.05-.76.08-.58.05-1.29.11-2.15.19-1.91.16-4.44.36-7.31.6l-.28.02.09-.27c.23-.68.46-1.39.68-2.12.99-3.31,1.83-6.32,2.51-8.49.34-1.08.62-1.95.84-2.55.22-.6.36-.92.38-.91.03,0-.07.35-.24.96-.19.68-.43,1.55-.72,2.58-.61,2.18-1.41,5.21-2.4,8.52-.22.73-.45,1.45-.69,2.14l-.19-.25c2.92-.22,5.48-.38,7.32-.47,1.83-.09,2.97-.11,2.93-.02Z"/><path class="cls-16" d="m147.78,154.1s-.26.18-.76.44c-.57.29-1.28.65-2.11,1.08-1.79.9-4.2,2.24-6.94,3.62-2.73,1.39-5.37,2.33-7.31,2.84-.97.25-1.76.44-2.31.54-.55.11-.86.15-.86.13-.01-.06,1.19-.35,3.1-.93,1.91-.58,4.49-1.54,7.21-2.93,2.72-1.37,5.17-2.68,6.99-3.52.91-.43,1.65-.76,2.17-.97.52-.22.81-.33.82-.3Z"/><path class="cls-16" d="m167.6,144.07c-.06-.04.59-.97,1.22-2.66.63-1.68,1.17-4.17.81-6.9-.17-1.36-.5-2.64-.78-3.81-.29-1.17-.52-2.23-.65-3.14-.13-.91-.16-1.65-.14-2.16.02-.51.07-.79.09-.79.07,0-.02,1.13.32,2.91.16.89.42,1.93.73,3.09.3,1.16.64,2.45.82,3.84.37,2.8-.23,5.36-.94,7.05-.35.85-.72,1.5-1,1.92-.28.43-.46.65-.48.63Z"/><path class="cls-16" d="m167.76,144.61c.08.01-.64,1.28-.44,3.48.09,1.09.42,2.35.98,3.69.55,1.34,1.33,2.75,2.03,4.29.71,1.54,1.23,3.11,1.36,4.6.14,1.49-.18,2.86-.72,3.85-.53,1-1.23,1.64-1.77,1.96-.27.17-.49.27-.65.32-.16.05-.24.08-.24.06-.01-.03.31-.15.81-.5.49-.35,1.14-.98,1.61-1.96.49-.97.77-2.26.61-3.69-.14-1.43-.66-2.95-1.35-4.47-.7-1.52-1.47-2.94-2.01-4.31-.56-1.36-.87-2.68-.93-3.8-.07-1.12.1-2.03.3-2.62.1-.3.19-.52.27-.67.08-.15.12-.22.13-.21Z"/><path class="cls-16" d="m167.85,116.08c.1-.02.36,1.22.3,2.77-.05,1.55-.41,2.77-.5,2.74-.11-.02.07-1.24.12-2.76.06-1.51-.03-2.74.08-2.76Z"/><path class="cls-16" d="m176.55,156.65s-.22-.54-.31-1.47c-.1-.92-.08-2.23.21-3.63.3-1.4.82-2.59,1.29-3.4.47-.81.85-1.24.88-1.22.11.06-1.23,1.96-1.8,4.69-.6,2.73-.15,5-.28,5.02Z"/><path class="cls-16" d="m138.82,121.6c-.07,0-.08-.47-.39-1.14-.32-.65-.96-1.48-1.87-2.14-.9-.69-1.86-1.09-2.58-1.22-.18-.03-.34-.04-.49-.04-.14.02-.27.02-.36.04-.19.06-.31.09-.32.06-.01-.02.08-.09.28-.21.1-.04.24-.07.39-.11.16-.01.34-.02.54-.01.79.07,1.83.46,2.77,1.18.96.7,1.62,1.61,1.89,2.35.28.75.18,1.25.15,1.24Z"/><g class="cls-11"><path d="m138.28,144.65c-.67-2.97-.96-6.02-.85-9.06l-.28.56-1.06,3.7-.32,6.85,6.11-.27c-.99-.92-2.26-1.55-3.59-1.78Z"/></g><path class="cls-16" d="m159.87,112.89s.16.25.04.74c-.1.48-.61,1.1-1.43,1.4-1.61.55-3.92.98-6.5.97-2.58,0-4.89-.49-6.49-.99-.8-.26-1.44-.5-1.87-.7-.43-.2-.66-.32-.65-.34.02-.06.98.34,2.59.78,1.61.43,3.88.87,6.42.87,2.53.01,4.83-.38,6.4-.84.78-.25,1.24-.77,1.38-1.19.16-.42.07-.69.1-.69Z"/><path class="cls-3" d="m130.31,136.15c-.1.04-.56-.88-1.04-2.06-.47-1.18-.78-2.16-.68-2.2.1-.04.56.88,1.04,2.06.47,1.18.78,2.16.68,2.2Z"/><path class="cls-3" d="m126.79,146.03c.03.1-1.06.53-2.44.96-1.38.43-2.52.69-2.56.59-.03-.1,1.06-.53,2.44-.96,1.38-.43,2.52-.69,2.55-.59Z"/><path class="cls-3" d="m125.95,156.12c-.11,0-.16-.99-.13-2.21.04-1.22.15-2.2.26-2.2s.16.99.13,2.21c-.04,1.22-.15,2.2-.26,2.2Z"/><path class="cls-3" d="m138.2,153.14c-.08.07-.81-.61-1.72-1.43-.91-.82-1.67-1.46-1.61-1.55.06-.08.94.43,1.87,1.26.93.83,1.54,1.64,1.46,1.71Z"/><path class="cls-3" d="m146.83,147.98c.08.07-.39.69-1.04,1.39-.65.69-1.25,1.2-1.32,1.12-.08-.07.39-.69,1.05-1.39.65-.69,1.25-1.2,1.32-1.12Z"/><path class="cls-3" d="m134.76,123.06c.06.09-.75.71-1.81,1.39-1.06.68-1.96,1.16-2.02,1.07-.06-.09.75-.71,1.81-1.39,1.06-.68,1.96-1.16,2.02-1.07Z"/><path class="cls-3" d="m144.55,120.77c-.1.03-.5-.95-1-2.16-.5-1.2-.93-2.17-.84-2.23.09-.05.68.85,1.19,2.08.51,1.22.75,2.27.65,2.3Z"/><path class="cls-3" d="m145.46,133.04c-.05.09-1.09-.38-2.25-1.18-1.16-.8-1.98-1.6-1.91-1.68.07-.08.98.58,2.13,1.36,1.14.79,2.09,1.4,2.04,1.49Z"/><path class="cls-3" d="m152.49,139.01c.05.09-1.2.85-2.78,1.69-1.59.84-2.91,1.44-2.96,1.35-.05-.09,1.2-.85,2.78-1.69,1.58-.84,2.91-1.44,2.96-1.35Z"/><path class="cls-3" d="m155.78,131.85c-.1.02-.4-.86-.66-1.98-.26-1.12-.39-2.04-.29-2.07.1-.02.4.86.66,1.98.26,1.12.39,2.04.29,2.07Z"/><path class="cls-3" d="m164.7,138.64c-.09.05-.65-.85-1.23-2-.59-1.15-.99-2.12-.89-2.17s.65.85,1.23,2c.59,1.15.99,2.12.89,2.17Z"/><path class="cls-3" d="m163.44,119.14c.06.09-.74.77-1.79,1.52-1.05.75-1.96,1.29-2.02,1.21-.06-.09.74-.77,1.8-1.52,1.05-.75,1.96-1.29,2.02-1.21Z"/><path class="cls-3" d="m155.11,119.7c-.1.05-.44-.48-.77-1.17-.33-.69-.52-1.29-.42-1.33.1-.05.44.48.77,1.17.33.69.52,1.29.42,1.33Z"/><path class="cls-3" d="m150.09,112.34c0,.11-.58.22-1.3.25-.72.03-1.31-.03-1.32-.13,0-.11.58-.22,1.3-.25.72-.03,1.31.03,1.32.13Z"/><path class="cls-3" d="m155.92,112.46c-.08-.06.17-.54.56-1.07.39-.53.78-.9.87-.84.08.06-.17.54-.56,1.07-.39.53-.78.9-.87.84Z"/><path class="cls-3" d="m172.01,127.56c-.11.01-.31-1.02-.45-2.3-.14-1.28-.17-2.33-.07-2.34.11-.01.31,1.02.45,2.3.14,1.28.17,2.33.07,2.34Z"/><path class="cls-3" d="m173.9,136.72c-.07.07-.8-.51-1.5-1.4-.71-.89-1.12-1.73-1.03-1.78.09-.06.64.67,1.33,1.54.69.87,1.28,1.57,1.2,1.64Z"/><path class="cls-3" d="m171.26,146.12c-.09-.05.31-.97.9-2.06.59-1.09,1.14-1.92,1.24-1.87.09.05-.31.97-.9,2.06-.59,1.08-1.14,1.92-1.24,1.87Z"/><path class="cls-3" d="m174.43,159.78c-.1.04-.59-1.05-1.1-2.42-.51-1.37-.84-2.52-.74-2.55.1-.04.59,1.05,1.1,2.42.51,1.37.84,2.52.74,2.55Z"/><path class="cls-3" d="m183.99,154.82c-.04.1-.88-.2-1.87-.66-.99-.46-1.75-.91-1.7-1.01.04-.1.88.2,1.87.66.99.46,1.75.91,1.7,1.01Z"/><path class="cls-3" d="m189.37,149.69c-.1,0-.16-1.06.11-2.34.26-1.28.72-2.23.82-2.19.1.04-.19,1.03-.44,2.27-.26,1.24-.37,2.26-.48,2.26Z"/><path class="cls-3" d="m157.74,146.37c-.1-.05.25-.99.78-2.1.53-1.12,1.03-1.99,1.13-1.94.1.05-.25.99-.78,2.1-.53,1.12-1.03,1.98-1.13,1.94Z"/><path class="cls-3" d="m142.48,163.85c-.09.06-.71-.66-1.4-1.61-.69-.95-1.18-1.78-1.09-1.84.09-.06.71.66,1.4,1.61.69.95,1.18,1.78,1.09,1.84Z"/><path class="cls-3" d="m149.71,161.94c-.1-.04.22-1.08.71-2.33.49-1.25.97-2.23,1.07-2.19.1.04-.22,1.08-.71,2.33-.49,1.25-.97,2.23-1.07,2.19Z"/><path class="cls-3" d="m161.39,163.98c-.03.1-1.12-.18-2.33-.86-1.21-.67-2.01-1.46-1.95-1.54.07-.09.96.55,2.14,1.2,1.17.66,2.18,1.09,2.14,1.2Z"/><path class="cls-3" d="m166.17,156.47c-.09.04-.58-.99-.89-2.36-.31-1.37-.31-2.51-.21-2.51.11,0,.28,1.09.59,2.43.3,1.34.62,2.4.52,2.44Z"/><g class="cls-11"><path d="m132.91,162.44c1.65.9,3.67.95,5.49.5,1.83-.45,3.5-1.37,5.11-2.35.92-.56,1.86-1.16,2.91-1.37,1.17-.24,2.39.02,3.56.25,2.76.55,5.64,1,8.37.3,2.73-.7,5.28-2.82,5.64-5.62.14-1.13-.24-2.49-1.31-2.85-.42-.14-1.8-.66-2.24-.62-11.72.95-27.65,10.44-27.64,10.77"/></g></g><g><g><polygon class="cls-7" points="185.91 295.32 188.88 318.39 178.43 319.05 173.06 296.92 185.91 295.32"/><g><path class="cls-14" d="m177.45,314.58s7.99,4.18,10.91-.77l1.22,2.04,6.24,14.89c.4.96.08,2.13-.83,2.64-.7.39-1.54.34-2.18-.12-3.38-2.44-15.79-11.49-15.88-12.94l-.47-3.8c-.1-.79.29-1.56.99-1.94h0Z"/><path class="cls-2" d="m194.65,333.53l-17.89-14.53.12.83c.04.91.48,1.21.99,1.73,1.5,1.53,5.51,4.87,14.9,11.71.55.4,1.26.5,1.89.26h0Z"/><g class="cls-5"><path class="cls-1" d="m178.71,316.22c.54.27.8.99.55,1.54-.25.55-.98.82-1.52.56-.54-.26-.89-1.11-.58-1.63.31-.52,1.18-.79,1.64-.41"/></g><path class="cls-16" d="m188.98,325.61c.12.04.42-1.05,1.5-1.76,1.06-.75,2.18-.62,2.19-.75.01-.05-.26-.17-.73-.17-.46,0-1.12.15-1.71.56-.59.4-.98.95-1.15,1.38-.17.43-.16.73-.11.74Z"/><path class="cls-16" d="m190.74,328.04c.1.07.64-.65,1.61-1.08.96-.45,1.86-.39,1.87-.51.04-.11-.96-.39-2.06.12-1.1.5-1.54,1.44-1.43,1.48Z"/><path class="cls-16" d="m185.92,322.62c.1.08.93-1.04,2.38-1.84,1.44-.83,2.82-.95,2.81-1.08.02-.11-1.47-.18-3.02.7-1.55.87-2.27,2.18-2.17,2.22Z"/><path class="cls-16" d="m184.93,317.96c.07.11,1.09-.49,2.48-.74,1.4-.27,2.56-.07,2.58-.19.04-.1-1.16-.52-2.66-.23-1.5.27-2.48,1.08-2.41,1.17Z"/><path class="cls-16" d="m188.21,317.07s-.02-.27-.21-.72c-.19-.44-.55-1.06-1.18-1.67-.32-.28-.68-.66-1.28-.73-.3-.04-.67.14-.81.46-.14.31-.11.65-.02.94.41,1.18,1.82,1.99,3.21,1.72,1.39-.3,2.35-1.47,2.55-2.67.03-.3,0-.66-.25-.93-.25-.27-.67-.27-.92-.14-.53.27-.77.7-1.02,1.05-.47.73-.69,1.41-.8,1.88-.1.47-.1.74-.07.74.08.03.17-1.08,1.12-2.45.25-.33.52-.72.91-.89.19-.08.38-.06.5.07.12.13.16.38.13.62-.17.99-1.05,2.06-2.23,2.29-1.17.24-2.4-.47-2.75-1.42-.08-.23-.09-.48-.02-.66.08-.18.25-.27.44-.26.41.03.79.34,1.1.6,1.25,1.11,1.52,2.21,1.59,2.16Z"/></g></g><g><polygon class="cls-7" points="153.81 294.3 154.1 317.94 141.33 317.45 139.44 294.58 153.81 294.3"/><g><g><path class="cls-14" d="m141.11,314.6h0s-14.16,5.28-14.32,7.9l27.4-.05.02-7.16-1.01.23c-4.03.93-8.25.61-12.09-.92Z"/><g class="cls-5"><path class="cls-1" d="m151.05,316.63c.53.14.9.74.78,1.28-.12.54-.72.91-1.26.78s-1-.84-.81-1.35c.18-.52.91-.93,1.4-.67"/></g><g class="cls-5"><path class="cls-1" d="m154.19,322.44l.02-2.22-26.34.88s-1.22.53-1.08,1.39l27.4-.05Z"/></g><path class="cls-16" d="m140.67,314.46c0,.13.67.19,1.33.62.67.41,1.01.99,1.13.94.12-.03-.08-.83-.88-1.33-.8-.51-1.61-.35-1.58-.23Z"/><path class="cls-16" d="m137.8,315.65c-.03.13.55.36,1,.92.47.55.59,1.16.72,1.16.13.02.22-.76-.36-1.45-.57-.7-1.36-.75-1.36-.62Z"/><path class="cls-16" d="m136.17,319.09c.12.03.31-.64-.04-1.37-.34-.73-.97-1.02-1.03-.91-.08.11.33.5.61,1.11.29.6.33,1.16.46,1.18Z"/></g><path class="cls-16" d="m140.97,314.38c0,.06.53.14,1.37,0,.42-.07.92-.21,1.43-.44.26-.12.52-.26.79-.42.13-.08.28-.16.41-.32.15-.14.23-.49.06-.71-.14-.21-.39-.3-.59-.3-.2,0-.37.03-.51.07-.31.07-.59.18-.85.29-.52.24-.95.54-1.26.83-.63.59-.85,1.09-.8,1.12.06.04.37-.38,1.02-.86.32-.24.73-.49,1.22-.69.24-.1.51-.18.79-.24.29-.08.54-.08.61.05.03.05.03.07-.03.15-.06.08-.18.16-.3.24-.24.16-.49.3-.72.42-.48.24-.93.4-1.33.51-.78.22-1.3.26-1.3.33Z"/><path class="cls-16" d="m141.14,314.57s.31-.46.36-1.33c.02-.43-.02-.95-.19-1.5-.08-.27-.2-.56-.35-.83-.16-.27-.36-.63-.88-.69-.27,0-.5.2-.57.38-.09.19-.11.34-.14.5-.05.32-.04.63,0,.92.09.58.33,1.07.59,1.42.54.71,1.1.87,1.11.82.04-.07-.42-.32-.83-1.01-.2-.34-.38-.78-.44-1.29-.03-.25-.02-.52.02-.79.04-.29.15-.53.26-.5.14,0,.37.22.48.45.14.25.25.5.34.74.17.49.25.97.27,1.37.04.8-.1,1.31-.03,1.33Z"/></g></g><g><path class="cls-16" d="m178.65,193.6c-.57-12.77-10.38-26.73-10.38-26.73l-15.1-1.26v-.05s-.32.03-.32.03h0l-17.36,1.41s-7.64,16.67-5.66,36.54,8.7,92.96,8.7,92.96h15.92l.35-105.77,16.12,109.35h15.93s-7.65-93.71-8.22-106.48Z"/><polygon class="cls-12" points="136.61 294.68 138.83 305.46 155.05 305.41 156.03 295.48 136.61 294.68"/><polygon class="cls-12" points="169.86 298.13 173.41 310.27 188.51 308.17 187.72 294.51 169.86 298.13"/><path class="cls-12" d="m155.46,190.63s-.08.01-.24,0c-.15-.04-.38-.1-.63-.28-.5-.35-.97-1.13-1.2-2.16-.37-2.06-.72-4.89-1.06-8.04-.33-3.15-.57-6-.72-8.07-.07-1.03-.12-1.87-.15-2.45-.03-.58-.03-.9,0-.9.03,0,.08.32.15.89.07.65.16,1.47.27,2.44.22,2.14.51,4.95.83,8.05.34,3.14.65,5.99.95,8.02.19,1,.6,1.75,1.03,2.1.44.36.79.36.77.4Z"/><path class="cls-12" d="m154.11,167.97s.12-.09.38-.13c.25-.04.66-.02,1.08.23.41.25.82.71.94,1.36.06.32.02.7-.17,1.02-.18.32-.5.56-.85.7-.7.27-1.54.11-1.97-.42-.44-.52-.45-1.17-.33-1.62.12-.47.37-.78.57-.95.21-.17.35-.2.36-.19.05.05-.51.34-.66,1.19-.07.4-.02.94.34,1.33.33.4,1,.52,1.57.3.59-.21.91-.78.81-1.31-.08-.53-.41-.95-.74-1.19-.71-.48-1.32-.24-1.32-.33Z"/></g></g><g><g><path class="cls-12" d="m145.94,145.56l-1.54-7.49c-.12-.6.34-1.16.95-1.16l19.4.09c.57,0,1.02.5.95,1.07l-2,17.17c-.08.68-.66,1.19-1.34,1.18l-12.65-.1c-.61,0-1.14-.42-1.29-1.01l-2.48-9.76Z"/><path class="cls-7" d="m144.23,141.61h0c.84,0,1.6.51,1.9,1.3.32.83.78,1.79,1.3,2.08.95.52,2.6.93,3.46.51.87-.42,4.33-3.54,4.94-3.19.61.35,1.13,1.13.52,1.82-.61.69-3.81,2.77-3.2,3.46.61.69,7.36-2.36,8.4-2.09,1.04.27,1.65.91,1.04,1.32-.61.42-5.2,2.15-5.45,2.75,0,0,6.93-1.82,7.19-1.39.26.43.69,1.13,0,1.39-.69.26-6.67,1.82-7.19,2.08-.52.26-2.31.78-2.67.78-.19,0-1.55.45-2.79.88-1.4.49-2.93.44-4.31-.12l-.7-.29c-1.09-.44-1.78-1.54-1.71-2.71l.14-2.36-.76-1.95-.11-4.29Z"/></g><path class="cls-3" d="m155.87,139.79c0,.39-.32.7-.7.7s-.7-.32-.7-.7.32-.7.7-.7.7.32.7.7Z"/></g></g><g><g><g><path class="cls-14" d="m3.47,223.09s.1-.08.3-.24c.21-.16.51-.38.9-.67.8-.59,1.98-1.45,3.5-2.57,3.07-2.24,7.53-5.49,13.14-9.57,11.25-8.17,27.11-19.67,45.55-33.06l-.06.21c-3.7-10.27-5.99-22.12-5.98-34.48-.04-3.93.24-7.8.62-11.6.47-3.79,1.03-7.52,1.88-11.13,1.63-7.22,3.95-14.02,6.84-20.17,5.78-12.34,13.42-22.16,20.73-29.37,7.34-7.22,14.23-11.99,19.16-14.93,1.25-.71,2.35-1.35,3.31-1.9.96-.54,1.81-.94,2.48-1.29.67-.34,1.18-.59,1.54-.77.35-.17.53-.25.53-.25,0,0-.17.1-.51.29-.35.19-.86.46-1.52.81-.66.36-1.51.77-2.46,1.32-.95.56-2.05,1.2-3.29,1.93-4.9,2.97-11.75,7.77-19.04,15-7.26,7.21-14.85,17.02-20.6,29.32-2.87,6.14-5.18,12.91-6.8,20.11-.85,3.59-1.4,7.31-1.87,11.09-.38,3.79-.66,7.65-.61,11.56,0,12.32,2.26,24.13,5.94,34.36l.05.13-.11.08c-18.48,13.34-34.36,24.81-45.63,32.95-5.63,4.05-10.12,7.27-13.2,9.49-1.53,1.09-2.72,1.94-3.53,2.52-.4.28-.7.49-.91.64-.21.14-.32.21-.32.21Z"/><path class="cls-14" d="m88.21,30.71s-.14.08-.42.22c-.29.14-.7.35-1.24.61-.55.27-1.22.59-2.02.98-.8.38-1.68.91-2.69,1.45-4.02,2.22-9.69,5.8-15.9,11.2-3.06,2.74-6.34,5.85-9.49,9.52-3.17,3.65-6.32,7.76-9.28,12.32-5.96,9.1-10.98,20.1-14.44,32.16-3.47,12.08-5.07,24.02-5.63,34.88-.54,10.87-.15,20.7.69,28.88.85,8.19,2.36,14.71,3.76,19.1.69,2.2,1.31,3.87,1.75,5,.22.55.39.98.51,1.28.11.29.16.44.16.44,0,0-.07-.14-.2-.43-.13-.3-.31-.72-.54-1.27-.46-1.12-1.11-2.79-1.82-4.99-1.44-4.38-2.99-10.91-3.88-19.11-.88-8.2-1.3-18.04-.78-28.93.54-10.88,2.13-22.85,5.61-34.97,3.47-12.1,8.51-23.13,14.51-32.25,2.98-4.57,6.15-8.69,9.34-12.34,3.17-3.68,6.47-6.78,9.55-9.52,6.25-5.4,11.96-8.94,16.01-11.13,1.02-.54,1.91-1.05,2.71-1.43.8-.37,1.48-.69,2.04-.95.54-.25.96-.44,1.25-.58.28-.13.43-.18.43-.18Z"/><path class="cls-14" d="m112.12,0s.04.04.09.12c.07.1.15.22.25.38.23.36.55.85.96,1.49.84,1.33,2.05,3.24,3.57,5.65,3.05,4.87,7.36,11.75,12.43,19.85l-.2-.08c6.35-1.75,13.55-3.18,21.19-3.98,7.43-.78,14.57-.9,21.04-.55,6.47.34,12.26,1.14,17.06,2.05.6.11,1.19.22,1.76.32.57.12,1.12.24,1.66.36,1.08.24,2.09.46,3.04.67,1.88.49,3.51.89,4.82,1.27,1.29.39,2.3.7,3.02.91.33.1.59.19.78.25.18.06.26.09.26.1,0,0-.09-.01-.27-.06-.2-.05-.46-.12-.79-.21-.71-.2-1.73-.48-3.03-.84-1.32-.36-2.95-.73-4.83-1.2-.95-.2-1.97-.42-3.04-.64-.54-.11-1.09-.23-1.66-.35-.57-.1-1.16-.2-1.76-.31-4.8-.87-10.58-1.64-17.03-1.96-6.45-.33-13.57-.2-20.98.58-7.62.8-14.79,2.2-21.13,3.93l-.13.03-.07-.11c-5.02-8.12-9.29-15.03-12.31-19.92-1.49-2.43-2.67-4.36-3.49-5.7-.39-.65-.7-1.16-.91-1.52-.09-.16-.17-.29-.23-.4-.05-.09-.07-.14-.07-.14Z"/><path class="cls-14" d="m299.22,98.72s-.03-.07-.08-.21c-.05-.16-.12-.37-.2-.62-.17-.57-.42-1.38-.72-2.4-.31-1.04-.67-2.32-1.2-3.78-.25-.73-.52-1.51-.8-2.34-.14-.41-.29-.84-.44-1.28-.17-.43-.34-.87-.52-1.32-.72-1.81-1.45-3.81-2.42-5.88-.48-1.04-.92-2.13-1.46-3.22-.55-1.09-1.11-2.21-1.68-3.35-2.39-4.54-5.31-9.39-8.78-14.2-3.5-4.79-7.23-9.04-10.79-12.75-.91-.91-1.79-1.8-2.65-2.66-.87-.86-1.75-1.64-2.58-2.42-1.65-1.58-3.3-2.94-4.76-4.21-.37-.32-.73-.63-1.08-.93-.36-.29-.71-.57-1.06-.84-.68-.55-1.33-1.06-1.93-1.54-1.19-.98-2.27-1.77-3.14-2.42-.85-.64-1.52-1.15-2-1.51-.21-.17-.38-.3-.51-.4-.11-.09-.17-.14-.17-.15s.07.03.19.12c.14.1.32.22.54.37.49.35,1.17.83,2.04,1.45.88.63,1.97,1.4,3.18,2.37.61.48,1.26.98,1.95,1.52.35.27.7.55,1.07.83.35.3.72.6,1.09.92,1.48,1.26,3.14,2.61,4.81,4.18.84.78,1.73,1.56,2.6,2.41.86.86,1.75,1.75,2.67,2.66,3.58,3.7,7.33,7.97,10.85,12.77,3.49,4.82,6.4,9.69,8.79,14.26.57,1.15,1.13,2.28,1.67,3.37.54,1.09.98,2.2,1.45,3.24.96,2.08,1.68,4.09,2.38,5.91.17.45.34.9.51,1.33.15.44.29.87.42,1.28.27.83.53,1.62.77,2.35.51,1.46.85,2.75,1.13,3.8.28,1.03.5,1.84.66,2.42.07.26.12.47.16.63.03.14.05.22.04.22Z"/><path class="cls-14" d="m271.53,303.31s-.04-.07-.12-.21c-.08-.15-.18-.36-.31-.62-.28-.57-.67-1.38-1.18-2.43-1.03-2.14-2.51-5.24-4.37-9.12-3.72-7.82-8.94-18.82-15.02-31.61l-.06-.13.12-.09c5.3-4.01,10.78-8.75,16.02-14.13.87-.84,1.68-1.73,2.48-2.61.81-.88,1.61-1.75,2.41-2.62.76-.9,1.52-1.79,2.27-2.67.75-.89,1.51-1.75,2.19-2.66,1.4-1.8,2.82-3.54,4.07-5.34.64-.89,1.28-1.77,1.9-2.64.61-.88,1.18-1.78,1.77-2.65,4.63-6.99,8.17-13.68,10.82-19.44,1.36-2.87,2.4-5.54,3.36-7.87.89-2.35,1.62-4.4,2.22-6.07.54-1.68.96-2.98,1.25-3.89.14-.43.25-.77.33-1.01.08-.23.13-.34.13-.34,0,0-.02.12-.09.35-.07.25-.17.58-.3,1.02-.27.91-.67,2.23-1.18,3.92-.58,1.68-1.28,3.74-2.16,6.1-.94,2.34-1.96,5.03-3.31,7.91-2.62,5.79-6.14,12.51-10.77,19.53-.58.87-1.16,1.77-1.76,2.66-.63.87-1.26,1.76-1.9,2.65-1.25,1.81-2.67,3.55-4.07,5.36-.69.91-1.45,1.78-2.2,2.67-.75.89-1.51,1.78-2.27,2.68-.8.87-1.6,1.75-2.41,2.63-.81.89-1.62,1.78-2.49,2.62-5.26,5.39-10.76,10.14-16.08,14.15l.06-.22c6.03,12.81,11.21,23.83,14.89,31.67,1.82,3.91,3.27,7.02,4.27,9.17.49,1.06.86,1.88,1.13,2.45.12.27.21.48.28.64.06.14.09.22.09.22Z"/></g><g class="cls-9"><path class="cls-1" d="m3.47,223.09s.1-.08.3-.24c.21-.16.51-.38.9-.67.8-.59,1.98-1.45,3.5-2.57,3.07-2.24,7.53-5.49,13.14-9.57,11.25-8.17,27.11-19.67,45.55-33.06l-.06.21c-3.7-10.27-5.99-22.12-5.98-34.48-.04-3.93.24-7.8.62-11.6.47-3.79,1.03-7.52,1.88-11.13,1.63-7.22,3.95-14.02,6.84-20.17,5.78-12.34,13.42-22.16,20.73-29.37,7.34-7.22,14.23-11.99,19.16-14.93,1.25-.71,2.35-1.35,3.31-1.9.96-.54,1.81-.94,2.48-1.29.67-.34,1.18-.59,1.54-.77.35-.17.53-.25.53-.25,0,0-.17.1-.51.29-.35.19-.86.46-1.52.81-.66.36-1.51.77-2.46,1.32-.95.56-2.05,1.2-3.29,1.93-4.9,2.97-11.75,7.77-19.04,15-7.26,7.21-14.85,17.02-20.6,29.32-2.87,6.14-5.18,12.91-6.8,20.11-.85,3.59-1.4,7.31-1.87,11.09-.38,3.79-.66,7.65-.61,11.56,0,12.32,2.26,24.13,5.94,34.36l.05.13-.11.08c-18.48,13.34-34.36,24.81-45.63,32.95-5.63,4.05-10.12,7.27-13.2,9.49-1.53,1.09-2.72,1.94-3.53,2.52-.4.28-.7.49-.91.64-.21.14-.32.21-.32.21Z"/><path class="cls-1" d="m88.21,30.71s-.14.08-.42.22c-.29.14-.7.35-1.24.61-.55.27-1.22.59-2.02.98-.8.38-1.68.91-2.69,1.45-4.02,2.22-9.69,5.8-15.9,11.2-3.06,2.74-6.34,5.85-9.49,9.52-3.17,3.65-6.32,7.76-9.28,12.32-5.96,9.1-10.98,20.1-14.44,32.16-3.47,12.08-5.07,24.02-5.63,34.88-.54,10.87-.15,20.7.69,28.88.85,8.19,2.36,14.71,3.76,19.1.69,2.2,1.31,3.87,1.75,5,.22.55.39.98.51,1.28.11.29.16.44.16.44,0,0-.07-.14-.2-.43-.13-.3-.31-.72-.54-1.27-.46-1.12-1.11-2.79-1.82-4.99-1.44-4.38-2.99-10.91-3.88-19.11-.88-8.2-1.3-18.04-.78-28.93.54-10.88,2.13-22.85,5.61-34.97,3.47-12.1,8.51-23.13,14.51-32.25,2.98-4.57,6.15-8.69,9.34-12.34,3.17-3.68,6.47-6.78,9.55-9.52,6.25-5.4,11.96-8.94,16.01-11.13,1.02-.54,1.91-1.05,2.71-1.43.8-.37,1.48-.69,2.04-.95.54-.25.96-.44,1.25-.58.28-.13.43-.18.43-.18Z"/><path class="cls-1" d="m112.12,0s.04.04.09.12c.07.1.15.22.25.38.23.36.55.85.96,1.49.84,1.33,2.05,3.24,3.57,5.65,3.05,4.87,7.36,11.75,12.43,19.85l-.2-.08c6.35-1.75,13.55-3.18,21.19-3.98,7.43-.78,14.57-.9,21.04-.55,6.47.34,12.26,1.14,17.06,2.05.6.11,1.19.22,1.76.32.57.12,1.12.24,1.66.36,1.08.24,2.09.46,3.04.67,1.88.49,3.51.89,4.82,1.27,1.29.39,2.3.7,3.02.91.33.1.59.19.78.25.18.06.26.09.26.1,0,0-.09-.01-.27-.06-.2-.05-.46-.12-.79-.21-.71-.2-1.73-.48-3.03-.84-1.32-.36-2.95-.73-4.83-1.2-.95-.2-1.97-.42-3.04-.64-.54-.11-1.09-.23-1.66-.35-.57-.1-1.16-.2-1.76-.31-4.8-.87-10.58-1.64-17.03-1.96-6.45-.33-13.57-.2-20.98.58-7.62.8-14.79,2.2-21.13,3.93l-.13.03-.07-.11c-5.02-8.12-9.29-15.03-12.31-19.92-1.49-2.43-2.67-4.36-3.49-5.7-.39-.65-.7-1.16-.91-1.52-.09-.16-.17-.29-.23-.4-.05-.09-.07-.14-.07-.14Z"/><path class="cls-1" d="m299.22,98.72s-.03-.07-.08-.21c-.05-.16-.12-.37-.2-.62-.17-.57-.42-1.38-.72-2.4-.31-1.04-.67-2.32-1.2-3.78-.25-.73-.52-1.51-.8-2.34-.14-.41-.29-.84-.44-1.28-.17-.43-.34-.87-.52-1.32-.72-1.81-1.45-3.81-2.42-5.88-.48-1.04-.92-2.13-1.46-3.22-.55-1.09-1.11-2.21-1.68-3.35-2.39-4.54-5.31-9.39-8.78-14.2-3.5-4.79-7.23-9.04-10.79-12.75-.91-.91-1.79-1.8-2.65-2.66-.87-.86-1.75-1.64-2.58-2.42-1.65-1.58-3.3-2.94-4.76-4.21-.37-.32-.73-.63-1.08-.93-.36-.29-.71-.57-1.06-.84-.68-.55-1.33-1.06-1.93-1.54-1.19-.98-2.27-1.77-3.14-2.42-.85-.64-1.52-1.15-2-1.51-.21-.17-.38-.3-.51-.4-.11-.09-.17-.14-.17-.15s.07.03.19.12c.14.1.32.22.54.37.49.35,1.17.83,2.04,1.45.88.63,1.97,1.4,3.18,2.37.61.48,1.26.98,1.95,1.52.35.27.7.55,1.07.83.35.3.72.6,1.09.92,1.48,1.26,3.14,2.61,4.81,4.18.84.78,1.73,1.56,2.6,2.41.86.86,1.75,1.75,2.67,2.66,3.58,3.7,7.33,7.97,10.85,12.77,3.49,4.82,6.4,9.69,8.79,14.26.57,1.15,1.13,2.28,1.67,3.37.54,1.09.98,2.2,1.45,3.24.96,2.08,1.68,4.09,2.38,5.91.17.45.34.9.51,1.33.15.44.29.87.42,1.28.27.83.53,1.62.77,2.35.51,1.46.85,2.75,1.13,3.8.28,1.03.5,1.84.66,2.42.07.26.12.47.16.63.03.14.05.22.04.22Z"/><path class="cls-1" d="m271.53,303.31s-.04-.07-.12-.21c-.08-.15-.18-.36-.31-.62-.28-.57-.67-1.38-1.18-2.43-1.03-2.14-2.51-5.24-4.37-9.12-3.72-7.82-8.94-18.82-15.02-31.61l-.06-.13.12-.09c5.3-4.01,10.78-8.75,16.02-14.13.87-.84,1.68-1.73,2.48-2.61.81-.88,1.61-1.75,2.41-2.62.76-.9,1.52-1.79,2.27-2.67.75-.89,1.51-1.75,2.19-2.66,1.4-1.8,2.82-3.54,4.07-5.34.64-.89,1.28-1.77,1.9-2.64.61-.88,1.18-1.78,1.77-2.65,4.63-6.99,8.17-13.68,10.82-19.44,1.36-2.87,2.4-5.54,3.36-7.87.89-2.35,1.62-4.4,2.22-6.07.54-1.68.96-2.98,1.25-3.89.14-.43.25-.77.33-1.01.08-.23.13-.34.13-.34,0,0-.02.12-.09.35-.07.25-.17.58-.3,1.02-.27.91-.67,2.23-1.18,3.92-.58,1.68-1.28,3.74-2.16,6.1-.94,2.34-1.96,5.03-3.31,7.91-2.62,5.79-6.14,12.51-10.77,19.53-.58.87-1.16,1.77-1.76,2.66-.63.87-1.26,1.76-1.9,2.65-1.25,1.81-2.67,3.55-4.07,5.36-.69.91-1.45,1.78-2.2,2.67-.75.89-1.51,1.78-2.27,2.68-.8.87-1.6,1.75-2.41,2.63-.81.89-1.62,1.78-2.49,2.62-5.26,5.39-10.76,10.14-16.08,14.15l.06-.22c6.03,12.81,11.21,23.83,14.89,31.67,1.82,3.91,3.27,7.02,4.27,9.17.49,1.06.86,1.88,1.13,2.45.12.27.21.48.28.64.06.14.09.22.09.22Z"/></g></g><g><circle class="cls-14" cx="223.42" cy="88.85" r="3.16"/><path class="cls-14" d="m207.45,28.88c0,1.75-1.42,3.16-3.16,3.16s-3.16-1.42-3.16-3.16,1.42-3.16,3.16-3.16,3.16,1.42,3.16,3.16Z"/><path class="cls-14" d="m302.09,98.85c0,1.75-1.42,3.16-3.16,3.16s-3.16-1.42-3.16-3.16,1.42-3.16,3.16-3.16,3.16,1.42,3.16,3.16Z"/><path class="cls-14" d="m138.52,246.75c0,1.75-1.42,3.16-3.16,3.16s-3.16-1.42-3.16-3.16,1.42-3.16,3.16-3.16,3.16,1.42,3.16,3.16Z"/><circle class="cls-14" cx="94.94" cy="244.45" r="3.16"/><circle class="cls-14" cx="268.37" cy="177.87" r="3.16"/><path class="cls-14" d="m34.33,100.49c0,1.75-1.42,3.16-3.16,3.16s-3.16-1.42-3.16-3.16,1.42-3.16,3.16-3.16,3.16,1.42,3.16,3.16Z"/><path class="cls-14" d="m211.87,125.77c0,1.75-1.42,3.16-3.16,3.16s-3.16-1.42-3.16-3.16,1.42-3.16,3.16-3.16,3.16,1.42,3.16,3.16Z"/><circle class="cls-14" cx="273.03" cy="124.48" r="3.16"/><path class="cls-14" d="m68.64,112.44c0,1.75-1.42,3.16-3.16,3.16s-3.16-1.42-3.16-3.16,1.42-3.16,3.16-3.16,3.16,1.42,3.16,3.16Z"/><circle class="cls-14" cx="67.95" cy="70.54" r="3.16"/><path class="cls-14" d="m35.56,190.36c0,.87-.71,1.58-1.58,1.58s-1.58-.71-1.58-1.58.71-1.58,1.58-1.58,1.58.71,1.58,1.58Z"/><path class="cls-14" d="m62.31,144.48c0,.87-.71,1.58-1.58,1.58s-1.58-.71-1.58-1.58.71-1.58,1.58-1.58,1.58.71,1.58,1.58Z"/><path class="cls-14" d="m93,199.94c0,.87-.71,1.58-1.58,1.58s-1.58-.71-1.58-1.58.71-1.58,1.58-1.58,1.58.71,1.58,1.58Z"/><path class="cls-14" d="m76.85,143.75c0,.87-.71,1.58-1.58,1.58s-1.58-.71-1.58-1.58.71-1.58,1.58-1.58,1.58.71,1.58,1.58Z"/><path class="cls-14" d="m99.46,108.16c0,.87-.71,1.58-1.58,1.58s-1.58-.71-1.58-1.58.71-1.58,1.58-1.58,1.58.71,1.58,1.58Z"/><circle class="cls-14" cx="43.25" cy="144.48" r="1.58"/><path class="cls-14" d="m255.66,206.88c0,.87-.71,1.58-1.58,1.58s-1.58-.71-1.58-1.58.71-1.58,1.58-1.58,1.58.71,1.58,1.58Z"/><path class="cls-14" d="m244.63,198.59c0,.87-.71,1.58-1.58,1.58s-1.58-.71-1.58-1.58.71-1.58,1.58-1.58,1.58.71,1.58,1.58Z"/><path class="cls-14" d="m267.5,214.34c0,.87-.71,1.58-1.58,1.58s-1.58-.71-1.58-1.58.71-1.58,1.58-1.58,1.58.71,1.58,1.58Z"/><path class="cls-14" d="m205.21,215.82c0,.87-.71,1.58-1.58,1.58s-1.58-.71-1.58-1.58.71-1.58,1.58-1.58,1.58.71,1.58,1.58Z"/><path class="cls-14" d="m215.21,240.14c0,.87-.71,1.58-1.58,1.58s-1.58-.71-1.58-1.58.71-1.58,1.58-1.58,1.58.71,1.58,1.58Z"/><path class="cls-14" d="m197.68,232.79c0,.87-.71,1.58-1.58,1.58s-1.58-.71-1.58-1.58.71-1.58,1.58-1.58,1.58.71,1.58,1.58Z"/><path class="cls-14" d="m95.31,90.44c0,.87-.71,1.58-1.58,1.58s-1.58-.71-1.58-1.58.71-1.58,1.58-1.58,1.58.71,1.58,1.58Z"/><path class="cls-14" d="m132.7,72.05c0,.87-.71,1.58-1.58,1.58s-1.58-.71-1.58-1.58.71-1.58,1.58-1.58,1.58.71,1.58,1.58Z"/><path class="cls-14" d="m178.98,67.7c0,.87-.71,1.58-1.58,1.58s-1.58-.71-1.58-1.58.71-1.58,1.58-1.58,1.58.71,1.58,1.58Z"/><path class="cls-14" d="m251.79,29.76c0,.87-.71,1.58-1.58,1.58s-1.58-.71-1.58-1.58.71-1.58,1.58-1.58,1.58.71,1.58,1.58Z"/><path class="cls-14" d="m130.2,27.19c0,.87-.71,1.58-1.58,1.58s-1.58-.71-1.58-1.58.71-1.58,1.58-1.58,1.58.71,1.58,1.58Z"/><path class="cls-14" d="m112.12,201.33s-.07-.06-.19-.18c-.13-.14-.3-.32-.52-.56-.47-.51-1.13-1.24-1.97-2.16-.42-.48-.92-.98-1.41-1.58-.49-.6-1.01-1.26-1.58-1.96-.56-.71-1.19-1.44-1.8-2.26-.6-.83-1.23-1.71-1.89-2.64-2.59-3.73-5.47-8.35-7.9-13.87-2.46-5.49-4.43-11.87-5.51-18.74-.32-1.71-.43-3.43-.63-5.11-.05-.84-.1-1.68-.15-2.51-.02-.42-.05-.83-.07-1.24,0-.41-.01-.82-.02-1.23,0-.82-.01-1.63-.02-2.43.03-.8.06-1.6.09-2.39.02-.79.07-1.57.14-2.33.07-.77.13-1.53.19-2.28.66-5.99,1.88-11.29,3.25-15.63,1.35-4.35,2.82-7.73,3.92-10.03.55-1.14,1.01-2.02,1.35-2.6.16-.29.29-.51.38-.66.09-.15.14-.22.15-.21,0,0-.03.08-.11.23-.09.17-.2.39-.35.67-.31.59-.75,1.48-1.28,2.63-1.05,2.31-2.48,5.7-3.79,10.04-1.34,4.33-2.52,9.62-3.16,15.58-.06.75-.12,1.5-.19,2.27-.07.76-.12,1.54-.14,2.32-.03.78-.05,1.58-.08,2.38,0,.8.02,1.61.03,2.42,0,.41.01.82.02,1.23.02.41.05.82.07,1.24.05.83.1,1.66.15,2.5.21,1.67.31,3.38.63,5.08,1.07,6.83,3.02,13.18,5.45,18.65,2.4,5.5,5.25,10.12,7.8,13.86.65.93,1.27,1.81,1.86,2.65.6.82,1.22,1.56,1.77,2.28.56.71,1.08,1.37,1.55,1.97.48.61.97,1.12,1.38,1.6.82.94,1.46,1.68,1.92,2.21.21.24.37.43.49.58.11.13.16.2.16.21Z"/><path class="cls-14" d="m43.2,148.41s-.01-.07-.01-.21c0-.16,0-.37,0-.63.01-.58.03-1.39.05-2.41.01-.53.03-1.11.05-1.75.03-.64.08-1.33.13-2.07.11-1.49.18-3.18.4-5.05.1-.93.2-1.91.31-2.93.11-1.02.29-2.07.44-3.16.28-2.19.73-4.5,1.17-6.95.98-4.86,2.28-10.17,4-15.63,1.75-5.45,3.75-10.54,5.76-15.08,1.05-2.25,2.02-4.4,3.05-6.35.51-.98.97-1.94,1.47-2.83.5-.89.98-1.75,1.44-2.57.89-1.65,1.81-3.08,2.58-4.35.39-.63.75-1.23,1.09-1.77.35-.53.68-1.01.97-1.45.58-.85,1.03-1.52,1.35-2,.15-.21.27-.38.36-.51.08-.11.13-.17.13-.17,0,0-.03.07-.1.19-.09.14-.19.32-.33.54-.31.49-.74,1.17-1.29,2.04-.28.44-.6.93-.94,1.47-.33.55-.68,1.14-1.06,1.78-.75,1.28-1.65,2.72-2.53,4.37-.45.82-.92,1.68-1.41,2.58-.49.9-.94,1.86-1.45,2.84-1.02,1.95-1.98,4.1-3.01,6.35-1.98,4.53-3.97,9.61-5.72,15.05-1.71,5.45-3.02,10.74-4.02,15.58-.45,2.43-.91,4.74-1.2,6.92-.16,1.09-.34,2.14-.46,3.15-.12,1.01-.23,1.99-.33,2.92-.24,1.86-.33,3.55-.46,5.03-.06.74-.11,1.43-.16,2.07-.03.63-.06,1.22-.08,1.74-.05,1.02-.09,1.83-.12,2.41-.02.26-.03.46-.04.63-.01.14-.02.21-.03.21Z"/><path class="cls-14" d="m194.12,57.25s-.2-.04-.56-.15c-.39-.12-.92-.29-1.57-.49-.68-.22-1.51-.49-2.5-.74-.98-.26-2.09-.6-3.34-.87-.62-.14-1.27-.29-1.95-.45-.68-.15-1.4-.27-2.13-.41-1.47-.3-3.06-.51-4.73-.75-3.35-.4-7.06-.66-10.95-.65-3.9.05-7.6.37-10.94.82-1.67.27-3.26.49-4.72.82-.73.15-1.45.28-2.13.44-.68.17-1.32.33-1.95.48-1.25.28-2.35.64-3.32.92-.98.27-1.81.54-2.48.78-.65.21-1.17.38-1.56.51-.36.11-.55.17-.56.15,0-.01.18-.09.53-.23.39-.15.9-.34,1.54-.58.67-.26,1.49-.55,2.47-.84.97-.3,2.07-.67,3.32-.98.62-.16,1.27-.33,1.95-.51.68-.17,1.39-.3,2.13-.47,1.47-.34,3.06-.58,4.73-.86,3.36-.47,7.08-.81,10.99-.85,3.91-.01,7.64.26,11,.68,1.68.25,3.27.47,4.75.78.74.15,1.46.27,2.14.43.68.17,1.33.32,1.95.48,1.25.28,2.35.64,3.33.92.98.27,1.81.56,2.48.8.65.23,1.16.42,1.55.56.35.13.54.21.53.22Z"/><path class="cls-14" d="m222.87,90.81s-.14-.13-.37-.4c-.25-.3-.59-.69-1-1.18-.22-.26-.46-.55-.72-.86-.27-.31-.58-.62-.9-.97-.66-.69-1.37-1.51-2.25-2.32-.43-.42-.88-.85-1.36-1.3-.47-.45-1.01-.88-1.53-1.34-1.04-.95-2.26-1.84-3.51-2.81-2.56-1.86-5.5-3.73-8.76-5.4-3.27-1.63-6.53-2.89-9.54-3.85-1.52-.43-2.96-.88-4.34-1.16-.69-.15-1.35-.33-1.99-.44-.64-.11-1.26-.22-1.85-.32-1.18-.23-2.26-.32-3.2-.44-.47-.05-.91-.11-1.32-.15-.4-.03-.78-.05-1.11-.07-.64-.05-1.15-.08-1.54-.11-.35-.03-.54-.05-.54-.06,0-.01.19-.02.54-.01.39,0,.91.02,1.55.04.34.01.71.02,1.12.04.41.02.85.08,1.33.12.95.1,2.04.17,3.22.38.6.09,1.22.19,1.87.3.65.11,1.31.28,2,.42,1.39.27,2.84.7,4.38,1.13,3.04.95,6.32,2.21,9.61,3.85,3.27,1.68,6.23,3.57,8.8,5.46,1.25.98,2.46,1.89,3.51,2.85.53.47,1.06.91,1.53,1.37.47.46.92.9,1.34,1.33.88.83,1.57,1.67,2.22,2.37.32.36.62.68.88,1,.25.32.48.61.69.88.39.51.71.91.95,1.22.21.28.32.43.31.44Z"/><path class="cls-14" d="m238.64,70.78s-.06-.04-.16-.13c-.11-.11-.26-.24-.43-.41-.4-.39-.94-.93-1.64-1.61-.36-.35-.75-.75-1.18-1.17-.44-.42-.94-.85-1.47-1.33-1.06-.94-2.23-2.06-3.64-3.16-.69-.56-1.42-1.15-2.18-1.76-.76-.61-1.6-1.18-2.44-1.8-1.67-1.28-3.57-2.47-5.54-3.76-4.02-2.47-8.59-4.94-13.59-7.09-5.02-2.1-9.98-3.68-14.55-4.85-2.3-.52-4.48-1.06-6.55-1.37-1.03-.17-2.03-.38-2.99-.5-.97-.12-1.89-.23-2.78-.34-1.77-.26-3.38-.31-4.8-.42-.71-.05-1.37-.11-1.97-.13-.6-.01-1.16-.02-1.66-.03-.98-.02-1.75-.04-2.3-.06-.24,0-.44-.02-.6-.02-.13,0-.2-.01-.2-.02,0,0,.07-.01.2-.02.16,0,.35,0,.6-.01.56,0,1.33,0,2.3-.02.5,0,1.06,0,1.67,0,.61.01,1.27.06,1.98.1,1.42.09,3.04.13,4.81.37.89.1,1.82.21,2.79.32.97.12,1.97.32,3.01.48,2.09.3,4.27.83,6.58,1.34,4.59,1.16,9.57,2.73,14.61,4.84,5.02,2.16,9.61,4.64,13.63,7.14,1.97,1.31,3.88,2.51,5.54,3.8.84.63,1.68,1.21,2.44,1.83.75.62,1.48,1.22,2.17,1.79,1.41,1.11,2.56,2.25,3.61,3.21.52.49,1.01.93,1.45,1.35.42.44.81.84,1.16,1.2.67.71,1.21,1.27,1.59,1.67.17.18.3.32.41.44.09.1.13.15.13.16Z"/><path class="cls-14" d="m289.8,143.58s-.01-.07-.02-.2c0-.15-.01-.34-.02-.58,0-.54-.02-1.28-.04-2.22,0-.48-.01-1.02-.02-1.6-.03-.59-.06-1.22-.09-1.9-.08-1.36-.11-2.92-.29-4.63-.08-.86-.15-1.75-.24-2.69-.09-.93-.23-1.9-.35-2.9-.22-2.01-.61-4.14-.98-6.38-.84-4.47-1.99-9.33-3.54-14.35-1.58-5-3.42-9.66-5.27-13.81-.97-2.05-1.86-4.02-2.83-5.8-.47-.89-.9-1.77-1.36-2.59-.46-.81-.91-1.6-1.34-2.34-.83-1.51-1.69-2.81-2.4-3.97-.36-.58-.7-1.12-1.01-1.61-.33-.48-.63-.93-.9-1.33-.52-.78-.93-1.4-1.23-1.84-.13-.2-.23-.36-.31-.49-.07-.11-.1-.17-.1-.17,0,0,2.65,3.35,6.18,9.27.43.75.89,1.53,1.36,2.34.47.81.91,1.69,1.39,2.58.98,1.78,1.89,3.74,2.87,5.8,1.87,4.16,3.72,8.82,5.31,13.84,1.55,5.03,2.69,9.92,3.52,14.4.36,2.25.74,4.38.95,6.4.11,1.01.26,1.98.33,2.91.07.94.14,1.84.21,2.7.47,6.88.2,11.15.2,11.15Z"/><path class="cls-14" d="m273.56,124.48s.03.12.06.35c.03.25.08.6.13,1.05.09.92.32,2.28.43,4.03.33,3.51.54,8.62.31,14.91-.11,3.15-.4,6.59-.8,10.28-.49,3.67-1.04,7.6-1.96,11.67-.21,1.02-.43,2.05-.7,3.09-.26,1.04-.52,2.08-.79,3.14-.61,2.1-1.2,4.25-1.96,6.39-1.46,4.29-3.19,8.68-5.43,12.94-2.22,4.27-4.74,8.26-7.37,11.96-2.63,3.7-5.46,7.05-8.24,10.16-5.64,6.15-11.29,11.13-16.33,14.92-5.04,3.79-9.36,6.52-12.45,8.22-1.51.91-2.76,1.48-3.57,1.92-.4.21-.71.36-.94.48-.21.11-.33.15-.33.15,0,0,.1-.07.31-.19.22-.12.53-.29.92-.51.8-.47,2.03-1.06,3.53-1.99,3.06-1.74,7.35-4.5,12.36-8.31,5.01-3.81,10.63-8.79,16.24-14.94,2.77-3.1,5.58-6.45,8.2-10.14,2.62-3.69,5.12-7.66,7.33-11.91,2.23-4.24,3.95-8.61,5.42-12.89.76-2.13,1.35-4.27,1.96-6.36.27-1.05.53-2.1.79-3.13.27-1.03.5-2.06.71-3.07.92-4.06,1.48-7.97,1.99-11.63.42-3.67.72-7.11.84-10.25.27-6.28.1-11.38-.19-14.89-.09-1.76-.29-3.11-.36-4.04-.04-.45-.07-.8-.1-1.05-.02-.24-.02-.36-.02-.36Z"/><path class="cls-14" d="m240.04,92.72s.07.07.2.22c.14.16.32.39.56.67.47.6,1.23,1.44,2.09,2.61,1.78,2.3,4.18,5.77,6.7,10.32,1.28,2.27,2.51,4.84,3.74,7.64,1.16,2.83,2.37,5.88,3.32,9.19.99,3.3,1.86,6.81,2.46,10.51.61,3.69,1.06,7.56,1.15,11.53.11,3.97-.05,7.86-.42,11.58-.41,3.73-1.05,7.29-1.83,10.64-1.64,6.69-3.9,12.5-6.25,17.15-2.33,4.65-4.61,8.21-6.29,10.58-.81,1.21-1.53,2.08-1.98,2.7-.22.29-.4.52-.53.69-.12.15-.19.23-.19.23,0,0,.05-.09.16-.25.12-.18.29-.41.5-.71.43-.63,1.13-1.52,1.92-2.73,1.64-2.39,3.88-5.96,6.17-10.62,2.31-4.64,4.54-10.44,6.15-17.11.77-3.34,1.4-6.89,1.8-10.6.37-3.71.52-7.58.41-11.53-.09-3.96-.54-7.8-1.14-11.48-.59-3.68-1.45-7.18-2.43-10.47-.94-3.3-2.13-6.34-3.27-9.16-1.22-2.79-2.43-5.37-3.69-7.64-2.48-4.56-4.85-8.04-6.59-10.36-.84-1.19-1.58-2.04-2.03-2.65-.22-.29-.4-.52-.53-.69-.12-.16-.18-.24-.17-.24Z"/><path class="cls-14" d="m208.71,264.45s-.13.04-.39.1c-.28.06-.67.14-1.17.25-1.03.21-2.54.53-4.51.86-3.92.69-9.63,1.54-16.74,2.04-7.1.52-15.61.66-25.01-.05-4.7-.35-9.62-.9-14.68-1.74-5.06-.84-10.27-1.89-15.51-3.33-5.24-1.45-10.28-3.19-14.94-5.35-4.68-2.11-9-4.55-12.96-7.11-3.96-2.56-7.53-5.28-10.77-7.94-3.25-2.65-6.12-5.3-8.69-7.77-5.12-4.96-8.96-9.26-11.57-12.27-1.31-1.5-2.3-2.69-2.96-3.5-.33-.4-.58-.7-.76-.92-.17-.21-.25-.32-.25-.32,0,0,.1.1.28.3.19.21.45.51.79.9.69.79,1.69,1.97,3.02,3.45,2.64,2.97,6.52,7.24,11.65,12.17,2.57,2.45,5.45,5.08,8.7,7.72,3.24,2.64,6.81,5.34,10.76,7.89,3.95,2.54,8.26,4.96,12.92,7.06,4.64,2.14,9.66,3.87,14.89,5.32,5.23,1.44,10.43,2.49,15.47,3.33,5.05.84,9.96,1.4,14.64,1.76,9.38.73,17.87.61,24.96.13,7.1-.47,12.81-1.28,16.73-1.92,1.97-.3,3.48-.6,4.52-.79.5-.09.9-.16,1.17-.21.27-.04.4-.06.4-.06Z"/><path class="cls-14" d="m167.95,252.01s-3.85.3-10.07-.12c-.78-.06-1.59-.12-2.44-.19-.85-.07-1.72-.2-2.63-.31-1.82-.19-3.75-.55-5.78-.9-4.04-.79-8.44-1.89-12.95-3.39-4.5-1.54-8.67-3.34-12.36-5.16-1.82-.96-3.57-1.84-5.14-2.79-.79-.47-1.56-.89-2.28-1.35-.71-.46-1.4-.9-2.05-1.32-5.2-3.43-8.08-6.01-8.08-6.01,0,0,.06.03.15.09.11.08.25.18.42.3.39.29.93.69,1.6,1.2.35.26.73.55,1.15.87.43.31.91.63,1.41.98,1.02.69,2.15,1.53,3.48,2.33.66.41,1.34.85,2.06,1.3.72.45,1.5.87,2.28,1.32,1.57.94,3.31,1.81,5.14,2.75,3.69,1.8,7.84,3.58,12.32,5.11,4.49,1.5,8.87,2.6,12.9,3.41,2.02.35,3.94.72,5.75.93.91.11,1.78.25,2.62.33.84.07,1.65.15,2.43.22,1.54.17,2.95.19,4.18.26.62.03,1.19.06,1.72.08.53,0,1.01,0,1.45,0,.84,0,1.51.02,2,.02.21,0,.38.01.52.02.12,0,.18.01.18.02Z"/><path class="cls-14" d="m142.85,232.48s-.22-.02-.64-.09c-.45-.08-1.06-.19-1.83-.33-.4-.07-.84-.16-1.32-.25-.48-.1-1-.24-1.55-.37-1.11-.28-2.39-.55-3.76-1-.69-.21-1.41-.43-2.17-.66-.75-.23-1.51-.54-2.31-.82-1.61-.55-3.27-1.28-5.03-2.03-3.47-1.59-7.19-3.56-10.89-5.96-3.68-2.44-6.96-5.07-9.8-7.63-1.38-1.32-2.72-2.55-3.86-3.81-.58-.62-1.16-1.2-1.67-1.8-.51-.6-1-1.18-1.47-1.73-.96-1.08-1.71-2.15-2.41-3.06-.34-.46-.67-.88-.96-1.28-.27-.4-.52-.78-.75-1.11-.43-.65-.77-1.17-1.03-1.55-.23-.36-.35-.55-.34-.55.01,0,.15.17.4.51.27.37.63.87,1.08,1.51.23.33.49.7.77,1.09.29.39.63.8.98,1.26.71.89,1.48,1.94,2.45,3.01.47.54.97,1.11,1.48,1.7.52.59,1.1,1.16,1.68,1.78,1.14,1.25,2.48,2.46,3.87,3.77,2.84,2.53,6.11,5.14,9.77,7.57,3.68,2.39,7.37,4.36,10.82,5.96,1.75.75,3.39,1.5,4.99,2.05.79.29,1.55.6,2.3.84.75.24,1.47.47,2.15.68,1.36.47,2.63.75,3.74,1.05.55.14,1.07.29,1.54.4.48.1.91.19,1.31.28.76.17,1.37.3,1.81.4.41.09.63.15.63.16Z"/><path class="cls-14" d="m171.23,285.53s-.08.02-.24.04c-.18.02-.41.04-.7.07-.64.05-1.54.12-2.69.21-.59.04-1.24.09-1.95.15-.71.04-1.49.04-2.32.06-1.67.02-3.57.13-5.66.02-1.05-.03-2.15-.06-3.29-.1-1.14-.04-2.33-.17-3.56-.26-2.47-.14-5.08-.52-7.83-.87-5.49-.85-11.47-2.11-17.61-3.95-6.13-1.9-11.8-4.19-16.82-6.54-2.48-1.24-4.86-2.39-6.99-3.64-1.07-.61-2.13-1.17-3.1-1.77-.97-.61-1.9-1.2-2.79-1.76-1.8-1.08-3.32-2.23-4.69-3.18-.68-.48-1.32-.92-1.89-1.35-.56-.44-1.07-.84-1.54-1.21-.9-.72-1.61-1.28-2.12-1.68-.23-.18-.41-.33-.54-.44-.12-.1-.18-.16-.18-.16,0,0,.07.04.2.13.14.11.33.24.57.41.51.39,1.24.93,2.16,1.62.47.36.99.75,1.55,1.18.58.42,1.22.84,1.91,1.32,1.38.93,2.91,2.06,4.71,3.12.89.55,1.82,1.13,2.79,1.73.97.6,2.03,1.14,3.1,1.75,2.13,1.24,4.51,2.37,6.98,3.6,5.02,2.33,10.68,4.61,16.78,6.5,6.12,1.84,12.08,3.1,17.55,3.96,2.74.36,5.35.75,7.81.9,1.23.09,2.41.23,3.55.28,1.14.04,2.24.08,3.28.12,2.09.12,3.99.04,5.65.03.83-.01,1.61,0,2.32-.03.71-.04,1.36-.08,1.95-.11,1.15-.06,2.05-.11,2.7-.14.29-.01.52-.02.7-.03.16,0,.24,0,.24,0Z"/><path class="cls-14" d="m65.48,112.44c-.04.1-7.04-2.5-15.64-5.8-8.6-3.3-15.54-6.06-15.5-6.15.04-.1,7.04,2.5,15.64,5.8,8.6,3.3,15.54,6.05,15.5,6.15Z"/><path class="cls-14" d="m94.22,89.72s-.05.07-.15.19c-.12.13-.27.3-.46.52-.4.46-1.05,1.09-1.77,1.99-1.53,1.74-3.57,4.41-5.71,7.95-2.11,3.56-4.28,8.01-6.01,13.2-1.75,5.18-3.09,11.08-3.83,17.35-.55,4.73-.76,9.34-.55,13.55v.2s-.18,0-.18,0c-9.34-.03-17.38-.05-23.12-.07-2.84-.02-5.1-.04-6.69-.05-.76-.01-1.36-.02-1.79-.03-.19,0-.34-.01-.46-.02-.1,0-.16-.01-.16-.02s.05-.01.16-.02c.12,0,.27,0,.46-.02.43,0,1.03-.02,1.79-.03,1.58-.01,3.85-.03,6.69-.05,5.74-.02,13.79-.04,23.12-.07l-.18.2c-.22-4.25-.01-8.87.54-13.62.75-6.3,2.11-12.21,3.88-17.41,1.76-5.21,3.96-9.67,6.11-13.23,2.18-3.54,4.27-6.2,5.83-7.91.74-.89,1.42-1.5,1.83-1.95.2-.2.37-.37.49-.49.11-.11.17-.16.18-.16Z"/><line class="cls-13" x1="62.62" y1="161.06" x2="91.07" y2="156.62"/><path class="cls-14" d="m111.08,202.39s-.2.29-.61.78c-.41.49-1.02,1.18-1.78,2.02-1.53,1.68-3.7,3.95-6.2,6.35-2.5,2.4-4.86,4.48-6.6,5.93-.87.73-1.59,1.31-2.09,1.7-.5.39-.79.59-.8.57-.02-.02.24-.26.71-.69.53-.47,1.2-1.07,2.01-1.79,1.7-1.51,4.02-3.61,6.52-6.01,2.5-2.4,4.69-4.63,6.27-6.26.75-.77,1.37-1.42,1.87-1.93.44-.45.7-.7.72-.68Z"/><path class="cls-14" d="m104.73,228.77c.09.06-4.17,7.05-9.51,15.62-5.34,8.57-9.75,15.48-9.84,15.42-.09-.06,4.17-7.05,9.51-15.62,5.34-8.57,9.75-15.48,9.84-15.42Z"/><path class="cls-14" d="m140.33,233.87s-.11.41-.37,1.11c-.29.77-.67,1.77-1.13,2.98-.96,2.52-2.26,6-3.64,9.87-1.37,3.87-2.55,7.4-3.4,9.96-.41,1.23-.74,2.25-1,3.03-.24.71-.39,1.1-.41,1.1-.03,0,.07-.41.27-1.14.2-.73.5-1.78.89-3.07.78-2.58,1.92-6.13,3.29-10,1.38-3.88,2.72-7.35,3.75-9.84.51-1.25.94-2.25,1.24-2.94.31-.69.49-1.07.51-1.05Z"/><path class="cls-14" d="m205.47,265.09s-.06-.11-.13-.32c-.09-.26-.19-.57-.31-.94-.27-.88-.63-2.05-1.07-3.47-.89-2.93-2.09-6.99-3.4-11.48-1.31-4.49-2.47-8.56-3.29-11.51-.39-1.43-.71-2.61-.96-3.5-.1-.38-.17-.69-.24-.96-.05-.22-.07-.34-.06-.34.01,0,.06.11.13.32.09.26.19.57.31.94.27.88.63,2.05,1.07,3.47.89,2.93,2.09,6.99,3.4,11.48,1.31,4.49,2.47,8.56,3.29,11.51.39,1.43.71,2.61.96,3.5.1.38.18.69.24.96.05.22.07.34.06.34Z"/><path class="cls-14" d="m212.98,239.42c-.1.04-2.27-5.43-4.86-12.21-2.58-6.78-4.6-12.31-4.5-12.35.1-.04,2.27,5.43,4.86,12.21,2.58,6.78,4.6,12.31,4.5,12.35Z"/><path class="cls-14" d="m265.97,214.04s-.37-.13-1.02-.44c-.65-.3-1.57-.77-2.71-1.36-2.27-1.19-5.35-2.93-8.61-5.09-3.26-2.16-6.07-4.31-8.05-5.93-.99-.81-1.78-1.48-2.31-1.96-.53-.48-.82-.75-.81-.77.02-.02.34.21.9.65.62.48,1.42,1.11,2.39,1.86,2.02,1.56,4.85,3.67,8.09,5.82,3.25,2.15,6.3,3.92,8.52,5.17,1.07.59,1.96,1.09,2.65,1.47.62.35.97.55.95.57Z"/><path class="cls-14" d="m300.23,185.82c-.03.1-7.62-1.69-16.96-4-9.34-2.31-16.9-4.27-16.87-4.37s7.62,1.69,16.96,4c9.34,2.31,16.89,4.27,16.87,4.37Z"/><path class="cls-14" d="m291.43,144.01c0,.11-6.63.27-14.82.37-8.19.1-14.82.09-14.82-.02s6.63-.27,14.82-.37c8.18-.1,14.82-.09,14.82.02Z"/><path class="cls-14" d="m273.03,124.4c0,.11-14.4.44-32.16.75-17.77.31-32.16.48-32.17.37s14.39-.44,32.16-.75c17.76-.31,32.16-.48,32.16-.37Z"/><path class="cls-14" d="m299.22,98.72s-.11.06-.32.15c-.26.09-.56.21-.93.34-.87.31-2.03.72-3.44,1.22-2.9,1.03-6.9,2.47-11.29,4.15-4.39,1.68-8.33,3.28-11.18,4.45-1.38.57-2.52,1.04-3.37,1.39-.37.14-.67.27-.92.37-.21.08-.33.12-.33.1,0-.01.1-.07.3-.17.24-.12.54-.26.89-.43.78-.37,1.92-.88,3.33-1.5,2.82-1.24,6.75-2.88,11.15-4.56,4.39-1.68,8.41-3.09,11.34-4.05,1.46-.48,2.65-.86,3.48-1.11.38-.11.69-.2.95-.28.22-.06.34-.08.34-.07Z"/><path class="cls-14" d="m242.76,70.69c.07.08-4.2,3.96-9.54,8.66-5.34,4.7-9.73,8.45-9.8,8.37-.07-.08,4.2-3.96,9.54-8.66,5.34-4.7,9.73-8.45,9.8-8.37Z"/><path class="cls-14" d="m249.53,30.12c.09.06-4.23,6.27-9.64,13.87-5.41,7.6-9.87,13.71-9.95,13.64-.09-.06,4.23-6.27,9.64-13.87,5.41-7.6,9.87-13.7,9.95-13.64Z"/><path class="cls-14" d="m167.4,39.18s-.02-.13-.01-.36c.01-.28.02-.62.04-1.04.04-.96.1-2.24.17-3.8.13-3.21.22-7.65.12-12.55-.11-4.9-.39-9.33-.66-12.54-.13-1.56-.25-2.84-.33-3.79-.03-.41-.06-.75-.08-1.03-.01-.24-.02-.36,0-.36.01,0,.04.12.08.35.04.28.09.62.15,1.02.13.89.28,2.18.45,3.78.33,3.2.66,7.64.77,12.55.1,4.91-.04,9.36-.23,12.57-.1,1.61-.2,2.9-.29,3.8-.04.41-.08.75-.11,1.03-.03.24-.05.36-.06.36Z"/><path class="cls-14" d="m130.91,71.95s-.23-.26-.59-.78c-.36-.52-.87-1.27-1.47-2.22-1.22-1.89-2.83-4.55-4.49-7.56-1.65-3.01-3.04-5.8-3.98-7.84-.47-1.02-.84-1.85-1.09-2.43-.24-.58-.37-.91-.34-.92.02-.01.19.29.48.85.32.63.72,1.43,1.19,2.38,1.01,2.01,2.42,4.77,4.08,7.77,1.65,3,3.23,5.67,4.38,7.6.55.91,1.01,1.68,1.37,2.28.32.54.49.85.47.86Z"/><g><path class="cls-14" d="m219.08,115.83s-.01-.09-.02-.25c0-.18,0-.41-.02-.7,0-.64-.02-1.53-.04-2.66-.02-2.32-.04-5.61-.08-9.66l.14.14c-6.66.01-15.46.03-25.1.05-.17.17.23-.23.19-.19h0v.87s0,.87,0,.87c0,.58,0,1.16,0,1.73,0,1.14,0,2.27,0,3.38,0,2.22,0,4.37,0,6.42l-.18-.18c7.3.04,13.54.07,18,.09,2.21.02,3.97.04,5.21.05.59,0,1.05.02,1.4.02.32,0,.49.01.5.02s-.15.01-.46.02c-.34,0-.79.01-1.36.02-1.23.01-2.98.03-5.17.05-4.48.02-10.77.05-18.12.09h-.18s0-.18,0-.18c0-2.05,0-4.2,0-6.42,0-1.11,0-2.24,0-3.38,0-.57,0-1.15,0-1.73v-.87s0-.44,0-.44v-.41h0v-.02h0s.36-.37.19-.2c9.64.02,18.44.03,25.1.05h.15s0,.14,0,.14c-.03,4.08-.06,7.41-.08,9.75-.02,1.12-.03,2-.04,2.63,0,.28-.01.5-.02.68,0,.15-.01.23-.02.22Z"/><path class="cls-14" d="m214.66,107.19c0,.11-3.9.19-8.71.19s-8.71-.09-8.71-.19,3.9-.19,8.71-.19,8.71.09,8.71.19Z"/><path class="cls-14" d="m214.66,110.05c0,.11-3.9.19-8.71.19s-8.71-.09-8.71-.19,3.9-.19,8.71-.19,8.71.09,8.71.19Z"/><path class="cls-14" d="m208.71,115.54c.11,0,.19,1.6.19,3.58s-.09,3.58-.19,3.58-.19-1.6-.19-3.58.09-3.58.19-3.58Z"/></g><g><path class="cls-14" d="m310.72,173.97s-.01-.09-.02-.25c0-.18,0-.41-.02-.7,0-.64-.02-1.53-.04-2.66-.02-2.32-.04-5.61-.08-9.66l.14.14c-6.66.01-15.46.03-25.1.05-.17.17.23-.23.19-.19h0v1.75c0,.58,0,1.16,0,1.73,0,1.14,0,2.27,0,3.38,0,2.22,0,4.37,0,6.42l-.18-.18c7.3.04,13.54.07,18,.09,2.21.02,3.97.04,5.21.05.59,0,1.05.02,1.4.02.32,0,.49.01.5.02s-.15.01-.46.02c-.34,0-.79.01-1.36.02-1.23.01-2.98.03-5.17.05-4.48.02-10.77.05-18.12.09h-.18s0-.18,0-.18c0-2.05,0-4.2,0-6.42,0-1.11,0-2.24,0-3.38,0-.57,0-1.15,0-1.73v-.87s0-.44,0-.44v-.41h0v-.02h0s.36-.37.19-.2c9.64.02,18.44.03,25.1.05h.15s0,.14,0,.14c-.03,4.08-.06,7.41-.08,9.75-.02,1.12-.03,2-.04,2.63,0,.28-.01.5-.02.68,0,.15-.01.23-.02.22Z"/><path class="cls-14" d="m306.3,165.33c0,.11-3.9.19-8.71.19s-8.71-.09-8.71-.19,3.9-.19,8.71-.19,8.71.09,8.71.19Z"/><path class="cls-14" d="m306.3,168.19c0,.11-3.9.19-8.71.19s-8.71-.09-8.71-.19,3.9-.19,8.71-.19,8.71.09,8.71.19Z"/></g><g><g><rect class="cls-1" x="291.25" y="48.94" width="25.1" height="13.28"/><path class="cls-14" d="m316.35,62.22s-.01-.09-.02-.25c0-.18,0-.41-.02-.7,0-.64-.02-1.53-.04-2.66-.02-2.32-.04-5.61-.08-9.66l.14.14c-6.66.01-15.46.03-25.1.05-.17.17.23-.23.19-.19h0v1.75c0,.58,0,1.16,0,1.73,0,1.14,0,2.27,0,3.38,0,2.22,0,4.37,0,6.42l-.18-.18c7.3.04,13.54.07,18,.09,2.21.02,3.97.04,5.21.05.59,0,1.05.02,1.4.02.32,0,.49.01.5.02,0,0-.15.01-.46.02-.34,0-.79.01-1.36.02-1.23.01-2.98.03-5.17.05-4.48.02-10.77.05-18.12.09h-.18s0-.18,0-.18c0-2.05,0-4.2,0-6.42,0-1.11,0-2.24,0-3.38,0-.57,0-1.15,0-1.73v-.87s0-.44,0-.44v-.41h0v-.02h0s.36-.37.19-.2c9.64.02,18.44.03,25.1.05h.15s0,.14,0,.14c-.03,4.08-.06,7.41-.08,9.75-.02,1.12-.03,2-.04,2.63,0,.28-.01.5-.02.68,0,.15-.01.23-.02.22Z"/></g><path class="cls-14" d="m311.93,53.58c0,.11-3.9.19-8.71.19s-8.71-.09-8.71-.19,3.9-.19,8.71-.19,8.71.09,8.71.19Z"/><path class="cls-14" d="m311.93,56.44c0,.11-3.9.19-8.71.19s-8.71-.09-8.71-.19,3.9-.19,8.71-.19,8.71.09,8.71.19Z"/><path class="cls-14" d="m299.1,62.16c.11,0,.19,7.84.19,17.51s-.09,17.51-.19,17.51-.19-7.84-.19-17.51.09-17.51.19-17.51Z"/></g><g><path class="cls-14" d="m25.3,96.57s-.01-.09-.02-.25c0-.18,0-.41-.02-.7,0-.64-.02-1.53-.04-2.66-.02-2.32-.04-5.61-.08-9.66l.14.14c-6.66.01-15.46.03-25.1.05-.17.17.23-.23.19-.19H.39v.44s0,.44,0,.44v.87c0,.58,0,1.16,0,1.73,0,1.14,0,2.27,0,3.38,0,2.22,0,4.37,0,6.42l-.18-.18c7.3.04,13.54.07,18,.09,2.21.02,3.97.04,5.21.05.59,0,1.05.02,1.4.02.32,0,.49.01.5.02,0,0-.15.01-.46.02-.34,0-.79.01-1.36.02-1.23.01-2.98.03-5.17.05-4.48.02-10.77.05-18.12.09H.02s0-.18,0-.18c0-2.05,0-4.2,0-6.42,0-1.11,0-2.24,0-3.38,0-.57,0-1.15,0-1.73v-.87s0-.44,0-.44v-.41H0v-.02H0s.36-.37.19-.2c9.64.02,18.44.03,25.1.05h.15s0,.14,0,.14c-.03,4.08-.06,7.41-.08,9.75-.02,1.12-.03,2-.04,2.63,0,.28-.01.5-.02.68,0,.15-.01.23-.02.22Z"/><path class="cls-14" d="m20.88,87.93c0,.11-3.9.19-8.71.19s-8.71-.09-8.71-.19,3.9-.19,8.71-.19,8.71.09,8.71.19Z"/><path class="cls-14" d="m20.88,90.79c0,.11-3.9.19-8.71.19s-8.71-.09-8.71-.19,3.9-.19,8.71-.19,8.71.09,8.71.19Z"/></g><g><g><rect class="cls-1" x="45.34" y="236.96" width="25.1" height="13.28"/><path class="cls-14" d="m70.44,250.24s-.01-.09-.02-.25c0-.18,0-.41-.02-.7,0-.64-.02-1.53-.04-2.66-.02-2.32-.04-5.61-.08-9.66l.14.14c-6.66.01-15.46.03-25.1.05-.17.17.23-.23.19-.19h0v.44s0,.44,0,.44v.87c0,.58,0,1.16,0,1.73,0,1.14,0,2.27,0,3.38,0,2.22,0,4.37,0,6.42l-.18-.18c7.3.04,13.54.07,18,.09,2.21.02,3.97.04,5.21.05.59,0,1.05.02,1.4.02.32,0,.49.01.5.02s-.15.01-.46.02c-.34,0-.79.01-1.36.02-1.23.01-2.98.03-5.17.05-4.48.02-10.77.05-18.12.09h-.18s0-.18,0-.18c0-2.05,0-4.2,0-6.42,0-1.11,0-2.24,0-3.38,0-.57,0-1.15,0-1.73v-.87s0-.44,0-.44v-.41h0v-.02h0s.36-.37.19-.2c9.64.02,18.44.03,25.1.05h.15s0,.14,0,.14c-.03,4.08-.06,7.41-.08,9.75-.02,1.12-.03,2-.04,2.63,0,.28-.01.5-.02.68,0,.15-.01.23-.02.22Z"/></g><path class="cls-14" d="m66.03,241.59c0,.11-3.9.19-8.71.19s-8.71-.09-8.71-.19,3.9-.19,8.71-.19,8.71.09,8.71.19Z"/><path class="cls-14" d="m66.03,244.45c0,.11-3.9.19-8.71.19s-8.71-.09-8.71-.19,3.9-.19,8.71-.19,8.71.09,8.71.19Z"/></g><g><path class="cls-14" d="m220.53,14.92s-.01-.09-.02-.25c0-.18,0-.41-.02-.7,0-.64-.02-1.53-.04-2.66-.02-2.32-.04-5.61-.08-9.66l.14.14c-6.66.01-15.46.03-25.1.05-.17.17.23-.23.19-.19h0v1.75c0,.58,0,1.16,0,1.73,0,1.14,0,2.27,0,3.38,0,2.22,0,4.37,0,6.42l-.18-.18c7.3.04,13.54.07,18,.09,2.21.02,3.97.04,5.21.05.59,0,1.05.02,1.4.02.32,0,.49.01.5.02,0,0-.15.01-.46.02-.34,0-.79.01-1.36.02-1.23.01-2.98.03-5.17.05-4.48.02-10.77.05-18.12.09h-.18s0-.18,0-.18c0-2.05,0-4.2,0-6.42,0-1.11,0-2.24,0-3.38,0-.57,0-1.15,0-1.73v-.87s0-.44,0-.44v-.22s0-.11,0-.11v-.08h0v-.02h0s.36-.37.19-.2c9.64.02,18.44.03,25.1.05h.15s0,.14,0,.14c-.03,4.08-.06,7.41-.08,9.75-.02,1.12-.03,2-.04,2.63,0,.28-.01.5-.02.68,0,.15-.01.23-.02.22Z"/><path class="cls-14" d="m216.12,6.28c0,.11-3.9.19-8.71.19s-8.71-.09-8.71-.19,3.9-.19,8.71-.19,8.71.09,8.71.19Z"/><path class="cls-14" d="m216.12,9.14c0,.11-3.9.19-8.71.19s-8.71-.09-8.71-.19,3.9-.19,8.71-.19,8.71.09,8.71.19Z"/></g><path class="cls-14" d="m31.17,99.54s-.31.05-.86.07c-.64.02-1.42.04-2.35.06-1.99.03-4.73.06-7.76.06s-6.03-.02-8.01-.06h-.13s0-.13,0-.13c.02-.86.04-1.59.06-2.18.02-.51.05-.79.07-.79s.05.28.07.79c.02.59.04,1.31.06,2.18l-.13-.13c1.98-.04,4.84-.06,8.01-.06s5.78.02,7.76.06c.93.02,1.72.04,2.35.06.56.02.86.05.86.07Z"/><path class="cls-14" d="m197.3,55.79s.02-.15.1-.42c.09-.31.21-.69.36-1.17.32-1.06.77-2.51,1.31-4.29,1.09-3.62,2.49-8.66,3.77-14.29.62-2.71,1.16-5.31,1.61-7.69v.04c-.08-3.8-.14-7.05-.18-9.41,0-1.12-.02-2.02-.02-2.69,0-.63.01-.96.03-.96.02,0,.05.34.08.96.03.68.07,1.58.12,2.69.08,2.36.19,5.61.32,9.4v.02s0,.02,0,.02c-.44,2.38-.97,4.99-1.59,7.71-1.29,5.64-2.73,10.67-3.89,14.28-.57,1.81-1.07,3.26-1.43,4.25-.17.46-.31.84-.42,1.14-.1.26-.16.39-.17.39Z"/><path class="cls-14" d="m93,244.45c0,.11-4.76.19-10.63.19s-10.63-.09-10.63-.19,4.76-.19,10.63-.19,10.63.09,10.63.19Z"/></g></g><g><path class="cls-14" d="m307.28,274.67c.63-2.2,1.99-4.32,4.09-5.22,2.18-.94,4.71-.41,6.95.41,2.23.81,4.43,1.9,6.8,2.04,2.37.15,5.05-.98,5.76-3.25.67-2.13-.62-4.41-2.23-5.96-3.38-3.26-8.47-4.64-13.03-3.54-4.57,1.1-8.47,4.63-10,9.07"/><g><g class="cls-4"><path d="m307.28,274.67c.63-2.2,1.99-4.32,4.09-5.22,2.18-.94,4.71-.41,6.95.41,2.23.81,4.43,1.9,6.8,2.04,2.37.15,5.05-.98,5.76-3.25.67-2.13-.62-4.41-2.23-5.96-3.38-3.26-8.47-4.64-13.03-3.54-4.57,1.1-8.47,4.63-10,9.07"/></g><path class="cls-14" d="m288.48,284.21c-3.48-3.31-3.31-9.06-1.57-13.54,1.74-4.48,5.53-7.91,9.76-10.18,8.21-4.39,18.47-4.72,26.94-.87-4.16.14-8.19,2.5-10.34,6.07-1.91,3.17-2.33,7.01-3.91,10.36-1.76,3.73-4.98,6.74-8.82,8.24-3.84,1.5-8.25,1.47-12.07-.08"/><path class="cls-14" d="m286.8,264.34c-3.85-4.55-4.37-11.85-3.8-17.79s1.94-11.91,1.01-17.8c-.55-3.49-1.91-6.82-2.37-10.32s.19-7.46,2.9-9.72c3.12-2.6,8.03-1.99,11.28.45,3.25,2.44,5.13,6.27,6.5,10.09,3.02,8.39,4.13,17.7,1.65,26.27-2.48,8.57-8.3,16.23-16.84,18.82"/><path class="cls-16" d="m284.95,301.66s-.02-.18-.01-.52c0-.34,0-.85.03-1.5.05-1.3.17-3.19.47-5.51.29-2.32.75-5.06,1.48-8.07.72-3.01,1.95-6.22,3.68-9.34,1.74-3.12,3.87-5.82,6.02-8.04,2.16-2.22,4.36-3.95,6.31-5.25.96-.67,1.89-1.17,2.7-1.64.82-.43,1.54-.79,2.13-1.07.58-.24,1.04-.44,1.39-.58.32-.13.49-.19.49-.18,0,.01-.16.09-.47.24-.34.16-.79.37-1.36.64-.58.3-1.28.67-2.09,1.11-.79.48-1.71,1-2.66,1.67-1.92,1.31-4.09,3.04-6.22,5.26-2.12,2.22-4.22,4.9-5.95,8-3.54,6.2-4.51,12.72-5.22,17.29-.32,2.31-.48,4.19-.57,5.49-.04.63-.07,1.13-.09,1.5-.02.34-.04.52-.05.52Z"/><g><path class="cls-14" d="m251.71,246.39c-7.13,4.3-7.11,8.22-5.92,11.92,1.19,3.7,5.57,6.26,9.2,4.88,2.05-.78,3.54-2.57,4.81-4.36,1.27-1.79,2.46-3.71,4.24-5,1.78-1.29,4.36-1.78,6.14-.5"/><g class="cls-4"><path d="m251.71,246.39c-7.13,4.3-7.11,8.22-5.92,11.92,1.19,3.7,5.57,6.26,9.2,4.88,2.05-.78,3.54-2.57,4.81-4.36,1.27-1.79,2.46-3.71,4.24-5,1.78-1.29,4.36-1.78,6.14-.5"/></g><path class="cls-14" d="m246.37,251.11c1.86-2.58,6.47-3.32,9.38-2.04,2.91,1.29,5.04,3.84,6.95,6.38,1.91,2.54,3.76,5.23,6.4,7,2.64,1.77,6.33,2.41,8.96.63,1.73-1.17,2.73-3.21,3.05-5.27.31-2.07.01-4.17-.42-6.22-.63-2.99-1.66-6.11-4.05-8.01-2.67-2.12-6.37-2.22-9.77-2.11-3.91.13-7.87.42-11.54,1.77-3.67,1.35-7.41,4.28-8.96,7.86"/><path class="cls-16" d="m279.03,295.95s-.01-.05-.02-.16c0-.12-.01-.27-.02-.46-.01-.43-.04-1.02-.06-1.77-.04-1.56-.11-3.78-.19-6.51-.09-2.75-.2-6.02-.4-9.65-.2-3.63-.47-7.62-1.02-11.77-.28-2.07-.61-4.1-1.18-5.98-.58-1.88-1.35-3.63-2.19-5.23-.85-1.6-1.77-3.05-2.76-4.33-.99-1.27-2.01-2.37-3.01-3.31-2.02-1.85-3.96-2.98-5.34-3.64-.35-.16-.65-.32-.93-.43-.27-.1-.5-.19-.7-.27-.17-.07-.31-.13-.43-.17-.1-.04-.14-.06-.14-.07,0,0,.05,0,.15.04.12.04.26.08.44.14.2.07.44.15.71.24.28.1.59.25.94.4,1.4.63,3.37,1.74,5.44,3.58,1.02.93,2.06,2.03,3.07,3.31,1,1.28,1.95,2.74,2.81,4.35.85,1.61,1.63,3.37,2.22,5.27.59,1.91.92,3.94,1.2,6.03.55,4.17.81,8.16,1,11.79.18,3.63.27,6.91.33,9.66.06,2.75.08,4.98.09,6.51,0,.75,0,1.34,0,1.77,0,.19,0,.34,0,.46,0,.1,0,.16-.01.16Z"/></g><path class="cls-16" d="m281.59,299.18s-.4-1.06-.78-3.06c-.37-2-.65-4.97-.33-8.6.3-3.64,1.24-7.9,2.72-12.48,1.46-4.59,3.45-9.49,5.15-14.77.84-2.64,1.56-5.25,2.05-7.81.5-2.56.81-5.06,1.01-7.46.4-4.78.34-9.12.23-12.75-.12-3.63-.32-6.57-.44-8.6-.06-1-.11-1.78-.14-2.34-.01-.25-.02-.45-.03-.61,0-.14,0-.21,0-.21,0,0,.02.07.03.21.02.15.04.35.06.61.05.55.11,1.34.2,2.33.16,2.03.39,4.96.54,8.6.15,3.63.23,7.98-.16,12.78-.19,2.4-.5,4.91-1,7.49-.49,2.58-1.21,5.2-2.05,7.85-1.7,5.29-3.7,10.19-5.17,14.76-1.49,4.56-2.44,8.8-2.77,12.41-.35,3.61-.11,6.56.22,8.56.18,1,.34,1.77.48,2.29.06.25.11.44.14.59.03.13.04.2.04.2Z"/><polygon class="cls-12" points="299.27 302.4 265.79 302.4 265.02 295.95 299.27 295.95 299.27 302.4"/><polygon class="cls-12" points="269.38 301.66 273.57 321 291.76 321 295.68 301.66 269.38 301.66"/><path class="cls-12" d="m299.27,302.4c0,.09-7.36.14-16.44.11-9.08-.03-16.44-.12-16.44-.21,0-.09,7.36-.14,16.44-.11,9.08.03,16.44.12,16.44.21Z"/><path class="cls-16" d="m293.52,311.94c-.04.06-.99-.91-2.95-1.69-.97-.39-2.2-.69-3.59-.72-1.39-.04-2.89.29-4.41.81-1.53.52-2.95,1.12-4.34,1.45-1.39.3-2.69.28-3.75.11-1.06-.17-1.88-.48-2.41-.76-.26-.15-.46-.27-.58-.37-.13-.09-.19-.15-.18-.16.02-.03.29.17.82.42.53.24,1.35.52,2.39.65,1.04.13,2.31.13,3.65-.18,1.34-.33,2.77-.94,4.3-1.46,1.53-.53,3.09-.86,4.52-.8,1.42.05,2.68.38,3.66.8.99.41,1.71.91,2.18,1.27.24.18.41.34.52.45.11.11.17.17.16.18Z"/><path class="cls-1" d="m293.27,313.23c-.04.07-.95-.88-2.83-1.67-.93-.39-2.12-.69-3.46-.71-1.34-.04-2.79.27-4.26.77-1.48.49-2.86,1.07-4.18,1.42-1.32.36-2.57.49-3.6.4-1.04-.07-1.85-.37-2.36-.63-.25-.14-.45-.26-.56-.36-.12-.09-.18-.14-.18-.15.02-.03.28.16.79.4.52.23,1.31.48,2.32.52,1.01.05,2.22-.09,3.51-.46,1.29-.36,2.67-.94,4.16-1.44,1.49-.51,2.99-.81,4.37-.76,1.38.04,2.59.38,3.54.8.95.42,1.64.91,2.09,1.26.23.18.39.33.5.44.11.11.16.16.15.17Z"/><path class="cls-1" d="m293.86,310.66c-.04.06-1.02-.93-3.03-1.78-1-.42-2.25-.8-3.68-.88-1.43-.1-2.98.26-4.55.8-1.58.53-3.04,1.17-4.49,1.47-1.45.26-2.78.18-3.87,0-1.09-.19-1.94-.5-2.49-.79-.27-.15-.48-.27-.6-.37-.13-.1-.2-.15-.19-.16.02-.03.29.17.85.42.55.25,1.4.52,2.47.68,1.07.14,2.38.2,3.78-.07,1.39-.3,2.86-.95,4.45-1.48,1.58-.54,3.19-.91,4.67-.79,1.47.1,2.75.51,3.75.97,1.01.45,1.75.97,2.23,1.34.24.19.42.35.54.46.12.11.17.17.17.18Z"/></g><path class="cls-16" d="m299.57,302.43c0,.09-7.53.16-16.82.16s-16.82-.07-16.82-.16,7.53-.16,16.82-.16,16.82.07,16.82.16Z"/></g></svg>