<svg id="Layer_1" data-name="Layer 1" xmlns="http://www.w3.org/2000/svg" xmlns:xlink="http://www.w3.org/1999/xlink" viewBox="0 0 246.6 364.02"><defs><style>.cls-1,.cls-13,.cls-18,.cls-20,.cls-21,.cls-22,.cls-23,.cls-4,.cls-5{fill:none;}.cls-2{fill:#ff4b3a;}.cls-25,.cls-3{fill:#fff;}.cls-12,.cls-13,.cls-18,.cls-4,.cls-5{stroke:#18446e;}.cls-18,.cls-23,.cls-4,.cls-5{stroke-linecap:round;}.cls-12,.cls-13,.cls-18,.cls-20,.cls-21,.cls-22,.cls-23,.cls-4,.cls-5{stroke-miterlimit:10;}.cls-4{stroke-width:1.07px;}.cls-5{stroke-width:2px;}.cls-6{fill:#18446e;}.cls-7{fill:#527bd1;}.cls-8{fill:#c4daf1;}.cls-9{fill:#7795da;}.cls-10,.cls-28{fill:#ffda50;}.cls-11{fill:#ffa200;}.cls-12,.cls-16{fill:#fcebe4;}.cls-14{fill:#7fb922;}.cls-15{fill:#3d5d0b;}.cls-17{fill:#ff650a;}.cls-19{clip-path:url(#clip-path);}.cls-20{stroke:#fcebe4;stroke-width:0.77px;}.cls-21{stroke:#ff650a;}.cls-21,.cls-22{stroke-width:1.53px;}.cls-22{stroke:#527bd1;}.cls-23{stroke:#fff;stroke-width:0.96px;}.cls-24{fill:#ffa072;}.cls-25{font-size:18.79px;}.cls-25,.cls-28{font-family:Montserrat-Bold, Montserrat;font-weight:700;}.cls-26{letter-spacing:0em;}.cls-27{letter-spacing:-0.01em;}.cls-28{font-size:9.3px;}.cls-29{letter-spacing:-0.01em;}.cls-30{letter-spacing:-0.01em;}.cls-31{letter-spacing:-0.03em;}</style><clipPath id="clip-path" transform="translate(-178.38 -19.33)"><path class="cls-1" d="M391.15,175,422,157.21a1.11,1.11,0,0,1,1.66,1v23.71a3,3,0,0,1-1.49,2.58l-30.82,17.8a1.1,1.1,0,0,1-1.65-1V177.58A3,3,0,0,1,391.15,175Z"/></clipPath></defs><path class="cls-2" d="M223.55,219.19c0,10.58-6.43,22.88-14.37,27.47s-14.38-.28-14.38-10.87,6.43-22.89,14.38-27.47S223.55,208.6,223.55,219.19Z" transform="translate(-178.38 -19.33)"/><path class="cls-3" d="M206.71,218.45l11.11,2.14c1.21.23,1.21,2.57,0,4.21l-11.11,15c-1.22,1.63-2.74,1.34-2.74-.53V222.13C204,220.26,205.49,218.22,206.71,218.45Z" transform="translate(-178.38 -19.33)"/><polygon class="cls-4" points="6.94 195.39 6.04 190.81 5.13 196.43 2.87 199.05 5.13 199.05 6.04 203.63 6.94 198.01 9.2 195.39 6.94 195.39"/><polygon class="cls-4" points="133.98 19.37 133.07 14.79 132.17 20.41 129.91 23.02 132.17 23.03 133.07 27.61 133.98 21.98 136.24 19.37 133.98 19.37"/><polygon class="cls-4" points="166.12 212.96 165.22 208.38 164.32 214 162.06 216.61 164.32 216.62 165.22 221.2 166.12 215.57 168.39 212.96 166.12 212.96"/><polygon class="cls-4" points="218.29 99.95 217.39 95.37 216.49 100.99 214.23 103.6 216.49 103.61 217.39 108.19 218.29 102.56 220.56 99.95 218.29 99.95"/><polygon class="cls-4" points="130.81 338.1 129.91 333.52 129.01 339.14 126.75 341.76 129.01 341.76 129.91 346.34 130.81 340.72 133.07 338.11 130.81 338.1"/><line class="cls-5" x1="20.73" y1="154.69" x2="79.37" y2="120.83"/><line class="cls-5" x1="146.35" y1="82.16" x2="194.67" y2="54.26"/><polyline class="cls-5" points="72.08 299.94 109.1 278.56 109.1 207.67"/><polyline class="cls-5" points="159.43 250.75 126.85 231.94 126.85 197.22"/><line class="cls-5" x1="118.47" y1="190.81" x2="118.47" y2="99.14"/><path class="cls-6" d="M423.31,331.71V327.1L378,302.2l1.12-51.62-3.54-2h0a1.31,1.31,0,0,0-1.55,0L321.2,279.06a5.09,5.09,0,0,0-2.13,4.07v49.05A7.77,7.77,0,0,0,323,338.9l42.12,24.32a5.11,5.11,0,0,0,4.59.19l52.86-30.52A1.36,1.36,0,0,0,423.31,331.71Z" transform="translate(-178.38 -19.33)"/><path class="cls-7" d="M322.7,334.15l42.37,24.46a5.08,5.08,0,0,0,4.59.19l52.86-30.52c1.18-.67,1-1.86-.33-2.64l-42.37-24.47Z" transform="translate(-178.38 -19.33)"/><path class="cls-6" d="M399.73,336.5l-16,9.24a1.55,1.55,0,0,1-1.53,0l-9.87-5.7a.62.62,0,0,1,0-1.07l16-9.23a1.5,1.5,0,0,1,1.53,0l9.87,5.69A.62.62,0,0,1,399.73,336.5Z" transform="translate(-178.38 -19.33)"/><path class="cls-8" d="M377.69,250.63l-52.86,30.52a5.09,5.09,0,0,0-2.13,4.07v48.93l57.12-33V252.24C379.82,250.67,378.86,250,377.69,250.63Z" transform="translate(-178.38 -19.33)"/><path class="cls-7" d="M376.07,254.33l-50.21,29a2.76,2.76,0,0,0-1.38,2.38v38a1.3,1.3,0,0,0,2,1.13l50.22-29a2.75,2.75,0,0,0,1.37-2.38v-38A1.3,1.3,0,0,0,376.07,254.33Z" transform="translate(-178.38 -19.33)"/><path class="cls-9" d="M378,255.46a1.3,1.3,0,0,0-2-1.13l-50.21,29a2.76,2.76,0,0,0-1.38,2.38v38a1.3,1.3,0,0,0,1.13,1.29L378,255.78Z" transform="translate(-178.38 -19.33)"/><path class="cls-6" d="M402.35,317l-52.16,30.12a1.66,1.66,0,0,1-1.5-.07l-19.33-11.15c-.44-.26-.49-.65-.1-.87L381.41,305a1.65,1.65,0,0,1,1.51.06l19.32,11.16C402.69,316.43,402.73,316.82,402.35,317Z" transform="translate(-178.38 -19.33)"/><path class="cls-8" d="M333,333.85l-2.56,1.48c-.18.11-.16.28.05.4l1.13.66a.77.77,0,0,0,.69,0l2.57-1.49c.18-.1.16-.28-.05-.4l-1.13-.65A.79.79,0,0,0,333,333.85Z" transform="translate(-178.38 -19.33)"/><path class="cls-8" d="M336.74,331.68l-2.56,1.48c-.18.1-.16.28.05.4l1.13.66a.8.8,0,0,0,.69,0l2.57-1.49c.18-.1.16-.28-.05-.4l-1.13-.65A.79.79,0,0,0,336.74,331.68Z" transform="translate(-178.38 -19.33)"/><path class="cls-8" d="M340.5,329.51,337.94,331c-.18.1-.16.28.05.4l1.13.66a.77.77,0,0,0,.69,0l2.57-1.48c.18-.1.16-.28-.05-.4l-1.13-.65A.79.79,0,0,0,340.5,329.51Z" transform="translate(-178.38 -19.33)"/><path class="cls-8" d="M344.26,327.34l-2.56,1.48c-.18.1-.16.28.05.4l1.13.65a.74.74,0,0,0,.69,0l2.57-1.48c.18-.1.16-.28-.05-.4l-1.13-.65A.76.76,0,0,0,344.26,327.34Z" transform="translate(-178.38 -19.33)"/><path class="cls-8" d="M348,325.17l-2.56,1.48c-.18.1-.16.28.05.4l1.13.65a.77.77,0,0,0,.69,0l2.57-1.48c.18-.1.16-.28,0-.4l-1.13-.66A.79.79,0,0,0,348,325.17Z" transform="translate(-178.38 -19.33)"/><path class="cls-8" d="M351.79,323l-2.57,1.49c-.18.1-.16.28,0,.4l1.13.65a.77.77,0,0,0,.69,0l2.57-1.48c.18-.1.16-.28-.05-.4l-1.13-.66A.8.8,0,0,0,351.79,323Z" transform="translate(-178.38 -19.33)"/><path class="cls-8" d="M355.55,320.82,353,322.31c-.18.1-.16.28,0,.4l1.13.65a.77.77,0,0,0,.69,0l2.57-1.48c.18-.11.16-.28-.05-.4l-1.13-.66A.77.77,0,0,0,355.55,320.82Z" transform="translate(-178.38 -19.33)"/><path class="cls-8" d="M359.31,318.65l-2.57,1.49c-.18.1-.16.28.05.4l1.13.65a.77.77,0,0,0,.69,0l2.57-1.48c.18-.11.16-.29-.05-.4l-1.13-.66A.77.77,0,0,0,359.31,318.65Z" transform="translate(-178.38 -19.33)"/><path class="cls-8" d="M363.07,316.48,360.5,318c-.18.11-.16.29.05.4l1.13.66a.79.79,0,0,0,.7,0l2.56-1.48c.18-.11.16-.29-.05-.4l-1.13-.66A.77.77,0,0,0,363.07,316.48Z" transform="translate(-178.38 -19.33)"/><path class="cls-8" d="M366.83,314.31l-2.57,1.48c-.18.11-.16.28.05.4l1.13.66a.79.79,0,0,0,.7,0l2.56-1.49c.18-.1.16-.28-.05-.4l-1.13-.65A.77.77,0,0,0,366.83,314.31Z" transform="translate(-178.38 -19.33)"/><path class="cls-8" d="M370.59,312.14,368,313.62c-.18.1-.16.28.05.4l1.13.66a.79.79,0,0,0,.7,0l2.56-1.49c.18-.1.16-.28,0-.4l-1.13-.65A.77.77,0,0,0,370.59,312.14Z" transform="translate(-178.38 -19.33)"/><path class="cls-8" d="M374.35,310l-2.57,1.48c-.18.1-.16.28.05.4l1.13.66a.79.79,0,0,0,.7,0l2.56-1.48c.18-.1.16-.28-.05-.4L375,310A.77.77,0,0,0,374.35,310Z" transform="translate(-178.38 -19.33)"/><path class="cls-8" d="M378.11,307.8l-2.57,1.48c-.18.1-.16.28,0,.4l1.13.65a.76.76,0,0,0,.7,0l2.56-1.48c.18-.1.16-.28-.05-.4l-1.13-.65A.74.74,0,0,0,378.11,307.8Z" transform="translate(-178.38 -19.33)"/><path class="cls-8" d="M381.87,305.63l-2.57,1.48c-.18.1-.16.28.05.4l1.13.65a.76.76,0,0,0,.7,0l2.56-1.48c.18-.1.16-.28,0-.4l-1.14-.65A.74.74,0,0,0,381.87,305.63Z" transform="translate(-178.38 -19.33)"/><path class="cls-8" d="M335.51,335.31,333,336.79c-.18.11-.16.29.05.4l3,1.72a.77.77,0,0,0,.69,0l2.57-1.48c.18-.1.16-.28-.05-.4l-3-1.71A.79.79,0,0,0,335.51,335.31Z" transform="translate(-178.38 -19.33)"/><path class="cls-8" d="M339.27,333.14l-2.56,1.48c-.18.1-.16.28.05.4l3,1.71a.74.74,0,0,0,.69,0l2.57-1.48c.18-.1.16-.28-.05-.4l-3-1.71A.79.79,0,0,0,339.27,333.14Z" transform="translate(-178.38 -19.33)"/><path class="cls-8" d="M343,331l-2.56,1.48c-.18.1-.16.28,0,.4l3,1.71a.77.77,0,0,0,.69,0l2.57-1.48c.18-.1.16-.28-.05-.4l-3-1.71A.79.79,0,0,0,343,331Z" transform="translate(-178.38 -19.33)"/><path class="cls-8" d="M346.79,328.8l-2.56,1.48c-.18.1-.16.28,0,.4l3,1.71a.77.77,0,0,0,.69,0l2.57-1.48c.18-.1.16-.28-.05-.4l-3-1.71A.76.76,0,0,0,346.79,328.8Z" transform="translate(-178.38 -19.33)"/><path class="cls-8" d="M350.55,326.63,348,328.11c-.18.1-.16.28.05.4l3,1.71a.77.77,0,0,0,.69,0l2.57-1.48c.18-.11.16-.28-.05-.4l-3-1.71A.76.76,0,0,0,350.55,326.63Z" transform="translate(-178.38 -19.33)"/><path class="cls-8" d="M354.32,324.46l-2.57,1.48c-.18.1-.16.28.05.4l3,1.71a.79.79,0,0,0,.7,0L358,326.6c.18-.11.16-.29,0-.4l-3-1.72A.77.77,0,0,0,354.32,324.46Z" transform="translate(-178.38 -19.33)"/><path class="cls-8" d="M358.08,322.28l-2.57,1.49c-.18.1-.16.28.05.4l3,1.71a.79.79,0,0,0,.7,0l2.56-1.48c.18-.11.16-.29,0-.4l-3-1.72A.77.77,0,0,0,358.08,322.28Z" transform="translate(-178.38 -19.33)"/><path class="cls-8" d="M361.84,320.11l-2.57,1.49c-.18.1-.16.28.05.4l3,1.71a.79.79,0,0,0,.7,0l2.56-1.49c.18-.1.16-.28-.05-.4l-3-1.71A.77.77,0,0,0,361.84,320.11Z" transform="translate(-178.38 -19.33)"/><path class="cls-8" d="M365.6,317.94,363,319.42c-.18.11-.16.29.05.41l3,1.71a.79.79,0,0,0,.7,0l2.56-1.49c.18-.1.16-.28-.05-.4l-3-1.71A.77.77,0,0,0,365.6,317.94Z" transform="translate(-178.38 -19.33)"/><path class="cls-8" d="M369.36,315.77l-2.57,1.48c-.18.11-.16.29,0,.4l3,1.72a.79.79,0,0,0,.7,0l2.56-1.48c.18-.1.16-.28-.05-.4l-3-1.71A.77.77,0,0,0,369.36,315.77Z" transform="translate(-178.38 -19.33)"/><path class="cls-8" d="M373.12,313.6l-2.57,1.48c-.18.11-.16.28.05.4l3,1.71a.76.76,0,0,0,.7,0l2.57-1.48c.17-.1.15-.28-.05-.4l-3-1.71A.77.77,0,0,0,373.12,313.6Z" transform="translate(-178.38 -19.33)"/><path class="cls-8" d="M376.88,311.43l-2.57,1.48c-.18.1-.16.28.05.4l3,1.71a.76.76,0,0,0,.7,0l2.57-1.48c.17-.1.15-.28,0-.4l-3-1.71A.77.77,0,0,0,376.88,311.43Z" transform="translate(-178.38 -19.33)"/><path class="cls-8" d="M380.64,309.26l-2.57,1.48c-.18.1-.16.28.05.4l3,1.71a.79.79,0,0,0,.7,0l2.57-1.48c.17-.1.15-.28-.05-.4l-3-1.71A.77.77,0,0,0,380.64,309.26Z" transform="translate(-178.38 -19.33)"/><path class="cls-8" d="M384.4,307.09l-2.57,1.48c-.18.1-.16.28.05.4l3,1.71a.77.77,0,0,0,.69,0l2.57-1.48c.17-.1.15-.28-.05-.4l-3-1.71A.74.74,0,0,0,384.4,307.09Z" transform="translate(-178.38 -19.33)"/><path class="cls-8" d="M341.75,336.74l-4.44,2.57c-.18.1-.16.28.05.4l3,1.71a.77.77,0,0,0,.69,0l4.45-2.57c.18-.1.16-.28,0-.4l-3-1.71A.79.79,0,0,0,341.75,336.74Z" transform="translate(-178.38 -19.33)"/><path class="cls-8" d="M345.52,334.57,343,336.05c-.18.11-.16.29.05.4l3,1.72a.79.79,0,0,0,.7,0l2.56-1.49c.18-.1.16-.28-.05-.4l-3-1.71A.77.77,0,0,0,345.52,334.57Z" transform="translate(-178.38 -19.33)"/><path class="cls-8" d="M349.28,332.4l-2.57,1.48c-.18.11-.16.29.05.4l3,1.72a.79.79,0,0,0,.7,0l2.56-1.48c.18-.1.16-.28-.05-.4l-3-1.71A.77.77,0,0,0,349.28,332.4Z" transform="translate(-178.38 -19.33)"/><path class="cls-8" d="M353,330.23l-2.57,1.48c-.18.11-.16.28,0,.4l3,1.71a.76.76,0,0,0,.7,0l2.56-1.48c.18-.1.16-.28-.05-.4l-3-1.71A.77.77,0,0,0,353,330.23Z" transform="translate(-178.38 -19.33)"/><path class="cls-8" d="M356.8,328.06l-2.57,1.48c-.18.1-.16.28,0,.4l3,1.71a.76.76,0,0,0,.7,0l2.56-1.48c.18-.1.16-.28-.05-.4l-3-1.71A.77.77,0,0,0,356.8,328.06Z" transform="translate(-178.38 -19.33)"/><path class="cls-8" d="M360.56,325.89,358,327.37c-.18.1-.16.28.05.4l3,1.71a.79.79,0,0,0,.7,0l2.56-1.48c.18-.1.16-.28-.05-.4l-3-1.71A.77.77,0,0,0,360.56,325.89Z" transform="translate(-178.38 -19.33)"/><path class="cls-8" d="M364.32,323.72l-2.57,1.48c-.18.1-.16.28.05.4l3,1.71a.79.79,0,0,0,.7,0l2.57-1.48c.17-.1.15-.28,0-.4l-3-1.71A.74.74,0,0,0,364.32,323.72Z" transform="translate(-178.38 -19.33)"/><path class="cls-8" d="M368.08,321.55,365.51,323c-.18.1-.16.28.05.4l3,1.71a.79.79,0,0,0,.7,0l2.57-1.48c.17-.11.15-.29-.05-.4l-3-1.72A.77.77,0,0,0,368.08,321.55Z" transform="translate(-178.38 -19.33)"/><path class="cls-8" d="M371.84,319.37l-2.57,1.49c-.18.1-.16.28.05.4l3,1.71a.79.79,0,0,0,.7,0l2.57-1.48c.17-.11.15-.29-.05-.4l-3-1.72A.8.8,0,0,0,371.84,319.37Z" transform="translate(-178.38 -19.33)"/><path class="cls-8" d="M375.6,317.2,373,318.69c-.18.1-.16.28.05.4l3,1.71a.77.77,0,0,0,.69,0l2.57-1.49c.17-.1.15-.28-.05-.4l-3-1.71A.77.77,0,0,0,375.6,317.2Z" transform="translate(-178.38 -19.33)"/><path class="cls-8" d="M379.36,315l-2.57,1.49c-.18.1-.15.28,0,.4l3,1.71a.77.77,0,0,0,.69,0l2.57-1.49c.17-.1.15-.28-.05-.4l-3-1.71A.77.77,0,0,0,379.36,315Z" transform="translate(-178.38 -19.33)"/><path class="cls-8" d="M383.12,312.86l-2.57,1.48c-.18.11-.15.29.05.4l3,1.72a.8.8,0,0,0,.69,0l2.57-1.49c.17-.1.15-.28-.05-.4l-3-1.71A.77.77,0,0,0,383.12,312.86Z" transform="translate(-178.38 -19.33)"/><path class="cls-8" d="M388.76,309.61l-4.45,2.56c-.18.11-.15.28.05.4l3,1.72a.76.76,0,0,0,.69,0l4.45-2.56c.18-.11.15-.29-.05-.4l-3-1.72A.76.76,0,0,0,388.76,309.61Z" transform="translate(-178.38 -19.33)"/><path class="cls-8" d="M348,338.18l-6.33,3.65c-.18.1-.16.28.05.4l3,1.71a.79.79,0,0,0,.7,0l6.32-3.65c.18-.11.16-.29-.05-.4l-3-1.72A.77.77,0,0,0,348,338.18Z" transform="translate(-178.38 -19.33)"/><path class="cls-8" d="M351.76,336l-2.57,1.49c-.18.1-.16.28.05.4l3,1.71a.79.79,0,0,0,.7,0l2.56-1.48c.18-.11.16-.29,0-.4l-3-1.72A.77.77,0,0,0,351.76,336Z" transform="translate(-178.38 -19.33)"/><path class="cls-8" d="M355.52,333.83,353,335.32c-.18.1-.16.28.05.4l3,1.71a.79.79,0,0,0,.7,0l2.57-1.49c.17-.1.15-.28-.05-.4l-3-1.71A.77.77,0,0,0,355.52,333.83Z" transform="translate(-178.38 -19.33)"/><path class="cls-8" d="M359.28,331.66l-2.57,1.49c-.18.1-.16.28.05.4l3,1.71a.79.79,0,0,0,.7,0L363,333.8c.17-.1.15-.28-.05-.4l-3-1.71A.77.77,0,0,0,359.28,331.66Z" transform="translate(-178.38 -19.33)"/><path class="cls-8" d="M363,329.49,360.47,331c-.18.11-.16.29,0,.4l3,1.72a.79.79,0,0,0,.7,0l2.57-1.48c.17-.1.15-.28-.05-.4l-3-1.71A.77.77,0,0,0,363,329.49Z" transform="translate(-178.38 -19.33)"/><path class="cls-8" d="M366.8,327.32l-2.57,1.48c-.18.11-.16.28,0,.4l3,1.72a.76.76,0,0,0,.69,0l2.57-1.48c.17-.1.15-.28-.05-.4l-3-1.71A.77.77,0,0,0,366.8,327.32Z" transform="translate(-178.38 -19.33)"/><path class="cls-8" d="M370.56,325.15,368,326.63c-.18.1-.15.28.05.4l3,1.71a.74.74,0,0,0,.69,0l2.57-1.48c.17-.1.15-.28,0-.4l-3-1.71A.77.77,0,0,0,370.56,325.15Z" transform="translate(-178.38 -19.33)"/><path class="cls-8" d="M374.32,323l-2.57,1.48c-.18.1-.15.28.05.4l3,1.71a.77.77,0,0,0,.69,0l2.57-1.48c.17-.1.15-.28,0-.4L375,323A.77.77,0,0,0,374.32,323Z" transform="translate(-178.38 -19.33)"/><path class="cls-8" d="M378.08,320.81l-2.57,1.48c-.18.1-.15.28.05.4l3,1.71a.77.77,0,0,0,.69,0l2.57-1.48c.17-.1.15-.28-.05-.4l-3-1.71A.74.74,0,0,0,378.08,320.81Z" transform="translate(-178.38 -19.33)"/><path class="cls-8" d="M381.84,318.64l-2.57,1.48c-.18.1-.15.28.05.4l3,1.71a.77.77,0,0,0,.69,0l2.57-1.48c.18-.11.15-.28-.05-.4l-3-1.72A.76.76,0,0,0,381.84,318.64Z" transform="translate(-178.38 -19.33)"/><path class="cls-8" d="M385.6,316.47,383,318c-.18.1-.15.28.05.4l3,1.71a.77.77,0,0,0,.69,0l2.57-1.48c.18-.11.15-.29-.05-.4l-3-1.72A.76.76,0,0,0,385.6,316.47Z" transform="translate(-178.38 -19.33)"/><path class="cls-8" d="M393.12,312.12l-6.33,3.66c-.18.1-.15.28,0,.4l3,1.71a.77.77,0,0,0,.69,0l6.33-3.66c.18-.1.15-.28-.05-.4l-3-1.71A.77.77,0,0,0,393.12,312.12Z" transform="translate(-178.38 -19.33)"/><path class="cls-8" d="M350.48,341.78,346,344.35c-.18.1-.16.28.05.4l3,1.71a.79.79,0,0,0,.7,0l4.45-2.57c.17-.1.15-.28-.05-.4l-3-1.71A.77.77,0,0,0,350.48,341.78Z" transform="translate(-178.38 -19.33)"/><path class="cls-8" d="M354.24,339.61l-2.57,1.48c-.18.1-.16.28.05.4l3,1.71a.79.79,0,0,0,.7,0l2.57-1.48c.17-.1.15-.28-.05-.4l-3-1.71A.77.77,0,0,0,354.24,339.61Z" transform="translate(-178.38 -19.33)"/><path class="cls-8" d="M358,337.44l-2.57,1.48c-.18.1-.16.28.05.4l3,1.71a.79.79,0,0,0,.7,0l2.57-1.48c.17-.1.15-.28,0-.4l-3-1.71A.74.74,0,0,0,358,337.44Z" transform="translate(-178.38 -19.33)"/><path class="cls-8" d="M361.76,335.27l-2.57,1.48c-.18.1-.15.28.05.4l3,1.71a.77.77,0,0,0,.69,0l2.57-1.48c.17-.11.15-.28-.05-.4l-3-1.72A.76.76,0,0,0,361.76,335.27Z" transform="translate(-178.38 -19.33)"/><path class="cls-8" d="M365.52,333.09,363,334.58c-.18.1-.15.28.05.4l3,1.71a.77.77,0,0,0,.69,0l2.57-1.48c.17-.11.15-.29-.05-.4l-3-1.72A.8.8,0,0,0,365.52,333.09Z" transform="translate(-178.38 -19.33)"/><path class="cls-8" d="M369.28,330.92l-2.57,1.49c-.18.1-.15.28.05.4l3,1.71a.77.77,0,0,0,.69,0l2.57-1.49c.17-.1.15-.28-.05-.4L370,331A.77.77,0,0,0,369.28,330.92Z" transform="translate(-178.38 -19.33)"/><path class="cls-8" d="M373,328.75l-2.57,1.49c-.18.1-.15.28,0,.4l3,1.71a.77.77,0,0,0,.69,0l2.57-1.49c.18-.1.15-.28-.05-.4l-3-1.71A.77.77,0,0,0,373,328.75Z" transform="translate(-178.38 -19.33)"/><path class="cls-8" d="M376.8,326.58l-2.57,1.48c-.18.11-.15.29,0,.4l3,1.72a.8.8,0,0,0,.69,0l2.57-1.49c.18-.1.15-.28-.05-.4l-3-1.71A.77.77,0,0,0,376.8,326.58Z" transform="translate(-178.38 -19.33)"/><path class="cls-8" d="M380.56,324.41,378,325.89c-.18.11-.15.29.05.4l3,1.72a.76.76,0,0,0,.69,0l2.57-1.48c.18-.1.15-.28,0-.4l-3-1.71A.77.77,0,0,0,380.56,324.41Z" transform="translate(-178.38 -19.33)"/><path class="cls-8" d="M384.32,322.24l-2.57,1.48c-.18.1-.15.28.05.4l3,1.71a.74.74,0,0,0,.69,0l2.57-1.48c.18-.1.15-.28,0-.4l-3-1.71A.77.77,0,0,0,384.32,322.24Z" transform="translate(-178.38 -19.33)"/><path class="cls-8" d="M388.08,320.07l-2.57,1.48c-.17.1-.15.28.05.4l3,1.71a.77.77,0,0,0,.69,0l2.57-1.48c.18-.1.15-.28-.05-.4l-3-1.71A.77.77,0,0,0,388.08,320.07Z" transform="translate(-178.38 -19.33)"/><path class="cls-8" d="M391.84,317.9l-2.57,1.48c-.17.1-.15.28.05.4l3,1.71a.77.77,0,0,0,.69,0l2.57-1.48c.18-.1.15-.28-.05-.4l-3-1.71A.74.74,0,0,0,391.84,317.9Z" transform="translate(-178.38 -19.33)"/><path class="cls-8" d="M397.48,314.64,393,317.21c-.17.1-.15.28.05.4l3,1.71a.77.77,0,0,0,.69,0l4.45-2.57c.18-.1.16-.28-.05-.4l-3-1.71A.77.77,0,0,0,397.48,314.64Z" transform="translate(-178.38 -19.33)"/><path class="cls-6" d="M275.29,297.62l-4.4-2.55a4,4,0,0,0-3.91,0l-23.93,13.82a9.1,9.1,0,0,0-4.56,7.89v60.06a3.94,3.94,0,0,0,2,3.47h0l4.29,2.49Z" transform="translate(-178.38 -19.33)"/><path class="cls-3" d="M271.28,297.6l-23.93,13.82a9.1,9.1,0,0,0-4.56,7.89v60.06a4,4,0,0,0,6,3.44L272.68,369a9.12,9.12,0,0,0,4.56-7.89V301A4,4,0,0,0,271.28,297.6Z" transform="translate(-178.38 -19.33)"/><path class="cls-7" d="M274.94,301.7v59.17a7.2,7.2,0,0,1-3.61,6.24l-23.16,13.38a2.05,2.05,0,0,1-3.08-1.78V319.54a7.21,7.21,0,0,1,3.6-6.25l23.17-13.37A2.05,2.05,0,0,1,274.94,301.7Z" transform="translate(-178.38 -19.33)"/><path class="cls-9" d="M274.94,320.22V301.7a2.05,2.05,0,0,0-3.08-1.78l-23.17,13.37a7.21,7.21,0,0,0-3.6,6.25v40.1Z" transform="translate(-178.38 -19.33)"/><path class="cls-10" d="M248.28,318.28l23.34-13.48a.83.83,0,0,1,1.25.73v18a2.25,2.25,0,0,1-1.13,1.95l-23.33,13.47a.83.83,0,0,1-1.25-.72v-18A2.25,2.25,0,0,1,248.28,318.28Z" transform="translate(-178.38 -19.33)"/><path class="cls-11" d="M248.28,343.2l23.34-13.47a.83.83,0,0,1,1.25.72v18a2.25,2.25,0,0,1-1.13,1.95l-23.33,13.47a.83.83,0,0,1-1.25-.72v-18A2.26,2.26,0,0,1,248.28,343.2Z" transform="translate(-178.38 -19.33)"/><path class="cls-7" d="M216.43,170.52,188.17,173v8.55h0c0,1.86,1.15,3.63,3.44,5,5.11,3,14,2.58,19.94-.83,3.27-1.89,4.92-4.31,4.88-6.6h0Z" transform="translate(-178.38 -19.33)"/><ellipse class="cls-8" cx="202.3" cy="171.74" rx="14.2" ry="8.04" transform="translate(-197.67 6.41) rotate(-6.95)"/><path class="cls-11" d="M216.43,158.44l-28.26,2.45v8.55h0c0,1.86,1.15,3.63,3.44,5,5.11,2.95,14,2.58,19.94-.83,3.27-1.89,4.92-4.32,4.88-6.61h0Z" transform="translate(-178.38 -19.33)"/><path class="cls-10" d="M193.05,154.31c5.9-3.41,14.82-3.78,19.93-.83s4.47,8.11-1.43,11.52-14.83,3.77-19.94.82S187.14,157.72,193.05,154.31Z" transform="translate(-178.38 -19.33)"/><path class="cls-12" d="M216.43,146.36c0-1.86-1.15-3.63-3.45-5-5.11-3-14-2.58-19.93.83-3.26,1.88-4.91,4.29-4.88,6.57h0v8.56h0c0,1.85,1.15,3.63,3.44,4.95,5.11,2.95,14,2.58,19.94-.82,3.27-1.89,4.92-4.32,4.88-6.61h0v-8.52Z" transform="translate(-178.38 -19.33)"/><path class="cls-13" d="M193.05,142.23c5.9-3.41,14.82-3.78,19.93-.83s4.47,8.1-1.43,11.51-14.83,3.78-19.94.83S187.14,145.63,193.05,142.23Z" transform="translate(-178.38 -19.33)"/><path class="cls-14" d="M414.8,67,364,71.23v8a2.42,2.42,0,0,0,1.44,1.92l17,9.79a6.56,6.56,0,0,0,5.9.25l25.53-14.74a1.74,1.74,0,0,0,1-1.51Z" transform="translate(-178.38 -19.33)"/><path class="cls-15" d="M390.5,55,365,69.7c-1.51.87-1.33,2.4.42,3.41l17,9.79a6.53,6.53,0,0,0,5.9.24L413.78,68.4c1.51-.87,1.32-2.39-.42-3.4l-17-9.79A6.56,6.56,0,0,0,390.5,55Z" transform="translate(-178.38 -19.33)"/><path class="cls-10" d="M391.71,85.11a2.42,2.42,0,0,1-1,1.94c-.56.33-1,0-1-.76a2.43,2.43,0,0,1,1-1.94C391.26,84,391.71,84.37,391.71,85.11Z" transform="translate(-178.38 -19.33)"/><path class="cls-10" d="M394.67,83.39a2.42,2.42,0,0,1-1,1.94c-.56.33-1,0-1-.76a2.42,2.42,0,0,1,1-1.94C394.22,82.3,394.67,82.65,394.67,83.39Z" transform="translate(-178.38 -19.33)"/><path class="cls-10" d="M397.64,81.67a2.42,2.42,0,0,1-1,1.94c-.56.33-1,0-1-.76a2.43,2.43,0,0,1,1-1.94C397.19,80.58,397.64,80.93,397.64,81.67Z" transform="translate(-178.38 -19.33)"/><path class="cls-10" d="M400.6,80a2.42,2.42,0,0,1-1,1.93c-.56.33-1,0-1-.76a2.42,2.42,0,0,1,1-1.94C400.15,78.86,400.6,79.21,400.6,80Z" transform="translate(-178.38 -19.33)"/><path class="cls-10" d="M412.73,73a3.88,3.88,0,0,1-1.61,3.08c-.88.51-1.61,0-1.61-1.22a3.89,3.89,0,0,1,1.61-3.08C412,71.27,412.73,71.81,412.73,73Z" transform="translate(-178.38 -19.33)"/><path class="cls-16" d="M385.69,83.6a6.35,6.35,0,0,1-3.09-.77l-17-9.79c-.75-.44-1.19-1-1.19-1.5V64l49.85-4.17v7.43a1.28,1.28,0,0,1-.77,1.08L388,83.07a4.67,4.67,0,0,1-2.31.53Z" transform="translate(-178.38 -19.33)"/><path class="cls-6" d="M413.8,60.37v6.91c0,.28-.32.51-.52.62L387.75,82.64a4.27,4.27,0,0,1-2.06.46,5.91,5.91,0,0,1-2.84-.7l-17-9.8c-.69-.4-.94-.82-.94-1v-7.1l48.85-4.08m1-1.09L364,63.53v8a2.43,2.43,0,0,0,1.44,1.92l17,9.79a6.9,6.9,0,0,0,3.34.84,5.26,5.26,0,0,0,2.56-.59l25.53-14.74a1.75,1.75,0,0,0,1-1.51v-8Z" transform="translate(-178.38 -19.33)"/><path class="cls-6" d="M393.06,47.74a5.75,5.75,0,0,1,2.8.69l17,9.79c.63.36.92.76.92,1s-.35.47-.49.56L387.72,74.52a4.15,4.15,0,0,1-2,.44,5.82,5.82,0,0,1-2.81-.69l-16.95-9.79c-.63-.36-.92-.77-.92-1s.34-.47.49-.56L391,48.18a4.15,4.15,0,0,1,2-.44m0-1.07a5.15,5.15,0,0,0-2.56.59L365,62c-1.51.87-1.33,2.4.42,3.4l17,9.8a6.89,6.89,0,0,0,3.34.83,5.15,5.15,0,0,0,2.56-.59L413.78,60.7c1.51-.87,1.32-2.4-.42-3.41l-17-9.79a6.89,6.89,0,0,0-3.34-.83Z" transform="translate(-178.38 -19.33)"/><path class="cls-13" d="M391.71,77.41a2.42,2.42,0,0,1-1,1.94c-.56.32-1,0-1-.77a2.42,2.42,0,0,1,1-1.93C391.26,76.32,391.71,76.67,391.71,77.41Z" transform="translate(-178.38 -19.33)"/><path class="cls-13" d="M394.67,75.69a2.42,2.42,0,0,1-1,1.94c-.56.32-1,0-1-.77a2.42,2.42,0,0,1,1-1.93C394.22,74.6,394.67,75,394.67,75.69Z" transform="translate(-178.38 -19.33)"/><path class="cls-13" d="M397.64,74a2.42,2.42,0,0,1-1,1.94c-.56.32-1,0-1-.77a2.42,2.42,0,0,1,1-1.93C397.19,72.88,397.64,73.23,397.64,74Z" transform="translate(-178.38 -19.33)"/><path class="cls-13" d="M400.6,72.25a2.42,2.42,0,0,1-1,1.94c-.56.32-1,0-1-.77a2.42,2.42,0,0,1,1-1.93C400.15,71.16,400.6,71.51,400.6,72.25Z" transform="translate(-178.38 -19.33)"/><path class="cls-13" d="M412.73,65.3a3.84,3.84,0,0,1-1.61,3.07c-.88.52-1.61,0-1.61-1.21a3.88,3.88,0,0,1,1.61-3.08C412,63.57,412.73,64.11,412.73,65.3Z" transform="translate(-178.38 -19.33)"/><path class="cls-17" d="M414.8,50.65,364,54.91v8a2.42,2.42,0,0,0,1.44,1.92l17,9.8a6.59,6.59,0,0,0,5.9.24l25.53-14.74a1.73,1.73,0,0,0,1-1.51Z" transform="translate(-178.38 -19.33)"/><path class="cls-11" d="M390.5,38.63,365,53.37c-1.51.88-1.33,2.4.42,3.41l17,9.79a6.56,6.56,0,0,0,5.9.25l25.53-14.74c1.51-.88,1.32-2.4-.42-3.41l-17-9.79A6.56,6.56,0,0,0,390.5,38.63Z" transform="translate(-178.38 -19.33)"/><path class="cls-10" d="M391.71,68.79a2.42,2.42,0,0,1-1,1.93c-.56.33-1,0-1-.76a2.43,2.43,0,0,1,1-1.94C391.26,67.7,391.71,68,391.71,68.79Z" transform="translate(-178.38 -19.33)"/><path class="cls-10" d="M394.67,67.07a2.42,2.42,0,0,1-1,1.93c-.56.33-1,0-1-.76a2.42,2.42,0,0,1,1-1.94C394.22,66,394.67,66.32,394.67,67.07Z" transform="translate(-178.38 -19.33)"/><path class="cls-10" d="M397.64,65.35a2.45,2.45,0,0,1-1,1.94c-.56.32-1,0-1-.77a2.43,2.43,0,0,1,1-1.94C397.19,64.26,397.64,64.6,397.64,65.35Z" transform="translate(-178.38 -19.33)"/><path class="cls-10" d="M400.6,63.63a2.45,2.45,0,0,1-1,1.94c-.56.32-1,0-1-.77a2.42,2.42,0,0,1,1-1.94C400.15,62.54,400.6,62.88,400.6,63.63Z" transform="translate(-178.38 -19.33)"/><path class="cls-10" d="M412.73,56.67a3.86,3.86,0,0,1-1.61,3.08c-.88.51-1.61,0-1.61-1.22a3.91,3.91,0,0,1,1.61-3.08C412,54.94,412.73,55.49,412.73,56.67Z" transform="translate(-178.38 -19.33)"/><path class="cls-18" d="M374.44,131.9h0L372.9,131a1.88,1.88,0,0,1,.16-.43h0c.52-1,.52-2.13,0-2.52l-1.18-.9-4.4-2.54h0c-.52-.25-1.27.22-1.76,1.13l-1.73-1h0a.86.86,0,0,0-.91,0l-1.67,1a3.2,3.2,0,0,0-1.34,2.55h0c0,.9-.81,1.82-1.29,1.46h0c-.52-.4-1.37.09-1.89,1.09l-1.18,2.26c-.53,1-.53,2.13,0,2.53h0c.47.35.14,1.63-.54,2h0a3.2,3.2,0,0,0-1.33,2.56v2.23a1.16,1.16,0,0,0,.46,1.08h0l1.57.91a1.88,1.88,0,0,1-.16.43h0c-.53,1-.53,2.13,0,2.52l5.55,3.43h0c.52.29,1.29-.19,1.79-1.11l1.77,1h0a.87.87,0,0,0,.87-.07l1.67-1a3.2,3.2,0,0,0,1.34-2.55h0c0-.9.81-1.82,1.29-1.46h0c.52.39,1.37-.09,1.89-1.09l1.18-2.27c.52-1,.52-2.12,0-2.52h0c-.47-.36-.14-1.64.54-2h0a3.2,3.2,0,0,0,1.33-2.56V133A1.16,1.16,0,0,0,374.44,131.9Z" transform="translate(-178.38 -19.33)"/><path class="cls-18" d="M373.6,132h0c-.68.39-1-.5-.54-1.41h0c.52-1,.52-2.13,0-2.52l-1.18-.9c-.52-.39-1.37.09-1.89,1.09h0c-.48.91-1.29.93-1.29,0h0c0-1-.6-1.43-1.34-1l-1.67,1a3.21,3.21,0,0,0-1.34,2.56h0c0,.89-.81,1.81-1.29,1.45h0c-.52-.39-1.37.1-1.89,1.09L360,135.61c-.52,1-.52,2.12,0,2.52h0c.48.36.14,1.64-.53,2h0a3.21,3.21,0,0,0-1.34,2.56v2.23c0,1,.6,1.44,1.34,1h0c.67-.38,1,.5.53,1.41h0c-.52,1-.52,2.13,0,2.52l1.19.9c.52.39,1.37-.09,1.89-1.09h0c.48-.91,1.29-.93,1.29,0h0c0,1,.6,1.43,1.34,1l1.67-1a3.2,3.2,0,0,0,1.34-2.55h0c0-.9.81-1.82,1.29-1.46h0c.52.39,1.37-.09,1.89-1.09l1.18-2.27c.52-1,.52-2.12,0-2.52h0c-.47-.36-.14-1.64.54-2h0a3.2,3.2,0,0,0,1.33-2.56V133C374.93,132,374.34,131.56,373.6,132Z" transform="translate(-178.38 -19.33)"/><path class="cls-18" d="M371.31,136.21c0,3.52-2.14,7.61-4.79,9.14s-4.78-.1-4.78-3.62,2.14-7.61,4.78-9.14S371.31,132.69,371.31,136.21Z" transform="translate(-178.38 -19.33)"/><ellipse class="cls-18" cx="366.52" cy="138.97" rx="3.93" ry="2.22" transform="translate(-83.25 402.49) rotate(-66.95)"/><path class="cls-6" d="M391.15,175,422,157.21a1.11,1.11,0,0,1,1.66,1v23.71a3,3,0,0,1-1.49,2.58l-30.82,17.8a1.1,1.1,0,0,1-1.65-1V177.58A3,3,0,0,1,391.15,175Z" transform="translate(-178.38 -19.33)"/><g class="cls-19"><line class="cls-20" x1="216.5" y1="165.19" x2="216.5" y2="186.82"/><line class="cls-20" x1="224.12" y1="160.78" x2="224.12" y2="182.42"/><line class="cls-20" x1="231.75" y1="153.54" x2="231.75" y2="178.02"/><line class="cls-20" x1="239.37" y1="153.02" x2="239.37" y2="173.62"/><path class="cls-21" d="M387.14,193s4.81-7.47,9.91-9.67,5.09,3.6,11.29.39,10.75-16.08,16.21-19.73" transform="translate(-178.38 -19.33)"/><path class="cls-22" d="M387.14,197.52a27.76,27.76,0,0,0,7.87-6.14c3.24-3.86,8.8-15.46,12.78-17.76,6.73-3.89,8.24,8.82,16.76,2.92" transform="translate(-178.38 -19.33)"/><path class="cls-3" d="M403.54,179.17a2.47,2.47,0,0,1-1,2c-.57.33-1,0-1-.78a2.5,2.5,0,0,1,1-2C403.08,178.06,403.54,178.41,403.54,179.17Z" transform="translate(-178.38 -19.33)"/><path class="cls-3" d="M418.79,171.75a2.43,2.43,0,0,1-1,2c-.57.33-1,0-1-.78a2.47,2.47,0,0,1,1-2C418.33,170.64,418.79,171,418.79,171.75Z" transform="translate(-178.38 -19.33)"/></g><path class="cls-6" d="M391.15,175,422,157.21a1.11,1.11,0,0,1,1.66,1v23.71a3,3,0,0,1-1.49,2.58l-30.82,17.8a1.1,1.1,0,0,1-1.65-1V177.58A3,3,0,0,1,391.15,175Z" transform="translate(-178.38 -19.33)"/><g class="cls-19"><line class="cls-20" x1="216.5" y1="165.19" x2="216.5" y2="186.82"/><line class="cls-20" x1="224.12" y1="160.78" x2="224.12" y2="182.42"/><line class="cls-20" x1="231.75" y1="153.54" x2="231.75" y2="178.02"/><line class="cls-20" x1="239.37" y1="153.02" x2="239.37" y2="173.62"/><path class="cls-21" d="M387.14,193s4.81-7.47,9.91-9.67,5.09,3.6,11.29.39,10.75-16.08,16.21-19.73" transform="translate(-178.38 -19.33)"/><path class="cls-22" d="M387.14,197.52a27.76,27.76,0,0,0,7.87-6.14c3.24-3.86,8.8-15.46,12.78-17.76,6.73-3.89,8.24,8.82,16.76,2.92" transform="translate(-178.38 -19.33)"/><path class="cls-3" d="M403.54,179.17a2.47,2.47,0,0,1-1,2c-.57.33-1,0-1-.78a2.5,2.5,0,0,1,1-2C403.08,178.06,403.54,178.41,403.54,179.17Z" transform="translate(-178.38 -19.33)"/><path class="cls-3" d="M418.79,171.75a2.43,2.43,0,0,1-1,2c-.57.33-1,0-1-.78a2.47,2.47,0,0,1,1-2C418.33,170.64,418.79,171,418.79,171.75Z" transform="translate(-178.38 -19.33)"/></g><path class="cls-7" d="M408.53,188.21l-45.08,26a2.47,2.47,0,0,0-1.24,2.14v34.14a1.17,1.17,0,0,0,1.76,1l45.08-26a2.47,2.47,0,0,0,1.24-2.14V189.22A1.17,1.17,0,0,0,408.53,188.21Z" transform="translate(-178.38 -19.33)"/><path class="cls-8" d="M417.68,217.26l-28.07,16.21a1.53,1.53,0,0,0-.77,1.33v21.26a.73.73,0,0,0,1.1.63L418,240.49a1.55,1.55,0,0,0,.77-1.34V217.89A.73.73,0,0,0,417.68,217.26Z" transform="translate(-178.38 -19.33)"/><polygon class="cls-10" points="198.45 204.07 192.62 207.44 192.62 217.65 198.45 214.28 198.45 204.07"/><polygon class="cls-2" points="206.71 203.53 200.88 206.9 200.88 212.88 206.71 209.51 206.71 203.53"/><polygon class="cls-11" points="214.97 188.89 209.13 192.26 209.13 208.11 214.97 204.74 214.97 188.89"/><polygon class="cls-14" points="223.23 178.54 217.39 181.91 217.39 203.34 223.23 199.98 223.23 178.54"/><polyline class="cls-23" points="190.31 197.55 190.31 222.53 225.43 202.25"/><polygon class="cls-11" points="213.54 217.04 225.64 210.05 225.64 212.16 213.54 219.16 213.54 217.04"/><polygon class="cls-2" points="213.54 221.2 222.72 215.93 222.72 218.04 213.54 223.32 213.54 221.2"/><polygon class="cls-14" points="213.54 225.36 234.66 213.18 234.66 215.3 213.54 227.47 213.54 225.36"/><polygon class="cls-7" points="213.54 229.51 237.73 215.55 237.73 217.66 213.54 231.63 213.54 229.51"/><path class="cls-6" d="M234.25,172.8H234l-3.73-.38a2.54,2.54,0,0,0-2.79,2.52v9.58a4.71,4.71,0,0,0-1.52-.26,4.64,4.64,0,1,0,4.64,4.64V176a.69.69,0,0,1,.85-.68,7.41,7.41,0,0,0,3,.12l.18,0A1.35,1.35,0,0,0,234.25,172.8Z" transform="translate(-178.38 -19.33)"/><ellipse class="cls-2" cx="350.62" cy="68.57" rx="10.94" ry="6.19" transform="translate(-28.14 345.02) rotate(-66.95)"/><path class="cls-3" d="M349.4,64.09l5.51,1.06c.6.11.6,1.27,0,2.08l-5.51,7.42c-.6.81-1.36.67-1.36-.26V65.91C348,65,348.8,64,349.4,64.09Z" transform="translate(-178.38 -19.33)"/><ellipse class="cls-2" cx="360.35" cy="257.16" rx="10.94" ry="6.19" transform="translate(-195.76 468.72) rotate(-66.95)"/><path class="cls-3" d="M359.13,252.68l5.5,1.06c.6.12.6,1.28,0,2.09l-5.5,7.42c-.61.81-1.36.66-1.36-.27v-8.47C357.77,253.58,358.52,252.57,359.13,252.68Z" transform="translate(-178.38 -19.33)"/><path class="cls-7" d="M193.32,125.07c0,3.73-1.28,6.59-3.2,7.69-1.06.62-1.81.43-2.14-.57a6.23,6.23,0,0,1-2.67,3.35c-2,1.16-3.6,0-3.6-3.18s1.57-6.16,3.6-7.33c1-.59,1.84-.58,2.4,0h0a2.22,2.22,0,0,1,.92-1.76l.29-.16c.5-.3.92,0,.92.69v5.52c0,1,.32,1.14.75.9.71-.42,1.15-1.77,1.15-4.19,0-4.22-2.34-5.78-5.81-3.78s-5.8,6.51-5.8,10.86,2.28,6.26,5.74,4.26a11.15,11.15,0,0,0,2.36-1.88c.4-.42.84-.41,1,.05h0a1.8,1.8,0,0,1-.48,1.57,13.78,13.78,0,0,1-2.86,2.26c-4.51,2.6-7.49.24-7.49-5.25s3-11.23,7.55-13.85C190.32,117.73,193.32,119.85,193.32,125.07Zm-6.07,4c0-1.32-.6-1.72-1.42-1.25a3.3,3.3,0,0,0-1.41,2.88c0,1.3.58,1.76,1.41,1.28A3.32,3.32,0,0,0,187.25,129.07Z" transform="translate(-178.38 -19.33)"/><path class="cls-24" d="M301.14,278.61c-.8,1.53-2.09,2.28-2.89,1.67s-.8-2.33,0-3.85,2.09-2.27,2.89-1.67S301.94,277.09,301.14,278.61Z" transform="translate(-178.38 -19.33)"/><path class="cls-24" d="M303.06,272.87a.62.62,0,0,1-.71,0c-1.46-1.11-3.85.27-5.31,3.07-.4.75-1,1.12-1.43.82s-.4-1.15,0-1.9c2.25-4.31,5.92-6.42,8.17-4.72.39.3.39,1.15,0,1.91A2,2,0,0,1,303.06,272.87Z" transform="translate(-178.38 -19.33)"/><path class="cls-24" d="M305,268.23a.63.63,0,0,1-.72,0c-2.54-1.93-6.69.46-9.24,5.33-.39.76-1,1.12-1.42.83s-.4-1.15,0-1.91a16.84,16.84,0,0,1,6-6.83c2.29-1.32,4.44-1.37,6.05-.15.4.3.4,1.15,0,1.9A2,2,0,0,1,305,268.23Z" transform="translate(-178.38 -19.33)"/><path class="cls-24" d="M307,263.53a.62.62,0,0,1-.71,0c-3.65-2.75-9.57.67-13.21,7.63-.39.75-1,1.12-1.43.82s-.39-1.15,0-1.9a27.45,27.45,0,0,1,3.76-5.5,17.74,17.74,0,0,1,4.27-3.57,9.24,9.24,0,0,1,4.28-1.36,5.7,5.7,0,0,1,3.75,1.15c.4.3.4,1.15,0,1.91A1.88,1.88,0,0,1,307,263.53Z" transform="translate(-178.38 -19.33)"/><path class="cls-7" d="M256.68,266.22,254,264.63h0a1.51,1.51,0,0,0-1.54,0l-21.32,12.31a3.28,3.28,0,0,0-1.64,2.84v14.85a1.48,1.48,0,0,0,.74,1.3h0l2.72,1.61h0a1.5,1.5,0,0,0,1.52,0l15.45-9,3.45,2v-4l2.43-1.41a3.28,3.28,0,0,0,1.63-2.83V267.55A1.5,1.5,0,0,0,256.68,266.22Z" transform="translate(-178.38 -19.33)"/><path class="cls-3" d="M255.19,266.23l-21.32,12.31a3.28,3.28,0,0,0-1.64,2.84v14.85a1.52,1.52,0,0,0,2.28,1.31l15.45-9,3.45,2v-4l2.43-1.41a3.28,3.28,0,0,0,1.63-2.83V267.55A1.52,1.52,0,0,0,255.19,266.23Z" transform="translate(-178.38 -19.33)"/><path class="cls-6" d="M237.34,286.56a3.37,3.37,0,0,1,1.42-2.71c.78-.45,1.41,0,1.41,1.07a3.39,3.39,0,0,1-1.41,2.71C238,288.08,237.34,287.6,237.34,286.56Z" transform="translate(-178.38 -19.33)"/><path class="cls-6" d="M241.71,284a3.43,3.43,0,0,1,1.42-2.71c.78-.45,1.42,0,1.42,1.07a3.4,3.4,0,0,1-1.42,2.71C242.35,285.51,241.71,285,241.71,284Z" transform="translate(-178.38 -19.33)"/><path class="cls-6" d="M246.09,281.42a3.38,3.38,0,0,1,1.41-2.7c.79-.45,1.42,0,1.42,1.07a3.36,3.36,0,0,1-1.42,2.7C246.72,283,246.09,282.47,246.09,281.42Z" transform="translate(-178.38 -19.33)"/><path class="cls-6" d="M250.46,278.86a3.4,3.4,0,0,1,1.42-2.71c.78-.45,1.42,0,1.42,1.07a3.41,3.41,0,0,1-1.42,2.71C251.1,280.38,250.46,279.9,250.46,278.86Z" transform="translate(-178.38 -19.33)"/><path class="cls-6" d="M353.48,158.51l-5.55-3.2a9.92,9.92,0,0,0-9.86.09l-74,42.48a23,23,0,0,0-11.49,19.91v12.09a9.93,9.93,0,0,0,5.15,8.75h0l5.28,3.05Z" transform="translate(-178.38 -19.33)"/><path class="cls-7" d="M343.35,158.44l-74,42.49a23,23,0,0,0-11.49,19.91v12.09a10,10,0,0,0,15,8.68l74-42.48a23,23,0,0,0,11.5-19.91V167.13A10,10,0,0,0,343.35,158.44Z" transform="translate(-178.38 -19.33)"/><path class="cls-15" d="M284.76,191.91,279,188.55h0a1.52,1.52,0,0,0-1.66.4h0c-4.65,3.9-9.47,5.36-13.39,4.06l-2.41-.8c-.69-.23-1.59.29-2.28,1.31l-2.41,3.6c-3.92,5.82-8.74,9.92-13.39,11.39h0c-1.24.39-2.4,2.33-2.4,4v10.58c0,10.83,3.56,18.84,9.5,22.28h0l5.7,3.29Z" transform="translate(-178.38 -19.33)"/><path class="cls-14" d="M269.71,196.37l-2.42-.8c-.68-.23-1.58.29-2.27,1.31l-2.42,3.6c-3.91,5.82-8.73,9.92-13.38,11.39h0c-1.25.39-2.4,2.33-2.4,4v10.58c0,14.53,6.42,24,16.38,24.14h0c1.88,0,4-1.21,5.91-3.41h0c10-11.65,16.39-28.53,16.39-43.07V193.56c0-1.69-1.16-2.3-2.4-1.25h0C278.45,196.21,273.62,197.67,269.71,196.37Z" transform="translate(-178.38 -19.33)"/><path class="cls-3" d="M266.16,201.33l1.41.47c3.58,1.19,7.77.5,12.12-2q1-.58,2-1.29v7.83c0,12.52-5.55,27.09-14.13,37.12a5.41,5.41,0,0,1-1.41,1.22,2.76,2.76,0,0,1-1.41.41c-8.59-.12-14.13-8.29-14.13-20.81v-7.82c.67-.31,1.34-.65,2-1a38.44,38.44,0,0,0,12.12-12l1.41-2.1m0-5.57a3.55,3.55,0,0,0-1.14,1.12l-2.42,3.6a31.78,31.78,0,0,1-10,9.86,17.31,17.31,0,0,1-3.41,1.53h0a2.2,2.2,0,0,0-.39.17,4.83,4.83,0,0,0-2,3.85v10.58c0,14.53,6.42,24,16.38,24.14h0a5.89,5.89,0,0,0,3-.87,11.7,11.7,0,0,0,2.95-2.54h0c10-11.65,16.39-28.53,16.39-43.07V193.56c0-1.51-.93-2.16-2-1.53a3.16,3.16,0,0,0-.39.28h0a25.17,25.17,0,0,1-3.41,2.41c-3.54,2-7,2.64-10,1.65l-2.42-.8a1.39,1.39,0,0,0-1.13.19Z" transform="translate(-178.38 -19.33)"/><path class="cls-3" d="M265.76,232.68c-1,1.94-2.65,2.88-3.67,2.12l-6.23-4.72c-1-.77-1-3,0-4.9s2.66-2.89,3.67-2.12l4.4,3.32,8.86-16.93c1-1.92,2.66-3,3.69-2.31s1.09,3,.06,4.94Z" transform="translate(-178.38 -19.33)"/><text class="cls-25" transform="matrix(0.75, -0.43, 0, 1, 110.04, 193.01)">S<tspan class="cls-26" x="11.99" y="0">E</tspan><tspan class="cls-27" x="24.56" y="0">C</tspan><tspan x="38.22" y="0">URE</tspan></text><text class="cls-28" transform="matrix(0.75, -0.43, 0, 1, 109.85, 207.17)">SSL ENC<tspan class="cls-29" x="40.69" y="0">R</tspan><tspan class="cls-30" x="47.43" y="0">Y</tspan><tspan class="cls-31" x="53.65" y="0">P</tspan><tspan x="60.19" y="0">TION</tspan></text><path class="cls-18" d="M263.19,82.22a11,11,0,0,0-6.32-1.44A8,8,0,0,0,242.82,80a15.78,15.78,0,0,0-19.7,17.28A11.74,11.74,0,1,0,234.07,118h0l27.71-16s4.18-2.5,5.47-4.74A11.09,11.09,0,0,0,263.19,82.22Z" transform="translate(-178.38 -19.33)"/><path class="cls-3" d="M336.91,95.92a21.51,21.51,0,0,0-33.7-17.73,28.89,28.89,0,0,0-45.56,30.19,20.29,20.29,0,0,0,5.23,39.89c4.73,0,12.52-4.33,12.52-4.33l50.72-29.35v0A21.48,21.48,0,0,0,336.91,95.92Z" transform="translate(-178.38 -19.33)"/><path class="cls-8" d="M355.05,96.08a11,11,0,0,0-6.32-1.45,8,8,0,0,0-14.05-.76A15.79,15.79,0,0,0,315,111.15a11.61,11.61,0,0,0-5.11,4.72,11.74,11.74,0,0,0,16.06,16h0l27.71-16s4.18-2.5,5.47-4.73A11.07,11.07,0,0,0,355.05,96.08Z" transform="translate(-178.38 -19.33)"/><circle class="cls-8" cx="188.9" cy="78.59" r="5.77"/><path class="cls-16" d="M254.3,56.26a4.7,4.7,0,0,1-2.31-.53L226.46,41a1.27,1.27,0,0,1-.76-1.06v-8c0-.53.43-1.11,1.2-1.55l17-9.79a6.31,6.31,0,0,1,3.08-.77,4.85,4.85,0,0,1,2.32.52l25.53,14.74a1.29,1.29,0,0,1,.76,1.08l0,.48h0v7.56c0,.51-.43,1-1.19,1.49l-17,9.79A6.32,6.32,0,0,1,254.3,56.26Z" transform="translate(-178.38 -19.33)"/><path class="cls-6" d="M246.93,20.33a4.17,4.17,0,0,1,2.07.46l25.53,14.73c.19.12.52.35.51.63l0,1h0V44.2c0,.24-.24.66-.94,1.06l-17,9.8a5.88,5.88,0,0,1-2.84.7,4.27,4.27,0,0,1-2.06-.46L226.71,40.56c-.19-.11-.52-.34-.51-.64V33h.05l-.05-1.14c0-.24.23-.67.95-1.08l17-9.79a5.87,5.87,0,0,1,2.83-.7m0-1a6.83,6.83,0,0,0-3.33.83l-17,9.8a2.36,2.36,0,0,0-1.45,2h0v8a1.72,1.72,0,0,0,1,1.51l25.53,14.74a5.29,5.29,0,0,0,2.56.59,6.87,6.87,0,0,0,3.34-.84l17-9.79A2.4,2.4,0,0,0,276,44.21v-8h0a1.74,1.74,0,0,0-1-1.53L249.5,19.92a5.19,5.19,0,0,0-2.57-.59Z" transform="translate(-178.38 -19.33)"/><path class="cls-6" d="M246.93,20.4h0a4.24,4.24,0,0,1,2,.44l25.53,14.74c.15.09.49.31.49.56s-.28.64-.91,1l-17,9.79a5.76,5.76,0,0,1-2.81.69,4.15,4.15,0,0,1-2-.44L226.75,32.44c-.15-.09-.49-.31-.49-.56s.28-.64.91-1l17-9.79a5.75,5.75,0,0,1,2.8-.69m0-1.07a6.83,6.83,0,0,0-3.33.83l-17,9.8c-1.75,1-1.94,2.53-.43,3.4L251.74,48.1a5.18,5.18,0,0,0,2.56.59,6.86,6.86,0,0,0,3.34-.83l17-9.79c1.75-1,1.94-2.54.43-3.41L249.5,19.92a5.19,5.19,0,0,0-2.57-.59Z" transform="translate(-178.38 -19.33)"/><path class="cls-13" d="M248.28,50.07a2.43,2.43,0,0,0,1,1.94c.56.32,1,0,1-.77a2.42,2.42,0,0,0-1-1.93C248.74,49,248.28,49.33,248.28,50.07Z" transform="translate(-178.38 -19.33)"/><path class="cls-13" d="M245.32,48.35a2.42,2.42,0,0,0,1,1.94c.56.32,1,0,1-.77a2.42,2.42,0,0,0-1-1.93C245.77,47.26,245.32,47.61,245.32,48.35Z" transform="translate(-178.38 -19.33)"/><path class="cls-13" d="M242.35,46.63a2.43,2.43,0,0,0,1,1.94c.56.33,1,0,1-.76a2.42,2.42,0,0,0-1-1.94C242.81,45.54,242.35,45.89,242.35,46.63Z" transform="translate(-178.38 -19.33)"/><path class="cls-13" d="M239.39,44.91a2.42,2.42,0,0,0,1,1.94c.56.33,1,0,1-.76a2.43,2.43,0,0,0-1-1.94C239.84,43.82,239.39,44.17,239.39,44.91Z" transform="translate(-178.38 -19.33)"/><path class="cls-13" d="M227.26,38A3.84,3.84,0,0,0,228.87,41c.89.52,1.61,0,1.61-1.21a3.85,3.85,0,0,0-1.61-3.08C228,36.23,227.26,36.77,227.26,38Z" transform="translate(-178.38 -19.33)"/><path class="cls-3" d="M407.29,19.62,394.58,27a4.84,4.84,0,0,0-2.41,4.19V45.65a2.11,2.11,0,0,0,3.16,1.83L408,40.15A4.84,4.84,0,0,0,410.45,36V21.44A2.1,2.1,0,0,0,407.29,19.62Z" transform="translate(-178.38 -19.33)"/><polygon class="cls-7" points="215.24 10.77 230.62 1.89 230.62 16.08 215.24 24.96 215.24 10.77"/><polygon class="cls-14" points="230.62 12.31 224.61 10.07 215.24 21.2 230.62 12.31"/><path class="cls-10" d="M396.06,32.58a3.17,3.17,0,0,1,1.33-2.53c.73-.43,1.33,0,1.33,1a3.17,3.17,0,0,1-1.33,2.53C396.66,34,396.06,33.56,396.06,32.58Z" transform="translate(-178.38 -19.33)"/><polygon class="cls-6" points="215.24 21.2 230.62 12.31 230.62 16.08 215.24 24.96 215.24 21.2"/><path class="cls-3" d="M396.83,248.38,377,259.8a7.54,7.54,0,0,0-3.77,6.52v22.62a3.29,3.29,0,0,0,4.93,2.84L398,280.36a7.55,7.55,0,0,0,3.77-6.53V251.22A3.28,3.28,0,0,0,396.83,248.38Z" transform="translate(-178.38 -19.33)"/><polygon class="cls-7" points="197.15 245.38 221.11 231.54 221.11 253.64 197.15 267.48 197.15 245.38"/><polygon class="cls-14" points="221.11 247.78 211.75 244.29 197.15 261.62 221.11 247.78"/><path class="cls-10" d="M379.34,268.57a5,5,0,0,1,2.07-3.95c1.14-.66,2.06,0,2.06,1.56a4.94,4.94,0,0,1-2.06,3.95C380.27,270.79,379.34,270.09,379.34,268.57Z" transform="translate(-178.38 -19.33)"/><polygon class="cls-6" points="197.15 261.62 221.11 247.78 221.11 253.64 197.15 267.48 197.15 261.62"/><path class="cls-6" d="M234.43,300.22l-2.85-1.66a1.15,1.15,0,0,0-1.24.07l-25.75,14.86a4.4,4.4,0,0,0-1.83,3.5v26.17a1.54,1.54,0,0,0,.73,1.52l2,1.15.69.41,1,.08v3.05a.57.57,0,0,0,.29.51h0l2.85,1.64Z" transform="translate(-178.38 -19.33)"/><path class="cls-3" d="M233.17,300.28l-25.74,14.86a4.4,4.4,0,0,0-1.83,3.5v26.17c0,1.34.82,2,1.83,1.38l2.57-1.48V351a.6.6,0,0,0,1.11.3l6.19-10.82,15.87-9.16a4.37,4.37,0,0,0,1.83-3.5V301.66C235,300.32,234.19,299.7,233.17,300.28Z" transform="translate(-178.38 -19.33)"/><polygon class="cls-2" points="36.29 310.95 30.46 314.32 30.46 320.3 36.29 316.93 36.29 310.95"/><polygon class="cls-11" points="44.55 296.31 38.72 299.68 38.72 315.54 44.55 312.17 44.55 296.31"/><polygon class="cls-14" points="52.81 285.96 46.97 289.33 46.97 310.77 52.81 307.4 52.81 285.96"/><path class="cls-6" d="M231.3,244.79l-2.85-1.66a1.15,1.15,0,0,0-1.24.06l-25.74,14.87a4.38,4.38,0,0,0-1.83,3.49v26.17a1.53,1.53,0,0,0,.73,1.53l2,1.15.69.4,1,.08v3.06a.59.59,0,0,0,.28.51h0l2.85,1.64Z" transform="translate(-178.38 -19.33)"/><path class="cls-3" d="M230.05,244.85l-25.74,14.86a4.36,4.36,0,0,0-1.83,3.5v26.16c0,1.35.81,2,1.83,1.39l2.57-1.49v6.31a.59.59,0,0,0,1.1.29l6.2-10.81,15.87-9.17a4.38,4.38,0,0,0,1.83-3.49V246.23C231.88,244.88,231.06,244.26,230.05,244.85Z" transform="translate(-178.38 -19.33)"/><polygon class="cls-7" points="26.78 244.28 50.81 230.41 50.81 252.56 26.78 266.43 26.78 244.28"/><polygon class="cls-14" points="50.81 246.69 41.41 243.19 26.78 260.56 50.81 246.69"/><path class="cls-10" d="M209,267.48a5,5,0,0,1,2.07-4c1.15-.66,2.08,0,2.08,1.57a5,5,0,0,1-2.08,4C209.91,269.71,209,269,209,267.48Z" transform="translate(-178.38 -19.33)"/><polygon class="cls-6" points="26.78 260.56 50.81 246.69 50.81 252.56 26.78 266.43 26.78 260.56"/><path class="cls-14" d="M308.29,150.48c0,8.43-5.12,18.22-11.44,21.87s-11.45-.23-11.45-8.66,5.13-18.21,11.45-21.86S308.29,142.05,308.29,150.48Z" transform="translate(-178.38 -19.33)"/><path class="cls-6" d="M302.05,151.29h0v-1.6c0-3.81-2.33-5.57-5.19-3.92s-5.19,6.1-5.19,9.92v1.59h0a2.83,2.83,0,0,0-1.18,2.25v9.3c0,.87.53,1.27,1.18.89l10.41-6a2.81,2.81,0,0,0,1.18-2.25v-9.3C303.23,151.31,302.7,150.91,302.05,151.29Zm-4.44,9.31v1.6a1.83,1.83,0,0,1-.76,1.46c-.42.24-.76,0-.76-.58v-1.6c-.38-.11-.63-.54-.63-1.19a3.35,3.35,0,0,1,1.39-2.66c.77-.44,1.39,0,1.39,1.06A3.51,3.51,0,0,1,297.61,160.6Zm2.59-8.24-6.71,3.87v-1.59a8,8,0,0,1,3.36-6.41c1.85-1.07,3.35.07,3.35,2.53Z" transform="translate(-178.38 -19.33)"/></svg>