<svg id="Layer_1" data-name="Layer 1" xmlns="http://www.w3.org/2000/svg" viewBox="0 0 1140 512"><defs><style>.cls-1,.cls-11,.cls-2,.cls-9{fill:#e2e0e0;}.cls-2{font-size:53.83px;}.cls-11,.cls-2,.cls-9{font-family:VersatyloRoundedRegular, Versatylo Rounded;}.cls-3{letter-spacing:-0.02em;}.cls-4{letter-spacing:-0.04em;}.cls-5{letter-spacing:0.01em;}.cls-6{letter-spacing:-0.03em;}.cls-7{letter-spacing:0em;}.cls-8{letter-spacing:-0.14em;}.cls-11,.cls-9{font-size:115.37px;}.cls-10{letter-spacing:-0.03em;}.cls-11{letter-spacing:-0.01em;}.cls-12{letter-spacing:-0.01em;}.cls-13{letter-spacing:0.01em;}.cls-14{letter-spacing:0em;}</style></defs><path class="cls-1" d="M204.49,210.32a74.52,74.52,0,0,1-7.51,9.05,78.67,78.67,0,0,1-30.07,19.34A79.44,79.44,0,0,1,123,241.27a78.9,78.9,0,0,0,25.33-13.36,1.1,1.1,0,0,0-.22-1.82c-1.83-.88-3.72-1.75-5.7-2.48a16.83,16.83,0,0,0-14.59,1.31,76.73,76.73,0,0,0-16.2,12.85,65,65,0,0,0-5.92,6.78A78.43,78.43,0,0,0,89.4,295.42c.14,2.63.36,5.26.73,7.81.22,1.61.51,3.29.8,4.82a13.64,13.64,0,0,0,.37,1.75c-.37-.58-.66-1-1-1.61-.87-1.38-1.67-2.91-2.48-4.37a78.17,78.17,0,0,1-9.19-33.94V266.3a33,33,0,0,1,.14-3.72,74.12,74.12,0,0,1,3.58-19.71,77.35,77.35,0,0,1,8.17-17.59c.88-1.38,1.76-2.7,2.7-4a78.86,78.86,0,0,1,81.31-31.09,84.15,84.15,0,0,1,12.62,4c1.61.66,3.14,1.39,4.75,2.12a76.92,76.92,0,0,1,11.46,6.93A5.12,5.12,0,0,1,204.49,210.32Z"/><path class="cls-1" d="M231.06,259.68a77.49,77.49,0,0,1-11.75,44.19c-.85,1.36-1.72,2.68-2.66,4a77.82,77.82,0,0,1-109.1,17.86,5.11,5.11,0,0,1-1.13-7.09,79.22,79.22,0,0,1,7.44-8.92A78,78,0,0,1,187.17,288a77.74,77.74,0,0,0-25.09,13.21,1.11,1.11,0,0,0,.21,1.86c1.63.78,3.29,1.51,5,2.17a17.26,17.26,0,0,0,15.21-1.09,78,78,0,0,0,37.9-69.83,77.48,77.48,0,0,0-1.85-14.17A77.42,77.42,0,0,1,231.06,259.68Z"/><path class="cls-1" d="M94.5,316.24c1.06-4,2.23-8,3.48-11.9s2.58-7.84,4-11.71,3-7.7,4.81-11.47c.89-1.88,1.84-3.74,2.87-5.57a50.89,50.89,0,0,1,3.41-5.36,24.34,24.34,0,0,1,4.51-4.82,11.66,11.66,0,0,1,3.11-1.77,7.71,7.71,0,0,1,3.83-.41,44.08,44.08,0,0,1,6.19,1.53c2,.64,3.94,1.35,5.86,2.09,7.7,3,15.12,6.39,22.79,8.95,1.92.63,3.85,1.2,5.79,1.63a23.15,23.15,0,0,0,5.8.62,8.73,8.73,0,0,0,2.68-.51,5.63,5.63,0,0,0,1.15-.58,9.07,9.07,0,0,0,1-.89,42.18,42.18,0,0,0,3.81-4.59c2.4-3.26,4.63-6.69,6.83-10.12s4.33-6.93,6.43-10.43c4.21-7,8.3-14.09,12.34-21.21s8-14.26,11.95-21.44a.1.1,0,0,1,.13,0,.08.08,0,0,1,0,.12q-5.66,10.9-11.46,21.72c-3.88,7.21-7.81,14.38-11.87,21.5-2,3.56-4.09,7.1-6.21,10.61s-4.29,7-6.67,10.37a41.63,41.63,0,0,1-3.91,4.93,9.42,9.42,0,0,1-1.27,1.14,7.6,7.6,0,0,1-1.56.84,10.85,10.85,0,0,1-3.31.71,25.07,25.07,0,0,1-6.39-.52,61.1,61.1,0,0,1-6.06-1.55c-7.92-2.45-15.45-5.73-23.1-8.47-1.91-.68-3.82-1.33-5.74-1.89a40.42,40.42,0,0,0-5.74-1.3,4.46,4.46,0,0,0-2.2.31,8.43,8.43,0,0,0-2.16,1.32,16.26,16.26,0,0,0-2,1.93c-.62.72-1.21,1.49-1.77,2.28a51.1,51.1,0,0,0-3.06,5.06c-.94,1.76-1.8,3.57-2.62,5.4-1.64,3.67-3.09,7.45-4.42,11.27s-2.57,7.69-3.71,11.59S100,313.45,99,317.35v0a2.33,2.33,0,0,1-4.54-1.09Z"/><path class="cls-1" d="M221.24,200.86a42.44,42.44,0,0,0,.27,13.7l-4.75-5.26-7-1A42.36,42.36,0,0,0,221.24,200.86Z"/><text class="cls-2" transform="translate(290.36 330.12)">The Soul <tspan class="cls-3" x="235.76" y="0">o</tspan><tspan x="265.15" y="0">f </tspan><tspan class="cls-4" x="304.98" y="0">F</tspan><tspan x="337.17" y="0">u</tspan><tspan class="cls-5" x="368.98" y="0">t</tspan><tspan x="389.48" y="0">u</tspan><tspan class="cls-6" x="421.29" y="0">r</tspan><tspan class="cls-7" x="438.36" y="0">e </tspan><tspan class="cls-8" x="484.43" y="0">T</tspan><tspan x="512.48" y="0">echnology</tspan></text><text class="cls-9" transform="translate(287.93 269.97)">eco<tspan class="cls-10" x="190.35" y="0">r</tspan><tspan x="226.92" y="0">e</tspan></text><text class="cls-11" transform="translate(602.48 269.97)">t<tspan class="cls-12" x="41.53" y="0">echse</tspan><tspan class="cls-13" x="354.86" y="0">r</tspan><tspan class="cls-14" x="395.47" y="0">v</tspan></text></svg>